<?xml version="1.0" encoding="utf-8" standalone="no"?>
<!DOCTYPE svg PUBLIC "-//W3C//DTD SVG 1.1//EN"
  "http://www.w3.org/Graphics/SVG/1.1/DTD/svg11.dtd">
<!-- Created with matplotlib (https://matplotlib.org/) -->
<svg height="720pt" version="1.1" viewBox="0 0 720 720" width="720pt" xmlns="http://www.w3.org/2000/svg" xmlns:xlink="http://www.w3.org/1999/xlink">
 <defs>
  <style type="text/css">
*{stroke-linecap:butt;stroke-linejoin:round;}
  </style>
 </defs>
 <g id="figure_1">
  <g id="patch_1">
   <path d="M 0 720 
L 720 720 
L 720 0 
L 0 0 
z
" style="fill:#ffffff;"/>
  </g>
  <g id="axes_1">
   <g id="patch_2">
    <path d="M 640.8 358.2 
C 640.8 322.507551 633.769366 287.162166 620.110457 254.186643 
C 606.451548 221.21112 586.429996 191.24675 561.191623 166.008377 
C 535.95325 140.770004 505.98888 120.748452 473.013357 107.089543 
C 440.037834 93.430634 404.692449 86.4 369 86.4 
C 333.307551 86.4 297.962166 93.430634 264.986643 107.089543 
C 232.01112 120.748452 202.04675 140.770004 176.808377 166.008377 
C 151.570004 191.24675 131.548452 221.21112 117.889543 254.186643 
C 104.230634 287.162166 97.2 322.507551 97.2 358.2 
C 97.2 393.892449 104.230634 429.237834 117.889543 462.213357 
C 131.548452 495.18888 151.570004 525.15325 176.808377 550.391623 
C 202.04675 575.629996 232.01112 595.651548 264.986643 609.310457 
C 297.962166 622.969366 333.307551 630 369 630 
C 404.692449 630 440.037834 622.969366 473.013357 609.310457 
C 505.98888 595.651548 535.95325 575.629996 561.191623 550.391623 
C 586.429996 525.15325 606.451548 495.18888 620.110457 462.213357 
C 633.769366 429.237834 640.8 393.892449 640.8 358.2 
M 369 358.2 
C 369 358.2 369 358.2 369 358.2 
C 369 358.2 369 358.2 369 358.2 
C 369 358.2 369 358.2 369 358.2 
C 369 358.2 369 358.2 369 358.2 
C 369 358.2 369 358.2 369 358.2 
C 369 358.2 369 358.2 369 358.2 
C 369 358.2 369 358.2 369 358.2 
C 369 358.2 369 358.2 369 358.2 
C 369 358.2 369 358.2 369 358.2 
C 369 358.2 369 358.2 369 358.2 
C 369 358.2 369 358.2 369 358.2 
C 369 358.2 369 358.2 369 358.2 
C 369 358.2 369 358.2 369 358.2 
C 369 358.2 369 358.2 369 358.2 
C 369 358.2 369 358.2 369 358.2 
C 369 358.2 369 358.2 369 358.2 
M 640.8 358.2 
z
" style="fill:#eaeaf2;"/>
   </g>
   <g id="matplotlib.axis_1">
    <g id="xtick_1">
     <g id="line2d_1">
      <path clip-path="url(#pe557c992a8)" d="M 369 358.2 
L 640.8 358.2 
" style="fill:none;stroke:#ffffff;stroke-linecap:round;"/>
     </g>
     <g id="text_1">
      <!-- 0° -->
      <defs>
       <path d="M 4.15625 35.296875 
Q 4.15625 48 6.765625 55.734375 
Q 9.375 63.484375 14.515625 67.671875 
Q 19.671875 71.875 27.484375 71.875 
Q 33.25 71.875 37.59375 69.546875 
Q 41.9375 67.234375 44.765625 62.859375 
Q 47.609375 58.5 49.21875 52.21875 
Q 50.828125 45.953125 50.828125 35.296875 
Q 50.828125 22.703125 48.234375 14.96875 
Q 45.65625 7.234375 40.5 3 
Q 35.359375 -1.21875 27.484375 -1.21875 
Q 17.140625 -1.21875 11.234375 6.203125 
Q 4.15625 15.140625 4.15625 35.296875 
z
M 13.1875 35.296875 
Q 13.1875 17.671875 17.3125 11.828125 
Q 21.4375 6 27.484375 6 
Q 33.546875 6 37.671875 11.859375 
Q 41.796875 17.71875 41.796875 35.296875 
Q 41.796875 52.984375 37.671875 58.78125 
Q 33.546875 64.59375 27.390625 64.59375 
Q 21.34375 64.59375 17.71875 59.46875 
Q 13.1875 52.9375 13.1875 35.296875 
z
" id="ArialMT-48"/>
       <path d="M 6.25 59.28125 
Q 6.25 64.890625 10.21875 68.84375 
Q 14.203125 72.796875 19.78125 72.796875 
Q 25.4375 72.796875 29.390625 68.84375 
Q 33.34375 64.890625 33.34375 59.28125 
Q 33.34375 53.65625 29.359375 49.671875 
Q 25.390625 45.703125 19.78125 45.703125 
Q 14.203125 45.703125 10.21875 49.65625 
Q 6.25 53.609375 6.25 59.28125 
z
M 11.578125 59.28125 
Q 11.578125 55.859375 13.984375 53.4375 
Q 16.40625 51.03125 19.828125 51.03125 
Q 23.1875 51.03125 25.609375 53.4375 
Q 28.03125 55.859375 28.03125 59.28125 
Q 28.03125 62.703125 25.609375 65.109375 
Q 23.1875 67.53125 19.828125 67.53125 
Q 16.40625 67.53125 13.984375 65.109375 
Q 11.578125 62.703125 11.578125 59.28125 
z
" id="ArialMT-176"/>
      </defs>
      <g style="fill:#262626;" transform="translate(652.042344 361.043672)scale(0.11 -0.11)">
       <use xlink:href="#ArialMT-48"/>
       <use x="55.615234" xlink:href="#ArialMT-176"/>
      </g>
     </g>
    </g>
    <g id="xtick_2">
     <g id="line2d_2">
      <path clip-path="url(#pe557c992a8)" d="M 369 358.2 
L 561.191623 166.008377 
" style="fill:none;stroke:#ffffff;stroke-linecap:round;"/>
     </g>
     <g id="text_2">
      <!-- 45° -->
      <defs>
       <path d="M 32.328125 0 
L 32.328125 17.140625 
L 1.265625 17.140625 
L 1.265625 25.203125 
L 33.9375 71.578125 
L 41.109375 71.578125 
L 41.109375 25.203125 
L 50.78125 25.203125 
L 50.78125 17.140625 
L 41.109375 17.140625 
L 41.109375 0 
z
M 32.328125 25.203125 
L 32.328125 57.46875 
L 9.90625 25.203125 
z
" id="ArialMT-52"/>
       <path d="M 4.15625 18.75 
L 13.375 19.53125 
Q 14.40625 12.796875 18.140625 9.390625 
Q 21.875 6 27.15625 6 
Q 33.5 6 37.890625 10.78125 
Q 42.28125 15.578125 42.28125 23.484375 
Q 42.28125 31 38.0625 35.34375 
Q 33.84375 39.703125 27 39.703125 
Q 22.75 39.703125 19.328125 37.765625 
Q 15.921875 35.84375 13.96875 32.765625 
L 5.71875 33.84375 
L 12.640625 70.609375 
L 48.25 70.609375 
L 48.25 62.203125 
L 19.671875 62.203125 
L 15.828125 42.96875 
Q 22.265625 47.46875 29.34375 47.46875 
Q 38.71875 47.46875 45.15625 40.96875 
Q 51.609375 34.46875 51.609375 24.265625 
Q 51.609375 14.546875 45.953125 7.46875 
Q 39.0625 -1.21875 27.15625 -1.21875 
Q 17.390625 -1.21875 11.203125 4.25 
Q 5.03125 9.71875 4.15625 18.75 
z
" id="ArialMT-53"/>
      </defs>
      <g style="fill:#262626;" transform="translate(564.542713 157.184787)scale(0.11 -0.11)">
       <use xlink:href="#ArialMT-52"/>
       <use x="55.615234" xlink:href="#ArialMT-53"/>
       <use x="111.230469" xlink:href="#ArialMT-176"/>
      </g>
     </g>
    </g>
    <g id="xtick_3">
     <g id="line2d_3">
      <path clip-path="url(#pe557c992a8)" d="M 369 358.2 
L 369 86.4 
" style="fill:none;stroke:#ffffff;stroke-linecap:round;"/>
     </g>
     <g id="text_3">
      <!-- 90° -->
      <defs>
       <path d="M 5.46875 16.546875 
L 13.921875 17.328125 
Q 14.984375 11.375 18.015625 8.6875 
Q 21.046875 6 25.78125 6 
Q 29.828125 6 32.875 7.859375 
Q 35.9375 9.71875 37.890625 12.8125 
Q 39.84375 15.921875 41.15625 21.1875 
Q 42.484375 26.46875 42.484375 31.9375 
Q 42.484375 32.515625 42.4375 33.6875 
Q 39.796875 29.5 35.234375 26.875 
Q 30.671875 24.265625 25.34375 24.265625 
Q 16.453125 24.265625 10.296875 30.703125 
Q 4.15625 37.15625 4.15625 47.703125 
Q 4.15625 58.59375 10.578125 65.234375 
Q 17 71.875 26.65625 71.875 
Q 33.640625 71.875 39.421875 68.109375 
Q 45.21875 64.359375 48.21875 57.390625 
Q 51.21875 50.4375 51.21875 37.25 
Q 51.21875 23.53125 48.234375 15.40625 
Q 45.265625 7.28125 39.375 3.03125 
Q 33.5 -1.21875 25.59375 -1.21875 
Q 17.1875 -1.21875 11.859375 3.4375 
Q 6.546875 8.109375 5.46875 16.546875 
z
M 41.453125 48.140625 
Q 41.453125 55.71875 37.421875 60.15625 
Q 33.40625 64.59375 27.734375 64.59375 
Q 21.875 64.59375 17.53125 59.8125 
Q 13.1875 55.03125 13.1875 47.40625 
Q 13.1875 40.578125 17.3125 36.296875 
Q 21.4375 32.03125 27.484375 32.03125 
Q 33.59375 32.03125 37.515625 36.296875 
Q 41.453125 40.578125 41.453125 48.140625 
z
" id="ArialMT-57"/>
      </defs>
      <g style="fill:#262626;" transform="translate(360.683828 72.743672)scale(0.11 -0.11)">
       <use xlink:href="#ArialMT-57"/>
       <use x="55.615234" xlink:href="#ArialMT-48"/>
       <use x="111.230469" xlink:href="#ArialMT-176"/>
      </g>
     </g>
    </g>
    <g id="xtick_4">
     <g id="line2d_4">
      <path clip-path="url(#pe557c992a8)" d="M 369 358.2 
L 176.808377 166.008377 
" style="fill:none;stroke:#ffffff;stroke-linecap:round;"/>
     </g>
     <g id="text_4">
      <!-- 135° -->
      <defs>
       <path d="M 37.25 0 
L 28.46875 0 
L 28.46875 56 
Q 25.296875 52.984375 20.140625 49.953125 
Q 14.984375 46.921875 10.890625 45.40625 
L 10.890625 53.90625 
Q 18.265625 57.375 23.78125 62.296875 
Q 29.296875 67.234375 31.59375 71.875 
L 37.25 71.875 
z
" id="ArialMT-49"/>
       <path d="M 4.203125 18.890625 
L 12.984375 20.0625 
Q 14.5 12.59375 18.140625 9.296875 
Q 21.78125 6 27 6 
Q 33.203125 6 37.46875 10.296875 
Q 41.75 14.59375 41.75 20.953125 
Q 41.75 27 37.796875 30.921875 
Q 33.84375 34.859375 27.734375 34.859375 
Q 25.25 34.859375 21.53125 33.890625 
L 22.515625 41.609375 
Q 23.390625 41.5 23.921875 41.5 
Q 29.546875 41.5 34.03125 44.421875 
Q 38.53125 47.359375 38.53125 53.46875 
Q 38.53125 58.296875 35.25 61.46875 
Q 31.984375 64.65625 26.8125 64.65625 
Q 21.6875 64.65625 18.265625 61.421875 
Q 14.84375 58.203125 13.875 51.765625 
L 5.078125 53.328125 
Q 6.6875 62.15625 12.390625 67.015625 
Q 18.109375 71.875 26.609375 71.875 
Q 32.46875 71.875 37.390625 69.359375 
Q 42.328125 66.84375 44.9375 62.5 
Q 47.5625 58.15625 47.5625 53.265625 
Q 47.5625 48.640625 45.0625 44.828125 
Q 42.578125 41.015625 37.703125 38.765625 
Q 44.046875 37.3125 47.5625 32.6875 
Q 51.078125 28.078125 51.078125 21.140625 
Q 51.078125 11.765625 44.234375 5.25 
Q 37.40625 -1.265625 26.953125 -1.265625 
Q 17.53125 -1.265625 11.296875 4.34375 
Q 5.078125 9.96875 4.203125 18.890625 
z
" id="ArialMT-51"/>
      </defs>
      <g style="fill:#262626;" transform="translate(153.766427 157.184787)scale(0.11 -0.11)">
       <use xlink:href="#ArialMT-49"/>
       <use x="55.615234" xlink:href="#ArialMT-51"/>
       <use x="111.230469" xlink:href="#ArialMT-53"/>
       <use x="166.845703" xlink:href="#ArialMT-176"/>
      </g>
     </g>
    </g>
    <g id="xtick_5">
     <g id="line2d_5">
      <path clip-path="url(#pe557c992a8)" d="M 369 358.2 
L 97.2 358.2 
" style="fill:none;stroke:#ffffff;stroke-linecap:round;"/>
     </g>
     <g id="text_5">
      <!-- 180° -->
      <defs>
       <path d="M 17.671875 38.8125 
Q 12.203125 40.828125 9.5625 44.53125 
Q 6.9375 48.25 6.9375 53.421875 
Q 6.9375 61.234375 12.546875 66.546875 
Q 18.171875 71.875 27.484375 71.875 
Q 36.859375 71.875 42.578125 66.421875 
Q 48.296875 60.984375 48.296875 53.171875 
Q 48.296875 48.1875 45.671875 44.5 
Q 43.0625 40.828125 37.75 38.8125 
Q 44.34375 36.671875 47.78125 31.875 
Q 51.21875 27.09375 51.21875 20.453125 
Q 51.21875 11.28125 44.71875 5.03125 
Q 38.234375 -1.21875 27.640625 -1.21875 
Q 17.046875 -1.21875 10.546875 5.046875 
Q 4.046875 11.328125 4.046875 20.703125 
Q 4.046875 27.6875 7.59375 32.390625 
Q 11.140625 37.109375 17.671875 38.8125 
z
M 15.921875 53.71875 
Q 15.921875 48.640625 19.1875 45.40625 
Q 22.46875 42.1875 27.6875 42.1875 
Q 32.765625 42.1875 36.015625 45.375 
Q 39.265625 48.578125 39.265625 53.21875 
Q 39.265625 58.0625 35.90625 61.359375 
Q 32.5625 64.65625 27.59375 64.65625 
Q 22.5625 64.65625 19.234375 61.421875 
Q 15.921875 58.203125 15.921875 53.71875 
z
M 13.09375 20.65625 
Q 13.09375 16.890625 14.875 13.375 
Q 16.65625 9.859375 20.171875 7.921875 
Q 23.6875 6 27.734375 6 
Q 34.03125 6 38.125 10.046875 
Q 42.234375 14.109375 42.234375 20.359375 
Q 42.234375 26.703125 38.015625 30.859375 
Q 33.796875 35.015625 27.4375 35.015625 
Q 21.234375 35.015625 17.15625 30.90625 
Q 13.09375 26.8125 13.09375 20.65625 
z
" id="ArialMT-56"/>
      </defs>
      <g style="fill:#262626;" transform="translate(69.325312 361.043672)scale(0.11 -0.11)">
       <use xlink:href="#ArialMT-49"/>
       <use x="55.615234" xlink:href="#ArialMT-56"/>
       <use x="111.230469" xlink:href="#ArialMT-48"/>
       <use x="166.845703" xlink:href="#ArialMT-176"/>
      </g>
     </g>
    </g>
    <g id="xtick_6">
     <g id="line2d_6">
      <path clip-path="url(#pe557c992a8)" d="M 369 358.2 
L 176.808377 550.391623 
" style="fill:none;stroke:#ffffff;stroke-linecap:round;"/>
     </g>
     <g id="text_6">
      <!-- 225° -->
      <defs>
       <path d="M 50.34375 8.453125 
L 50.34375 0 
L 3.03125 0 
Q 2.9375 3.171875 4.046875 6.109375 
Q 5.859375 10.9375 9.828125 15.625 
Q 13.8125 20.3125 21.34375 26.46875 
Q 33.015625 36.03125 37.109375 41.625 
Q 41.21875 47.21875 41.21875 52.203125 
Q 41.21875 57.421875 37.46875 61 
Q 33.734375 64.59375 27.734375 64.59375 
Q 21.390625 64.59375 17.578125 60.78125 
Q 13.765625 56.984375 13.71875 50.25 
L 4.6875 51.171875 
Q 5.609375 61.28125 11.65625 66.578125 
Q 17.71875 71.875 27.9375 71.875 
Q 38.234375 71.875 44.234375 66.15625 
Q 50.25 60.453125 50.25 52 
Q 50.25 47.703125 48.484375 43.546875 
Q 46.734375 39.40625 42.65625 34.8125 
Q 38.578125 30.21875 29.109375 22.21875 
Q 21.1875 15.578125 18.9375 13.203125 
Q 16.703125 10.84375 15.234375 8.453125 
z
" id="ArialMT-50"/>
      </defs>
      <g style="fill:#262626;" transform="translate(153.766427 564.902557)scale(0.11 -0.11)">
       <use xlink:href="#ArialMT-50"/>
       <use x="55.615234" xlink:href="#ArialMT-50"/>
       <use x="111.230469" xlink:href="#ArialMT-53"/>
       <use x="166.845703" xlink:href="#ArialMT-176"/>
      </g>
     </g>
    </g>
    <g id="xtick_7">
     <g id="line2d_7">
      <path clip-path="url(#pe557c992a8)" d="M 369 358.2 
L 369 630 
" style="fill:none;stroke:#ffffff;stroke-linecap:round;"/>
     </g>
     <g id="text_7">
      <!-- 270° -->
      <defs>
       <path d="M 4.734375 62.203125 
L 4.734375 70.65625 
L 51.078125 70.65625 
L 51.078125 63.8125 
Q 44.234375 56.546875 37.515625 44.484375 
Q 30.8125 32.421875 27.15625 19.671875 
Q 24.515625 10.6875 23.78125 0 
L 14.75 0 
Q 14.890625 8.453125 18.0625 20.40625 
Q 21.234375 32.375 27.171875 43.484375 
Q 33.109375 54.59375 39.796875 62.203125 
z
" id="ArialMT-55"/>
      </defs>
      <g style="fill:#262626;" transform="translate(357.625312 649.343672)scale(0.11 -0.11)">
       <use xlink:href="#ArialMT-50"/>
       <use x="55.615234" xlink:href="#ArialMT-55"/>
       <use x="111.230469" xlink:href="#ArialMT-48"/>
       <use x="166.845703" xlink:href="#ArialMT-176"/>
      </g>
     </g>
    </g>
    <g id="xtick_8">
     <g id="line2d_8">
      <path clip-path="url(#pe557c992a8)" d="M 369 358.2 
L 561.191623 550.391623 
" style="fill:none;stroke:#ffffff;stroke-linecap:round;"/>
     </g>
     <g id="text_8">
      <!-- 315° -->
      <g style="fill:#262626;" transform="translate(561.484198 564.902557)scale(0.11 -0.11)">
       <use xlink:href="#ArialMT-51"/>
       <use x="55.615234" xlink:href="#ArialMT-49"/>
       <use x="111.230469" xlink:href="#ArialMT-53"/>
       <use x="166.845703" xlink:href="#ArialMT-176"/>
      </g>
     </g>
    </g>
   </g>
   <g id="matplotlib.axis_2">
    <g id="ytick_1">
     <g id="line2d_9">
      <path clip-path="url(#pe557c992a8)" d="M 380.859373 358.2 
L 380.743959 356.549494 
L 380.399961 354.931114 
L 379.834077 353.376358 
L 379.057319 351.91549 
L 378.084807 350.576942 
L 376.93547 349.386768 
L 375.631677 348.368134 
L 374.198807 347.540866 
L 372.664748 346.921066 
L 371.059359 346.520797 
L 369.413886 346.347851 
L 367.760358 346.405594 
L 366.130958 346.692901 
L 364.557401 347.204181 
L 363.070313 347.929481 
L 361.698641 348.854686 
L 360.469081 349.961787 
L 359.405565 351.229235 
L 358.528795 352.632361 
L 357.855834 354.143855 
L 357.399782 355.734298 
L 357.169516 357.372732 
L 357.169516 359.027268 
L 357.399782 360.665702 
L 357.855834 362.256145 
L 358.528795 363.767639 
L 359.405565 365.170765 
L 360.469081 366.438213 
L 361.698641 367.545314 
L 363.070313 368.470519 
L 364.557401 369.195819 
L 366.130958 369.707099 
L 367.760358 369.994406 
L 369.413886 370.052149 
L 371.059359 369.879203 
L 372.664748 369.478934 
L 374.198807 368.859134 
L 375.631677 368.031866 
L 376.93547 367.013232 
L 378.084807 365.823058 
L 379.057319 364.48451 
L 379.834077 363.023642 
L 380.399961 361.468886 
L 380.743959 359.850506 
L 380.859373 358.2 
L 380.859373 358.2 
" style="fill:none;stroke:#ffffff;stroke-linecap:round;"/>
     </g>
     <g id="text_9">
      <!-- 0 -->
      <g style="fill:#262626;" transform="translate(379.956632 351.475364)scale(0.11 -0.11)">
       <use xlink:href="#ArialMT-48"/>
      </g>
     </g>
    </g>
    <g id="ytick_2">
     <g id="line2d_10">
      <path clip-path="url(#pe557c992a8)" d="M 430.37659 358.2 
L 430.227079 353.918586 
L 429.779277 349.65803 
L 429.035364 345.439089 
L 427.998965 341.282319 
L 426.675128 337.20797 
L 425.070305 333.235892 
L 423.192312 329.385437 
L 421.0503 325.675363 
L 418.654704 322.123746 
L 416.017195 318.747889 
L 413.150624 315.564238 
L 410.068955 312.588305 
L 406.787202 309.834587 
L 403.321353 307.316501 
L 399.688295 305.046314 
L 395.905726 303.035087 
L 391.992075 301.292617 
L 387.966409 299.827395 
L 383.848341 298.646557 
L 379.657933 297.755859 
L 375.415601 297.159638 
L 371.142012 296.860799 
L 366.857988 296.860799 
L 362.584399 297.159638 
L 358.342067 297.755859 
L 354.151659 298.646557 
L 350.033591 299.827395 
L 346.007925 301.292617 
L 342.094274 303.035087 
L 338.311705 305.046314 
L 334.678647 307.316501 
L 331.212798 309.834587 
L 327.931045 312.588305 
L 324.849376 315.564238 
L 321.982805 318.747889 
L 319.345296 322.123746 
L 316.9497 325.675363 
L 314.807688 329.385437 
L 312.929695 333.235892 
L 311.324872 337.20797 
L 310.001035 341.282319 
L 308.964636 345.439089 
L 308.220723 349.65803 
L 307.772921 353.918586 
L 307.62341 358.2 
L 307.772921 362.481414 
L 308.220723 366.74197 
L 308.964636 370.960911 
L 310.001035 375.117681 
L 311.324872 379.19203 
L 312.929695 383.164108 
L 314.807688 387.014563 
L 316.9497 390.724637 
L 319.345296 394.276254 
L 321.982805 397.652111 
L 324.849376 400.835762 
L 327.931045 403.811695 
L 331.212798 406.565413 
L 334.678647 409.083499 
L 338.311705 411.353686 
L 342.094274 413.364913 
L 346.007925 415.107383 
L 350.033591 416.572605 
L 354.151659 417.753443 
L 358.342067 418.644141 
L 362.584399 419.240362 
L 366.857988 419.539201 
L 371.142012 419.539201 
L 375.415601 419.240362 
L 379.657933 418.644141 
L 383.848341 417.753443 
L 387.966409 416.572605 
L 391.992075 415.107383 
L 395.905726 413.364913 
L 399.688295 411.353686 
L 403.321353 409.083499 
L 406.787202 406.565413 
L 410.068955 403.811695 
L 413.150624 400.835762 
L 416.017195 397.652111 
L 418.654704 394.276254 
L 421.0503 390.724637 
L 423.192312 387.014563 
L 425.070305 383.164108 
L 426.675128 379.19203 
L 427.998965 375.117681 
L 429.035364 370.960911 
L 429.779277 366.74197 
L 430.227079 362.481414 
L 430.37659 358.2 
L 430.37659 358.2 
" style="fill:none;stroke:#ffffff;stroke-linecap:round;"/>
     </g>
     <g id="text_10">
      <!-- 100 -->
      <g style="fill:#262626;" transform="translate(425.704575 332.525946)scale(0.11 -0.11)">
       <use xlink:href="#ArialMT-49"/>
       <use x="55.615234" xlink:href="#ArialMT-48"/>
       <use x="111.230469" xlink:href="#ArialMT-48"/>
      </g>
     </g>
    </g>
    <g id="ytick_3">
     <g id="line2d_11">
      <path clip-path="url(#pe557c992a8)" d="M 479.893806 358.2 
L 479.826252 354.329862 
L 479.623674 350.464439 
L 479.286318 346.608441 
L 478.814595 342.766565 
L 478.20908 338.943493 
L 477.47051 335.143881 
L 476.599786 331.37236 
L 475.597968 327.633525 
L 474.466277 323.931929 
L 473.206091 320.272085 
L 471.818946 316.658449 
L 470.306533 313.095426 
L 468.670692 309.587355 
L 466.913419 306.138512 
L 465.036853 302.753097 
L 463.043281 299.435236 
L 460.935132 296.188971 
L 458.714973 293.018256 
L 456.385511 289.926956 
L 453.949584 286.918836 
L 451.410158 283.99756 
L 448.770328 281.16669 
L 446.03331 278.429672 
L 443.20244 275.789842 
L 440.281164 273.250416 
L 437.273044 270.814489 
L 434.181744 268.485027 
L 431.011029 266.264868 
L 427.764764 264.156719 
L 424.446903 262.163147 
L 421.061488 260.286581 
L 417.612645 258.529308 
L 414.104574 256.893467 
L 410.541551 255.381054 
L 406.927915 253.993909 
L 403.268071 252.733723 
L 399.566475 251.602032 
L 395.82764 250.600214 
L 392.056119 249.72949 
L 388.256507 248.99092 
L 384.433435 248.385405 
L 380.591559 247.913682 
L 376.735561 247.576326 
L 372.870138 247.373748 
L 369 247.306194 
L 365.129862 247.373748 
L 361.264439 247.576326 
L 357.408441 247.913682 
L 353.566565 248.385405 
L 349.743493 248.99092 
L 345.943881 249.72949 
L 342.17236 250.600214 
L 338.433525 251.602032 
L 334.731929 252.733723 
L 331.072085 253.993909 
L 327.458449 255.381054 
L 323.895426 256.893467 
L 320.387355 258.529308 
L 316.938512 260.286581 
L 313.553097 262.163147 
L 310.235236 264.156719 
L 306.988971 266.264868 
L 303.818256 268.485027 
L 300.726956 270.814489 
L 297.718836 273.250416 
L 294.79756 275.789842 
L 291.96669 278.429672 
L 289.229672 281.16669 
L 286.589842 283.99756 
L 284.050416 286.918836 
L 281.614489 289.926956 
L 279.285027 293.018256 
L 277.064868 296.188971 
L 274.956719 299.435236 
L 272.963147 302.753097 
L 271.086581 306.138512 
L 269.329308 309.587355 
L 267.693467 313.095426 
L 266.181054 316.658449 
L 264.793909 320.272085 
L 263.533723 323.931929 
L 262.402032 327.633525 
L 261.400214 331.37236 
L 260.52949 335.143881 
L 259.79092 338.943493 
L 259.185405 342.766565 
L 258.713682 346.608441 
L 258.376326 350.464439 
L 258.173748 354.329862 
L 258.106194 358.2 
L 258.173748 362.070138 
L 258.376326 365.935561 
L 258.713682 369.791559 
L 259.185405 373.633435 
L 259.79092 377.456507 
L 260.52949 381.256119 
L 261.400214 385.02764 
L 262.402032 388.766475 
L 263.533723 392.468071 
L 264.793909 396.127915 
L 266.181054 399.741551 
L 267.693467 403.304574 
L 269.329308 406.812645 
L 271.086581 410.261488 
L 272.963147 413.646903 
L 274.956719 416.964764 
L 277.064868 420.211029 
L 279.285027 423.381744 
L 281.614489 426.473044 
L 284.050416 429.481164 
L 286.589842 432.40244 
L 289.229672 435.23331 
L 291.96669 437.970328 
L 294.79756 440.610158 
L 297.718836 443.149584 
L 300.726956 445.585511 
L 303.818256 447.914973 
L 306.988971 450.135132 
L 310.235236 452.243281 
L 313.553097 454.236853 
L 316.938512 456.113419 
L 320.387355 457.870692 
L 323.895426 459.506533 
L 327.458449 461.018946 
L 331.072085 462.406091 
L 334.731929 463.666277 
L 338.433525 464.797968 
L 342.17236 465.799786 
L 345.943881 466.67051 
L 349.743493 467.40908 
L 353.566565 468.014595 
L 357.408441 468.486318 
L 361.264439 468.823674 
L 365.129862 469.026252 
L 369 469.093806 
L 372.870138 469.026252 
L 376.735561 468.823674 
L 380.591559 468.486318 
L 384.433435 468.014595 
L 388.256507 467.40908 
L 392.056119 466.67051 
L 395.82764 465.799786 
L 399.566475 464.797968 
L 403.268071 463.666277 
L 406.927915 462.406091 
L 410.541551 461.018946 
L 414.104574 459.506533 
L 417.612645 457.870692 
L 421.061488 456.113419 
L 424.446903 454.236853 
L 427.764764 452.243281 
L 431.011029 450.135132 
L 434.181744 447.914973 
L 437.273044 445.585511 
L 440.281164 443.149584 
L 443.20244 440.610158 
L 446.03331 437.970328 
L 448.770328 435.23331 
L 451.410158 432.40244 
L 453.949584 429.481164 
L 456.385511 426.473044 
L 458.714973 423.381744 
L 460.935132 420.211029 
L 463.043281 416.964764 
L 465.036853 413.646903 
L 466.913419 410.261488 
L 468.670692 406.812645 
L 470.306533 403.304574 
L 471.818946 399.741551 
L 473.206091 396.127915 
L 474.466277 392.468071 
L 475.597968 388.766475 
L 476.599786 385.02764 
L 477.47051 381.256119 
L 478.20908 377.456507 
L 478.814595 373.633435 
L 479.286318 369.791559 
L 479.623674 365.935561 
L 479.826252 362.070138 
L 479.893806 358.2 
L 479.893806 358.2 
" style="fill:none;stroke:#ffffff;stroke-linecap:round;"/>
     </g>
     <g id="text_11">
      <!-- 200 -->
      <g style="fill:#262626;" transform="translate(471.452517 313.576528)scale(0.11 -0.11)">
       <use xlink:href="#ArialMT-50"/>
       <use x="55.615234" xlink:href="#ArialMT-48"/>
       <use x="111.230469" xlink:href="#ArialMT-48"/>
      </g>
     </g>
    </g>
    <g id="ytick_4">
     <g id="line2d_12">
      <path clip-path="url(#pe557c992a8)" d="M 529.411022 358.2 
L 529.313304 352.601736 
L 529.020269 347.010293 
L 528.532274 341.432482 
L 527.849913 335.875101 
L 526.974018 330.344918 
L 525.905656 324.848673 
L 524.646129 319.393061 
L 523.196971 313.98473 
L 521.559948 308.630268 
L 519.737054 303.336199 
L 517.73051 298.108973 
L 515.542761 292.954959 
L 513.176472 287.880436 
L 510.634526 282.891587 
L 507.92002 277.994489 
L 505.036262 273.195109 
L 501.986764 268.499295 
L 498.775243 263.912767 
L 495.40561 259.441114 
L 491.881972 255.089783 
L 488.208621 250.864076 
L 484.390033 246.769141 
L 480.430859 242.809967 
L 476.335924 238.991379 
L 472.110217 235.318028 
L 467.758886 231.79439 
L 463.287233 228.424757 
L 458.700705 225.213236 
L 454.004891 222.163738 
L 449.205511 219.27998 
L 444.308413 216.565474 
L 439.319564 214.023528 
L 434.245041 211.657239 
L 429.091027 209.46949 
L 423.863801 207.462946 
L 418.569732 205.640052 
L 413.21527 204.003029 
L 407.806939 202.553871 
L 402.351327 201.294344 
L 396.855082 200.225982 
L 391.324899 199.350087 
L 385.767518 198.667726 
L 380.189707 198.179731 
L 374.598264 197.886696 
L 369 197.788978 
L 363.401736 197.886696 
L 357.810293 198.179731 
L 352.232482 198.667726 
L 346.675101 199.350087 
L 341.144918 200.225982 
L 335.648673 201.294344 
L 330.193061 202.553871 
L 324.78473 204.003029 
L 319.430268 205.640052 
L 314.136199 207.462946 
L 308.908973 209.46949 
L 303.754959 211.657239 
L 298.680436 214.023528 
L 293.691587 216.565474 
L 288.794489 219.27998 
L 283.995109 222.163738 
L 279.299295 225.213236 
L 274.712767 228.424757 
L 270.241114 231.79439 
L 265.889783 235.318028 
L 261.664076 238.991379 
L 257.569141 242.809967 
L 253.609967 246.769141 
L 249.791379 250.864076 
L 246.118028 255.089783 
L 242.59439 259.441114 
L 239.224757 263.912767 
L 236.013236 268.499295 
L 232.963738 273.195109 
L 230.07998 277.994489 
L 227.365474 282.891587 
L 224.823528 287.880436 
L 222.457239 292.954959 
L 220.26949 298.108973 
L 218.262946 303.336199 
L 216.440052 308.630268 
L 214.803029 313.98473 
L 213.353871 319.393061 
L 212.094344 324.848673 
L 211.025982 330.344918 
L 210.150087 335.875101 
L 209.467726 341.432482 
L 208.979731 347.010293 
L 208.686696 352.601736 
L 208.588978 358.2 
L 208.686696 363.798264 
L 208.979731 369.389707 
L 209.467726 374.967518 
L 210.150087 380.524899 
L 211.025982 386.055082 
L 212.094344 391.551327 
L 213.353871 397.006939 
L 214.803029 402.41527 
L 216.440052 407.769732 
L 218.262946 413.063801 
L 220.26949 418.291027 
L 222.457239 423.445041 
L 224.823528 428.519564 
L 227.365474 433.508413 
L 230.07998 438.405511 
L 232.963738 443.204891 
L 236.013236 447.900705 
L 239.224757 452.487233 
L 242.59439 456.958886 
L 246.118028 461.310217 
L 249.791379 465.535924 
L 253.609967 469.630859 
L 257.569141 473.590033 
L 261.664076 477.408621 
L 265.889783 481.081972 
L 270.241114 484.60561 
L 274.712767 487.975243 
L 279.299295 491.186764 
L 283.995109 494.236262 
L 288.794489 497.12002 
L 293.691587 499.834526 
L 298.680436 502.376472 
L 303.754959 504.742761 
L 308.908973 506.93051 
L 314.136199 508.937054 
L 319.430268 510.759948 
L 324.78473 512.396971 
L 330.193061 513.846129 
L 335.648673 515.105656 
L 341.144918 516.174018 
L 346.675101 517.049913 
L 352.232482 517.732274 
L 357.810293 518.220269 
L 363.401736 518.513304 
L 369 518.611022 
L 374.598264 518.513304 
L 380.189707 518.220269 
L 385.767518 517.732274 
L 391.324899 517.049913 
L 396.855082 516.174018 
L 402.351327 515.105656 
L 407.806939 513.846129 
L 413.21527 512.396971 
L 418.569732 510.759948 
L 423.863801 508.937054 
L 429.091027 506.93051 
L 434.245041 504.742761 
L 439.319564 502.376472 
L 444.308413 499.834526 
L 449.205511 497.12002 
L 454.004891 494.236262 
L 458.700705 491.186764 
L 463.287233 487.975243 
L 467.758886 484.60561 
L 472.110217 481.081972 
L 476.335924 477.408621 
L 480.430859 473.590033 
L 484.390033 469.630859 
L 488.208621 465.535924 
L 491.881972 461.310217 
L 495.40561 456.958886 
L 498.775243 452.487233 
L 501.986764 447.900705 
L 505.036262 443.204891 
L 507.92002 438.405511 
L 510.634526 433.508413 
L 513.176472 428.519564 
L 515.542761 423.445041 
L 517.73051 418.291027 
L 519.737054 413.063801 
L 521.559948 407.769732 
L 523.196971 402.41527 
L 524.646129 397.006939 
L 525.905656 391.551327 
L 526.974018 386.055082 
L 527.849913 380.524899 
L 528.532274 374.967518 
L 529.020269 369.389707 
L 529.313304 363.798264 
L 529.411022 358.2 
L 529.411022 358.2 
" style="fill:none;stroke:#ffffff;stroke-linecap:round;"/>
     </g>
     <g id="text_12">
      <!-- 300 -->
      <g style="fill:#262626;" transform="translate(517.20046 294.627109)scale(0.11 -0.11)">
       <use xlink:href="#ArialMT-51"/>
       <use x="55.615234" xlink:href="#ArialMT-48"/>
       <use x="111.230469" xlink:href="#ArialMT-48"/>
      </g>
     </g>
    </g>
    <g id="ytick_5">
     <g id="line2d_13">
      <path clip-path="url(#pe557c992a8)" d="M 578.928238 358.2 
L 578.800356 350.87361 
L 578.416864 343.556146 
L 577.778229 336.256524 
L 576.885231 328.983636 
L 575.738957 321.746344 
L 574.340803 314.553465 
L 572.692472 307.413763 
L 570.795974 300.335935 
L 568.653619 293.328607 
L 566.268016 286.400314 
L 563.642073 279.559498 
L 560.778989 272.814493 
L 557.682251 266.173517 
L 554.355633 259.644662 
L 550.803187 253.235881 
L 547.029243 246.954982 
L 543.038397 240.809619 
L 538.835512 234.807277 
L 534.425709 228.955271 
L 529.81436 223.26073 
L 525.007084 217.730591 
L 520.009737 212.371592 
L 514.828408 207.190263 
L 509.469409 202.192916 
L 503.93927 197.38564 
L 498.244729 192.774291 
L 492.392723 188.364488 
L 486.390381 184.161603 
L 480.245018 180.170757 
L 473.964119 176.396813 
L 467.555338 172.844367 
L 461.026483 169.517749 
L 454.385507 166.421011 
L 447.640502 163.557927 
L 440.799686 160.931984 
L 433.871393 158.546381 
L 426.864065 156.404026 
L 419.786237 154.507528 
L 412.646535 152.859197 
L 405.453656 151.461043 
L 398.216364 150.314769 
L 390.943476 149.421771 
L 383.643854 148.783136 
L 376.32639 148.399644 
L 369 148.271762 
L 361.67361 148.399644 
L 354.356146 148.783136 
L 347.056524 149.421771 
L 339.783636 150.314769 
L 332.546344 151.461043 
L 325.353465 152.859197 
L 318.213763 154.507528 
L 311.135935 156.404026 
L 304.128607 158.546381 
L 297.200314 160.931984 
L 290.359498 163.557927 
L 283.614493 166.421011 
L 276.973517 169.517749 
L 270.444662 172.844367 
L 264.035881 176.396813 
L 257.754982 180.170757 
L 251.609619 184.161603 
L 245.607277 188.364488 
L 239.755271 192.774291 
L 234.06073 197.38564 
L 228.530591 202.192916 
L 223.171592 207.190263 
L 217.990263 212.371592 
L 212.992916 217.730591 
L 208.18564 223.26073 
L 203.574291 228.955271 
L 199.164488 234.807277 
L 194.961603 240.809619 
L 190.970757 246.954982 
L 187.196813 253.235881 
L 183.644367 259.644662 
L 180.317749 266.173517 
L 177.221011 272.814493 
L 174.357927 279.559498 
L 171.731984 286.400314 
L 169.346381 293.328607 
L 167.204026 300.335935 
L 165.307528 307.413763 
L 163.659197 314.553465 
L 162.261043 321.746344 
L 161.114769 328.983636 
L 160.221771 336.256524 
L 159.583136 343.556146 
L 159.199644 350.87361 
L 159.071762 358.2 
L 159.199644 365.52639 
L 159.583136 372.843854 
L 160.221771 380.143476 
L 161.114769 387.416364 
L 162.261043 394.653656 
L 163.659197 401.846535 
L 165.307528 408.986237 
L 167.204026 416.064065 
L 169.346381 423.071393 
L 171.731984 429.999686 
L 174.357927 436.840502 
L 177.221011 443.585507 
L 180.317749 450.226483 
L 183.644367 456.755338 
L 187.196813 463.164119 
L 190.970757 469.445018 
L 194.961603 475.590381 
L 199.164488 481.592723 
L 203.574291 487.444729 
L 208.18564 493.13927 
L 212.992916 498.669409 
L 217.990263 504.028408 
L 223.171592 509.209737 
L 228.530591 514.207084 
L 234.06073 519.01436 
L 239.755271 523.625709 
L 245.607277 528.035512 
L 251.609619 532.238397 
L 257.754982 536.229243 
L 264.035881 540.003187 
L 270.444662 543.555633 
L 276.973517 546.882251 
L 283.614493 549.978989 
L 290.359498 552.842073 
L 297.200314 555.468016 
L 304.128607 557.853619 
L 311.135935 559.995974 
L 318.213763 561.892472 
L 325.353465 563.540803 
L 332.546344 564.938957 
L 339.783636 566.085231 
L 347.056524 566.978229 
L 354.356146 567.616864 
L 361.67361 568.000356 
L 369 568.128238 
L 376.32639 568.000356 
L 383.643854 567.616864 
L 390.943476 566.978229 
L 398.216364 566.085231 
L 405.453656 564.938957 
L 412.646535 563.540803 
L 419.786237 561.892472 
L 426.864065 559.995974 
L 433.871393 557.853619 
L 440.799686 555.468016 
L 447.640502 552.842073 
L 454.385507 549.978989 
L 461.026483 546.882251 
L 467.555338 543.555633 
L 473.964119 540.003187 
L 480.245018 536.229243 
L 486.390381 532.238397 
L 492.392723 528.035512 
L 498.244729 523.625709 
L 503.93927 519.01436 
L 509.469409 514.207084 
L 514.828408 509.209737 
L 520.009737 504.028408 
L 525.007084 498.669409 
L 529.81436 493.13927 
L 534.425709 487.444729 
L 538.835512 481.592723 
L 543.038397 475.590381 
L 547.029243 469.445018 
L 550.803187 463.164119 
L 554.355633 456.755338 
L 557.682251 450.226483 
L 560.778989 443.585507 
L 563.642073 436.840502 
L 566.268016 429.999686 
L 568.653619 423.071393 
L 570.795974 416.064065 
L 572.692472 408.986237 
L 574.340803 401.846535 
L 575.738957 394.653656 
L 576.885231 387.416364 
L 577.778229 380.143476 
L 578.416864 372.843854 
L 578.800356 365.52639 
L 578.928238 358.2 
L 578.928238 358.2 
" style="fill:none;stroke:#ffffff;stroke-linecap:round;"/>
     </g>
     <g id="text_13">
      <!-- 400 -->
      <g style="fill:#262626;" transform="translate(562.948403 275.677691)scale(0.11 -0.11)">
       <use xlink:href="#ArialMT-52"/>
       <use x="55.615234" xlink:href="#ArialMT-48"/>
       <use x="111.230469" xlink:href="#ArialMT-48"/>
      </g>
     </g>
    </g>
    <g id="ytick_6">
     <g id="line2d_14">
      <path clip-path="url(#pe557c992a8)" d="M 628.445455 358.2 
L 628.287407 349.145484 
L 627.813458 340.102 
L 627.024185 331.080565 
L 625.920549 322.092172 
L 624.503895 313.14777 
L 622.775949 304.258257 
L 620.738816 295.434464 
L 618.394978 286.687141 
L 615.74729 278.026945 
L 612.798979 269.464428 
L 609.553637 261.010022 
L 606.015217 252.674027 
L 602.18803 244.466599 
L 598.07674 236.397737 
L 593.686355 228.477273 
L 589.022224 220.714856 
L 584.09003 213.119943 
L 578.895782 205.701788 
L 573.445808 198.469429 
L 567.746749 191.431676 
L 561.805547 184.597106 
L 555.629441 177.974043 
L 549.225957 171.570559 
L 542.602894 165.394453 
L 535.768324 159.453251 
L 528.730571 153.754192 
L 521.498212 148.304218 
L 514.080057 143.10997 
L 506.485144 138.177776 
L 498.722727 133.513645 
L 490.802263 129.12326 
L 482.733401 125.01197 
L 474.525973 121.184783 
L 466.189978 117.646363 
L 457.735572 114.401021 
L 449.173055 111.45271 
L 440.512859 108.805022 
L 431.765536 106.461184 
L 422.941743 104.424051 
L 414.05223 102.696105 
L 405.107828 101.279451 
L 396.119435 100.175815 
L 387.098 99.386542 
L 378.054516 98.912593 
L 369 98.754545 
L 359.945484 98.912593 
L 350.902 99.386542 
L 341.880565 100.175815 
L 332.892172 101.279451 
L 323.94777 102.696105 
L 315.058257 104.424051 
L 306.234464 106.461184 
L 297.487141 108.805022 
L 288.826945 111.45271 
L 280.264428 114.401021 
L 271.810022 117.646363 
L 263.474027 121.184783 
L 255.266599 125.01197 
L 247.197737 129.12326 
L 239.277273 133.513645 
L 231.514856 138.177776 
L 223.919943 143.10997 
L 216.501788 148.304218 
L 209.269429 153.754192 
L 202.231676 159.453251 
L 195.397106 165.394453 
L 188.774043 171.570559 
L 182.370559 177.974043 
L 176.194453 184.597106 
L 170.253251 191.431676 
L 164.554192 198.469429 
L 159.104218 205.701788 
L 153.90997 213.119943 
L 148.977776 220.714856 
L 144.313645 228.477273 
L 139.92326 236.397737 
L 135.81197 244.466599 
L 131.984783 252.674027 
L 128.446363 261.010022 
L 125.201021 269.464428 
L 122.25271 278.026945 
L 119.605022 286.687141 
L 117.261184 295.434464 
L 115.224051 304.258257 
L 113.496105 313.14777 
L 112.079451 322.092172 
L 110.975815 331.080565 
L 110.186542 340.102 
L 109.712593 349.145484 
L 109.554545 358.2 
L 109.712593 367.254516 
L 110.186542 376.298 
L 110.975815 385.319435 
L 112.079451 394.307828 
L 113.496105 403.25223 
L 115.224051 412.141743 
L 117.261184 420.965536 
L 119.605022 429.712859 
L 122.25271 438.373055 
L 125.201021 446.935572 
L 128.446363 455.389978 
L 131.984783 463.725973 
L 135.81197 471.933401 
L 139.92326 480.002263 
L 144.313645 487.922727 
L 148.977776 495.685144 
L 153.90997 503.280057 
L 159.104218 510.698212 
L 164.554192 517.930571 
L 170.253251 524.968324 
L 176.194453 531.802894 
L 182.370559 538.425957 
L 188.774043 544.829441 
L 195.397106 551.005547 
L 202.231676 556.946749 
L 209.269429 562.645808 
L 216.501788 568.095782 
L 223.919943 573.29003 
L 231.514856 578.222224 
L 239.277273 582.886355 
L 247.197737 587.27674 
L 255.266599 591.38803 
L 263.474027 595.215217 
L 271.810022 598.753637 
L 280.264428 601.998979 
L 288.826945 604.94729 
L 297.487141 607.594978 
L 306.234464 609.938816 
L 315.058257 611.975949 
L 323.94777 613.703895 
L 332.892172 615.120549 
L 341.880565 616.224185 
L 350.902 617.013458 
L 359.945484 617.487407 
L 369 617.645455 
L 378.054516 617.487407 
L 387.098 617.013458 
L 396.119435 616.224185 
L 405.107828 615.120549 
L 414.05223 613.703895 
L 422.941743 611.975949 
L 431.765536 609.938816 
L 440.512859 607.594978 
L 449.173055 604.94729 
L 457.735572 601.998979 
L 466.189978 598.753637 
L 474.525973 595.215217 
L 482.733401 591.38803 
L 490.802263 587.27674 
L 498.722727 582.886355 
L 506.485144 578.222224 
L 514.080057 573.29003 
L 521.498212 568.095782 
L 528.730571 562.645808 
L 535.768324 556.946749 
L 542.602894 551.005547 
L 549.225957 544.829441 
L 555.629441 538.425957 
L 561.805547 531.802894 
L 567.746749 524.968324 
L 573.445808 517.930571 
L 578.895782 510.698212 
L 584.09003 503.280057 
L 589.022224 495.685144 
L 593.686355 487.922727 
L 598.07674 480.002263 
L 602.18803 471.933401 
L 606.015217 463.725973 
L 609.553637 455.389978 
L 612.798979 446.935572 
L 615.74729 438.373055 
L 618.394978 429.712859 
L 620.738816 420.965536 
L 622.775949 412.141743 
L 624.503895 403.25223 
L 625.920549 394.307828 
L 627.024185 385.319435 
L 627.813458 376.298 
L 628.287407 367.254516 
L 628.445455 358.2 
L 628.445455 358.2 
" style="fill:none;stroke:#ffffff;stroke-linecap:round;"/>
     </g>
     <g id="text_14">
      <!-- 500 -->
      <g style="fill:#262626;" transform="translate(608.696345 256.728273)scale(0.11 -0.11)">
       <use xlink:href="#ArialMT-53"/>
       <use x="55.615234" xlink:href="#ArialMT-48"/>
       <use x="111.230469" xlink:href="#ArialMT-48"/>
      </g>
     </g>
    </g>
   </g>
   <g id="line2d_15">
    <defs>
     <path d="M 0 3 
C 0.795609 3 1.55874 2.683901 2.12132 2.12132 
C 2.683901 1.55874 3 0.795609 3 0 
C 3 -0.795609 2.683901 -1.55874 2.12132 -2.12132 
C 1.55874 -2.683901 0.795609 -3 0 -3 
C -0.795609 -3 -1.55874 -2.683901 -2.12132 -2.12132 
C -2.683901 -1.55874 -3 -0.795609 -3 0 
C -3 0.795609 -2.683901 1.55874 -2.12132 2.12132 
C -1.55874 2.683901 -0.795609 3 0 3 
z
" id="mccbd5660a8" style="stroke:#4c72b0;"/>
    </defs>
    <g clip-path="url(#pe557c992a8)">
     <use style="fill:#4c72b0;stroke:#4c72b0;" x="628.445455" xlink:href="#mccbd5660a8" y="358.2"/>
     <use style="fill:#4c72b0;stroke:#4c72b0;" x="110.049718" xlink:href="#mccbd5660a8" y="358.2"/>
     <use style="fill:#4c72b0;stroke:#4c72b0;" x="110.54489" xlink:href="#mccbd5660a8" y="358.2"/>
     <use style="fill:#4c72b0;stroke:#4c72b0;" x="111.040062" xlink:href="#mccbd5660a8" y="358.2"/>
     <use style="fill:#4c72b0;stroke:#4c72b0;" x="369" xlink:href="#mccbd5660a8" y="615.664766"/>
     <use style="fill:#4c72b0;stroke:#4c72b0;" x="618.297124" xlink:href="#mccbd5660a8" y="295.875719"/>
     <use style="fill:#4c72b0;stroke:#4c72b0;" x="614.292305" xlink:href="#mccbd5660a8" y="283.294633"/>
     <use style="fill:#4c72b0;stroke:#4c72b0;" x="610.427977" xlink:href="#mccbd5660a8" y="273.124103"/>
     <use style="fill:#4c72b0;stroke:#4c72b0;" x="606.257563" xlink:href="#mccbd5660a8" y="263.43206"/>
     <use style="fill:#4c72b0;stroke:#4c72b0;" x="601.138307" xlink:href="#mccbd5660a8" y="252.695743"/>
     <use style="fill:#4c72b0;stroke:#4c72b0;" x="593.679843" xlink:href="#mccbd5660a8" y="238.675826"/>
     <use style="fill:#4c72b0;stroke:#4c72b0;" x="579.421281" xlink:href="#mccbd5660a8" y="215.939137"/>
     <use style="fill:#4c72b0;stroke:#4c72b0;" x="532.481135" xlink:href="#mccbd5660a8" y="164.453035"/>
     <use style="fill:#4c72b0;stroke:#4c72b0;" x="209.903795" xlink:href="#mccbd5660a8" y="161.472891"/>
     <use style="fill:#4c72b0;stroke:#4c72b0;" x="116.666056" xlink:href="#mccbd5660a8" y="367.708854"/>
     <use style="fill:#4c72b0;stroke:#4c72b0;" x="124.576401" xlink:href="#mccbd5660a8" y="419.60124"/>
     <use style="fill:#4c72b0;stroke:#4c72b0;" x="132.144832" xlink:href="#mccbd5660a8" y="442.836269"/>
     <use style="fill:#4c72b0;stroke:#4c72b0;" x="138.369079" xlink:href="#mccbd5660a8" y="457.317093"/>
     <use style="fill:#4c72b0;stroke:#4c72b0;" x="143.80076" xlink:href="#mccbd5660a8" y="467.980524"/>
     <use style="fill:#4c72b0;stroke:#4c72b0;" x="148.800328" xlink:href="#mccbd5660a8" y="476.651246"/>
     <use style="fill:#4c72b0;stroke:#4c72b0;" x="153.597029" xlink:href="#mccbd5660a8" y="484.187204"/>
     <use style="fill:#4c72b0;stroke:#4c72b0;" x="158.356653" xlink:href="#mccbd5660a8" y="491.067258"/>
     <use style="fill:#4c72b0;stroke:#4c72b0;" x="163.219393" xlink:href="#mccbd5660a8" y="497.599688"/>
     <use style="fill:#4c72b0;stroke:#4c72b0;" x="168.323543" xlink:href="#mccbd5660a8" y="504.011468"/>
     <use style="fill:#4c72b0;stroke:#4c72b0;" x="173.824883" xlink:href="#mccbd5660a8" y="510.493409"/>
     <use style="fill:#4c72b0;stroke:#4c72b0;" x="179.91816" xlink:href="#mccbd5660a8" y="517.227483"/>
     <use style="fill:#4c72b0;stroke:#4c72b0;" x="186.866987" xlink:href="#mccbd5660a8" y="524.407139"/>
     <use style="fill:#4c72b0;stroke:#4c72b0;" x="195.051644" xlink:href="#mccbd5660a8" y="532.25537"/>
     <use style="fill:#4c72b0;stroke:#4c72b0;" x="205.052079" xlink:href="#mccbd5660a8" y="541.041262"/>
     <use style="fill:#4c72b0;stroke:#4c72b0;" x="217.800907" xlink:href="#mccbd5660a8" y="551.087838"/>
     <use style="fill:#4c72b0;stroke:#4c72b0;" x="234.878109" xlink:href="#mccbd5660a8" y="562.737841"/>
     <use style="fill:#4c72b0;stroke:#4c72b0;" x="259.087647" xlink:href="#mccbd5660a8" y="576.148849"/>
     <use style="fill:#4c72b0;stroke:#4c72b0;" x="295.495097" xlink:href="#mccbd5660a8" y="590.445479"/>
     <use style="fill:#4c72b0;stroke:#4c72b0;" x="352.380923" xlink:href="#mccbd5660a8" y="600.736053"/>
     <use style="fill:#4c72b0;stroke:#4c72b0;" x="436.282176" xlink:href="#mccbd5660a8" y="591.293387"/>
     <use style="fill:#4c72b0;stroke:#4c72b0;" x="528.533795" xlink:href="#mccbd5660a8" y="540.321841"/>
     <use style="fill:#4c72b0;stroke:#4c72b0;" x="587.060072" xlink:href="#mccbd5660a8" y="462.265702"/>
     <use style="fill:#4c72b0;stroke:#4c72b0;" x="607.37506" xlink:href="#mccbd5660a8" y="394.506404"/>
     <use style="fill:#4c72b0;stroke:#4c72b0;" x="609.365037" xlink:href="#mccbd5660a8" y="346.934005"/>
     <use style="fill:#4c72b0;stroke:#4c72b0;" x="605.092008" xlink:href="#mccbd5660a8" y="314.327722"/>
     <use style="fill:#4c72b0;stroke:#4c72b0;" x="599.073288" xlink:href="#mccbd5660a8" y="291.170711"/>
     <use style="fill:#4c72b0;stroke:#4c72b0;" x="592.814524" xlink:href="#mccbd5660a8" y="273.958546"/>
     <use style="fill:#4c72b0;stroke:#4c72b0;" x="586.787095" xlink:href="#mccbd5660a8" y="260.620515"/>
     <use style="fill:#4c72b0;stroke:#4c72b0;" x="581.11108" xlink:href="#mccbd5660a8" y="249.914426"/>
     <use style="fill:#4c72b0;stroke:#4c72b0;" x="575.787827" xlink:href="#mccbd5660a8" y="241.067331"/>
     <use style="fill:#4c72b0;stroke:#4c72b0;" x="570.781313" xlink:href="#mccbd5660a8" y="233.578768"/>
     <use style="fill:#4c72b0;stroke:#4c72b0;" x="566.04707" xlink:href="#mccbd5660a8" y="227.11234"/>
     <use style="fill:#4c72b0;stroke:#4c72b0;" x="561.542194" xlink:href="#mccbd5660a8" y="221.434183"/>
     <use style="fill:#4c72b0;stroke:#4c72b0;" x="557.228355" xlink:href="#mccbd5660a8" y="216.376784"/>
     <use style="fill:#4c72b0;stroke:#4c72b0;" x="553.07223" xlink:href="#mccbd5660a8" y="211.816954"/>
     <use style="fill:#4c72b0;stroke:#4c72b0;" x="549.045035" xlink:href="#mccbd5660a8" y="207.661961"/>
     <use style="fill:#4c72b0;stroke:#4c72b0;" x="545.121826" xlink:href="#mccbd5660a8" y="203.840541"/>
     <use style="fill:#4c72b0;stroke:#4c72b0;" x="541.280785" xlink:href="#mccbd5660a8" y="200.296909"/>
     <use style="fill:#4c72b0;stroke:#4c72b0;" x="537.502588" xlink:href="#mccbd5660a8" y="196.986669"/>
     <use style="fill:#4c72b0;stroke:#4c72b0;" x="533.769867" xlink:href="#mccbd5660a8" y="193.873962"/>
     <use style="fill:#4c72b0;stroke:#4c72b0;" x="530.066753" xlink:href="#mccbd5660a8" y="190.929432"/>
     <use style="fill:#4c72b0;stroke:#4c72b0;" x="526.3785" xlink:href="#mccbd5660a8" y="188.128762"/>
     <use style="fill:#4c72b0;stroke:#4c72b0;" x="522.691155" xlink:href="#mccbd5660a8" y="185.451588"/>
     <use style="fill:#4c72b0;stroke:#4c72b0;" x="518.991283" xlink:href="#mccbd5660a8" y="182.880699"/>
     <use style="fill:#4c72b0;stroke:#4c72b0;" x="515.265716" xlink:href="#mccbd5660a8" y="180.401434"/>
     <use style="fill:#4c72b0;stroke:#4c72b0;" x="511.501329" xlink:href="#mccbd5660a8" y="178.001224"/>
     <use style="fill:#4c72b0;stroke:#4c72b0;" x="507.684827" xlink:href="#mccbd5660a8" y="175.66925"/>
     <use style="fill:#4c72b0;stroke:#4c72b0;" x="503.802544" xlink:href="#mccbd5660a8" y="173.396188"/>
     <use style="fill:#4c72b0;stroke:#4c72b0;" x="499.840233" xlink:href="#mccbd5660a8" y="171.17402"/>
     <use style="fill:#4c72b0;stroke:#4c72b0;" x="495.782861" xlink:href="#mccbd5660a8" y="168.995906"/>
     <use style="fill:#4c72b0;stroke:#4c72b0;" x="491.614391" xlink:href="#mccbd5660a8" y="166.85611"/>
     <use style="fill:#4c72b0;stroke:#4c72b0;" x="487.317537" xlink:href="#mccbd5660a8" y="164.749971"/>
     <use style="fill:#4c72b0;stroke:#4c72b0;" x="482.873519" xlink:href="#mccbd5660a8" y="162.673926"/>
     <use style="fill:#4c72b0;stroke:#4c72b0;" x="478.261767" xlink:href="#mccbd5660a8" y="160.62558"/>
     <use style="fill:#4c72b0;stroke:#4c72b0;" x="473.459616" xlink:href="#mccbd5660a8" y="158.603845"/>
     <use style="fill:#4c72b0;stroke:#4c72b0;" x="468.441951" xlink:href="#mccbd5660a8" y="156.609135"/>
     <use style="fill:#4c72b0;stroke:#4c72b0;" x="463.180815" xlink:href="#mccbd5660a8" y="154.643657"/>
     <use style="fill:#4c72b0;stroke:#4c72b0;" x="457.644983" xlink:href="#mccbd5660a8" y="152.711801"/>
     <use style="fill:#4c72b0;stroke:#4c72b0;" x="451.799489" xlink:href="#mccbd5660a8" y="150.82066"/>
     <use style="fill:#4c72b0;stroke:#4c72b0;" x="445.605121" xlink:href="#mccbd5660a8" y="148.980725"/>
     <use style="fill:#4c72b0;stroke:#4c72b0;" x="439.017911" xlink:href="#mccbd5660a8" y="147.206788"/>
     <use style="fill:#4c72b0;stroke:#4c72b0;" x="431.988624" xlink:href="#mccbd5660a8" y="145.51911"/>
     <use style="fill:#4c72b0;stroke:#4c72b0;" x="424.462341" xlink:href="#mccbd5660a8" y="143.94494"/>
     <use style="fill:#4c72b0;stroke:#4c72b0;" x="416.378192" xlink:href="#mccbd5660a8" y="142.520437"/>
     <use style="fill:#4c72b0;stroke:#4c72b0;" x="407.669417" xlink:href="#mccbd5660a8" y="141.293111"/>
     <use style="fill:#4c72b0;stroke:#4c72b0;" x="398.263962" xlink:href="#mccbd5660a8" y="140.324832"/>
     <use style="fill:#4c72b0;stroke:#4c72b0;" x="388.08597" xlink:href="#mccbd5660a8" y="139.695469"/>
     <use style="fill:#4c72b0;stroke:#4c72b0;" x="377.058648" xlink:href="#mccbd5660a8" y="139.50709"/>
     <use style="fill:#4c72b0;stroke:#4c72b0;" x="365.109169" xlink:href="#mccbd5660a8" y="139.888504"/>
     <use style="fill:#4c72b0;stroke:#4c72b0;" x="352.176439" xlink:href="#mccbd5660a8" y="140.999579"/>
     <use style="fill:#4c72b0;stroke:#4c72b0;" x="338.222613" xlink:href="#mccbd5660a8" y="143.034238"/>
     <use style="fill:#4c72b0;stroke:#4c72b0;" x="323.249034" xlink:href="#mccbd5660a8" y="146.220308"/>
     <use style="fill:#4c72b0;stroke:#4c72b0;" x="307.316514" xlink:href="#mccbd5660a8" y="150.813484"/>
     <use style="fill:#4c72b0;stroke:#4c72b0;" x="290.568207" xlink:href="#mccbd5660a8" y="157.082019"/>
     <use style="fill:#4c72b0;stroke:#4c72b0;" x="273.250651" xlink:href="#mccbd5660a8" y="165.279007"/>
     <use style="fill:#4c72b0;stroke:#4c72b0;" x="255.725275" xlink:href="#mccbd5660a8" y="175.601441"/>
     <use style="fill:#4c72b0;stroke:#4c72b0;" x="238.46051" xlink:href="#mccbd5660a8" y="188.140367"/>
     <use style="fill:#4c72b0;stroke:#4c72b0;" x="221.996411" xlink:href="#mccbd5660a8" y="202.833619"/>
     <use style="fill:#4c72b0;stroke:#4c72b0;" x="206.881573" xlink:href="#mccbd5660a8" y="219.438319"/>
     <use style="fill:#4c72b0;stroke:#4c72b0;" x="193.594716" xlink:href="#mccbd5660a8" y="237.538962"/>
     <use style="fill:#4c72b0;stroke:#4c72b0;" x="182.473706" xlink:href="#mccbd5660a8" y="256.595655"/>
     <use style="fill:#4c72b0;stroke:#4c72b0;" x="173.674847" xlink:href="#mccbd5660a8" y="276.020453"/>
     <use style="fill:#4c72b0;stroke:#4c72b0;" x="167.173154" xlink:href="#mccbd5660a8" y="295.257962"/>
     <use style="fill:#4c72b0;stroke:#4c72b0;" x="162.797506" xlink:href="#mccbd5660a8" y="313.847096"/>
     <use style="fill:#4c72b0;stroke:#4c72b0;" x="160.283527" xlink:href="#mccbd5660a8" y="331.452185"/>
     <use style="fill:#4c72b0;stroke:#4c72b0;" x="159.326321" xlink:href="#mccbd5660a8" y="347.864944"/>
     <use style="fill:#4c72b0;stroke:#4c72b0;" x="159.621647" xlink:href="#mccbd5660a8" y="362.9869"/>
     <use style="fill:#4c72b0;stroke:#4c72b0;" x="160.891945" xlink:href="#mccbd5660a8" y="376.803255"/>
     <use style="fill:#4c72b0;stroke:#4c72b0;" x="162.898939" xlink:href="#mccbd5660a8" y="389.356395"/>
     <use style="fill:#4c72b0;stroke:#4c72b0;" x="165.446725" xlink:href="#mccbd5660a8" y="400.723496"/>
     <use style="fill:#4c72b0;stroke:#4c72b0;" x="168.379244" xlink:href="#mccbd5660a8" y="410.999634"/>
     <use style="fill:#4c72b0;stroke:#4c72b0;" x="171.575091" xlink:href="#mccbd5660a8" y="420.286151"/>
     <use style="fill:#4c72b0;stroke:#4c72b0;" x="174.941545" xlink:href="#mccbd5660a8" y="428.683242"/>
     <use style="fill:#4c72b0;stroke:#4c72b0;" x="178.408863" xlink:href="#mccbd5660a8" y="436.285633"/>
     <use style="fill:#4c72b0;stroke:#4c72b0;" x="181.925285" xlink:href="#mccbd5660a8" y="443.180385"/>
     <use style="fill:#4c72b0;stroke:#4c72b0;" x="185.452913" xlink:href="#mccbd5660a8" y="449.446037"/>
     <use style="fill:#4c72b0;stroke:#4c72b0;" x="188.964402" xlink:href="#mccbd5660a8" y="455.152584"/>
     <use style="fill:#4c72b0;stroke:#4c72b0;" x="192.440374" xlink:href="#mccbd5660a8" y="460.361915"/>
     <use style="fill:#4c72b0;stroke:#4c72b0;" x="195.867427" xlink:href="#mccbd5660a8" y="465.128477"/>
     <use style="fill:#4c72b0;stroke:#4c72b0;" x="199.236613" xlink:href="#mccbd5660a8" y="469.500039"/>
     <use style="fill:#4c72b0;stroke:#4c72b0;" x="202.542285" xlink:href="#mccbd5660a8" y="473.518449"/>
     <use style="fill:#4c72b0;stroke:#4c72b0;" x="205.781228" xlink:href="#mccbd5660a8" y="477.220368"/>
     <use style="fill:#4c72b0;stroke:#4c72b0;" x="208.952005" xlink:href="#mccbd5660a8" y="480.637923"/>
     <use style="fill:#4c72b0;stroke:#4c72b0;" x="212.05447" xlink:href="#mccbd5660a8" y="483.79931"/>
     <use style="fill:#4c72b0;stroke:#4c72b0;" x="215.089395" xlink:href="#mccbd5660a8" y="486.729307"/>
     <use style="fill:#4c72b0;stroke:#4c72b0;" x="218.058204" xlink:href="#mccbd5660a8" y="489.449735"/>
     <use style="fill:#4c72b0;stroke:#4c72b0;" x="220.962765" xlink:href="#mccbd5660a8" y="491.979847"/>
     <use style="fill:#4c72b0;stroke:#4c72b0;" x="223.805238" xlink:href="#mccbd5660a8" y="494.336673"/>
     <use style="fill:#4c72b0;stroke:#4c72b0;" x="226.587966" xlink:href="#mccbd5660a8" y="496.535309"/>
     <use style="fill:#4c72b0;stroke:#4c72b0;" x="229.31339" xlink:href="#mccbd5660a8" y="498.58917"/>
     <use style="fill:#4c72b0;stroke:#4c72b0;" x="231.983991" xlink:href="#mccbd5660a8" y="500.510206"/>
     <use style="fill:#4c72b0;stroke:#4c72b0;" x="234.602244" xlink:href="#mccbd5660a8" y="502.309085"/>
     <use style="fill:#4c72b0;stroke:#4c72b0;" x="237.170591" xlink:href="#mccbd5660a8" y="503.995357"/>
     <use style="fill:#4c72b0;stroke:#4c72b0;" x="239.691416" xlink:href="#mccbd5660a8" y="505.57759"/>
     <use style="fill:#4c72b0;stroke:#4c72b0;" x="242.167032" xlink:href="#mccbd5660a8" y="507.063484"/>
     <use style="fill:#4c72b0;stroke:#4c72b0;" x="244.599672" xlink:href="#mccbd5660a8" y="508.459982"/>
     <use style="fill:#4c72b0;stroke:#4c72b0;" x="246.991483" xlink:href="#mccbd5660a8" y="509.773353"/>
     <use style="fill:#4c72b0;stroke:#4c72b0;" x="249.344523" xlink:href="#mccbd5660a8" y="511.009269"/>
     <use style="fill:#4c72b0;stroke:#4c72b0;" x="251.660764" xlink:href="#mccbd5660a8" y="512.172874"/>
     <use style="fill:#4c72b0;stroke:#4c72b0;" x="253.942089" xlink:href="#mccbd5660a8" y="513.268843"/>
     <use style="fill:#4c72b0;stroke:#4c72b0;" x="256.190293" xlink:href="#mccbd5660a8" y="514.30143"/>
     <use style="fill:#4c72b0;stroke:#4c72b0;" x="258.407093" xlink:href="#mccbd5660a8" y="515.274513"/>
     <use style="fill:#4c72b0;stroke:#4c72b0;" x="260.594123" xlink:href="#mccbd5660a8" y="516.191638"/>
     <use style="fill:#4c72b0;stroke:#4c72b0;" x="262.752943" xlink:href="#mccbd5660a8" y="517.056046"/>
     <use style="fill:#4c72b0;stroke:#4c72b0;" x="264.885042" xlink:href="#mccbd5660a8" y="517.870707"/>
     <use style="fill:#4c72b0;stroke:#4c72b0;" x="266.991839" xlink:href="#mccbd5660a8" y="518.638348"/>
     <use style="fill:#4c72b0;stroke:#4c72b0;" x="269.07469" xlink:href="#mccbd5660a8" y="519.361473"/>
     <use style="fill:#4c72b0;stroke:#4c72b0;" x="271.13489" xlink:href="#mccbd5660a8" y="520.042387"/>
     <use style="fill:#4c72b0;stroke:#4c72b0;" x="273.173677" xlink:href="#mccbd5660a8" y="520.683212"/>
     <use style="fill:#4c72b0;stroke:#4c72b0;" x="275.192236" xlink:href="#mccbd5660a8" y="521.285906"/>
     <use style="fill:#4c72b0;stroke:#4c72b0;" x="277.191703" xlink:href="#mccbd5660a8" y="521.852274"/>
     <use style="fill:#4c72b0;stroke:#4c72b0;" x="279.173164" xlink:href="#mccbd5660a8" y="522.383986"/>
     <use style="fill:#4c72b0;stroke:#4c72b0;" x="281.137664" xlink:href="#mccbd5660a8" y="522.882585"/>
     <use style="fill:#4c72b0;stroke:#4c72b0;" x="283.086207" xlink:href="#mccbd5660a8" y="523.349497"/>
     <use style="fill:#4c72b0;stroke:#4c72b0;" x="285.019757" xlink:href="#mccbd5660a8" y="523.786043"/>
     <use style="fill:#4c72b0;stroke:#4c72b0;" x="286.939245" xlink:href="#mccbd5660a8" y="524.193447"/>
     <use style="fill:#4c72b0;stroke:#4c72b0;" x="288.845566" xlink:href="#mccbd5660a8" y="524.572841"/>
     <use style="fill:#4c72b0;stroke:#4c72b0;" x="290.739585" xlink:href="#mccbd5660a8" y="524.925273"/>
     <use style="fill:#4c72b0;stroke:#4c72b0;" x="292.62214" xlink:href="#mccbd5660a8" y="525.251717"/>
     <use style="fill:#4c72b0;stroke:#4c72b0;" x="294.49404" xlink:href="#mccbd5660a8" y="525.55307"/>
     <use style="fill:#4c72b0;stroke:#4c72b0;" x="296.356069" xlink:href="#mccbd5660a8" y="525.830166"/>
     <use style="fill:#4c72b0;stroke:#4c72b0;" x="298.20899" xlink:href="#mccbd5660a8" y="526.083775"/>
     <use style="fill:#4c72b0;stroke:#4c72b0;" x="300.053544" xlink:href="#mccbd5660a8" y="526.314606"/>
     <use style="fill:#4c72b0;stroke:#4c72b0;" x="301.890449" xlink:href="#mccbd5660a8" y="526.523317"/>
     <use style="fill:#4c72b0;stroke:#4c72b0;" x="303.72041" xlink:href="#mccbd5660a8" y="526.710512"/>
     <use style="fill:#4c72b0;stroke:#4c72b0;" x="305.54411" xlink:href="#mccbd5660a8" y="526.876746"/>
     <use style="fill:#4c72b0;stroke:#4c72b0;" x="307.362219" xlink:href="#mccbd5660a8" y="527.022528"/>
     <use style="fill:#4c72b0;stroke:#4c72b0;" x="309.175393" xlink:href="#mccbd5660a8" y="527.148324"/>
     <use style="fill:#4c72b0;stroke:#4c72b0;" x="310.984272" xlink:href="#mccbd5660a8" y="527.254557"/>
     <use style="fill:#4c72b0;stroke:#4c72b0;" x="312.789487" xlink:href="#mccbd5660a8" y="527.341612"/>
     <use style="fill:#4c72b0;stroke:#4c72b0;" x="314.591656" xlink:href="#mccbd5660a8" y="527.409833"/>
     <use style="fill:#4c72b0;stroke:#4c72b0;" x="316.391387" xlink:href="#mccbd5660a8" y="527.459531"/>
     <use style="fill:#4c72b0;stroke:#4c72b0;" x="318.189278" xlink:href="#mccbd5660a8" y="527.490978"/>
     <use style="fill:#4c72b0;stroke:#4c72b0;" x="319.98592" xlink:href="#mccbd5660a8" y="527.504414"/>
     <use style="fill:#4c72b0;stroke:#4c72b0;" x="321.781894" xlink:href="#mccbd5660a8" y="527.500047"/>
     <use style="fill:#4c72b0;stroke:#4c72b0;" x="323.577778" xlink:href="#mccbd5660a8" y="527.478049"/>
     <use style="fill:#4c72b0;stroke:#4c72b0;" x="325.374139" xlink:href="#mccbd5660a8" y="527.438565"/>
     <use style="fill:#4c72b0;stroke:#4c72b0;" x="327.17154" xlink:href="#mccbd5660a8" y="527.381705"/>
     <use style="fill:#4c72b0;stroke:#4c72b0;" x="328.970541" xlink:href="#mccbd5660a8" y="527.307551"/>
     <use style="fill:#4c72b0;stroke:#4c72b0;" x="330.771694" xlink:href="#mccbd5660a8" y="527.216155"/>
     <use style="fill:#4c72b0;stroke:#4c72b0;" x="332.575548" xlink:href="#mccbd5660a8" y="527.107537"/>
     <use style="fill:#4c72b0;stroke:#4c72b0;" x="334.38265" xlink:href="#mccbd5660a8" y="526.981691"/>
     <use style="fill:#4c72b0;stroke:#4c72b0;" x="336.193541" xlink:href="#mccbd5660a8" y="526.838578"/>
     <use style="fill:#4c72b0;stroke:#4c72b0;" x="338.00876" xlink:href="#mccbd5660a8" y="526.678132"/>
     <use style="fill:#4c72b0;stroke:#4c72b0;" x="339.828844" xlink:href="#mccbd5660a8" y="526.500255"/>
     <use style="fill:#4c72b0;stroke:#4c72b0;" x="341.654325" xlink:href="#mccbd5660a8" y="526.304822"/>
     <use style="fill:#4c72b0;stroke:#4c72b0;" x="343.485735" xlink:href="#mccbd5660a8" y="526.091675"/>
     <use style="fill:#4c72b0;stroke:#4c72b0;" x="345.323603" xlink:href="#mccbd5660a8" y="525.860628"/>
     <use style="fill:#4c72b0;stroke:#4c72b0;" x="347.168453" xlink:href="#mccbd5660a8" y="525.611462"/>
     <use style="fill:#4c72b0;stroke:#4c72b0;" x="349.02081" xlink:href="#mccbd5660a8" y="525.343927"/>
     <use style="fill:#4c72b0;stroke:#4c72b0;" x="350.881195" xlink:href="#mccbd5660a8" y="525.057742"/>
     <use style="fill:#4c72b0;stroke:#4c72b0;" x="352.750125" xlink:href="#mccbd5660a8" y="524.752592"/>
     <use style="fill:#4c72b0;stroke:#4c72b0;" x="354.628115" xlink:href="#mccbd5660a8" y="524.428129"/>
     <use style="fill:#4c72b0;stroke:#4c72b0;" x="356.515676" xlink:href="#mccbd5660a8" y="524.08397"/>
     <use style="fill:#4c72b0;stroke:#4c72b0;" x="358.413314" xlink:href="#mccbd5660a8" y="523.719698"/>
     <use style="fill:#4c72b0;stroke:#4c72b0;" x="360.321533" xlink:href="#mccbd5660a8" y="523.334858"/>
     <use style="fill:#4c72b0;stroke:#4c72b0;" x="362.240828" xlink:href="#mccbd5660a8" y="522.928958"/>
     <use style="fill:#4c72b0;stroke:#4c72b0;" x="364.171689" xlink:href="#mccbd5660a8" y="522.50147"/>
     <use style="fill:#4c72b0;stroke:#4c72b0;" x="366.114599" xlink:href="#mccbd5660a8" y="522.051823"/>
     <use style="fill:#4c72b0;stroke:#4c72b0;" x="368.070033" xlink:href="#mccbd5660a8" y="521.579408"/>
     <use style="fill:#4c72b0;stroke:#4c72b0;" x="370.038453" xlink:href="#mccbd5660a8" y="521.083573"/>
     <use style="fill:#4c72b0;stroke:#4c72b0;" x="372.020314" xlink:href="#mccbd5660a8" y="520.563621"/>
     <use style="fill:#4c72b0;stroke:#4c72b0;" x="374.016053" xlink:href="#mccbd5660a8" y="520.018813"/>
     <use style="fill:#4c72b0;stroke:#4c72b0;" x="376.026097" xlink:href="#mccbd5660a8" y="519.448364"/>
     <use style="fill:#4c72b0;stroke:#4c72b0;" x="378.050852" xlink:href="#mccbd5660a8" y="518.851441"/>
     <use style="fill:#4c72b0;stroke:#4c72b0;" x="380.090705" xlink:href="#mccbd5660a8" y="518.227161"/>
     <use style="fill:#4c72b0;stroke:#4c72b0;" x="382.146022" xlink:href="#mccbd5660a8" y="517.574594"/>
     <use style="fill:#4c72b0;stroke:#4c72b0;" x="384.217143" xlink:href="#mccbd5660a8" y="516.892757"/>
     <use style="fill:#4c72b0;stroke:#4c72b0;" x="386.304381" xlink:href="#mccbd5660a8" y="516.180615"/>
     <use style="fill:#4c72b0;stroke:#4c72b0;" x="388.408015" xlink:href="#mccbd5660a8" y="515.43708"/>
     <use style="fill:#4c72b0;stroke:#4c72b0;" x="390.52829" xlink:href="#mccbd5660a8" y="514.661011"/>
     <use style="fill:#4c72b0;stroke:#4c72b0;" x="392.665411" xlink:href="#mccbd5660a8" y="513.851208"/>
     <use style="fill:#4c72b0;stroke:#4c72b0;" x="394.819536" xlink:href="#mccbd5660a8" y="513.006418"/>
     <use style="fill:#4c72b0;stroke:#4c72b0;" x="396.990778" xlink:href="#mccbd5660a8" y="512.125332"/>
     <use style="fill:#4c72b0;stroke:#4c72b0;" x="399.179191" xlink:href="#mccbd5660a8" y="511.206581"/>
     <use style="fill:#4c72b0;stroke:#4c72b0;" x="401.384771" xlink:href="#mccbd5660a8" y="510.248744"/>
     <use style="fill:#4c72b0;stroke:#4c72b0;" x="403.607447" xlink:href="#mccbd5660a8" y="509.250341"/>
     <use style="fill:#4c72b0;stroke:#4c72b0;" x="405.847073" xlink:href="#mccbd5660a8" y="508.209838"/>
     <use style="fill:#4c72b0;stroke:#4c72b0;" x="408.103425" xlink:href="#mccbd5660a8" y="507.125647"/>
     <use style="fill:#4c72b0;stroke:#4c72b0;" x="410.376188" xlink:href="#mccbd5660a8" y="505.996128"/>
     <use style="fill:#4c72b0;stroke:#4c72b0;" x="412.664953" xlink:href="#mccbd5660a8" y="504.819592"/>
     <use style="fill:#4c72b0;stroke:#4c72b0;" x="414.969208" xlink:href="#mccbd5660a8" y="503.594304"/>
     <use style="fill:#4c72b0;stroke:#4c72b0;" x="417.288325" xlink:href="#mccbd5660a8" y="502.318488"/>
     <use style="fill:#4c72b0;stroke:#4c72b0;" x="419.621555" xlink:href="#mccbd5660a8" y="500.990332"/>
     <use style="fill:#4c72b0;stroke:#4c72b0;" x="421.96802" xlink:href="#mccbd5660a8" y="499.60799"/>
     <use style="fill:#4c72b0;stroke:#4c72b0;" x="424.326698" xlink:href="#mccbd5660a8" y="498.169596"/>
     <use style="fill:#4c72b0;stroke:#4c72b0;" x="426.696419" xlink:href="#mccbd5660a8" y="496.673266"/>
     <use style="fill:#4c72b0;stroke:#4c72b0;" x="429.075851" xlink:href="#mccbd5660a8" y="495.117112"/>
     <use style="fill:#4c72b0;stroke:#4c72b0;" x="431.463493" xlink:href="#mccbd5660a8" y="493.49925"/>
     <use style="fill:#4c72b0;stroke:#4c72b0;" x="433.857666" xlink:href="#mccbd5660a8" y="491.817814"/>
     <use style="fill:#4c72b0;stroke:#4c72b0;" x="436.256502" xlink:href="#mccbd5660a8" y="490.070969"/>
     <use style="fill:#4c72b0;stroke:#4c72b0;" x="438.657938" xlink:href="#mccbd5660a8" y="488.256926"/>
     <use style="fill:#4c72b0;stroke:#4c72b0;" x="441.059706" xlink:href="#mccbd5660a8" y="486.373961"/>
     <use style="fill:#4c72b0;stroke:#4c72b0;" x="443.459329" xlink:href="#mccbd5660a8" y="484.420432"/>
     <use style="fill:#4c72b0;stroke:#4c72b0;" x="445.854117" xlink:href="#mccbd5660a8" y="482.394798"/>
     <use style="fill:#4c72b0;stroke:#4c72b0;" x="448.241158" xlink:href="#mccbd5660a8" y="480.295644"/>
     <use style="fill:#4c72b0;stroke:#4c72b0;" x="450.617325" xlink:href="#mccbd5660a8" y="478.121702"/>
     <use style="fill:#4c72b0;stroke:#4c72b0;" x="452.979269" xlink:href="#mccbd5660a8" y="475.871874"/>
     <use style="fill:#4c72b0;stroke:#4c72b0;" x="455.323427" xlink:href="#mccbd5660a8" y="473.54526"/>
     <use style="fill:#4c72b0;stroke:#4c72b0;" x="457.646027" xlink:href="#mccbd5660a8" y="471.141184"/>
     <use style="fill:#4c72b0;stroke:#4c72b0;" x="459.943095" xlink:href="#mccbd5660a8" y="468.659218"/>
     <use style="fill:#4c72b0;stroke:#4c72b0;" x="462.210474" xlink:href="#mccbd5660a8" y="466.09921"/>
     <use style="fill:#4c72b0;stroke:#4c72b0;" x="464.443833" xlink:href="#mccbd5660a8" y="463.461312"/>
     <use style="fill:#4c72b0;stroke:#4c72b0;" x="466.638691" xlink:href="#mccbd5660a8" y="460.746003"/>
     <use style="fill:#4c72b0;stroke:#4c72b0;" x="468.79044" xlink:href="#mccbd5660a8" y="457.954111"/>
     <use style="fill:#4c72b0;stroke:#4c72b0;" x="470.894373" xlink:href="#mccbd5660a8" y="455.086839"/>
     <use style="fill:#4c72b0;stroke:#4c72b0;" x="472.945715" xlink:href="#mccbd5660a8" y="452.145781"/>
     <use style="fill:#4c72b0;stroke:#4c72b0;" x="474.939659" xlink:href="#mccbd5660a8" y="449.132938"/>
     <use style="fill:#4c72b0;stroke:#4c72b0;" x="476.871403" xlink:href="#mccbd5660a8" y="446.050729"/>
     <use style="fill:#4c72b0;stroke:#4c72b0;" x="478.736191" xlink:href="#mccbd5660a8" y="442.901997"/>
     <use style="fill:#4c72b0;stroke:#4c72b0;" x="480.529358" xlink:href="#mccbd5660a8" y="439.690015"/>
     <use style="fill:#4c72b0;stroke:#4c72b0;" x="482.246373" xlink:href="#mccbd5660a8" y="436.418475"/>
     <use style="fill:#4c72b0;stroke:#4c72b0;" x="483.882886" xlink:href="#mccbd5660a8" y="433.091485"/>
     <use style="fill:#4c72b0;stroke:#4c72b0;" x="485.434772" xlink:href="#mccbd5660a8" y="429.713546"/>
     <use style="fill:#4c72b0;stroke:#4c72b0;" x="486.898176" xlink:href="#mccbd5660a8" y="426.289538"/>
     <use style="fill:#4c72b0;stroke:#4c72b0;" x="488.269559" xlink:href="#mccbd5660a8" y="422.824683"/>
     <use style="fill:#4c72b0;stroke:#4c72b0;" x="489.545732" xlink:href="#mccbd5660a8" y="419.324515"/>
     <use style="fill:#4c72b0;stroke:#4c72b0;" x="490.723897" xlink:href="#mccbd5660a8" y="415.794843"/>
     <use style="fill:#4c72b0;stroke:#4c72b0;" x="491.801674" xlink:href="#mccbd5660a8" y="412.241699"/>
     <use style="fill:#4c72b0;stroke:#4c72b0;" x="492.777131" xlink:href="#mccbd5660a8" y="408.671298"/>
     <use style="fill:#4c72b0;stroke:#4c72b0;" x="493.648803" xlink:href="#mccbd5660a8" y="405.08998"/>
     <use style="fill:#4c72b0;stroke:#4c72b0;" x="494.415704" xlink:href="#mccbd5660a8" y="401.504158"/>
     <use style="fill:#4c72b0;stroke:#4c72b0;" x="495.077334" xlink:href="#mccbd5660a8" y="397.920268"/>
     <use style="fill:#4c72b0;stroke:#4c72b0;" x="495.633681" xlink:href="#mccbd5660a8" y="394.344708"/>
     <use style="fill:#4c72b0;stroke:#4c72b0;" x="496.085214" xlink:href="#mccbd5660a8" y="390.783788"/>
     <use style="fill:#4c72b0;stroke:#4c72b0;" x="496.432868" xlink:href="#mccbd5660a8" y="387.243678"/>
     <use style="fill:#4c72b0;stroke:#4c72b0;" x="496.678026" xlink:href="#mccbd5660a8" y="383.730359"/>
     <use style="fill:#4c72b0;stroke:#4c72b0;" x="496.822495" xlink:href="#mccbd5660a8" y="380.249582"/>
     <use style="fill:#4c72b0;stroke:#4c72b0;" x="496.868478" xlink:href="#mccbd5660a8" y="376.806825"/>
     <use style="fill:#4c72b0;stroke:#4c72b0;" x="496.818538" xlink:href="#mccbd5660a8" y="373.407261"/>
     <use style="fill:#4c72b0;stroke:#4c72b0;" x="496.675562" xlink:href="#mccbd5660a8" y="370.055725"/>
     <use style="fill:#4c72b0;stroke:#4c72b0;" x="496.442727" xlink:href="#mccbd5660a8" y="366.756698"/>
     <use style="fill:#4c72b0;stroke:#4c72b0;" x="496.123456" xlink:href="#mccbd5660a8" y="363.514282"/>
     <use style="fill:#4c72b0;stroke:#4c72b0;" x="495.721378" xlink:href="#mccbd5660a8" y="360.332195"/>
     <use style="fill:#4c72b0;stroke:#4c72b0;" x="495.24029" xlink:href="#mccbd5660a8" y="357.213758"/>
     <use style="fill:#4c72b0;stroke:#4c72b0;" x="494.684117" xlink:href="#mccbd5660a8" y="354.1619"/>
     <use style="fill:#4c72b0;stroke:#4c72b0;" x="494.056874" xlink:href="#mccbd5660a8" y="351.179158"/>
     <use style="fill:#4c72b0;stroke:#4c72b0;" x="493.362631" xlink:href="#mccbd5660a8" y="348.267686"/>
     <use style="fill:#4c72b0;stroke:#4c72b0;" x="492.605479" xlink:href="#mccbd5660a8" y="345.429267"/>
     <use style="fill:#4c72b0;stroke:#4c72b0;" x="491.789501" xlink:href="#mccbd5660a8" y="342.665324"/>
     <use style="fill:#4c72b0;stroke:#4c72b0;" x="490.918743" xlink:href="#mccbd5660a8" y="339.976943"/>
     <use style="fill:#4c72b0;stroke:#4c72b0;" x="489.99719" xlink:href="#mccbd5660a8" y="337.364887"/>
     <use style="fill:#4c72b0;stroke:#4c72b0;" x="489.028747" xlink:href="#mccbd5660a8" y="334.829618"/>
     <use style="fill:#4c72b0;stroke:#4c72b0;" x="488.017214" xlink:href="#mccbd5660a8" y="332.371322"/>
     <use style="fill:#4c72b0;stroke:#4c72b0;" x="486.966279" xlink:href="#mccbd5660a8" y="329.989924"/>
     <use style="fill:#4c72b0;stroke:#4c72b0;" x="485.8795" xlink:href="#mccbd5660a8" y="327.685119"/>
     <use style="fill:#4c72b0;stroke:#4c72b0;" x="484.760293" xlink:href="#mccbd5660a8" y="325.456388"/>
     <use style="fill:#4c72b0;stroke:#4c72b0;" x="483.611933" xlink:href="#mccbd5660a8" y="323.30302"/>
     <use style="fill:#4c72b0;stroke:#4c72b0;" x="482.437539" xlink:href="#mccbd5660a8" y="321.22414"/>
     <use style="fill:#4c72b0;stroke:#4c72b0;" x="481.240077" xlink:href="#mccbd5660a8" y="319.21872"/>
     <use style="fill:#4c72b0;stroke:#4c72b0;" x="480.022354" xlink:href="#mccbd5660a8" y="317.285604"/>
     <use style="fill:#4c72b0;stroke:#4c72b0;" x="478.787023" xlink:href="#mccbd5660a8" y="315.423525"/>
     <use style="fill:#4c72b0;stroke:#4c72b0;" x="477.53658" xlink:href="#mccbd5660a8" y="313.631123"/>
     <use style="fill:#4c72b0;stroke:#4c72b0;" x="476.273367" xlink:href="#mccbd5660a8" y="311.906959"/>
     <use style="fill:#4c72b0;stroke:#4c72b0;" x="474.999579" xlink:href="#mccbd5660a8" y="310.249529"/>
     <use style="fill:#4c72b0;stroke:#4c72b0;" x="473.717263" xlink:href="#mccbd5660a8" y="308.65728"/>
     <use style="fill:#4c72b0;stroke:#4c72b0;" x="472.428326" xlink:href="#mccbd5660a8" y="307.128621"/>
     <use style="fill:#4c72b0;stroke:#4c72b0;" x="471.134542" xlink:href="#mccbd5660a8" y="305.661933"/>
     <use style="fill:#4c72b0;stroke:#4c72b0;" x="469.837551" xlink:href="#mccbd5660a8" y="304.255581"/>
     <use style="fill:#4c72b0;stroke:#4c72b0;" x="468.538873" xlink:href="#mccbd5660a8" y="302.907919"/>
     <use style="fill:#4c72b0;stroke:#4c72b0;" x="467.239909" xlink:href="#mccbd5660a8" y="301.617303"/>
     <use style="fill:#4c72b0;stroke:#4c72b0;" x="465.941946" xlink:href="#mccbd5660a8" y="300.382091"/>
     <use style="fill:#4c72b0;stroke:#4c72b0;" x="464.646169" xlink:href="#mccbd5660a8" y="299.200658"/>
     <use style="fill:#4c72b0;stroke:#4c72b0;" x="463.353662" xlink:href="#mccbd5660a8" y="298.071392"/>
     <use style="fill:#4c72b0;stroke:#4c72b0;" x="462.065414" xlink:href="#mccbd5660a8" y="296.992704"/>
     <use style="fill:#4c72b0;stroke:#4c72b0;" x="460.782329" xlink:href="#mccbd5660a8" y="295.963031"/>
     <use style="fill:#4c72b0;stroke:#4c72b0;" x="459.505226" xlink:href="#mccbd5660a8" y="294.980838"/>
     <use style="fill:#4c72b0;stroke:#4c72b0;" x="458.234848" xlink:href="#mccbd5660a8" y="294.04462"/>
     <use style="fill:#4c72b0;stroke:#4c72b0;" x="456.971868" xlink:href="#mccbd5660a8" y="293.152907"/>
     <use style="fill:#4c72b0;stroke:#4c72b0;" x="455.71689" xlink:href="#mccbd5660a8" y="292.304263"/>
     <use style="fill:#4c72b0;stroke:#4c72b0;" x="454.470457" xlink:href="#mccbd5660a8" y="291.497288"/>
     <use style="fill:#4c72b0;stroke:#4c72b0;" x="453.233055" xlink:href="#mccbd5660a8" y="290.730619"/>
     <use style="fill:#4c72b0;stroke:#4c72b0;" x="452.005116" xlink:href="#mccbd5660a8" y="290.002932"/>
     <use style="fill:#4c72b0;stroke:#4c72b0;" x="450.787023" xlink:href="#mccbd5660a8" y="289.312939"/>
     <use style="fill:#4c72b0;stroke:#4c72b0;" x="449.579114" xlink:href="#mccbd5660a8" y="288.659393"/>
     <use style="fill:#4c72b0;stroke:#4c72b0;" x="448.381684" xlink:href="#mccbd5660a8" y="288.041084"/>
     <use style="fill:#4c72b0;stroke:#4c72b0;" x="447.19499" xlink:href="#mccbd5660a8" y="287.456839"/>
     <use style="fill:#4c72b0;stroke:#4c72b0;" x="446.019254" xlink:href="#mccbd5660a8" y="286.905525"/>
     <use style="fill:#4c72b0;stroke:#4c72b0;" x="444.854664" xlink:href="#mccbd5660a8" y="286.386043"/>
     <use style="fill:#4c72b0;stroke:#4c72b0;" x="443.70138" xlink:href="#mccbd5660a8" y="285.897333"/>
     <use style="fill:#4c72b0;stroke:#4c72b0;" x="442.559532" xlink:href="#mccbd5660a8" y="285.438371"/>
     <use style="fill:#4c72b0;stroke:#4c72b0;" x="441.429227" xlink:href="#mccbd5660a8" y="285.008167"/>
     <use style="fill:#4c72b0;stroke:#4c72b0;" x="440.310549" xlink:href="#mccbd5660a8" y="284.605765"/>
     <use style="fill:#4c72b0;stroke:#4c72b0;" x="439.203559" xlink:href="#mccbd5660a8" y="284.230244"/>
     <use style="fill:#4c72b0;stroke:#4c72b0;" x="438.108302" xlink:href="#mccbd5660a8" y="283.880714"/>
     <use style="fill:#4c72b0;stroke:#4c72b0;" x="437.024804" xlink:href="#mccbd5660a8" y="283.556317"/>
     <use style="fill:#4c72b0;stroke:#4c72b0;" x="435.953075" xlink:href="#mccbd5660a8" y="283.256228"/>
     <use style="fill:#4c72b0;stroke:#4c72b0;" x="434.893112" xlink:href="#mccbd5660a8" y="282.979647"/>
     <use style="fill:#4c72b0;stroke:#4c72b0;" x="433.844897" xlink:href="#mccbd5660a8" y="282.725808"/>
     <use style="fill:#4c72b0;stroke:#4c72b0;" x="432.808403" xlink:href="#mccbd5660a8" y="282.493968"/>
     <use style="fill:#4c72b0;stroke:#4c72b0;" x="431.783591" xlink:href="#mccbd5660a8" y="282.283416"/>
     <use style="fill:#4c72b0;stroke:#4c72b0;" x="430.770413" xlink:href="#mccbd5660a8" y="282.093463"/>
     <use style="fill:#4c72b0;stroke:#4c72b0;" x="429.768813" xlink:href="#mccbd5660a8" y="281.923446"/>
     <use style="fill:#4c72b0;stroke:#4c72b0;" x="428.778726" xlink:href="#mccbd5660a8" y="281.772728"/>
     <use style="fill:#4c72b0;stroke:#4c72b0;" x="427.800083" xlink:href="#mccbd5660a8" y="281.640694"/>
     <use style="fill:#4c72b0;stroke:#4c72b0;" x="426.832806" xlink:href="#mccbd5660a8" y="281.526751"/>
     <use style="fill:#4c72b0;stroke:#4c72b0;" x="425.876813" xlink:href="#mccbd5660a8" y="281.430328"/>
     <use style="fill:#4c72b0;stroke:#4c72b0;" x="424.932019" xlink:href="#mccbd5660a8" y="281.350876"/>
     <use style="fill:#4c72b0;stroke:#4c72b0;" x="423.998333" xlink:href="#mccbd5660a8" y="281.287864"/>
     <use style="fill:#4c72b0;stroke:#4c72b0;" x="423.075662" xlink:href="#mccbd5660a8" y="281.240782"/>
     <use style="fill:#4c72b0;stroke:#4c72b0;" x="422.163908" xlink:href="#mccbd5660a8" y="281.209139"/>
     <use style="fill:#4c72b0;stroke:#4c72b0;" x="421.262973" xlink:href="#mccbd5660a8" y="281.192459"/>
     <use style="fill:#4c72b0;stroke:#4c72b0;" x="420.372754" xlink:href="#mccbd5660a8" y="281.190286"/>
     <use style="fill:#4c72b0;stroke:#4c72b0;" x="419.49315" xlink:href="#mccbd5660a8" y="281.20218"/>
     <use style="fill:#4c72b0;stroke:#4c72b0;" x="418.624055" xlink:href="#mccbd5660a8" y="281.227715"/>
     <use style="fill:#4c72b0;stroke:#4c72b0;" x="417.765363" xlink:href="#mccbd5660a8" y="281.266482"/>
     <use style="fill:#4c72b0;stroke:#4c72b0;" x="416.916969" xlink:href="#mccbd5660a8" y="281.318086"/>
     <use style="fill:#4c72b0;stroke:#4c72b0;" x="416.078766" xlink:href="#mccbd5660a8" y="281.382146"/>
     <use style="fill:#4c72b0;stroke:#4c72b0;" x="415.250646" xlink:href="#mccbd5660a8" y="281.458296"/>
     <use style="fill:#4c72b0;stroke:#4c72b0;" x="414.432501" xlink:href="#mccbd5660a8" y="281.54618"/>
     <use style="fill:#4c72b0;stroke:#4c72b0;" x="413.624225" xlink:href="#mccbd5660a8" y="281.645456"/>
     <use style="fill:#4c72b0;stroke:#4c72b0;" x="412.82571" xlink:href="#mccbd5660a8" y="281.755795"/>
     <use style="fill:#4c72b0;stroke:#4c72b0;" x="412.03685" xlink:href="#mccbd5660a8" y="281.876877"/>
     <use style="fill:#4c72b0;stroke:#4c72b0;" x="411.257538" xlink:href="#mccbd5660a8" y="282.008396"/>
     <use style="fill:#4c72b0;stroke:#4c72b0;" x="410.487669" xlink:href="#mccbd5660a8" y="282.150054"/>
     <use style="fill:#4c72b0;stroke:#4c72b0;" x="409.727139" xlink:href="#mccbd5660a8" y="282.301565"/>
     <use style="fill:#4c72b0;stroke:#4c72b0;" x="408.975842" xlink:href="#mccbd5660a8" y="282.462651"/>
     <use style="fill:#4c72b0;stroke:#4c72b0;" x="408.233677" xlink:href="#mccbd5660a8" y="282.633045"/>
     <use style="fill:#4c72b0;stroke:#4c72b0;" x="407.500541" xlink:href="#mccbd5660a8" y="282.812489"/>
     <use style="fill:#4c72b0;stroke:#4c72b0;" x="406.776334" xlink:href="#mccbd5660a8" y="283.000732"/>
     <use style="fill:#4c72b0;stroke:#4c72b0;" x="406.060956" xlink:href="#mccbd5660a8" y="283.197532"/>
     <use style="fill:#4c72b0;stroke:#4c72b0;" x="405.354308" xlink:href="#mccbd5660a8" y="283.402657"/>
     <use style="fill:#4c72b0;stroke:#4c72b0;" x="404.656293" xlink:href="#mccbd5660a8" y="283.615879"/>
     <use style="fill:#4c72b0;stroke:#4c72b0;" x="403.966816" xlink:href="#mccbd5660a8" y="283.836981"/>
     <use style="fill:#4c72b0;stroke:#4c72b0;" x="403.285781" xlink:href="#mccbd5660a8" y="284.065752"/>
     <use style="fill:#4c72b0;stroke:#4c72b0;" x="402.613096" xlink:href="#mccbd5660a8" y="284.301985"/>
     <use style="fill:#4c72b0;stroke:#4c72b0;" x="401.948668" xlink:href="#mccbd5660a8" y="284.545484"/>
     <use style="fill:#4c72b0;stroke:#4c72b0;" x="401.292407" xlink:href="#mccbd5660a8" y="284.796057"/>
     <use style="fill:#4c72b0;stroke:#4c72b0;" x="400.644224" xlink:href="#mccbd5660a8" y="285.053518"/>
     <use style="fill:#4c72b0;stroke:#4c72b0;" x="400.004031" xlink:href="#mccbd5660a8" y="285.317687"/>
     <use style="fill:#4c72b0;stroke:#4c72b0;" x="399.371742" xlink:href="#mccbd5660a8" y="285.588389"/>
     <use style="fill:#4c72b0;stroke:#4c72b0;" x="398.747272" xlink:href="#mccbd5660a8" y="285.865457"/>
     <use style="fill:#4c72b0;stroke:#4c72b0;" x="398.130538" xlink:href="#mccbd5660a8" y="286.148727"/>
     <use style="fill:#4c72b0;stroke:#4c72b0;" x="397.521458" xlink:href="#mccbd5660a8" y="286.438039"/>
     <use style="fill:#4c72b0;stroke:#4c72b0;" x="396.91995" xlink:href="#mccbd5660a8" y="286.733241"/>
     <use style="fill:#4c72b0;stroke:#4c72b0;" x="396.325937" xlink:href="#mccbd5660a8" y="287.034183"/>
     <use style="fill:#4c72b0;stroke:#4c72b0;" x="395.73934" xlink:href="#mccbd5660a8" y="287.34072"/>
     <use style="fill:#4c72b0;stroke:#4c72b0;" x="395.160083" xlink:href="#mccbd5660a8" y="287.652712"/>
     <use style="fill:#4c72b0;stroke:#4c72b0;" x="394.58809" xlink:href="#mccbd5660a8" y="287.970023"/>
     <use style="fill:#4c72b0;stroke:#4c72b0;" x="394.023289" xlink:href="#mccbd5660a8" y="288.29252"/>
     <use style="fill:#4c72b0;stroke:#4c72b0;" x="393.465607" xlink:href="#mccbd5660a8" y="288.620075"/>
     <use style="fill:#4c72b0;stroke:#4c72b0;" x="392.914974" xlink:href="#mccbd5660a8" y="288.952564"/>
     <use style="fill:#4c72b0;stroke:#4c72b0;" x="392.371319" xlink:href="#mccbd5660a8" y="289.289866"/>
     <use style="fill:#4c72b0;stroke:#4c72b0;" x="391.834575" xlink:href="#mccbd5660a8" y="289.631862"/>
     <use style="fill:#4c72b0;stroke:#4c72b0;" x="391.304674" xlink:href="#mccbd5660a8" y="289.978438"/>
     <use style="fill:#4c72b0;stroke:#4c72b0;" x="390.781552" xlink:href="#mccbd5660a8" y="290.329483"/>
     <use style="fill:#4c72b0;stroke:#4c72b0;" x="390.265143" xlink:href="#mccbd5660a8" y="290.684889"/>
     <use style="fill:#4c72b0;stroke:#4c72b0;" x="389.755386" xlink:href="#mccbd5660a8" y="291.044551"/>
     <use style="fill:#4c72b0;stroke:#4c72b0;" x="389.252217" xlink:href="#mccbd5660a8" y="291.408367"/>
     <use style="fill:#4c72b0;stroke:#4c72b0;" x="388.755577" xlink:href="#mccbd5660a8" y="291.776237"/>
     <use style="fill:#4c72b0;stroke:#4c72b0;" x="388.265406" xlink:href="#mccbd5660a8" y="292.148064"/>
     <use style="fill:#4c72b0;stroke:#4c72b0;" x="387.781646" xlink:href="#mccbd5660a8" y="292.523754"/>
     <use style="fill:#4c72b0;stroke:#4c72b0;" x="387.30424" xlink:href="#mccbd5660a8" y="292.903216"/>
     <use style="fill:#4c72b0;stroke:#4c72b0;" x="386.833132" xlink:href="#mccbd5660a8" y="293.286359"/>
     <use style="fill:#4c72b0;stroke:#4c72b0;" x="386.368268" xlink:href="#mccbd5660a8" y="293.673097"/>
     <use style="fill:#4c72b0;stroke:#4c72b0;" x="385.909594" xlink:href="#mccbd5660a8" y="294.063345"/>
     <use style="fill:#4c72b0;stroke:#4c72b0;" x="385.457057" xlink:href="#mccbd5660a8" y="294.45702"/>
     <use style="fill:#4c72b0;stroke:#4c72b0;" x="385.010606" xlink:href="#mccbd5660a8" y="294.854042"/>
     <use style="fill:#4c72b0;stroke:#4c72b0;" x="384.570191" xlink:href="#mccbd5660a8" y="295.254332"/>
     <use style="fill:#4c72b0;stroke:#4c72b0;" x="384.135763" xlink:href="#mccbd5660a8" y="295.657813"/>
     <use style="fill:#4c72b0;stroke:#4c72b0;" x="383.707273" xlink:href="#mccbd5660a8" y="296.06441"/>
     <use style="fill:#4c72b0;stroke:#4c72b0;" x="383.284675" xlink:href="#mccbd5660a8" y="296.474051"/>
     <use style="fill:#4c72b0;stroke:#4c72b0;" x="382.867921" xlink:href="#mccbd5660a8" y="296.886664"/>
     <use style="fill:#4c72b0;stroke:#4c72b0;" x="382.456967" xlink:href="#mccbd5660a8" y="297.30218"/>
     <use style="fill:#4c72b0;stroke:#4c72b0;" x="382.051769" xlink:href="#mccbd5660a8" y="297.72053"/>
     <use style="fill:#4c72b0;stroke:#4c72b0;" x="381.652282" xlink:href="#mccbd5660a8" y="298.141649"/>
     <use style="fill:#4c72b0;stroke:#4c72b0;" x="381.258466" xlink:href="#mccbd5660a8" y="298.565471"/>
     <use style="fill:#4c72b0;stroke:#4c72b0;" x="380.870278" xlink:href="#mccbd5660a8" y="298.991934"/>
     <use style="fill:#4c72b0;stroke:#4c72b0;" x="380.487678" xlink:href="#mccbd5660a8" y="299.420974"/>
     <use style="fill:#4c72b0;stroke:#4c72b0;" x="380.110626" xlink:href="#mccbd5660a8" y="299.852532"/>
     <use style="fill:#4c72b0;stroke:#4c72b0;" x="379.739084" xlink:href="#mccbd5660a8" y="300.286548"/>
     <use style="fill:#4c72b0;stroke:#4c72b0;" x="379.373013" xlink:href="#mccbd5660a8" y="300.722964"/>
     <use style="fill:#4c72b0;stroke:#4c72b0;" x="379.012377" xlink:href="#mccbd5660a8" y="301.161724"/>
     <use style="fill:#4c72b0;stroke:#4c72b0;" x="378.657139" xlink:href="#mccbd5660a8" y="301.602772"/>
     <use style="fill:#4c72b0;stroke:#4c72b0;" x="378.307264" xlink:href="#mccbd5660a8" y="302.046053"/>
     <use style="fill:#4c72b0;stroke:#4c72b0;" x="377.962716" xlink:href="#mccbd5660a8" y="302.491514"/>
     <use style="fill:#4c72b0;stroke:#4c72b0;" x="377.623463" xlink:href="#mccbd5660a8" y="302.939103"/>
     <use style="fill:#4c72b0;stroke:#4c72b0;" x="377.289471" xlink:href="#mccbd5660a8" y="303.388769"/>
     <use style="fill:#4c72b0;stroke:#4c72b0;" x="376.960708" xlink:href="#mccbd5660a8" y="303.840461"/>
     <use style="fill:#4c72b0;stroke:#4c72b0;" x="376.637143" xlink:href="#mccbd5660a8" y="304.294131"/>
     <use style="fill:#4c72b0;stroke:#4c72b0;" x="376.318743" xlink:href="#mccbd5660a8" y="304.74973"/>
     <use style="fill:#4c72b0;stroke:#4c72b0;" x="376.00548" xlink:href="#mccbd5660a8" y="305.207211"/>
     <use style="fill:#4c72b0;stroke:#4c72b0;" x="375.697324" xlink:href="#mccbd5660a8" y="305.666527"/>
     <use style="fill:#4c72b0;stroke:#4c72b0;" x="375.394246" xlink:href="#mccbd5660a8" y="306.127632"/>
     <use style="fill:#4c72b0;stroke:#4c72b0;" x="375.096218" xlink:href="#mccbd5660a8" y="306.590483"/>
     <use style="fill:#4c72b0;stroke:#4c72b0;" x="374.803213" xlink:href="#mccbd5660a8" y="307.055034"/>
     <use style="fill:#4c72b0;stroke:#4c72b0;" x="374.515204" xlink:href="#mccbd5660a8" y="307.521243"/>
     <use style="fill:#4c72b0;stroke:#4c72b0;" x="374.232165" xlink:href="#mccbd5660a8" y="307.989067"/>
     <use style="fill:#4c72b0;stroke:#4c72b0;" x="373.95407" xlink:href="#mccbd5660a8" y="308.458465"/>
     <use style="fill:#4c72b0;stroke:#4c72b0;" x="373.680895" xlink:href="#mccbd5660a8" y="308.929394"/>
     <use style="fill:#4c72b0;stroke:#4c72b0;" x="373.412616" xlink:href="#mccbd5660a8" y="309.401816"/>
     <use style="fill:#4c72b0;stroke:#4c72b0;" x="373.149209" xlink:href="#mccbd5660a8" y="309.875689"/>
     <use style="fill:#4c72b0;stroke:#4c72b0;" x="372.890651" xlink:href="#mccbd5660a8" y="310.350975"/>
     <use style="fill:#4c72b0;stroke:#4c72b0;" x="372.63692" xlink:href="#mccbd5660a8" y="310.827635"/>
     <use style="fill:#4c72b0;stroke:#4c72b0;" x="372.387993" xlink:href="#mccbd5660a8" y="311.305631"/>
     <use style="fill:#4c72b0;stroke:#4c72b0;" x="372.143851" xlink:href="#mccbd5660a8" y="311.784925"/>
     <use style="fill:#4c72b0;stroke:#4c72b0;" x="371.904471" xlink:href="#mccbd5660a8" y="312.265482"/>
     <use style="fill:#4c72b0;stroke:#4c72b0;" x="371.669834" xlink:href="#mccbd5660a8" y="312.747263"/>
     <use style="fill:#4c72b0;stroke:#4c72b0;" x="371.43992" xlink:href="#mccbd5660a8" y="313.230234"/>
     <use style="fill:#4c72b0;stroke:#4c72b0;" x="371.214711" xlink:href="#mccbd5660a8" y="313.714359"/>
     <use style="fill:#4c72b0;stroke:#4c72b0;" x="370.994188" xlink:href="#mccbd5660a8" y="314.199603"/>
     <use style="fill:#4c72b0;stroke:#4c72b0;" x="370.778332" xlink:href="#mccbd5660a8" y="314.685932"/>
     <use style="fill:#4c72b0;stroke:#4c72b0;" x="370.567127" xlink:href="#mccbd5660a8" y="315.17331"/>
     <use style="fill:#4c72b0;stroke:#4c72b0;" x="370.360554" xlink:href="#mccbd5660a8" y="315.661705"/>
     <use style="fill:#4c72b0;stroke:#4c72b0;" x="370.158599" xlink:href="#mccbd5660a8" y="316.151084"/>
     <use style="fill:#4c72b0;stroke:#4c72b0;" x="369.961244" xlink:href="#mccbd5660a8" y="316.641412"/>
     <use style="fill:#4c72b0;stroke:#4c72b0;" x="369.768475" xlink:href="#mccbd5660a8" y="317.132659"/>
     <use style="fill:#4c72b0;stroke:#4c72b0;" x="369.580276" xlink:href="#mccbd5660a8" y="317.62479"/>
     <use style="fill:#4c72b0;stroke:#4c72b0;" x="369.396632" xlink:href="#mccbd5660a8" y="318.117776"/>
     <use style="fill:#4c72b0;stroke:#4c72b0;" x="369.21753" xlink:href="#mccbd5660a8" y="318.611583"/>
     <use style="fill:#4c72b0;stroke:#4c72b0;" x="369.042955" xlink:href="#mccbd5660a8" y="319.106181"/>
     <use style="fill:#4c72b0;stroke:#4c72b0;" x="368.872895" xlink:href="#mccbd5660a8" y="319.601539"/>
     <use style="fill:#4c72b0;stroke:#4c72b0;" x="368.707336" xlink:href="#mccbd5660a8" y="320.097626"/>
     <use style="fill:#4c72b0;stroke:#4c72b0;" x="368.546266" xlink:href="#mccbd5660a8" y="320.594411"/>
     <use style="fill:#4c72b0;stroke:#4c72b0;" x="368.389674" xlink:href="#mccbd5660a8" y="321.091865"/>
     <use style="fill:#4c72b0;stroke:#4c72b0;" x="368.237547" xlink:href="#mccbd5660a8" y="321.589957"/>
     <use style="fill:#4c72b0;stroke:#4c72b0;" x="368.089875" xlink:href="#mccbd5660a8" y="322.088658"/>
     <use style="fill:#4c72b0;stroke:#4c72b0;" x="367.946647" xlink:href="#mccbd5660a8" y="322.587938"/>
     <use style="fill:#4c72b0;stroke:#4c72b0;" x="367.807852" xlink:href="#mccbd5660a8" y="323.087767"/>
     <use style="fill:#4c72b0;stroke:#4c72b0;" x="367.67348" xlink:href="#mccbd5660a8" y="323.588118"/>
     <use style="fill:#4c72b0;stroke:#4c72b0;" x="367.543522" xlink:href="#mccbd5660a8" y="324.08896"/>
     <use style="fill:#4c72b0;stroke:#4c72b0;" x="367.417969" xlink:href="#mccbd5660a8" y="324.590265"/>
     <use style="fill:#4c72b0;stroke:#4c72b0;" x="367.296812" xlink:href="#mccbd5660a8" y="325.092004"/>
     <use style="fill:#4c72b0;stroke:#4c72b0;" x="367.180042" xlink:href="#mccbd5660a8" y="325.594149"/>
     <use style="fill:#4c72b0;stroke:#4c72b0;" x="367.067651" xlink:href="#mccbd5660a8" y="326.096671"/>
     <use style="fill:#4c72b0;stroke:#4c72b0;" x="366.959632" xlink:href="#mccbd5660a8" y="326.599543"/>
     <use style="fill:#4c72b0;stroke:#4c72b0;" x="366.855976" xlink:href="#mccbd5660a8" y="327.102735"/>
     <use style="fill:#4c72b0;stroke:#4c72b0;" x="366.756678" xlink:href="#mccbd5660a8" y="327.606221"/>
     <use style="fill:#4c72b0;stroke:#4c72b0;" x="366.661731" xlink:href="#mccbd5660a8" y="328.109972"/>
     <use style="fill:#4c72b0;stroke:#4c72b0;" x="366.571127" xlink:href="#mccbd5660a8" y="328.613961"/>
     <use style="fill:#4c72b0;stroke:#4c72b0;" x="366.484861" xlink:href="#mccbd5660a8" y="329.118159"/>
     <use style="fill:#4c72b0;stroke:#4c72b0;" x="366.402928" xlink:href="#mccbd5660a8" y="329.622539"/>
     <use style="fill:#4c72b0;stroke:#4c72b0;" x="366.325322" xlink:href="#mccbd5660a8" y="330.127074"/>
     <use style="fill:#4c72b0;stroke:#4c72b0;" x="366.252037" xlink:href="#mccbd5660a8" y="330.631735"/>
     <use style="fill:#4c72b0;stroke:#4c72b0;" x="366.18307" xlink:href="#mccbd5660a8" y="331.136496"/>
     <use style="fill:#4c72b0;stroke:#4c72b0;" x="366.118415" xlink:href="#mccbd5660a8" y="331.641329"/>
     <use style="fill:#4c72b0;stroke:#4c72b0;" x="366.058068" xlink:href="#mccbd5660a8" y="332.146206"/>
     <use style="fill:#4c72b0;stroke:#4c72b0;" x="366.002027" xlink:href="#mccbd5660a8" y="332.6511"/>
     <use style="fill:#4c72b0;stroke:#4c72b0;" x="365.950286" xlink:href="#mccbd5660a8" y="333.155983"/>
     <use style="fill:#4c72b0;stroke:#4c72b0;" x="365.902843" xlink:href="#mccbd5660a8" y="333.660829"/>
     <use style="fill:#4c72b0;stroke:#4c72b0;" x="365.859695" xlink:href="#mccbd5660a8" y="334.165609"/>
     <use style="fill:#4c72b0;stroke:#4c72b0;" x="365.820839" xlink:href="#mccbd5660a8" y="334.670296"/>
     <use style="fill:#4c72b0;stroke:#4c72b0;" x="365.786273" xlink:href="#mccbd5660a8" y="335.174863"/>
     <use style="fill:#4c72b0;stroke:#4c72b0;" x="365.755995" xlink:href="#mccbd5660a8" y="335.679282"/>
     <use style="fill:#4c72b0;stroke:#4c72b0;" x="365.730002" xlink:href="#mccbd5660a8" y="336.183525"/>
     <use style="fill:#4c72b0;stroke:#4c72b0;" x="365.708293" xlink:href="#mccbd5660a8" y="336.687565"/>
     <use style="fill:#4c72b0;stroke:#4c72b0;" x="365.690867" xlink:href="#mccbd5660a8" y="337.191375"/>
     <use style="fill:#4c72b0;stroke:#4c72b0;" x="365.677723" xlink:href="#mccbd5660a8" y="337.694926"/>
     <use style="fill:#4c72b0;stroke:#4c72b0;" x="365.668859" xlink:href="#mccbd5660a8" y="338.19819"/>
     <use style="fill:#4c72b0;stroke:#4c72b0;" x="365.664275" xlink:href="#mccbd5660a8" y="338.70114"/>
     <use style="fill:#4c72b0;stroke:#4c72b0;" x="365.663971" xlink:href="#mccbd5660a8" y="339.203748"/>
     <use style="fill:#4c72b0;stroke:#4c72b0;" x="365.667946" xlink:href="#mccbd5660a8" y="339.705986"/>
     <use style="fill:#4c72b0;stroke:#4c72b0;" x="365.676201" xlink:href="#mccbd5660a8" y="340.207825"/>
     <use style="fill:#4c72b0;stroke:#4c72b0;" x="365.688736" xlink:href="#mccbd5660a8" y="340.709238"/>
     <use style="fill:#4c72b0;stroke:#4c72b0;" x="365.705552" xlink:href="#mccbd5660a8" y="341.210195"/>
     <use style="fill:#4c72b0;stroke:#4c72b0;" x="365.726648" xlink:href="#mccbd5660a8" y="341.710668"/>
     <use style="fill:#4c72b0;stroke:#4c72b0;" x="365.752027" xlink:href="#mccbd5660a8" y="342.210628"/>
     <use style="fill:#4c72b0;stroke:#4c72b0;" x="365.781689" xlink:href="#mccbd5660a8" y="342.710048"/>
     <use style="fill:#4c72b0;stroke:#4c72b0;" x="365.815635" xlink:href="#mccbd5660a8" y="343.208897"/>
     <use style="fill:#4c72b0;stroke:#4c72b0;" x="365.853868" xlink:href="#mccbd5660a8" y="343.707146"/>
     <use style="fill:#4c72b0;stroke:#4c72b0;" x="365.896389" xlink:href="#mccbd5660a8" y="344.204767"/>
     <use style="fill:#4c72b0;stroke:#4c72b0;" x="365.9432" xlink:href="#mccbd5660a8" y="344.70173"/>
     <use style="fill:#4c72b0;stroke:#4c72b0;" x="365.994303" xlink:href="#mccbd5660a8" y="345.198005"/>
     <use style="fill:#4c72b0;stroke:#4c72b0;" x="366.0497" xlink:href="#mccbd5660a8" y="345.693563"/>
     <use style="fill:#4c72b0;stroke:#4c72b0;" x="366.109394" xlink:href="#mccbd5660a8" y="346.188373"/>
    </g>
   </g>
   <g id="patch_3">
    <path d="M 640.8 358.2 
C 640.8 322.507551 633.769366 287.162166 620.110457 254.186643 
C 606.451548 221.21112 586.429996 191.24675 561.191623 166.008377 
C 535.95325 140.770004 505.98888 120.748452 473.013357 107.089543 
C 440.037834 93.430634 404.692449 86.4 369 86.4 
C 333.307551 86.4 297.962166 93.430634 264.986643 107.089543 
C 232.01112 120.748452 202.04675 140.770004 176.808377 166.008377 
C 151.570004 191.24675 131.548452 221.21112 117.889543 254.186643 
C 104.230634 287.162166 97.2 322.507551 97.2 358.2 
C 97.2 393.892449 104.230634 429.237834 117.889543 462.213357 
C 131.548452 495.18888 151.570004 525.15325 176.808377 550.391623 
C 202.04675 575.629996 232.01112 595.651548 264.986643 609.310457 
C 297.962166 622.969366 333.307551 630 369 630 
C 404.692449 630 440.037834 622.969366 473.013357 609.310457 
C 505.98888 595.651548 535.95325 575.629996 561.191623 550.391623 
C 586.429996 525.15325 606.451548 495.18888 620.110457 462.213357 
C 633.769366 429.237834 640.8 393.892449 640.8 358.2 
" style="fill:none;stroke:#ffffff;stroke-linecap:square;stroke-linejoin:miter;stroke-width:1.25;"/>
   </g>
  </g>
 </g>
 <defs>
  <clipPath id="pe557c992a8">
   <path d="M 640.8 358.2 
C 640.8 322.507551 633.769366 287.162166 620.110457 254.186643 
C 606.451548 221.21112 586.429996 191.24675 561.191623 166.008377 
C 535.95325 140.770004 505.98888 120.748452 473.013357 107.089543 
C 440.037834 93.430634 404.692449 86.4 369 86.4 
C 333.307551 86.4 297.962166 93.430634 264.986643 107.089543 
C 232.01112 120.748452 202.04675 140.770004 176.808377 166.008377 
C 151.570004 191.24675 131.548452 221.21112 117.889543 254.186643 
C 104.230634 287.162166 97.2 322.507551 97.2 358.2 
C 97.2 393.892449 104.230634 429.237834 117.889543 462.213357 
C 131.548452 495.18888 151.570004 525.15325 176.808377 550.391623 
C 202.04675 575.629996 232.01112 595.651548 264.986643 609.310457 
C 297.962166 622.969366 333.307551 630 369 630 
C 404.692449 630 440.037834 622.969366 473.013357 609.310457 
C 505.98888 595.651548 535.95325 575.629996 561.191623 550.391623 
C 586.429996 525.15325 606.451548 495.18888 620.110457 462.213357 
C 633.769366 429.237834 640.8 393.892449 640.8 358.2 
M 369 358.2 
C 369 358.2 369 358.2 369 358.2 
C 369 358.2 369 358.2 369 358.2 
C 369 358.2 369 358.2 369 358.2 
C 369 358.2 369 358.2 369 358.2 
C 369 358.2 369 358.2 369 358.2 
C 369 358.2 369 358.2 369 358.2 
C 369 358.2 369 358.2 369 358.2 
C 369 358.2 369 358.2 369 358.2 
C 369 358.2 369 358.2 369 358.2 
C 369 358.2 369 358.2 369 358.2 
C 369 358.2 369 358.2 369 358.2 
C 369 358.2 369 358.2 369 358.2 
C 369 358.2 369 358.2 369 358.2 
C 369 358.2 369 358.2 369 358.2 
C 369 358.2 369 358.2 369 358.2 
C 369 358.2 369 358.2 369 358.2 
M 640.8 358.2 
z
"/>
  </clipPath>
 </defs>
</svg>
