<?xml version="1.0" encoding="utf-8" standalone="no"?>
<!DOCTYPE svg PUBLIC "-//W3C//DTD SVG 1.1//EN"
  "http://www.w3.org/Graphics/SVG/1.1/DTD/svg11.dtd">
<!-- Created with matplotlib (https://matplotlib.org/) -->
<svg height="720pt" version="1.1" viewBox="0 0 720 720" width="720pt" xmlns="http://www.w3.org/2000/svg" xmlns:xlink="http://www.w3.org/1999/xlink">
 <defs>
  <style type="text/css">
*{stroke-linecap:butt;stroke-linejoin:round;}
  </style>
 </defs>
 <g id="figure_1">
  <g id="patch_1">
   <path d="M 0 720 
L 720 720 
L 720 0 
L 0 0 
z
" style="fill:#ffffff;"/>
  </g>
  <g id="axes_1">
   <g id="patch_2">
    <path d="M 640.8 358.2 
C 640.8 322.507551 633.769366 287.162166 620.110457 254.186643 
C 606.451548 221.21112 586.429996 191.24675 561.191623 166.008377 
C 535.95325 140.770004 505.98888 120.748452 473.013357 107.089543 
C 440.037834 93.430634 404.692449 86.4 369 86.4 
C 333.307551 86.4 297.962166 93.430634 264.986643 107.089543 
C 232.01112 120.748452 202.04675 140.770004 176.808377 166.008377 
C 151.570004 191.24675 131.548452 221.21112 117.889543 254.186643 
C 104.230634 287.162166 97.2 322.507551 97.2 358.2 
C 97.2 393.892449 104.230634 429.237834 117.889543 462.213357 
C 131.548452 495.18888 151.570004 525.15325 176.808377 550.391623 
C 202.04675 575.629996 232.01112 595.651548 264.986643 609.310457 
C 297.962166 622.969366 333.307551 630 369 630 
C 404.692449 630 440.037834 622.969366 473.013357 609.310457 
C 505.98888 595.651548 535.95325 575.629996 561.191623 550.391623 
C 586.429996 525.15325 606.451548 495.18888 620.110457 462.213357 
C 633.769366 429.237834 640.8 393.892449 640.8 358.2 
M 369 358.2 
C 369 358.2 369 358.2 369 358.2 
C 369 358.2 369 358.2 369 358.2 
C 369 358.2 369 358.2 369 358.2 
C 369 358.2 369 358.2 369 358.2 
C 369 358.2 369 358.2 369 358.2 
C 369 358.2 369 358.2 369 358.2 
C 369 358.2 369 358.2 369 358.2 
C 369 358.2 369 358.2 369 358.2 
C 369 358.2 369 358.2 369 358.2 
C 369 358.2 369 358.2 369 358.2 
C 369 358.2 369 358.2 369 358.2 
C 369 358.2 369 358.2 369 358.2 
C 369 358.2 369 358.2 369 358.2 
C 369 358.2 369 358.2 369 358.2 
C 369 358.2 369 358.2 369 358.2 
C 369 358.2 369 358.2 369 358.2 
M 640.8 358.2 
z
" style="fill:#eaeaf2;"/>
   </g>
   <g id="matplotlib.axis_1">
    <g id="xtick_1">
     <g id="line2d_1">
      <path clip-path="url(#p56dc09e65b)" d="M 369 358.2 
L 640.8 358.2 
" style="fill:none;stroke:#ffffff;stroke-linecap:round;"/>
     </g>
     <g id="text_1">
      <!-- 0° -->
      <defs>
       <path d="M 4.15625 35.296875 
Q 4.15625 48 6.765625 55.734375 
Q 9.375 63.484375 14.515625 67.671875 
Q 19.671875 71.875 27.484375 71.875 
Q 33.25 71.875 37.59375 69.546875 
Q 41.9375 67.234375 44.765625 62.859375 
Q 47.609375 58.5 49.21875 52.21875 
Q 50.828125 45.953125 50.828125 35.296875 
Q 50.828125 22.703125 48.234375 14.96875 
Q 45.65625 7.234375 40.5 3 
Q 35.359375 -1.21875 27.484375 -1.21875 
Q 17.140625 -1.21875 11.234375 6.203125 
Q 4.15625 15.140625 4.15625 35.296875 
z
M 13.1875 35.296875 
Q 13.1875 17.671875 17.3125 11.828125 
Q 21.4375 6 27.484375 6 
Q 33.546875 6 37.671875 11.859375 
Q 41.796875 17.71875 41.796875 35.296875 
Q 41.796875 52.984375 37.671875 58.78125 
Q 33.546875 64.59375 27.390625 64.59375 
Q 21.34375 64.59375 17.71875 59.46875 
Q 13.1875 52.9375 13.1875 35.296875 
z
" id="ArialMT-48"/>
       <path d="M 6.25 59.28125 
Q 6.25 64.890625 10.21875 68.84375 
Q 14.203125 72.796875 19.78125 72.796875 
Q 25.4375 72.796875 29.390625 68.84375 
Q 33.34375 64.890625 33.34375 59.28125 
Q 33.34375 53.65625 29.359375 49.671875 
Q 25.390625 45.703125 19.78125 45.703125 
Q 14.203125 45.703125 10.21875 49.65625 
Q 6.25 53.609375 6.25 59.28125 
z
M 11.578125 59.28125 
Q 11.578125 55.859375 13.984375 53.4375 
Q 16.40625 51.03125 19.828125 51.03125 
Q 23.1875 51.03125 25.609375 53.4375 
Q 28.03125 55.859375 28.03125 59.28125 
Q 28.03125 62.703125 25.609375 65.109375 
Q 23.1875 67.53125 19.828125 67.53125 
Q 16.40625 67.53125 13.984375 65.109375 
Q 11.578125 62.703125 11.578125 59.28125 
z
" id="ArialMT-176"/>
      </defs>
      <g style="fill:#262626;" transform="translate(652.042344 361.043672)scale(0.11 -0.11)">
       <use xlink:href="#ArialMT-48"/>
       <use x="55.615234" xlink:href="#ArialMT-176"/>
      </g>
     </g>
    </g>
    <g id="xtick_2">
     <g id="line2d_2">
      <path clip-path="url(#p56dc09e65b)" d="M 369 358.2 
L 561.191623 166.008377 
" style="fill:none;stroke:#ffffff;stroke-linecap:round;"/>
     </g>
     <g id="text_2">
      <!-- 45° -->
      <defs>
       <path d="M 32.328125 0 
L 32.328125 17.140625 
L 1.265625 17.140625 
L 1.265625 25.203125 
L 33.9375 71.578125 
L 41.109375 71.578125 
L 41.109375 25.203125 
L 50.78125 25.203125 
L 50.78125 17.140625 
L 41.109375 17.140625 
L 41.109375 0 
z
M 32.328125 25.203125 
L 32.328125 57.46875 
L 9.90625 25.203125 
z
" id="ArialMT-52"/>
       <path d="M 4.15625 18.75 
L 13.375 19.53125 
Q 14.40625 12.796875 18.140625 9.390625 
Q 21.875 6 27.15625 6 
Q 33.5 6 37.890625 10.78125 
Q 42.28125 15.578125 42.28125 23.484375 
Q 42.28125 31 38.0625 35.34375 
Q 33.84375 39.703125 27 39.703125 
Q 22.75 39.703125 19.328125 37.765625 
Q 15.921875 35.84375 13.96875 32.765625 
L 5.71875 33.84375 
L 12.640625 70.609375 
L 48.25 70.609375 
L 48.25 62.203125 
L 19.671875 62.203125 
L 15.828125 42.96875 
Q 22.265625 47.46875 29.34375 47.46875 
Q 38.71875 47.46875 45.15625 40.96875 
Q 51.609375 34.46875 51.609375 24.265625 
Q 51.609375 14.546875 45.953125 7.46875 
Q 39.0625 -1.21875 27.15625 -1.21875 
Q 17.390625 -1.21875 11.203125 4.25 
Q 5.03125 9.71875 4.15625 18.75 
z
" id="ArialMT-53"/>
      </defs>
      <g style="fill:#262626;" transform="translate(564.542713 157.184787)scale(0.11 -0.11)">
       <use xlink:href="#ArialMT-52"/>
       <use x="55.615234" xlink:href="#ArialMT-53"/>
       <use x="111.230469" xlink:href="#ArialMT-176"/>
      </g>
     </g>
    </g>
    <g id="xtick_3">
     <g id="line2d_3">
      <path clip-path="url(#p56dc09e65b)" d="M 369 358.2 
L 369 86.4 
" style="fill:none;stroke:#ffffff;stroke-linecap:round;"/>
     </g>
     <g id="text_3">
      <!-- 90° -->
      <defs>
       <path d="M 5.46875 16.546875 
L 13.921875 17.328125 
Q 14.984375 11.375 18.015625 8.6875 
Q 21.046875 6 25.78125 6 
Q 29.828125 6 32.875 7.859375 
Q 35.9375 9.71875 37.890625 12.8125 
Q 39.84375 15.921875 41.15625 21.1875 
Q 42.484375 26.46875 42.484375 31.9375 
Q 42.484375 32.515625 42.4375 33.6875 
Q 39.796875 29.5 35.234375 26.875 
Q 30.671875 24.265625 25.34375 24.265625 
Q 16.453125 24.265625 10.296875 30.703125 
Q 4.15625 37.15625 4.15625 47.703125 
Q 4.15625 58.59375 10.578125 65.234375 
Q 17 71.875 26.65625 71.875 
Q 33.640625 71.875 39.421875 68.109375 
Q 45.21875 64.359375 48.21875 57.390625 
Q 51.21875 50.4375 51.21875 37.25 
Q 51.21875 23.53125 48.234375 15.40625 
Q 45.265625 7.28125 39.375 3.03125 
Q 33.5 -1.21875 25.59375 -1.21875 
Q 17.1875 -1.21875 11.859375 3.4375 
Q 6.546875 8.109375 5.46875 16.546875 
z
M 41.453125 48.140625 
Q 41.453125 55.71875 37.421875 60.15625 
Q 33.40625 64.59375 27.734375 64.59375 
Q 21.875 64.59375 17.53125 59.8125 
Q 13.1875 55.03125 13.1875 47.40625 
Q 13.1875 40.578125 17.3125 36.296875 
Q 21.4375 32.03125 27.484375 32.03125 
Q 33.59375 32.03125 37.515625 36.296875 
Q 41.453125 40.578125 41.453125 48.140625 
z
" id="ArialMT-57"/>
      </defs>
      <g style="fill:#262626;" transform="translate(360.683828 72.743672)scale(0.11 -0.11)">
       <use xlink:href="#ArialMT-57"/>
       <use x="55.615234" xlink:href="#ArialMT-48"/>
       <use x="111.230469" xlink:href="#ArialMT-176"/>
      </g>
     </g>
    </g>
    <g id="xtick_4">
     <g id="line2d_4">
      <path clip-path="url(#p56dc09e65b)" d="M 369 358.2 
L 176.808377 166.008377 
" style="fill:none;stroke:#ffffff;stroke-linecap:round;"/>
     </g>
     <g id="text_4">
      <!-- 135° -->
      <defs>
       <path d="M 37.25 0 
L 28.46875 0 
L 28.46875 56 
Q 25.296875 52.984375 20.140625 49.953125 
Q 14.984375 46.921875 10.890625 45.40625 
L 10.890625 53.90625 
Q 18.265625 57.375 23.78125 62.296875 
Q 29.296875 67.234375 31.59375 71.875 
L 37.25 71.875 
z
" id="ArialMT-49"/>
       <path d="M 4.203125 18.890625 
L 12.984375 20.0625 
Q 14.5 12.59375 18.140625 9.296875 
Q 21.78125 6 27 6 
Q 33.203125 6 37.46875 10.296875 
Q 41.75 14.59375 41.75 20.953125 
Q 41.75 27 37.796875 30.921875 
Q 33.84375 34.859375 27.734375 34.859375 
Q 25.25 34.859375 21.53125 33.890625 
L 22.515625 41.609375 
Q 23.390625 41.5 23.921875 41.5 
Q 29.546875 41.5 34.03125 44.421875 
Q 38.53125 47.359375 38.53125 53.46875 
Q 38.53125 58.296875 35.25 61.46875 
Q 31.984375 64.65625 26.8125 64.65625 
Q 21.6875 64.65625 18.265625 61.421875 
Q 14.84375 58.203125 13.875 51.765625 
L 5.078125 53.328125 
Q 6.6875 62.15625 12.390625 67.015625 
Q 18.109375 71.875 26.609375 71.875 
Q 32.46875 71.875 37.390625 69.359375 
Q 42.328125 66.84375 44.9375 62.5 
Q 47.5625 58.15625 47.5625 53.265625 
Q 47.5625 48.640625 45.0625 44.828125 
Q 42.578125 41.015625 37.703125 38.765625 
Q 44.046875 37.3125 47.5625 32.6875 
Q 51.078125 28.078125 51.078125 21.140625 
Q 51.078125 11.765625 44.234375 5.25 
Q 37.40625 -1.265625 26.953125 -1.265625 
Q 17.53125 -1.265625 11.296875 4.34375 
Q 5.078125 9.96875 4.203125 18.890625 
z
" id="ArialMT-51"/>
      </defs>
      <g style="fill:#262626;" transform="translate(153.766427 157.184787)scale(0.11 -0.11)">
       <use xlink:href="#ArialMT-49"/>
       <use x="55.615234" xlink:href="#ArialMT-51"/>
       <use x="111.230469" xlink:href="#ArialMT-53"/>
       <use x="166.845703" xlink:href="#ArialMT-176"/>
      </g>
     </g>
    </g>
    <g id="xtick_5">
     <g id="line2d_5">
      <path clip-path="url(#p56dc09e65b)" d="M 369 358.2 
L 97.2 358.2 
" style="fill:none;stroke:#ffffff;stroke-linecap:round;"/>
     </g>
     <g id="text_5">
      <!-- 180° -->
      <defs>
       <path d="M 17.671875 38.8125 
Q 12.203125 40.828125 9.5625 44.53125 
Q 6.9375 48.25 6.9375 53.421875 
Q 6.9375 61.234375 12.546875 66.546875 
Q 18.171875 71.875 27.484375 71.875 
Q 36.859375 71.875 42.578125 66.421875 
Q 48.296875 60.984375 48.296875 53.171875 
Q 48.296875 48.1875 45.671875 44.5 
Q 43.0625 40.828125 37.75 38.8125 
Q 44.34375 36.671875 47.78125 31.875 
Q 51.21875 27.09375 51.21875 20.453125 
Q 51.21875 11.28125 44.71875 5.03125 
Q 38.234375 -1.21875 27.640625 -1.21875 
Q 17.046875 -1.21875 10.546875 5.046875 
Q 4.046875 11.328125 4.046875 20.703125 
Q 4.046875 27.6875 7.59375 32.390625 
Q 11.140625 37.109375 17.671875 38.8125 
z
M 15.921875 53.71875 
Q 15.921875 48.640625 19.1875 45.40625 
Q 22.46875 42.1875 27.6875 42.1875 
Q 32.765625 42.1875 36.015625 45.375 
Q 39.265625 48.578125 39.265625 53.21875 
Q 39.265625 58.0625 35.90625 61.359375 
Q 32.5625 64.65625 27.59375 64.65625 
Q 22.5625 64.65625 19.234375 61.421875 
Q 15.921875 58.203125 15.921875 53.71875 
z
M 13.09375 20.65625 
Q 13.09375 16.890625 14.875 13.375 
Q 16.65625 9.859375 20.171875 7.921875 
Q 23.6875 6 27.734375 6 
Q 34.03125 6 38.125 10.046875 
Q 42.234375 14.109375 42.234375 20.359375 
Q 42.234375 26.703125 38.015625 30.859375 
Q 33.796875 35.015625 27.4375 35.015625 
Q 21.234375 35.015625 17.15625 30.90625 
Q 13.09375 26.8125 13.09375 20.65625 
z
" id="ArialMT-56"/>
      </defs>
      <g style="fill:#262626;" transform="translate(69.325312 361.043672)scale(0.11 -0.11)">
       <use xlink:href="#ArialMT-49"/>
       <use x="55.615234" xlink:href="#ArialMT-56"/>
       <use x="111.230469" xlink:href="#ArialMT-48"/>
       <use x="166.845703" xlink:href="#ArialMT-176"/>
      </g>
     </g>
    </g>
    <g id="xtick_6">
     <g id="line2d_6">
      <path clip-path="url(#p56dc09e65b)" d="M 369 358.2 
L 176.808377 550.391623 
" style="fill:none;stroke:#ffffff;stroke-linecap:round;"/>
     </g>
     <g id="text_6">
      <!-- 225° -->
      <defs>
       <path d="M 50.34375 8.453125 
L 50.34375 0 
L 3.03125 0 
Q 2.9375 3.171875 4.046875 6.109375 
Q 5.859375 10.9375 9.828125 15.625 
Q 13.8125 20.3125 21.34375 26.46875 
Q 33.015625 36.03125 37.109375 41.625 
Q 41.21875 47.21875 41.21875 52.203125 
Q 41.21875 57.421875 37.46875 61 
Q 33.734375 64.59375 27.734375 64.59375 
Q 21.390625 64.59375 17.578125 60.78125 
Q 13.765625 56.984375 13.71875 50.25 
L 4.6875 51.171875 
Q 5.609375 61.28125 11.65625 66.578125 
Q 17.71875 71.875 27.9375 71.875 
Q 38.234375 71.875 44.234375 66.15625 
Q 50.25 60.453125 50.25 52 
Q 50.25 47.703125 48.484375 43.546875 
Q 46.734375 39.40625 42.65625 34.8125 
Q 38.578125 30.21875 29.109375 22.21875 
Q 21.1875 15.578125 18.9375 13.203125 
Q 16.703125 10.84375 15.234375 8.453125 
z
" id="ArialMT-50"/>
      </defs>
      <g style="fill:#262626;" transform="translate(153.766427 564.902557)scale(0.11 -0.11)">
       <use xlink:href="#ArialMT-50"/>
       <use x="55.615234" xlink:href="#ArialMT-50"/>
       <use x="111.230469" xlink:href="#ArialMT-53"/>
       <use x="166.845703" xlink:href="#ArialMT-176"/>
      </g>
     </g>
    </g>
    <g id="xtick_7">
     <g id="line2d_7">
      <path clip-path="url(#p56dc09e65b)" d="M 369 358.2 
L 369 630 
" style="fill:none;stroke:#ffffff;stroke-linecap:round;"/>
     </g>
     <g id="text_7">
      <!-- 270° -->
      <defs>
       <path d="M 4.734375 62.203125 
L 4.734375 70.65625 
L 51.078125 70.65625 
L 51.078125 63.8125 
Q 44.234375 56.546875 37.515625 44.484375 
Q 30.8125 32.421875 27.15625 19.671875 
Q 24.515625 10.6875 23.78125 0 
L 14.75 0 
Q 14.890625 8.453125 18.0625 20.40625 
Q 21.234375 32.375 27.171875 43.484375 
Q 33.109375 54.59375 39.796875 62.203125 
z
" id="ArialMT-55"/>
      </defs>
      <g style="fill:#262626;" transform="translate(357.625312 649.343672)scale(0.11 -0.11)">
       <use xlink:href="#ArialMT-50"/>
       <use x="55.615234" xlink:href="#ArialMT-55"/>
       <use x="111.230469" xlink:href="#ArialMT-48"/>
       <use x="166.845703" xlink:href="#ArialMT-176"/>
      </g>
     </g>
    </g>
    <g id="xtick_8">
     <g id="line2d_8">
      <path clip-path="url(#p56dc09e65b)" d="M 369 358.2 
L 561.191623 550.391623 
" style="fill:none;stroke:#ffffff;stroke-linecap:round;"/>
     </g>
     <g id="text_8">
      <!-- 315° -->
      <g style="fill:#262626;" transform="translate(561.484198 564.902557)scale(0.11 -0.11)">
       <use xlink:href="#ArialMT-51"/>
       <use x="55.615234" xlink:href="#ArialMT-49"/>
       <use x="111.230469" xlink:href="#ArialMT-53"/>
       <use x="166.845703" xlink:href="#ArialMT-176"/>
      </g>
     </g>
    </g>
   </g>
   <g id="matplotlib.axis_2">
    <g id="ytick_1">
     <g id="line2d_9">
      <path clip-path="url(#p56dc09e65b)" d="M 380.112883 358.2 
L 380.004733 356.653386 
L 379.682388 355.136874 
L 379.152123 353.679983 
L 378.424259 352.311069 
L 377.512962 351.056777 
L 376.43597 349.941519 
L 375.214245 348.987003 
L 373.871567 348.211807 
L 372.43407 347.631021 
L 370.929732 347.255947 
L 369.387834 347.093887 
L 367.838387 347.147995 
L 366.31155 347.417218 
L 364.837041 347.896315 
L 363.443559 348.575961 
L 362.158226 349.442929 
L 361.006061 350.480343 
L 360.009489 351.668012 
L 359.187907 352.982818 
L 358.557306 354.39917 
L 358.129961 355.889502 
L 357.914188 357.424804 
L 357.914188 358.975196 
L 358.129961 360.510498 
L 358.557306 362.00083 
L 359.187907 363.417182 
L 360.009489 364.731988 
L 361.006061 365.919657 
L 362.158226 366.957071 
L 363.443559 367.824039 
L 364.837041 368.503685 
L 366.31155 368.982782 
L 367.838387 369.252005 
L 369.387834 369.306113 
L 370.929732 369.144053 
L 372.43407 368.768979 
L 373.871567 368.188193 
L 375.214245 367.412997 
L 376.43597 366.458481 
L 377.512962 365.343223 
L 378.424259 364.088931 
L 379.152123 362.720017 
L 379.682388 361.263126 
L 380.004733 359.746614 
L 380.112883 358.2 
L 380.112883 358.2 
" style="fill:none;stroke:#ffffff;stroke-linecap:round;"/>
     </g>
     <g id="text_9">
      <!-- 0 -->
      <g style="fill:#262626;" transform="translate(379.266965 351.761034)scale(0.11 -0.11)">
       <use xlink:href="#ArialMT-48"/>
      </g>
     </g>
    </g>
    <g id="ytick_2">
     <g id="line2d_10">
      <path clip-path="url(#p56dc09e65b)" d="M 411.154454 358.2 
L 411.051768 355.259454 
L 410.74421 352.333234 
L 410.233278 349.435596 
L 409.521462 346.580658 
L 408.612229 343.782328 
L 407.51001 341.054239 
L 406.220174 338.409683 
L 404.749005 335.861543 
L 403.10367 333.422234 
L 401.292185 331.103639 
L 399.323377 328.917056 
L 397.206835 326.873136 
L 394.952873 324.981837 
L 392.572472 323.252374 
L 390.077227 321.693172 
L 387.479296 320.311828 
L 384.791336 319.115071 
L 382.026443 318.108732 
L 379.198085 317.297713 
L 376.320044 316.685967 
L 373.40634 316.276472 
L 370.471169 316.071225 
L 367.528831 316.071225 
L 364.59366 316.276472 
L 361.679956 316.685967 
L 358.801915 317.297713 
L 355.973557 318.108732 
L 353.208664 319.115071 
L 350.520704 320.311828 
L 347.922773 321.693172 
L 345.427528 323.252374 
L 343.047127 324.981837 
L 340.793165 326.873136 
L 338.676623 328.917056 
L 336.707815 331.103639 
L 334.89633 333.422234 
L 333.250995 335.861543 
L 331.779826 338.409683 
L 330.48999 341.054239 
L 329.387771 343.782328 
L 328.478538 346.580658 
L 327.766722 349.435596 
L 327.25579 352.333234 
L 326.948232 355.259454 
L 326.845546 358.2 
L 326.948232 361.140546 
L 327.25579 364.066766 
L 327.766722 366.964404 
L 328.478538 369.819342 
L 329.387771 372.617672 
L 330.48999 375.345761 
L 331.779826 377.990317 
L 333.250995 380.538457 
L 334.89633 382.977766 
L 336.707815 385.296361 
L 338.676623 387.482944 
L 340.793165 389.526864 
L 343.047127 391.418163 
L 345.427528 393.147626 
L 347.922773 394.706828 
L 350.520704 396.088172 
L 353.208664 397.284929 
L 355.973557 398.291268 
L 358.801915 399.102287 
L 361.679956 399.714033 
L 364.59366 400.123528 
L 367.528831 400.328775 
L 370.471169 400.328775 
L 373.40634 400.123528 
L 376.320044 399.714033 
L 379.198085 399.102287 
L 382.026443 398.291268 
L 384.791336 397.284929 
L 387.479296 396.088172 
L 390.077227 394.706828 
L 392.572472 393.147626 
L 394.952873 391.418163 
L 397.206835 389.526864 
L 399.323377 387.482944 
L 401.292185 385.296361 
L 403.10367 382.977766 
L 404.749005 380.538457 
L 406.220174 377.990317 
L 407.51001 375.345761 
L 408.612229 372.617672 
L 409.521462 369.819342 
L 410.233278 366.964404 
L 410.74421 364.066766 
L 411.051768 361.140546 
L 411.154454 358.2 
L 411.154454 358.2 
" style="fill:none;stroke:#ffffff;stroke-linecap:round;"/>
     </g>
     <g id="text_10">
      <!-- 25 -->
      <g style="fill:#262626;" transform="translate(407.945637 339.881939)scale(0.11 -0.11)">
       <use xlink:href="#ArialMT-50"/>
       <use x="55.615234" xlink:href="#ArialMT-53"/>
      </g>
     </g>
    </g>
    <g id="ytick_3">
     <g id="line2d_11">
      <path clip-path="url(#p56dc09e65b)" d="M 442.196026 358.2 
L 442.017724 353.094103 
L 441.483687 348.013082 
L 440.596517 342.981691 
L 439.360536 338.024441 
L 437.781765 333.165485 
L 435.867897 328.428494 
L 433.628255 323.836547 
L 431.07375 319.412016 
L 428.216829 315.176456 
L 425.071409 311.150502 
L 421.652814 307.353768 
L 417.977701 303.804752 
L 414.063973 300.520745 
L 409.930698 297.517745 
L 405.598013 294.810382 
L 401.087026 292.411848 
L 396.419714 290.333827 
L 391.618816 288.586443 
L 386.707721 287.178209 
L 381.710356 286.115987 
L 376.651068 285.40495 
L 371.554504 285.048563 
L 366.445496 285.048563 
L 361.348932 285.40495 
L 356.289644 286.115987 
L 351.292279 287.178209 
L 346.381184 288.586443 
L 341.580286 290.333827 
L 336.912974 292.411848 
L 332.401987 294.810382 
L 328.069302 297.517745 
L 323.936027 300.520745 
L 320.022299 303.804752 
L 316.347186 307.353768 
L 312.928591 311.150502 
L 309.783171 315.176456 
L 306.92625 319.412016 
L 304.371745 323.836547 
L 302.132103 328.428494 
L 300.218235 333.165485 
L 298.639464 338.024441 
L 297.403483 342.981691 
L 296.516313 348.013082 
L 295.982276 353.094103 
L 295.803974 358.2 
L 295.982276 363.305897 
L 296.516313 368.386918 
L 297.403483 373.418309 
L 298.639464 378.375559 
L 300.218235 383.234515 
L 302.132103 387.971506 
L 304.371745 392.563453 
L 306.92625 396.987984 
L 309.783171 401.223544 
L 312.928591 405.249498 
L 316.347186 409.046232 
L 320.022299 412.595248 
L 323.936027 415.879255 
L 328.069302 418.882255 
L 332.401987 421.589618 
L 336.912974 423.988152 
L 341.580286 426.066173 
L 346.381184 427.813557 
L 351.292279 429.221791 
L 356.289644 430.284013 
L 361.348932 430.99505 
L 366.445496 431.351437 
L 371.554504 431.351437 
L 376.651068 430.99505 
L 381.710356 430.284013 
L 386.707721 429.221791 
L 391.618816 427.813557 
L 396.419714 426.066173 
L 401.087026 423.988152 
L 405.598013 421.589618 
L 409.930698 418.882255 
L 414.063973 415.879255 
L 417.977701 412.595248 
L 421.652814 409.046232 
L 425.071409 405.249498 
L 428.216829 401.223544 
L 431.07375 396.987984 
L 433.628255 392.563453 
L 435.867897 387.971506 
L 437.781765 383.234515 
L 439.360536 378.375559 
L 440.596517 373.418309 
L 441.483687 368.386918 
L 442.017724 363.305897 
L 442.196026 358.2 
L 442.196026 358.2 
" style="fill:none;stroke:#ffffff;stroke-linecap:round;"/>
     </g>
     <g id="text_11">
      <!-- 50 -->
      <g style="fill:#262626;" transform="translate(436.62431 328.002844)scale(0.11 -0.11)">
       <use xlink:href="#ArialMT-53"/>
       <use x="55.615234" xlink:href="#ArialMT-48"/>
      </g>
     </g>
    </g>
    <g id="ytick_4">
     <g id="line2d_12">
      <path clip-path="url(#p56dc09e65b)" d="M 473.237597 358.2 
L 473.174098 354.56216 
L 472.98368 350.928753 
L 472.666573 347.304204 
L 472.223164 343.69293 
L 471.653994 340.099331 
L 470.959755 336.527785 
L 470.141295 332.982643 
L 469.199609 329.468224 
L 468.135846 325.988811 
L 466.951301 322.548642 
L 465.647417 319.151909 
L 464.225783 315.80275 
L 462.688132 312.505245 
L 461.036335 309.263412 
L 459.272407 306.081201 
L 457.398496 302.962489 
L 455.416884 299.911075 
L 453.329987 296.930678 
L 451.140347 294.024927 
L 448.850632 291.197364 
L 446.463631 288.451433 
L 443.982252 285.790481 
L 441.409519 283.217748 
L 438.748567 280.736369 
L 436.002636 278.349368 
L 433.175073 276.059653 
L 430.269322 273.870013 
L 427.288925 271.783116 
L 424.237511 269.801504 
L 421.118799 267.927593 
L 417.936588 266.163665 
L 414.694755 264.511868 
L 411.39725 262.974217 
L 408.048091 261.552583 
L 404.651358 260.248699 
L 401.211189 259.064154 
L 397.731776 258.000391 
L 394.217357 257.058705 
L 390.672215 256.240245 
L 387.100669 255.546006 
L 383.50707 254.976836 
L 379.895796 254.533427 
L 376.271247 254.21632 
L 372.63784 254.025902 
L 369 253.962403 
L 365.36216 254.025902 
L 361.728753 254.21632 
L 358.104204 254.533427 
L 354.49293 254.976836 
L 350.899331 255.546006 
L 347.327785 256.240245 
L 343.782643 257.058705 
L 340.268224 258.000391 
L 336.788811 259.064154 
L 333.348642 260.248699 
L 329.951909 261.552583 
L 326.60275 262.974217 
L 323.305245 264.511868 
L 320.063412 266.163665 
L 316.881201 267.927593 
L 313.762489 269.801504 
L 310.711075 271.783116 
L 307.730678 273.870013 
L 304.824927 276.059653 
L 301.997364 278.349368 
L 299.251433 280.736369 
L 296.590481 283.217748 
L 294.017748 285.790481 
L 291.536369 288.451433 
L 289.149368 291.197364 
L 286.859653 294.024927 
L 284.670013 296.930678 
L 282.583116 299.911075 
L 280.601504 302.962489 
L 278.727593 306.081201 
L 276.963665 309.263412 
L 275.311868 312.505245 
L 273.774217 315.80275 
L 272.352583 319.151909 
L 271.048699 322.548642 
L 269.864154 325.988811 
L 268.800391 329.468224 
L 267.858705 332.982643 
L 267.040245 336.527785 
L 266.346006 340.099331 
L 265.776836 343.69293 
L 265.333427 347.304204 
L 265.01632 350.928753 
L 264.825902 354.56216 
L 264.762403 358.2 
L 264.825902 361.83784 
L 265.01632 365.471247 
L 265.333427 369.095796 
L 265.776836 372.70707 
L 266.346006 376.300669 
L 267.040245 379.872215 
L 267.858705 383.417357 
L 268.800391 386.931776 
L 269.864154 390.411189 
L 271.048699 393.851358 
L 272.352583 397.248091 
L 273.774217 400.59725 
L 275.311868 403.894755 
L 276.963665 407.136588 
L 278.727593 410.318799 
L 280.601504 413.437511 
L 282.583116 416.488925 
L 284.670013 419.469322 
L 286.859653 422.375073 
L 289.149368 425.202636 
L 291.536369 427.948567 
L 294.017748 430.609519 
L 296.590481 433.182252 
L 299.251433 435.663631 
L 301.997364 438.050632 
L 304.824927 440.340347 
L 307.730678 442.529987 
L 310.711075 444.616884 
L 313.762489 446.598496 
L 316.881201 448.472407 
L 320.063412 450.236335 
L 323.305245 451.888132 
L 326.60275 453.425783 
L 329.951909 454.847417 
L 333.348642 456.151301 
L 336.788811 457.335846 
L 340.268224 458.399609 
L 343.782643 459.341295 
L 347.327785 460.159755 
L 350.899331 460.853994 
L 354.49293 461.423164 
L 358.104204 461.866573 
L 361.728753 462.18368 
L 365.36216 462.374098 
L 369 462.437597 
L 372.63784 462.374098 
L 376.271247 462.18368 
L 379.895796 461.866573 
L 383.50707 461.423164 
L 387.100669 460.853994 
L 390.672215 460.159755 
L 394.217357 459.341295 
L 397.731776 458.399609 
L 401.211189 457.335846 
L 404.651358 456.151301 
L 408.048091 454.847417 
L 411.39725 453.425783 
L 414.694755 451.888132 
L 417.936588 450.236335 
L 421.118799 448.472407 
L 424.237511 446.598496 
L 427.288925 444.616884 
L 430.269322 442.529987 
L 433.175073 440.340347 
L 436.002636 438.050632 
L 438.748567 435.663631 
L 441.409519 433.182252 
L 443.982252 430.609519 
L 446.463631 427.948567 
L 448.850632 425.202636 
L 451.140347 422.375073 
L 453.329987 419.469322 
L 455.416884 416.488925 
L 457.398496 413.437511 
L 459.272407 410.318799 
L 461.036335 407.136588 
L 462.688132 403.894755 
L 464.225783 400.59725 
L 465.647417 397.248091 
L 466.951301 393.851358 
L 468.135846 390.411189 
L 469.199609 386.931776 
L 470.141295 383.417357 
L 470.959755 379.872215 
L 471.653994 376.300669 
L 472.223164 372.70707 
L 472.666573 369.095796 
L 472.98368 365.471247 
L 473.174098 361.83784 
L 473.237597 358.2 
L 473.237597 358.2 
" style="fill:none;stroke:#ffffff;stroke-linecap:round;"/>
     </g>
     <g id="text_12">
      <!-- 75 -->
      <g style="fill:#262626;" transform="translate(465.302982 316.123749)scale(0.11 -0.11)">
       <use xlink:href="#ArialMT-55"/>
       <use x="55.615234" xlink:href="#ArialMT-53"/>
      </g>
     </g>
    </g>
    <g id="ytick_5">
     <g id="line2d_13">
      <path clip-path="url(#p56dc09e65b)" d="M 504.279169 358.2 
L 504.19676 353.478825 
L 503.949635 348.763402 
L 503.538095 344.059476 
L 502.962641 339.372779 
L 502.223974 334.709019 
L 501.322994 330.073879 
L 500.260799 325.473007 
L 499.038683 320.912008 
L 497.658135 316.396438 
L 496.120836 311.931799 
L 494.428661 307.523532 
L 492.58367 303.177005 
L 490.588111 298.897516 
L 488.444416 294.690277 
L 486.155197 290.560416 
L 483.723241 286.512963 
L 481.151514 282.552849 
L 478.443146 278.6849 
L 475.60144 274.913827 
L 472.629855 271.244227 
L 469.532014 267.680568 
L 466.31169 264.227193 
L 462.972807 260.88831 
L 459.519432 257.667986 
L 455.955773 254.570145 
L 452.286173 251.59856 
L 448.5151 248.756854 
L 444.647151 246.048486 
L 440.687037 243.476759 
L 436.639584 241.044803 
L 432.509723 238.755584 
L 428.302484 236.611889 
L 424.022995 234.61633 
L 419.676468 232.771339 
L 415.268201 231.079164 
L 410.803562 229.541865 
L 406.287992 228.161317 
L 401.726993 226.939201 
L 397.126121 225.877006 
L 392.490981 224.976026 
L 387.827221 224.237359 
L 383.140524 223.661905 
L 378.436598 223.250365 
L 373.721175 223.00324 
L 369 222.920831 
L 364.278825 223.00324 
L 359.563402 223.250365 
L 354.859476 223.661905 
L 350.172779 224.237359 
L 345.509019 224.976026 
L 340.873879 225.877006 
L 336.273007 226.939201 
L 331.712008 228.161317 
L 327.196438 229.541865 
L 322.731799 231.079164 
L 318.323532 232.771339 
L 313.977005 234.61633 
L 309.697516 236.611889 
L 305.490277 238.755584 
L 301.360416 241.044803 
L 297.312963 243.476759 
L 293.352849 246.048486 
L 289.4849 248.756854 
L 285.713827 251.59856 
L 282.044227 254.570145 
L 278.480568 257.667986 
L 275.027193 260.88831 
L 271.68831 264.227193 
L 268.467986 267.680568 
L 265.370145 271.244227 
L 262.39856 274.913827 
L 259.556854 278.6849 
L 256.848486 282.552849 
L 254.276759 286.512963 
L 251.844803 290.560416 
L 249.555584 294.690277 
L 247.411889 298.897516 
L 245.41633 303.177005 
L 243.571339 307.523532 
L 241.879164 311.931799 
L 240.341865 316.396438 
L 238.961317 320.912008 
L 237.739201 325.473007 
L 236.677006 330.073879 
L 235.776026 334.709019 
L 235.037359 339.372779 
L 234.461905 344.059476 
L 234.050365 348.763402 
L 233.80324 353.478825 
L 233.720831 358.2 
L 233.80324 362.921175 
L 234.050365 367.636598 
L 234.461905 372.340524 
L 235.037359 377.027221 
L 235.776026 381.690981 
L 236.677006 386.326121 
L 237.739201 390.926993 
L 238.961317 395.487992 
L 240.341865 400.003562 
L 241.879164 404.468201 
L 243.571339 408.876468 
L 245.41633 413.222995 
L 247.411889 417.502484 
L 249.555584 421.709723 
L 251.844803 425.839584 
L 254.276759 429.887037 
L 256.848486 433.847151 
L 259.556854 437.7151 
L 262.39856 441.486173 
L 265.370145 445.155773 
L 268.467986 448.719432 
L 271.68831 452.172807 
L 275.027193 455.51169 
L 278.480568 458.732014 
L 282.044227 461.829855 
L 285.713827 464.80144 
L 289.4849 467.643146 
L 293.352849 470.351514 
L 297.312963 472.923241 
L 301.360416 475.355197 
L 305.490277 477.644416 
L 309.697516 479.788111 
L 313.977005 481.78367 
L 318.323532 483.628661 
L 322.731799 485.320836 
L 327.196438 486.858135 
L 331.712008 488.238683 
L 336.273007 489.460799 
L 340.873879 490.522994 
L 345.509019 491.423974 
L 350.172779 492.162641 
L 354.859476 492.738095 
L 359.563402 493.149635 
L 364.278825 493.39676 
L 369 493.479169 
L 373.721175 493.39676 
L 378.436598 493.149635 
L 383.140524 492.738095 
L 387.827221 492.162641 
L 392.490981 491.423974 
L 397.126121 490.522994 
L 401.726993 489.460799 
L 406.287992 488.238683 
L 410.803562 486.858135 
L 415.268201 485.320836 
L 419.676468 483.628661 
L 424.022995 481.78367 
L 428.302484 479.788111 
L 432.509723 477.644416 
L 436.639584 475.355197 
L 440.687037 472.923241 
L 444.647151 470.351514 
L 448.5151 467.643146 
L 452.286173 464.80144 
L 455.955773 461.829855 
L 459.519432 458.732014 
L 462.972807 455.51169 
L 466.31169 452.172807 
L 469.532014 448.719432 
L 472.629855 445.155773 
L 475.60144 441.486173 
L 478.443146 437.7151 
L 481.151514 433.847151 
L 483.723241 429.887037 
L 486.155197 425.839584 
L 488.444416 421.709723 
L 490.588111 417.502484 
L 492.58367 413.222995 
L 494.428661 408.876468 
L 496.120836 404.468201 
L 497.658135 400.003562 
L 499.038683 395.487992 
L 500.260799 390.926993 
L 501.322994 386.326121 
L 502.223974 381.690981 
L 502.962641 377.027221 
L 503.538095 372.340524 
L 503.949635 367.636598 
L 504.19676 362.921175 
L 504.279169 358.2 
L 504.279169 358.2 
" style="fill:none;stroke:#ffffff;stroke-linecap:round;"/>
     </g>
     <g id="text_13">
      <!-- 100 -->
      <g style="fill:#262626;" transform="translate(493.981655 304.244653)scale(0.11 -0.11)">
       <use xlink:href="#ArialMT-49"/>
       <use x="55.615234" xlink:href="#ArialMT-48"/>
       <use x="111.230469" xlink:href="#ArialMT-48"/>
      </g>
     </g>
    </g>
    <g id="ytick_6">
     <g id="line2d_14">
      <path clip-path="url(#p56dc09e65b)" d="M 535.32074 358.2 
L 535.219422 352.39549 
L 534.915591 346.598052 
L 534.409618 340.814749 
L 533.702118 335.052627 
L 532.793954 329.318707 
L 531.686233 323.619974 
L 530.380303 317.963371 
L 528.877757 312.355791 
L 527.180424 306.804065 
L 525.290372 301.314957 
L 523.209905 295.895154 
L 520.941557 290.551261 
L 518.488091 285.289786 
L 515.852497 280.117142 
L 513.037986 275.03963 
L 510.047987 270.063436 
L 506.886143 265.194622 
L 503.556305 260.439122 
L 500.062532 255.802728 
L 496.409079 251.291089 
L 492.600397 246.909702 
L 488.641128 242.663906 
L 484.536094 238.558872 
L 480.290298 234.599603 
L 475.908911 230.790921 
L 471.397272 227.137468 
L 466.760878 223.643695 
L 462.005378 220.313857 
L 457.136564 217.152013 
L 452.16037 214.162014 
L 447.082858 211.347503 
L 441.910214 208.711909 
L 436.648739 206.258443 
L 431.304846 203.990095 
L 425.885043 201.909628 
L 420.395935 200.019576 
L 414.844209 198.322243 
L 409.236629 196.819697 
L 403.580026 195.513767 
L 397.881293 194.406046 
L 392.147373 193.497882 
L 386.385251 192.790382 
L 380.601948 192.284409 
L 374.80451 191.980578 
L 369 191.87926 
L 363.19549 191.980578 
L 357.398052 192.284409 
L 351.614749 192.790382 
L 345.852627 193.497882 
L 340.118707 194.406046 
L 334.419974 195.513767 
L 328.763371 196.819697 
L 323.155791 198.322243 
L 317.604065 200.019576 
L 312.114957 201.909628 
L 306.695154 203.990095 
L 301.351261 206.258443 
L 296.089786 208.711909 
L 290.917142 211.347503 
L 285.83963 214.162014 
L 280.863436 217.152013 
L 275.994622 220.313857 
L 271.239122 223.643695 
L 266.602728 227.137468 
L 262.091089 230.790921 
L 257.709702 234.599603 
L 253.463906 238.558872 
L 249.358872 242.663906 
L 245.399603 246.909702 
L 241.590921 251.291089 
L 237.937468 255.802728 
L 234.443695 260.439122 
L 231.113857 265.194622 
L 227.952013 270.063436 
L 224.962014 275.03963 
L 222.147503 280.117142 
L 219.511909 285.289786 
L 217.058443 290.551261 
L 214.790095 295.895154 
L 212.709628 301.314957 
L 210.819576 306.804065 
L 209.122243 312.355791 
L 207.619697 317.963371 
L 206.313767 323.619974 
L 205.206046 329.318707 
L 204.297882 335.052627 
L 203.590382 340.814749 
L 203.084409 346.598052 
L 202.780578 352.39549 
L 202.67926 358.2 
L 202.780578 364.00451 
L 203.084409 369.801948 
L 203.590382 375.585251 
L 204.297882 381.347373 
L 205.206046 387.081293 
L 206.313767 392.780026 
L 207.619697 398.436629 
L 209.122243 404.044209 
L 210.819576 409.595935 
L 212.709628 415.085043 
L 214.790095 420.504846 
L 217.058443 425.848739 
L 219.511909 431.110214 
L 222.147503 436.282858 
L 224.962014 441.36037 
L 227.952013 446.336564 
L 231.113857 451.205378 
L 234.443695 455.960878 
L 237.937468 460.597272 
L 241.590921 465.108911 
L 245.399603 469.490298 
L 249.358872 473.736094 
L 253.463906 477.841128 
L 257.709702 481.800397 
L 262.091089 485.609079 
L 266.602728 489.262532 
L 271.239122 492.756305 
L 275.994622 496.086143 
L 280.863436 499.247987 
L 285.83963 502.237986 
L 290.917142 505.052497 
L 296.089786 507.688091 
L 301.351261 510.141557 
L 306.695154 512.409905 
L 312.114957 514.490372 
L 317.604065 516.380424 
L 323.155791 518.077757 
L 328.763371 519.580303 
L 334.419974 520.886233 
L 340.118707 521.993954 
L 345.852627 522.902118 
L 351.614749 523.609618 
L 357.398052 524.115591 
L 363.19549 524.419422 
L 369 524.52074 
L 374.80451 524.419422 
L 380.601948 524.115591 
L 386.385251 523.609618 
L 392.147373 522.902118 
L 397.881293 521.993954 
L 403.580026 520.886233 
L 409.236629 519.580303 
L 414.844209 518.077757 
L 420.395935 516.380424 
L 425.885043 514.490372 
L 431.304846 512.409905 
L 436.648739 510.141557 
L 441.910214 507.688091 
L 447.082858 505.052497 
L 452.16037 502.237986 
L 457.136564 499.247987 
L 462.005378 496.086143 
L 466.760878 492.756305 
L 471.397272 489.262532 
L 475.908911 485.609079 
L 480.290298 481.800397 
L 484.536094 477.841128 
L 488.641128 473.736094 
L 492.600397 469.490298 
L 496.409079 465.108911 
L 500.062532 460.597272 
L 503.556305 455.960878 
L 506.886143 451.205378 
L 510.047987 446.336564 
L 513.037986 441.36037 
L 515.852497 436.282858 
L 518.488091 431.110214 
L 520.941557 425.848739 
L 523.209905 420.504846 
L 525.290372 415.085043 
L 527.180424 409.595935 
L 528.877757 404.044209 
L 530.380303 398.436629 
L 531.686233 392.780026 
L 532.793954 387.081293 
L 533.702118 381.347373 
L 534.409618 375.585251 
L 534.915591 369.801948 
L 535.219422 364.00451 
L 535.32074 358.2 
L 535.32074 358.2 
" style="fill:none;stroke:#ffffff;stroke-linecap:round;"/>
     </g>
     <g id="text_14">
      <!-- 125 -->
      <g style="fill:#262626;" transform="translate(522.660328 292.365558)scale(0.11 -0.11)">
       <use xlink:href="#ArialMT-49"/>
       <use x="55.615234" xlink:href="#ArialMT-50"/>
       <use x="111.230469" xlink:href="#ArialMT-53"/>
      </g>
     </g>
    </g>
    <g id="ytick_7">
     <g id="line2d_15">
      <path clip-path="url(#p56dc09e65b)" d="M 566.362312 358.2 
L 566.242084 351.312155 
L 565.881547 344.432701 
L 565.28114 337.570021 
L 564.441595 330.732475 
L 563.363935 323.928394 
L 562.049472 317.166068 
L 560.499807 310.453735 
L 558.71683 303.799574 
L 556.702712 297.211692 
L 554.459908 290.698114 
L 551.991149 284.266777 
L 549.299443 277.925516 
L 546.388071 271.682057 
L 543.260578 265.544007 
L 539.920776 259.518844 
L 536.372733 253.613909 
L 532.620772 247.836396 
L 528.669464 242.193344 
L 524.523624 236.691628 
L 520.188302 231.337952 
L 515.668781 226.138837 
L 510.970566 221.100618 
L 506.099382 216.229434 
L 501.061163 211.531219 
L 495.862048 207.011698 
L 490.508372 202.676376 
L 485.006656 198.530536 
L 479.363604 194.579228 
L 473.586091 190.827267 
L 467.681156 187.279224 
L 461.655993 183.939422 
L 455.517943 180.811929 
L 449.274484 177.900557 
L 442.933223 175.208851 
L 436.501886 172.740092 
L 429.988308 170.497288 
L 423.400426 168.48317 
L 416.746265 166.700193 
L 410.033932 165.150528 
L 403.271606 163.836065 
L 396.467525 162.758405 
L 389.629979 161.91886 
L 382.767299 161.318453 
L 375.887845 160.957916 
L 369 160.837688 
L 362.112155 160.957916 
L 355.232701 161.318453 
L 348.370021 161.91886 
L 341.532475 162.758405 
L 334.728394 163.836065 
L 327.966068 165.150528 
L 321.253735 166.700193 
L 314.599574 168.48317 
L 308.011692 170.497288 
L 301.498114 172.740092 
L 295.066777 175.208851 
L 288.725516 177.900557 
L 282.482057 180.811929 
L 276.344007 183.939422 
L 270.318844 187.279224 
L 264.413909 190.827267 
L 258.636396 194.579228 
L 252.993344 198.530536 
L 247.491628 202.676376 
L 242.137952 207.011698 
L 236.938837 211.531219 
L 231.900618 216.229434 
L 227.029434 221.100618 
L 222.331219 226.138837 
L 217.811698 231.337952 
L 213.476376 236.691628 
L 209.330536 242.193344 
L 205.379228 247.836396 
L 201.627267 253.613909 
L 198.079224 259.518844 
L 194.739422 265.544007 
L 191.611929 271.682057 
L 188.700557 277.925516 
L 186.008851 284.266777 
L 183.540092 290.698114 
L 181.297288 297.211692 
L 179.28317 303.799574 
L 177.500193 310.453735 
L 175.950528 317.166068 
L 174.636065 323.928394 
L 173.558405 330.732475 
L 172.71886 337.570021 
L 172.118453 344.432701 
L 171.757916 351.312155 
L 171.637688 358.2 
L 171.757916 365.087845 
L 172.118453 371.967299 
L 172.71886 378.829979 
L 173.558405 385.667525 
L 174.636065 392.471606 
L 175.950528 399.233932 
L 177.500193 405.946265 
L 179.28317 412.600426 
L 181.297288 419.188308 
L 183.540092 425.701886 
L 186.008851 432.133223 
L 188.700557 438.474484 
L 191.611929 444.717943 
L 194.739422 450.855993 
L 198.079224 456.881156 
L 201.627267 462.786091 
L 205.379228 468.563604 
L 209.330536 474.206656 
L 213.476376 479.708372 
L 217.811698 485.062048 
L 222.331219 490.261163 
L 227.029434 495.299382 
L 231.900618 500.170566 
L 236.938837 504.868781 
L 242.137952 509.388302 
L 247.491628 513.723624 
L 252.993344 517.869464 
L 258.636396 521.820772 
L 264.413909 525.572733 
L 270.318844 529.120776 
L 276.344007 532.460578 
L 282.482057 535.588071 
L 288.725516 538.499443 
L 295.066777 541.191149 
L 301.498114 543.659908 
L 308.011692 545.902712 
L 314.599574 547.91683 
L 321.253735 549.699807 
L 327.966068 551.249472 
L 334.728394 552.563935 
L 341.532475 553.641595 
L 348.370021 554.48114 
L 355.232701 555.081547 
L 362.112155 555.442084 
L 369 555.562312 
L 375.887845 555.442084 
L 382.767299 555.081547 
L 389.629979 554.48114 
L 396.467525 553.641595 
L 403.271606 552.563935 
L 410.033932 551.249472 
L 416.746265 549.699807 
L 423.400426 547.91683 
L 429.988308 545.902712 
L 436.501886 543.659908 
L 442.933223 541.191149 
L 449.274484 538.499443 
L 455.517943 535.588071 
L 461.655993 532.460578 
L 467.681156 529.120776 
L 473.586091 525.572733 
L 479.363604 521.820772 
L 485.006656 517.869464 
L 490.508372 513.723624 
L 495.862048 509.388302 
L 501.061163 504.868781 
L 506.099382 500.170566 
L 510.970566 495.299382 
L 515.668781 490.261163 
L 520.188302 485.062048 
L 524.523624 479.708372 
L 528.669464 474.206656 
L 532.620772 468.563604 
L 536.372733 462.786091 
L 539.920776 456.881156 
L 543.260578 450.855993 
L 546.388071 444.717943 
L 549.299443 438.474484 
L 551.991149 432.133223 
L 554.459908 425.701886 
L 556.702712 419.188308 
L 558.71683 412.600426 
L 560.499807 405.946265 
L 562.049472 399.233932 
L 563.363935 392.471606 
L 564.441595 385.667525 
L 565.28114 378.829979 
L 565.881547 371.967299 
L 566.242084 365.087845 
L 566.362312 358.2 
L 566.362312 358.2 
" style="fill:none;stroke:#ffffff;stroke-linecap:round;"/>
     </g>
     <g id="text_15">
      <!-- 150 -->
      <g style="fill:#262626;" transform="translate(551.339 280.486463)scale(0.11 -0.11)">
       <use xlink:href="#ArialMT-49"/>
       <use x="55.615234" xlink:href="#ArialMT-53"/>
       <use x="111.230469" xlink:href="#ArialMT-48"/>
      </g>
     </g>
    </g>
    <g id="ytick_8">
     <g id="line2d_16">
      <path clip-path="url(#p56dc09e65b)" d="M 597.403883 358.2 
L 597.264746 350.228819 
L 596.847503 342.267351 
L 596.152663 334.325293 
L 595.181072 326.412323 
L 593.933915 318.538082 
L 592.41271 310.712162 
L 590.619312 302.9441 
L 588.555904 295.243358 
L 586.225001 287.619319 
L 583.629443 280.081271 
L 580.772393 272.638399 
L 577.65733 265.299771 
L 574.28805 258.074328 
L 570.668659 250.970872 
L 566.803565 243.998058 
L 562.697478 237.164382 
L 558.355401 230.478169 
L 553.782623 223.947566 
L 548.984716 217.580528 
L 543.967525 211.384814 
L 538.737164 205.367971 
L 533.300004 199.537331 
L 527.662669 193.899996 
L 521.832029 188.462836 
L 515.815186 183.232475 
L 509.619472 178.215284 
L 503.252434 173.417377 
L 496.721831 168.844599 
L 490.035618 164.502522 
L 483.201942 160.396435 
L 476.229128 156.531341 
L 469.125672 152.91195 
L 461.900229 149.54267 
L 454.561601 146.427607 
L 447.118729 143.570557 
L 439.580681 140.974999 
L 431.956642 138.644096 
L 424.2559 136.580688 
L 416.487838 134.78729 
L 408.661918 133.266085 
L 400.787677 132.018928 
L 392.874707 131.047337 
L 384.932649 130.352497 
L 376.971181 129.935254 
L 369 129.796117 
L 361.028819 129.935254 
L 353.067351 130.352497 
L 345.125293 131.047337 
L 337.212323 132.018928 
L 329.338082 133.266085 
L 321.512162 134.78729 
L 313.7441 136.580688 
L 306.043358 138.644096 
L 298.419319 140.974999 
L 290.881271 143.570557 
L 283.438399 146.427607 
L 276.099771 149.54267 
L 268.874328 152.91195 
L 261.770872 156.531341 
L 254.798058 160.396435 
L 247.964382 164.502522 
L 241.278169 168.844599 
L 234.747566 173.417377 
L 228.380528 178.215284 
L 222.184814 183.232475 
L 216.167971 188.462836 
L 210.337331 193.899996 
L 204.699996 199.537331 
L 199.262836 205.367971 
L 194.032475 211.384814 
L 189.015284 217.580528 
L 184.217377 223.947566 
L 179.644599 230.478169 
L 175.302522 237.164382 
L 171.196435 243.998058 
L 167.331341 250.970872 
L 163.71195 258.074328 
L 160.34267 265.299771 
L 157.227607 272.638399 
L 154.370557 280.081271 
L 151.774999 287.619319 
L 149.444096 295.243358 
L 147.380688 302.9441 
L 145.58729 310.712162 
L 144.066085 318.538082 
L 142.818928 326.412323 
L 141.847337 334.325293 
L 141.152497 342.267351 
L 140.735254 350.228819 
L 140.596117 358.2 
L 140.735254 366.171181 
L 141.152497 374.132649 
L 141.847337 382.074707 
L 142.818928 389.987677 
L 144.066085 397.861918 
L 145.58729 405.687838 
L 147.380688 413.4559 
L 149.444096 421.156642 
L 151.774999 428.780681 
L 154.370557 436.318729 
L 157.227607 443.761601 
L 160.34267 451.100229 
L 163.71195 458.325672 
L 167.331341 465.429128 
L 171.196435 472.401942 
L 175.302522 479.235618 
L 179.644599 485.921831 
L 184.217377 492.452434 
L 189.015284 498.819472 
L 194.032475 505.015186 
L 199.262836 511.032029 
L 204.699996 516.862669 
L 210.337331 522.500004 
L 216.167971 527.937164 
L 222.184814 533.167525 
L 228.380528 538.184716 
L 234.747566 542.982623 
L 241.278169 547.555401 
L 247.964382 551.897478 
L 254.798058 556.003565 
L 261.770872 559.868659 
L 268.874328 563.48805 
L 276.099771 566.85733 
L 283.438399 569.972393 
L 290.881271 572.829443 
L 298.419319 575.425001 
L 306.043358 577.755904 
L 313.7441 579.819312 
L 321.512162 581.61271 
L 329.338082 583.133915 
L 337.212323 584.381072 
L 345.125293 585.352663 
L 353.067351 586.047503 
L 361.028819 586.464746 
L 369 586.603883 
L 376.971181 586.464746 
L 384.932649 586.047503 
L 392.874707 585.352663 
L 400.787677 584.381072 
L 408.661918 583.133915 
L 416.487838 581.61271 
L 424.2559 579.819312 
L 431.956642 577.755904 
L 439.580681 575.425001 
L 447.118729 572.829443 
L 454.561601 569.972393 
L 461.900229 566.85733 
L 469.125672 563.48805 
L 476.229128 559.868659 
L 483.201942 556.003565 
L 490.035618 551.897478 
L 496.721831 547.555401 
L 503.252434 542.982623 
L 509.619472 538.184716 
L 515.815186 533.167525 
L 521.832029 527.937164 
L 527.662669 522.500004 
L 533.300004 516.862669 
L 538.737164 511.032029 
L 543.967525 505.015186 
L 548.984716 498.819472 
L 553.782623 492.452434 
L 558.355401 485.921831 
L 562.697478 479.235618 
L 566.803565 472.401942 
L 570.668659 465.429128 
L 574.28805 458.325672 
L 577.65733 451.100229 
L 580.772393 443.761601 
L 583.629443 436.318729 
L 586.225001 428.780681 
L 588.555904 421.156642 
L 590.619312 413.4559 
L 592.41271 405.687838 
L 593.933915 397.861918 
L 595.181072 389.987677 
L 596.152663 382.074707 
L 596.847503 374.132649 
L 597.264746 366.171181 
L 597.403883 358.2 
L 597.403883 358.2 
" style="fill:none;stroke:#ffffff;stroke-linecap:round;"/>
     </g>
     <g id="text_16">
      <!-- 175 -->
      <g style="fill:#262626;" transform="translate(580.017673 268.607368)scale(0.11 -0.11)">
       <use xlink:href="#ArialMT-49"/>
       <use x="55.615234" xlink:href="#ArialMT-55"/>
       <use x="111.230469" xlink:href="#ArialMT-53"/>
      </g>
     </g>
    </g>
    <g id="ytick_9">
     <g id="line2d_17">
      <path clip-path="url(#p56dc09e65b)" d="M 628.445455 358.2 
L 628.287407 349.145484 
L 627.813458 340.102 
L 627.024185 331.080565 
L 625.920549 322.092172 
L 624.503895 313.14777 
L 622.775949 304.258257 
L 620.738816 295.434464 
L 618.394978 286.687141 
L 615.74729 278.026945 
L 612.798979 269.464428 
L 609.553637 261.010022 
L 606.015217 252.674027 
L 602.18803 244.466599 
L 598.07674 236.397737 
L 593.686355 228.477273 
L 589.022224 220.714856 
L 584.09003 213.119943 
L 578.895782 205.701788 
L 573.445808 198.469429 
L 567.746749 191.431676 
L 561.805547 184.597106 
L 555.629441 177.974043 
L 549.225957 171.570559 
L 542.602894 165.394453 
L 535.768324 159.453251 
L 528.730571 153.754192 
L 521.498212 148.304218 
L 514.080057 143.10997 
L 506.485144 138.177776 
L 498.722727 133.513645 
L 490.802263 129.12326 
L 482.733401 125.01197 
L 474.525973 121.184783 
L 466.189978 117.646363 
L 457.735572 114.401021 
L 449.173055 111.45271 
L 440.512859 108.805022 
L 431.765536 106.461184 
L 422.941743 104.424051 
L 414.05223 102.696105 
L 405.107828 101.279451 
L 396.119435 100.175815 
L 387.098 99.386542 
L 378.054516 98.912593 
L 369 98.754545 
L 359.945484 98.912593 
L 350.902 99.386542 
L 341.880565 100.175815 
L 332.892172 101.279451 
L 323.94777 102.696105 
L 315.058257 104.424051 
L 306.234464 106.461184 
L 297.487141 108.805022 
L 288.826945 111.45271 
L 280.264428 114.401021 
L 271.810022 117.646363 
L 263.474027 121.184783 
L 255.266599 125.01197 
L 247.197737 129.12326 
L 239.277273 133.513645 
L 231.514856 138.177776 
L 223.919943 143.10997 
L 216.501788 148.304218 
L 209.269429 153.754192 
L 202.231676 159.453251 
L 195.397106 165.394453 
L 188.774043 171.570559 
L 182.370559 177.974043 
L 176.194453 184.597106 
L 170.253251 191.431676 
L 164.554192 198.469429 
L 159.104218 205.701788 
L 153.90997 213.119943 
L 148.977776 220.714856 
L 144.313645 228.477273 
L 139.92326 236.397737 
L 135.81197 244.466599 
L 131.984783 252.674027 
L 128.446363 261.010022 
L 125.201021 269.464428 
L 122.25271 278.026945 
L 119.605022 286.687141 
L 117.261184 295.434464 
L 115.224051 304.258257 
L 113.496105 313.14777 
L 112.079451 322.092172 
L 110.975815 331.080565 
L 110.186542 340.102 
L 109.712593 349.145484 
L 109.554545 358.2 
L 109.712593 367.254516 
L 110.186542 376.298 
L 110.975815 385.319435 
L 112.079451 394.307828 
L 113.496105 403.25223 
L 115.224051 412.141743 
L 117.261184 420.965536 
L 119.605022 429.712859 
L 122.25271 438.373055 
L 125.201021 446.935572 
L 128.446363 455.389978 
L 131.984783 463.725973 
L 135.81197 471.933401 
L 139.92326 480.002263 
L 144.313645 487.922727 
L 148.977776 495.685144 
L 153.90997 503.280057 
L 159.104218 510.698212 
L 164.554192 517.930571 
L 170.253251 524.968324 
L 176.194453 531.802894 
L 182.370559 538.425957 
L 188.774043 544.829441 
L 195.397106 551.005547 
L 202.231676 556.946749 
L 209.269429 562.645808 
L 216.501788 568.095782 
L 223.919943 573.29003 
L 231.514856 578.222224 
L 239.277273 582.886355 
L 247.197737 587.27674 
L 255.266599 591.38803 
L 263.474027 595.215217 
L 271.810022 598.753637 
L 280.264428 601.998979 
L 288.826945 604.94729 
L 297.487141 607.594978 
L 306.234464 609.938816 
L 315.058257 611.975949 
L 323.94777 613.703895 
L 332.892172 615.120549 
L 341.880565 616.224185 
L 350.902 617.013458 
L 359.945484 617.487407 
L 369 617.645455 
L 378.054516 617.487407 
L 387.098 617.013458 
L 396.119435 616.224185 
L 405.107828 615.120549 
L 414.05223 613.703895 
L 422.941743 611.975949 
L 431.765536 609.938816 
L 440.512859 607.594978 
L 449.173055 604.94729 
L 457.735572 601.998979 
L 466.189978 598.753637 
L 474.525973 595.215217 
L 482.733401 591.38803 
L 490.802263 587.27674 
L 498.722727 582.886355 
L 506.485144 578.222224 
L 514.080057 573.29003 
L 521.498212 568.095782 
L 528.730571 562.645808 
L 535.768324 556.946749 
L 542.602894 551.005547 
L 549.225957 544.829441 
L 555.629441 538.425957 
L 561.805547 531.802894 
L 567.746749 524.968324 
L 573.445808 517.930571 
L 578.895782 510.698212 
L 584.09003 503.280057 
L 589.022224 495.685144 
L 593.686355 487.922727 
L 598.07674 480.002263 
L 602.18803 471.933401 
L 606.015217 463.725973 
L 609.553637 455.389978 
L 612.798979 446.935572 
L 615.74729 438.373055 
L 618.394978 429.712859 
L 620.738816 420.965536 
L 622.775949 412.141743 
L 624.503895 403.25223 
L 625.920549 394.307828 
L 627.024185 385.319435 
L 627.813458 376.298 
L 628.287407 367.254516 
L 628.445455 358.2 
L 628.445455 358.2 
" style="fill:none;stroke:#ffffff;stroke-linecap:round;"/>
     </g>
     <g id="text_17">
      <!-- 200 -->
      <g style="fill:#262626;" transform="translate(608.696345 256.728273)scale(0.11 -0.11)">
       <use xlink:href="#ArialMT-50"/>
       <use x="55.615234" xlink:href="#ArialMT-48"/>
       <use x="111.230469" xlink:href="#ArialMT-48"/>
      </g>
     </g>
    </g>
   </g>
   <g id="line2d_18">
    <defs>
     <path d="M 0 3 
C 0.795609 3 1.55874 2.683901 2.12132 2.12132 
C 2.683901 1.55874 3 0.795609 3 0 
C 3 -0.795609 2.683901 -1.55874 2.12132 -2.12132 
C 1.55874 -2.683901 0.795609 -3 0 -3 
C -0.795609 -3 -1.55874 -2.683901 -2.12132 -2.12132 
C -2.683901 -1.55874 -3 -0.795609 -3 0 
C -3 0.795609 -2.683901 1.55874 -2.12132 2.12132 
C -1.55874 2.683901 -0.795609 3 0 3 
z
" id="mf3ed2c9bd6" style="stroke:#4c72b0;"/>
    </defs>
    <g clip-path="url(#p56dc09e65b)">
     <use style="fill:#4c72b0;stroke:#4c72b0;" x="628.445455" xlink:href="#mf3ed2c9bd6" y="358.2"/>
     <use style="fill:#4c72b0;stroke:#4c72b0;" x="110.8133" xlink:href="#mf3ed2c9bd6" y="355.229108"/>
     <use style="fill:#4c72b0;stroke:#4c72b0;" x="625.277756" xlink:href="#mf3ed2c9bd6" y="376.941594"/>
     <use style="fill:#4c72b0;stroke:#4c72b0;" x="113.674065" xlink:href="#mf3ed2c9bd6" y="344.000571"/>
     <use style="fill:#4c72b0;stroke:#4c72b0;" x="623.276479" xlink:href="#mf3ed2c9bd6" y="348.054396"/>
     <use style="fill:#4c72b0;stroke:#4c72b0;" x="116.16509" xlink:href="#mf3ed2c9bd6" y="372.467354"/>
     <use style="fill:#4c72b0;stroke:#4c72b0;" x="620.95193" xlink:href="#mf3ed2c9bd6" y="362.884637"/>
     <use style="fill:#4c72b0;stroke:#4c72b0;" x="118.270677" xlink:href="#mf3ed2c9bd6" y="354.695454"/>
     <use style="fill:#4c72b0;stroke:#4c72b0;" x="615.051143" xlink:href="#mf3ed2c9bd6" y="316.785643"/>
     <use style="fill:#4c72b0;stroke:#4c72b0;" x="127.812973" xlink:href="#mf3ed2c9bd6" y="417.081691"/>
     <use style="fill:#4c72b0;stroke:#4c72b0;" x="611.101986" xlink:href="#mf3ed2c9bd6" y="309.10958"/>
     <use style="fill:#4c72b0;stroke:#4c72b0;" x="127.496387" xlink:href="#mf3ed2c9bd6" y="403.887354"/>
     <use style="fill:#4c72b0;stroke:#4c72b0;" x="610.767726" xlink:href="#mf3ed2c9bd6" y="321.44584"/>
     <use style="fill:#4c72b0;stroke:#4c72b0;" x="129.962209" xlink:href="#mf3ed2c9bd6" y="403.561789"/>
     <use style="fill:#4c72b0;stroke:#4c72b0;" x="598.498838" xlink:href="#mf3ed2c9bd6" y="281.230007"/>
     <use style="fill:#4c72b0;stroke:#4c72b0;" x="139.204973" xlink:href="#mf3ed2c9bd6" y="430.233077"/>
     <use style="fill:#4c72b0;stroke:#4c72b0;" x="605.985928" xlink:href="#mf3ed2c9bd6" y="323.047549"/>
     <use style="fill:#4c72b0;stroke:#4c72b0;" x="132.107407" xlink:href="#mf3ed2c9bd6" y="384.401408"/>
     <use style="fill:#4c72b0;stroke:#4c72b0;" x="605.142308" xlink:href="#mf3ed2c9bd6" y="336.960943"/>
     <use style="fill:#4c72b0;stroke:#4c72b0;" x="133.166081" xlink:href="#mf3ed2c9bd6" y="355.133105"/>
     <use style="fill:#4c72b0;stroke:#4c72b0;" x="598.713697" xlink:href="#mf3ed2c9bd6" y="405.891726"/>
     <use style="fill:#4c72b0;stroke:#4c72b0;" x="147.214907" xlink:href="#mf3ed2c9bd6" y="285.583344"/>
     <use style="fill:#4c72b0;stroke:#4c72b0;" x="581.936425" xlink:href="#mf3ed2c9bd6" y="450.622356"/>
     <use style="fill:#4c72b0;stroke:#4c72b0;" x="161.679298" xlink:href="#mf3ed2c9bd6" y="256.578006"/>
     <use style="fill:#4c72b0;stroke:#4c72b0;" x="573.19469" xlink:href="#mf3ed2c9bd6" y="463.279044"/>
     <use style="fill:#4c72b0;stroke:#4c72b0;" x="164.106374" xlink:href="#mf3ed2c9bd6" y="257.269648"/>
     <use style="fill:#4c72b0;stroke:#4c72b0;" x="591.487585" xlink:href="#mf3ed2c9bd6" y="404.047015"/>
     <use style="fill:#4c72b0;stroke:#4c72b0;" x="143.220741" xlink:href="#mf3ed2c9bd6" y="350.21099"/>
     <use style="fill:#4c72b0;stroke:#4c72b0;" x="588.972691" xlink:href="#mf3ed2c9bd6" y="312.454828"/>
     <use style="fill:#4c72b0;stroke:#4c72b0;" x="159.536404" xlink:href="#mf3ed2c9bd6" y="435.976592"/>
     <use style="fill:#4c72b0;stroke:#4c72b0;" x="573.245322" xlink:href="#mf3ed2c9bd6" y="270.708747"/>
     <use style="fill:#4c72b0;stroke:#4c72b0;" x="174.443677" xlink:href="#mf3ed2c9bd6" y="462.930443"/>
     <use style="fill:#4c72b0;stroke:#4c72b0;" x="519.08555" xlink:href="#mf3ed2c9bd6" y="197.738798"/>
     <use style="fill:#4c72b0;stroke:#4c72b0;" x="245.935192" xlink:href="#mf3ed2c9bd6" y="538.711627"/>
     <use style="fill:#4c72b0;stroke:#4c72b0;" x="482.062196" xlink:href="#mf3ed2c9bd6" y="172.713229"/>
     <use style="fill:#4c72b0;stroke:#4c72b0;" x="271.62025" xlink:href="#mf3ed2c9bd6" y="550.989207"/>
     <use style="fill:#4c72b0;stroke:#4c72b0;" x="301.507066" xlink:href="#mf3ed2c9bd6" y="154.336386"/>
     <use style="fill:#4c72b0;stroke:#4c72b0;" x="476.207777" xlink:href="#mf3ed2c9bd6" y="542.835913"/>
     <use style="fill:#4c72b0;stroke:#4c72b0;" x="516.318556" xlink:href="#mf3ed2c9bd6" y="511.015289"/>
     <use style="fill:#4c72b0;stroke:#4c72b0;" x="245.221862" xlink:href="#mf3ed2c9bd6" y="187.294566"/>
     <use style="fill:#4c72b0;stroke:#4c72b0;" x="240.29435" xlink:href="#mf3ed2c9bd6" y="192.54355"/>
     <use style="fill:#4c72b0;stroke:#4c72b0;" x="499.034541" xlink:href="#mf3ed2c9bd6" y="521.230102"/>
     <use style="fill:#4c72b0;stroke:#4c72b0;" x="279.438462" xlink:href="#mf3ed2c9bd6" y="171.250267"/>
     <use style="fill:#4c72b0;stroke:#4c72b0;" x="451.911247" xlink:href="#mf3ed2c9bd6" y="546.837101"/>
     <use style="fill:#4c72b0;stroke:#4c72b0;" x="438.202557" xlink:href="#mf3ed2c9bd6" y="550.966905"/>
     <use style="fill:#4c72b0;stroke:#4c72b0;" x="311.923774" xlink:href="#mf3ed2c9bd6" y="162.794513"/>
     <use style="fill:#4c72b0;stroke:#4c72b0;" x="268.947295" xlink:href="#mf3ed2c9bd6" y="182.340779"/>
     <use style="fill:#4c72b0;stroke:#4c72b0;" x="474.086774" xlink:href="#mf3ed2c9bd6" y="529.643496"/>
     <use style="fill:#4c72b0;stroke:#4c72b0;" x="238.358583" xlink:href="#mf3ed2c9bd6" y="206.968063"/>
     <use style="fill:#4c72b0;stroke:#4c72b0;" x="495.104789" xlink:href="#mf3ed2c9bd6" y="511.63116"/>
     <use style="fill:#4c72b0;stroke:#4c72b0;" x="389.526182" xlink:href="#mf3ed2c9bd6" y="161.907978"/>
     <use style="fill:#4c72b0;stroke:#4c72b0;" x="343.329645" xlink:href="#mf3ed2c9bd6" y="552.633386"/>
     <use style="fill:#4c72b0;stroke:#4c72b0;" x="263.602879" xlink:href="#mf3ed2c9bd6" y="522.118473"/>
     <use style="fill:#4c72b0;stroke:#4c72b0;" x="443.365118" xlink:href="#mf3ed2c9bd6" y="179.41174"/>
     <use style="fill:#4c72b0;stroke:#4c72b0;" x="473.045798" xlink:href="#mf3ed2c9bd6" y="196.365016"/>
     <use style="fill:#4c72b0;stroke:#4c72b0;" x="269.649184" xlink:href="#mf3ed2c9bd6" y="521.507275"/>
     <use style="fill:#4c72b0;stroke:#4c72b0;" x="228.90806" xlink:href="#mf3ed2c9bd6" y="486.422241"/>
     <use style="fill:#4c72b0;stroke:#4c72b0;" x="510.027622" xlink:href="#mf3ed2c9bd6" y="232.869109"/>
     <use style="fill:#4c72b0;stroke:#4c72b0;" x="479.184505" xlink:href="#mf3ed2c9bd6" y="206.578735"/>
     <use style="fill:#4c72b0;stroke:#4c72b0;" x="246.467149" xlink:href="#mf3ed2c9bd6" y="498.383551"/>
     <use style="fill:#4c72b0;stroke:#4c72b0;" x="486.36171" xlink:href="#mf3ed2c9bd6" y="501.13752"/>
     <use style="fill:#4c72b0;stroke:#4c72b0;" x="256.506511" xlink:href="#mf3ed2c9bd6" y="212.967834"/>
     <use style="fill:#4c72b0;stroke:#4c72b0;" x="273.380271" xlink:href="#mf3ed2c9bd6" y="202.799295"/>
     <use style="fill:#4c72b0;stroke:#4c72b0;" x="471.83129" xlink:href="#mf3ed2c9bd6" y="507.420192"/>
     <use style="fill:#4c72b0;stroke:#4c72b0;" x="483.796674" xlink:href="#mf3ed2c9bd6" y="496.815207"/>
     <use style="fill:#4c72b0;stroke:#4c72b0;" x="254.296581" xlink:href="#mf3ed2c9bd6" y="221.122749"/>
     <use style="fill:#4c72b0;stroke:#4c72b0;" x="254.964204" xlink:href="#mf3ed2c9bd6" y="222.183226"/>
     <use style="fill:#4c72b0;stroke:#4c72b0;" x="485.892866" xlink:href="#mf3ed2c9bd6" y="490.114918"/>
     <use style="fill:#4c72b0;stroke:#4c72b0;" x="486.972356" xlink:href="#mf3ed2c9bd6" y="487.474346"/>
     <use style="fill:#4c72b0;stroke:#4c72b0;" x="243.783705" xlink:href="#mf3ed2c9bd6" y="237.712899"/>
     <use style="fill:#4c72b0;stroke:#4c72b0;" x="269.904461" xlink:href="#mf3ed2c9bd6" y="216.968457"/>
     <use style="fill:#4c72b0;stroke:#4c72b0;" x="471.36572" xlink:href="#mf3ed2c9bd6" y="495.534008"/>
     <use style="fill:#4c72b0;stroke:#4c72b0;" x="494.262208" xlink:href="#mf3ed2c9bd6" y="473.199692"/>
     <use style="fill:#4c72b0;stroke:#4c72b0;" x="243.391544" xlink:href="#mf3ed2c9bd6" y="245.428867"/>
     <use style="fill:#4c72b0;stroke:#4c72b0;" x="267.055487" xlink:href="#mf3ed2c9bd6" y="225.217012"/>
     <use style="fill:#4c72b0;stroke:#4c72b0;" x="472.822075" xlink:href="#mf3ed2c9bd6" y="488.136774"/>
     <use style="fill:#4c72b0;stroke:#4c72b0;" x="456.702466" xlink:href="#mf3ed2c9bd6" y="498.054851"/>
     <use style="fill:#4c72b0;stroke:#4c72b0;" x="285.014137" xlink:href="#mf3ed2c9bd6" y="217.52636"/>
     <use style="fill:#4c72b0;stroke:#4c72b0;" x="274.920726" xlink:href="#mf3ed2c9bd6" y="225.586016"/>
     <use style="fill:#4c72b0;stroke:#4c72b0;" x="454.828316" xlink:href="#mf3ed2c9bd6" y="494.833239"/>
     <use style="fill:#4c72b0;stroke:#4c72b0;" x="509.283362" xlink:href="#mf3ed2c9bd6" y="435.3788"/>
     <use style="fill:#4c72b0;stroke:#4c72b0;" x="232.232194" xlink:href="#mf3ed2c9bd6" y="277.363829"/>
     <use style="fill:#4c72b0;stroke:#4c72b0;" x="230.743588" xlink:href="#mf3ed2c9bd6" y="282.489383"/>
     <use style="fill:#4c72b0;stroke:#4c72b0;" x="511.432457" xlink:href="#mf3ed2c9bd6" y="422.775736"/>
     <use style="fill:#4c72b0;stroke:#4c72b0;" x="476.117566" xlink:href="#mf3ed2c9bd6" y="470.432074"/>
     <use style="fill:#4c72b0;stroke:#4c72b0;" x="262.460952" xlink:href="#mf3ed2c9bd6" y="247.132873"/>
     <use style="fill:#4c72b0;stroke:#4c72b0;" x="250.541302" xlink:href="#mf3ed2c9bd6" y="261.901712"/>
     <use style="fill:#4c72b0;stroke:#4c72b0;" x="480.93447" xlink:href="#mf3ed2c9bd6" y="460.175138"/>
     <use style="fill:#4c72b0;stroke:#4c72b0;" x="484.796687" xlink:href="#mf3ed2c9bd6" y="453.828951"/>
     <use style="fill:#4c72b0;stroke:#4c72b0;" x="257.022223" xlink:href="#mf3ed2c9bd6" y="259.999469"/>
     <use style="fill:#4c72b0;stroke:#4c72b0;" x="242.763745" xlink:href="#mf3ed2c9bd6" y="281.528907"/>
     <use style="fill:#4c72b0;stroke:#4c72b0;" x="493.419521" xlink:href="#mf3ed2c9bd6" y="435.45669"/>
     <use style="fill:#4c72b0;stroke:#4c72b0;" x="490.656301" xlink:href="#mf3ed2c9bd6" y="437.48686"/>
     <use style="fill:#4c72b0;stroke:#4c72b0;" x="247.648848" xlink:href="#mf3ed2c9bd6" y="280.730705"/>
     <use style="fill:#4c72b0;stroke:#4c72b0;" x="241.817506" xlink:href="#mf3ed2c9bd6" y="293.421745"/>
     <use style="fill:#4c72b0;stroke:#4c72b0;" x="496.806756" xlink:href="#mf3ed2c9bd6" y="418.897124"/>
     <use style="fill:#4c72b0;stroke:#4c72b0;" x="487.772402" xlink:href="#mf3ed2c9bd6" y="432.778861"/>
     <use style="fill:#4c72b0;stroke:#4c72b0;" x="248.923698" xlink:href="#mf3ed2c9bd6" y="288.172595"/>
     <use style="fill:#4c72b0;stroke:#4c72b0;" x="240.92628" xlink:href="#mf3ed2c9bd6" y="307.449364"/>
     <use style="fill:#4c72b0;stroke:#4c72b0;" x="496.559157" xlink:href="#mf3ed2c9bd6" y="406.847703"/>
     <use style="fill:#4c72b0;stroke:#4c72b0;" x="493.67164" xlink:href="#mf3ed2c9bd6" y="410.71129"/>
     <use style="fill:#4c72b0;stroke:#4c72b0;" x="240.795837" xlink:href="#mf3ed2c9bd6" y="319.088037"/>
     <use style="fill:#4c72b0;stroke:#4c72b0;" x="322.216152" xlink:href="#mf3ed2c9bd6" y="233.918032"/>
     <use style="fill:#4c72b0;stroke:#4c72b0;" x="420.159696" xlink:href="#mf3ed2c9bd6" y="479.398959"/>
     <use style="fill:#4c72b0;stroke:#4c72b0;" x="428.824033" xlink:href="#mf3ed2c9bd6" y="473.968895"/>
     <use style="fill:#4c72b0;stroke:#4c72b0;" x="308.031038" xlink:href="#mf3ed2c9bd6" y="244.436776"/>
     <use style="fill:#4c72b0;stroke:#4c72b0;" x="338.601453" xlink:href="#mf3ed2c9bd6" y="234.037886"/>
     <use style="fill:#4c72b0;stroke:#4c72b0;" x="406.481297" xlink:href="#mf3ed2c9bd6" y="479.111351"/>
     <use style="fill:#4c72b0;stroke:#4c72b0;" x="396.578147" xlink:href="#mf3ed2c9bd6" y="480.474412"/>
     <use style="fill:#4c72b0;stroke:#4c72b0;" x="335.866387" xlink:href="#mf3ed2c9bd6" y="238.600598"/>
     <use style="fill:#4c72b0;stroke:#4c72b0;" x="346.819441" xlink:href="#mf3ed2c9bd6" y="237.35619"/>
     <use style="fill:#4c72b0;stroke:#4c72b0;" x="397.726112" xlink:href="#mf3ed2c9bd6" y="476.379729"/>
     <use style="fill:#4c72b0;stroke:#4c72b0;" x="377.892442" xlink:href="#mf3ed2c9bd6" y="478.250322"/>
     <use style="fill:#4c72b0;stroke:#4c72b0;" x="355.046454" xlink:href="#mf3ed2c9bd6" y="239.882399"/>
     <use style="fill:#4c72b0;stroke:#4c72b0;" x="367.483056" xlink:href="#mf3ed2c9bd6" y="240.313871"/>
     <use style="fill:#4c72b0;stroke:#4c72b0;" x="370.550283" xlink:href="#mf3ed2c9bd6" y="474.843924"/>
     <use style="fill:#4c72b0;stroke:#4c72b0;" x="367.02322" xlink:href="#mf3ed2c9bd6" y="473.595632"/>
     <use style="fill:#4c72b0;stroke:#4c72b0;" x="371.886113" xlink:href="#mf3ed2c9bd6" y="244.065585"/>
     <use style="fill:#4c72b0;stroke:#4c72b0;" x="365.544703" xlink:href="#mf3ed2c9bd6" y="245.323636"/>
     <use style="fill:#4c72b0;stroke:#4c72b0;" x="378.325324" xlink:href="#mf3ed2c9bd6" y="469.497586"/>
     <use style="fill:#4c72b0;stroke:#4c72b0;" x="282.007448" xlink:href="#mf3ed2c9bd6" y="426.248477"/>
     <use style="fill:#4c72b0;stroke:#4c72b0;" x="452.359383" xlink:href="#mf3ed2c9bd6" y="287.653695"/>
     <use style="fill:#4c72b0;stroke:#4c72b0;" x="452.138832" xlink:href="#mf3ed2c9bd6" y="289.324355"/>
     <use style="fill:#4c72b0;stroke:#4c72b0;" x="283.183521" xlink:href="#mf3ed2c9bd6" y="421.641999"/>
     <use style="fill:#4c72b0;stroke:#4c72b0;" x="294.816124" xlink:href="#mf3ed2c9bd6" y="433.184177"/>
     <use style="fill:#4c72b0;stroke:#4c72b0;" x="444.01692" xlink:href="#mf3ed2c9bd6" y="285.826397"/>
     <use style="fill:#4c72b0;stroke:#4c72b0;" x="443.033471" xlink:href="#mf3ed2c9bd6" y="286.595477"/>
     <use style="fill:#4c72b0;stroke:#4c72b0;" x="293.42866" xlink:href="#mf3ed2c9bd6" y="426.33886"/>
     <use style="fill:#4c72b0;stroke:#4c72b0;" x="313.904491" xlink:href="#mf3ed2c9bd6" y="442.267053"/>
     <use style="fill:#4c72b0;stroke:#4c72b0;" x="423.801739" xlink:href="#mf3ed2c9bd6" y="275.426272"/>
     <use style="fill:#4c72b0;stroke:#4c72b0;" x="427.887712" xlink:href="#mf3ed2c9bd6" y="279.82923"/>
     <use style="fill:#4c72b0;stroke:#4c72b0;" x="311.395488" xlink:href="#mf3ed2c9bd6" y="435.97894"/>
     <use style="fill:#4c72b0;stroke:#4c72b0;" x="320.696309" xlink:href="#mf3ed2c9bd6" y="440.636541"/>
     <use style="fill:#4c72b0;stroke:#4c72b0;" x="419.832751" xlink:href="#mf3ed2c9bd6" y="278.7687"/>
     <use style="fill:#4c72b0;stroke:#4c72b0;" x="403.593753" xlink:href="#mf3ed2c9bd6" y="271.805986"/>
     <use style="fill:#4c72b0;stroke:#4c72b0;" x="332.476198" xlink:href="#mf3ed2c9bd6" y="442.444301"/>
     <use style="fill:#4c72b0;stroke:#4c72b0;" x="340.201358" xlink:href="#mf3ed2c9bd6" y="444.079269"/>
     <use style="fill:#4c72b0;stroke:#4c72b0;" x="395.043215" xlink:href="#mf3ed2c9bd6" y="272.742611"/>
     <use style="fill:#4c72b0;stroke:#4c72b0;" x="410.941469" xlink:href="#mf3ed2c9bd6" y="280.728619"/>
     <use style="fill:#4c72b0;stroke:#4c72b0;" x="328.107513" xlink:href="#mf3ed2c9bd6" y="434.825563"/>
     <use style="fill:#4c72b0;stroke:#4c72b0;" x="337.855431" xlink:href="#mf3ed2c9bd6" y="437.946739"/>
     <use style="fill:#4c72b0;stroke:#4c72b0;" x="399.601931" xlink:href="#mf3ed2c9bd6" y="279.574393"/>
     <use style="fill:#4c72b0;stroke:#4c72b0;" x="409.419197" xlink:href="#mf3ed2c9bd6" y="285.558595"/>
     <use style="fill:#4c72b0;stroke:#4c72b0;" x="328.668516" xlink:href="#mf3ed2c9bd6" y="429.466831"/>
     <use style="fill:#4c72b0;stroke:#4c72b0;" x="334.69203" xlink:href="#mf3ed2c9bd6" y="431.184526"/>
     <use style="fill:#4c72b0;stroke:#4c72b0;" x="405.122015" xlink:href="#mf3ed2c9bd6" y="287.48756"/>
     <use style="fill:#4c72b0;stroke:#4c72b0;" x="402.202307" xlink:href="#mf3ed2c9bd6" y="287.439765"/>
     <use style="fill:#4c72b0;stroke:#4c72b0;" x="335.190431" xlink:href="#mf3ed2c9bd6" y="427.292369"/>
     <use style="fill:#4c72b0;stroke:#4c72b0;" x="337.590533" xlink:href="#mf3ed2c9bd6" y="427.053537"/>
     <use style="fill:#4c72b0;stroke:#4c72b0;" x="399.908011" xlink:href="#mf3ed2c9bd6" y="290.482467"/>
     <use style="fill:#4c72b0;stroke:#4c72b0;" x="423.003811" xlink:href="#mf3ed2c9bd6" y="308.791027"/>
     <use style="fill:#4c72b0;stroke:#4c72b0;" x="313.773349" xlink:href="#mf3ed2c9bd6" y="404.32426"/>
     <use style="fill:#4c72b0;stroke:#4c72b0;" x="323.609524" xlink:href="#mf3ed2c9bd6" y="412.42168"/>
     <use style="fill:#4c72b0;stroke:#4c72b0;" x="420.10026" xlink:href="#mf3ed2c9bd6" y="311.136337"/>
     <use style="fill:#4c72b0;stroke:#4c72b0;" x="370.657387" xlink:href="#mf3ed2c9bd6" y="289.990759"/>
     <use style="fill:#4c72b0;stroke:#4c72b0;" x="367.051752" xlink:href="#mf3ed2c9bd6" y="425.159374"/>
     <use style="fill:#4c72b0;stroke:#4c72b0;" x="356.601264" xlink:href="#mf3ed2c9bd6" y="422.766355"/>
     <use style="fill:#4c72b0;stroke:#4c72b0;" x="381.232493" xlink:href="#mf3ed2c9bd6" y="294.866108"/>
     <use style="fill:#4c72b0;stroke:#4c72b0;" x="355.263188" xlink:href="#mf3ed2c9bd6" y="296.446684"/>
     <use style="fill:#4c72b0;stroke:#4c72b0;" x="377.089402" xlink:href="#mf3ed2c9bd6" y="419.691247"/>
     <use style="fill:#4c72b0;stroke:#4c72b0;" x="390.79684" xlink:href="#mf3ed2c9bd6" y="414.936522"/>
     <use style="fill:#4c72b0;stroke:#4c72b0;" x="348.187698" xlink:href="#mf3ed2c9bd6" y="302.418373"/>
     <use style="fill:#4c72b0;stroke:#4c72b0;" x="354.598838" xlink:href="#mf3ed2c9bd6" y="301.710723"/>
     <use style="fill:#4c72b0;stroke:#4c72b0;" x="386.088659" xlink:href="#mf3ed2c9bd6" y="412.635129"/>
     <use style="fill:#4c72b0;stroke:#4c72b0;" x="380.689101" xlink:href="#mf3ed2c9bd6" y="412.774971"/>
     <use style="fill:#4c72b0;stroke:#4c72b0;" x="358.196878" xlink:href="#mf3ed2c9bd6" y="304.70892"/>
     <use style="fill:#4c72b0;stroke:#4c72b0;" x="351.259141" xlink:href="#mf3ed2c9bd6" y="307.907964"/>
     <use style="fill:#4c72b0;stroke:#4c72b0;" x="383.895738" xlink:href="#mf3ed2c9bd6" y="408.112437"/>
     <use style="fill:#4c72b0;stroke:#4c72b0;" x="389.069291" xlink:href="#mf3ed2c9bd6" y="404.917757"/>
     <use style="fill:#4c72b0;stroke:#4c72b0;" x="350.616967" xlink:href="#mf3ed2c9bd6" y="312.127626"/>
     <use style="fill:#4c72b0;stroke:#4c72b0;" x="346.893873" xlink:href="#mf3ed2c9bd6" y="315.18516"/>
     <use style="fill:#4c72b0;stroke:#4c72b0;" x="390.955256" xlink:href="#mf3ed2c9bd6" y="399.893708"/>
     <use style="fill:#4c72b0;stroke:#4c72b0;" x="391.253135" xlink:href="#mf3ed2c9bd6" y="398.321331"/>
     <use style="fill:#4c72b0;stroke:#4c72b0;" x="347.619458" xlink:href="#mf3ed2c9bd6" y="319.015771"/>
     <use style="fill:#4c72b0;stroke:#4c72b0;" x="347.834655" xlink:href="#mf3ed2c9bd6" y="320.315291"/>
     <use style="fill:#4c72b0;stroke:#4c72b0;" x="386.300458" xlink:href="#mf3ed2c9bd6" y="396.640761"/>
     <use style="fill:#4c72b0;stroke:#4c72b0;" x="404.711509" xlink:href="#mf3ed2c9bd6" y="378.163583"/>
     <use style="fill:#4c72b0;stroke:#4c72b0;" x="335.066243" xlink:href="#mf3ed2c9bd6" y="337.650096"/>
     <use style="fill:#4c72b0;stroke:#4c72b0;" x="336.826667" xlink:href="#mf3ed2c9bd6" y="337.183329"/>
     <use style="fill:#4c72b0;stroke:#4c72b0;" x="401.508903" xlink:href="#mf3ed2c9bd6" y="376.258348"/>
     <use style="fill:#4c72b0;stroke:#4c72b0;" x="395.940157" xlink:href="#mf3ed2c9bd6" y="381.998171"/>
     <use style="fill:#4c72b0;stroke:#4c72b0;" x="342.425305" xlink:href="#mf3ed2c9bd6" y="335.879912"/>
     <use style="fill:#4c72b0;stroke:#4c72b0;" x="343.03612" xlink:href="#mf3ed2c9bd6" y="337.089887"/>
     <use style="fill:#4c72b0;stroke:#4c72b0;" x="393.865517" xlink:href="#mf3ed2c9bd6" y="378.691673"/>
     <use style="fill:#4c72b0;stroke:#4c72b0;" x="392.936737" xlink:href="#mf3ed2c9bd6" y="377.866249"/>
     <use style="fill:#4c72b0;stroke:#4c72b0;" x="346.345753" xlink:href="#mf3ed2c9bd6" y="338.935438"/>
     <use style="fill:#4c72b0;stroke:#4c72b0;" x="346.138761" xlink:href="#mf3ed2c9bd6" y="341.188385"/>
     <use style="fill:#4c72b0;stroke:#4c72b0;" x="391.000713" xlink:href="#mf3ed2c9bd6" y="374.286528"/>
     <use style="fill:#4c72b0;stroke:#4c72b0;" x="386.710093" xlink:href="#mf3ed2c9bd6" y="377.253091"/>
     <use style="fill:#4c72b0;stroke:#4c72b0;" x="351.112697" xlink:href="#mf3ed2c9bd6" y="341.063621"/>
     <use style="fill:#4c72b0;stroke:#4c72b0;" x="356.576567" xlink:href="#mf3ed2c9bd6" y="338.217603"/>
     <use style="fill:#4c72b0;stroke:#4c72b0;" x="380.954439" xlink:href="#mf3ed2c9bd6" y="377.010624"/>
     <use style="fill:#4c72b0;stroke:#4c72b0;" x="381.258537" xlink:href="#mf3ed2c9bd6" y="375.307606"/>
     <use style="fill:#4c72b0;stroke:#4c72b0;" x="358.236367" xlink:href="#mf3ed2c9bd6" y="341.575821"/>
     <use style="fill:#4c72b0;stroke:#4c72b0;" x="357.332083" xlink:href="#mf3ed2c9bd6" y="343.762567"/>
     <use style="fill:#4c72b0;stroke:#4c72b0;" x="379.804898" xlink:href="#mf3ed2c9bd6" y="371.738022"/>
     <use style="fill:#4c72b0;stroke:#4c72b0;" x="378.490348" xlink:href="#mf3ed2c9bd6" y="371.180166"/>
     <use style="fill:#4c72b0;stroke:#4c72b0;" x="360.800701" xlink:href="#mf3ed2c9bd6" y="345.833355"/>
     <use style="fill:#4c72b0;stroke:#4c72b0;" x="358.528286" xlink:href="#mf3ed2c9bd6" y="349.528201"/>
     <use style="fill:#4c72b0;stroke:#4c72b0;" x="378.519317" xlink:href="#mf3ed2c9bd6" y="366.075112"/>
    </g>
   </g>
   <g id="patch_3">
    <path d="M 640.8 358.2 
C 640.8 322.507551 633.769366 287.162166 620.110457 254.186643 
C 606.451548 221.21112 586.429996 191.24675 561.191623 166.008377 
C 535.95325 140.770004 505.98888 120.748452 473.013357 107.089543 
C 440.037834 93.430634 404.692449 86.4 369 86.4 
C 333.307551 86.4 297.962166 93.430634 264.986643 107.089543 
C 232.01112 120.748452 202.04675 140.770004 176.808377 166.008377 
C 151.570004 191.24675 131.548452 221.21112 117.889543 254.186643 
C 104.230634 287.162166 97.2 322.507551 97.2 358.2 
C 97.2 393.892449 104.230634 429.237834 117.889543 462.213357 
C 131.548452 495.18888 151.570004 525.15325 176.808377 550.391623 
C 202.04675 575.629996 232.01112 595.651548 264.986643 609.310457 
C 297.962166 622.969366 333.307551 630 369 630 
C 404.692449 630 440.037834 622.969366 473.013357 609.310457 
C 505.98888 595.651548 535.95325 575.629996 561.191623 550.391623 
C 586.429996 525.15325 606.451548 495.18888 620.110457 462.213357 
C 633.769366 429.237834 640.8 393.892449 640.8 358.2 
" style="fill:none;stroke:#ffffff;stroke-linecap:square;stroke-linejoin:miter;stroke-width:1.25;"/>
   </g>
  </g>
 </g>
 <defs>
  <clipPath id="p56dc09e65b">
   <path d="M 640.8 358.2 
C 640.8 322.507551 633.769366 287.162166 620.110457 254.186643 
C 606.451548 221.21112 586.429996 191.24675 561.191623 166.008377 
C 535.95325 140.770004 505.98888 120.748452 473.013357 107.089543 
C 440.037834 93.430634 404.692449 86.4 369 86.4 
C 333.307551 86.4 297.962166 93.430634 264.986643 107.089543 
C 232.01112 120.748452 202.04675 140.770004 176.808377 166.008377 
C 151.570004 191.24675 131.548452 221.21112 117.889543 254.186643 
C 104.230634 287.162166 97.2 322.507551 97.2 358.2 
C 97.2 393.892449 104.230634 429.237834 117.889543 462.213357 
C 131.548452 495.18888 151.570004 525.15325 176.808377 550.391623 
C 202.04675 575.629996 232.01112 595.651548 264.986643 609.310457 
C 297.962166 622.969366 333.307551 630 369 630 
C 404.692449 630 440.037834 622.969366 473.013357 609.310457 
C 505.98888 595.651548 535.95325 575.629996 561.191623 550.391623 
C 586.429996 525.15325 606.451548 495.18888 620.110457 462.213357 
C 633.769366 429.237834 640.8 393.892449 640.8 358.2 
M 369 358.2 
C 369 358.2 369 358.2 369 358.2 
C 369 358.2 369 358.2 369 358.2 
C 369 358.2 369 358.2 369 358.2 
C 369 358.2 369 358.2 369 358.2 
C 369 358.2 369 358.2 369 358.2 
C 369 358.2 369 358.2 369 358.2 
C 369 358.2 369 358.2 369 358.2 
C 369 358.2 369 358.2 369 358.2 
C 369 358.2 369 358.2 369 358.2 
C 369 358.2 369 358.2 369 358.2 
C 369 358.2 369 358.2 369 358.2 
C 369 358.2 369 358.2 369 358.2 
C 369 358.2 369 358.2 369 358.2 
C 369 358.2 369 358.2 369 358.2 
C 369 358.2 369 358.2 369 358.2 
C 369 358.2 369 358.2 369 358.2 
M 640.8 358.2 
z
"/>
  </clipPath>
 </defs>
</svg>
