<?xml version="1.0" encoding="utf-8" standalone="no"?>
<!DOCTYPE svg PUBLIC "-//W3C//DTD SVG 1.1//EN"
  "http://www.w3.org/Graphics/SVG/1.1/DTD/svg11.dtd">
<!-- Created with matplotlib (https://matplotlib.org/) -->
<svg height="576pt" version="1.1" viewBox="0 0 576 576" width="576pt" xmlns="http://www.w3.org/2000/svg" xmlns:xlink="http://www.w3.org/1999/xlink">
 <defs>
  <style type="text/css">
*{stroke-linecap:butt;stroke-linejoin:round;}
  </style>
 </defs>
 <g id="figure_1">
  <g id="patch_1">
   <path d="M 0 576 
L 576 576 
L 576 0 
L 0 0 
z
" style="fill:#ffffff;"/>
  </g>
  <g id="axes_1">
   <g id="patch_2">
    <path d="M 512.64 286.56 
C 512.64 258.006041 507.015493 229.729733 496.088366 203.349314 
C 485.161238 176.968896 469.143997 152.9974 448.953299 132.806701 
C 428.7626 112.616003 404.791104 96.598762 378.410686 85.671634 
C 352.030267 74.744507 323.753959 69.12 295.2 69.12 
C 266.646041 69.12 238.369733 74.744507 211.989314 85.671634 
C 185.608896 96.598762 161.6374 112.616003 141.446701 132.806701 
C 121.256003 152.9974 105.238762 176.968896 94.311634 203.349314 
C 83.384507 229.729733 77.76 258.006041 77.76 286.56 
C 77.76 315.113959 83.384507 343.390267 94.311634 369.770686 
C 105.238762 396.151104 121.256003 420.1226 141.446701 440.313299 
C 161.6374 460.503997 185.608896 476.521238 211.989314 487.448366 
C 238.369733 498.375493 266.646041 504 295.2 504 
C 323.753959 504 352.030267 498.375493 378.410686 487.448366 
C 404.791104 476.521238 428.7626 460.503997 448.953299 440.313299 
C 469.143997 420.1226 485.161238 396.151104 496.088366 369.770686 
C 507.015493 343.390267 512.64 315.113959 512.64 286.56 
M 295.2 286.56 
C 295.2 286.56 295.2 286.56 295.2 286.56 
C 295.2 286.56 295.2 286.56 295.2 286.56 
C 295.2 286.56 295.2 286.56 295.2 286.56 
C 295.2 286.56 295.2 286.56 295.2 286.56 
C 295.2 286.56 295.2 286.56 295.2 286.56 
C 295.2 286.56 295.2 286.56 295.2 286.56 
C 295.2 286.56 295.2 286.56 295.2 286.56 
C 295.2 286.56 295.2 286.56 295.2 286.56 
C 295.2 286.56 295.2 286.56 295.2 286.56 
C 295.2 286.56 295.2 286.56 295.2 286.56 
C 295.2 286.56 295.2 286.56 295.2 286.56 
C 295.2 286.56 295.2 286.56 295.2 286.56 
C 295.2 286.56 295.2 286.56 295.2 286.56 
C 295.2 286.56 295.2 286.56 295.2 286.56 
C 295.2 286.56 295.2 286.56 295.2 286.56 
C 295.2 286.56 295.2 286.56 295.2 286.56 
M 512.64 286.56 
z
" style="fill:#eaeaf2;"/>
   </g>
   <g id="matplotlib.axis_1">
    <g id="xtick_1">
     <g id="line2d_1">
      <path clip-path="url(#p44b88df0fe)" d="M 295.2 286.56 
L 512.64 286.56 
" style="fill:none;stroke:#ffffff;stroke-linecap:round;"/>
     </g>
     <g id="text_1">
      <!-- 0° -->
      <defs>
       <path d="M 4.15625 35.296875 
Q 4.15625 48 6.765625 55.734375 
Q 9.375 63.484375 14.515625 67.671875 
Q 19.671875 71.875 27.484375 71.875 
Q 33.25 71.875 37.59375 69.546875 
Q 41.9375 67.234375 44.765625 62.859375 
Q 47.609375 58.5 49.21875 52.21875 
Q 50.828125 45.953125 50.828125 35.296875 
Q 50.828125 22.703125 48.234375 14.96875 
Q 45.65625 7.234375 40.5 3 
Q 35.359375 -1.21875 27.484375 -1.21875 
Q 17.140625 -1.21875 11.234375 6.203125 
Q 4.15625 15.140625 4.15625 35.296875 
z
M 13.1875 35.296875 
Q 13.1875 17.671875 17.3125 11.828125 
Q 21.4375 6 27.484375 6 
Q 33.546875 6 37.671875 11.859375 
Q 41.796875 17.71875 41.796875 35.296875 
Q 41.796875 52.984375 37.671875 58.78125 
Q 33.546875 64.59375 27.390625 64.59375 
Q 21.34375 64.59375 17.71875 59.46875 
Q 13.1875 52.9375 13.1875 35.296875 
z
" id="ArialMT-48"/>
       <path d="M 6.25 59.28125 
Q 6.25 64.890625 10.21875 68.84375 
Q 14.203125 72.796875 19.78125 72.796875 
Q 25.4375 72.796875 29.390625 68.84375 
Q 33.34375 64.890625 33.34375 59.28125 
Q 33.34375 53.65625 29.359375 49.671875 
Q 25.390625 45.703125 19.78125 45.703125 
Q 14.203125 45.703125 10.21875 49.65625 
Q 6.25 53.609375 6.25 59.28125 
z
M 11.578125 59.28125 
Q 11.578125 55.859375 13.984375 53.4375 
Q 16.40625 51.03125 19.828125 51.03125 
Q 23.1875 51.03125 25.609375 53.4375 
Q 28.03125 55.859375 28.03125 59.28125 
Q 28.03125 62.703125 25.609375 65.109375 
Q 23.1875 67.53125 19.828125 67.53125 
Q 16.40625 67.53125 13.984375 65.109375 
Q 11.578125 62.703125 11.578125 59.28125 
z
" id="ArialMT-176"/>
      </defs>
      <g style="fill:#262626;" transform="translate(523.882344 289.403672)scale(0.11 -0.11)">
       <use xlink:href="#ArialMT-48"/>
       <use x="55.615234" xlink:href="#ArialMT-176"/>
      </g>
     </g>
    </g>
    <g id="xtick_2">
     <g id="line2d_2">
      <path clip-path="url(#p44b88df0fe)" d="M 295.2 286.56 
L 448.953299 132.806701 
" style="fill:none;stroke:#ffffff;stroke-linecap:round;"/>
     </g>
     <g id="text_2">
      <!-- 45° -->
      <defs>
       <path d="M 32.328125 0 
L 32.328125 17.140625 
L 1.265625 17.140625 
L 1.265625 25.203125 
L 33.9375 71.578125 
L 41.109375 71.578125 
L 41.109375 25.203125 
L 50.78125 25.203125 
L 50.78125 17.140625 
L 41.109375 17.140625 
L 41.109375 0 
z
M 32.328125 25.203125 
L 32.328125 57.46875 
L 9.90625 25.203125 
z
" id="ArialMT-52"/>
       <path d="M 4.15625 18.75 
L 13.375 19.53125 
Q 14.40625 12.796875 18.140625 9.390625 
Q 21.875 6 27.15625 6 
Q 33.5 6 37.890625 10.78125 
Q 42.28125 15.578125 42.28125 23.484375 
Q 42.28125 31 38.0625 35.34375 
Q 33.84375 39.703125 27 39.703125 
Q 22.75 39.703125 19.328125 37.765625 
Q 15.921875 35.84375 13.96875 32.765625 
L 5.71875 33.84375 
L 12.640625 70.609375 
L 48.25 70.609375 
L 48.25 62.203125 
L 19.671875 62.203125 
L 15.828125 42.96875 
Q 22.265625 47.46875 29.34375 47.46875 
Q 38.71875 47.46875 45.15625 40.96875 
Q 51.609375 34.46875 51.609375 24.265625 
Q 51.609375 14.546875 45.953125 7.46875 
Q 39.0625 -1.21875 27.15625 -1.21875 
Q 17.390625 -1.21875 11.203125 4.25 
Q 5.03125 9.71875 4.15625 18.75 
z
" id="ArialMT-53"/>
      </defs>
      <g style="fill:#262626;" transform="translate(452.304389 123.983111)scale(0.11 -0.11)">
       <use xlink:href="#ArialMT-52"/>
       <use x="55.615234" xlink:href="#ArialMT-53"/>
       <use x="111.230469" xlink:href="#ArialMT-176"/>
      </g>
     </g>
    </g>
    <g id="xtick_3">
     <g id="line2d_3">
      <path clip-path="url(#p44b88df0fe)" d="M 295.2 286.56 
L 295.2 69.12 
" style="fill:none;stroke:#ffffff;stroke-linecap:round;"/>
     </g>
     <g id="text_3">
      <!-- 90° -->
      <defs>
       <path d="M 5.46875 16.546875 
L 13.921875 17.328125 
Q 14.984375 11.375 18.015625 8.6875 
Q 21.046875 6 25.78125 6 
Q 29.828125 6 32.875 7.859375 
Q 35.9375 9.71875 37.890625 12.8125 
Q 39.84375 15.921875 41.15625 21.1875 
Q 42.484375 26.46875 42.484375 31.9375 
Q 42.484375 32.515625 42.4375 33.6875 
Q 39.796875 29.5 35.234375 26.875 
Q 30.671875 24.265625 25.34375 24.265625 
Q 16.453125 24.265625 10.296875 30.703125 
Q 4.15625 37.15625 4.15625 47.703125 
Q 4.15625 58.59375 10.578125 65.234375 
Q 17 71.875 26.65625 71.875 
Q 33.640625 71.875 39.421875 68.109375 
Q 45.21875 64.359375 48.21875 57.390625 
Q 51.21875 50.4375 51.21875 37.25 
Q 51.21875 23.53125 48.234375 15.40625 
Q 45.265625 7.28125 39.375 3.03125 
Q 33.5 -1.21875 25.59375 -1.21875 
Q 17.1875 -1.21875 11.859375 3.4375 
Q 6.546875 8.109375 5.46875 16.546875 
z
M 41.453125 48.140625 
Q 41.453125 55.71875 37.421875 60.15625 
Q 33.40625 64.59375 27.734375 64.59375 
Q 21.875 64.59375 17.53125 59.8125 
Q 13.1875 55.03125 13.1875 47.40625 
Q 13.1875 40.578125 17.3125 36.296875 
Q 21.4375 32.03125 27.484375 32.03125 
Q 33.59375 32.03125 37.515625 36.296875 
Q 41.453125 40.578125 41.453125 48.140625 
z
" id="ArialMT-57"/>
      </defs>
      <g style="fill:#262626;" transform="translate(286.883828 55.463672)scale(0.11 -0.11)">
       <use xlink:href="#ArialMT-57"/>
       <use x="55.615234" xlink:href="#ArialMT-48"/>
       <use x="111.230469" xlink:href="#ArialMT-176"/>
      </g>
     </g>
    </g>
    <g id="xtick_4">
     <g id="line2d_4">
      <path clip-path="url(#p44b88df0fe)" d="M 295.2 286.56 
L 141.446701 132.806701 
" style="fill:none;stroke:#ffffff;stroke-linecap:round;"/>
     </g>
     <g id="text_4">
      <!-- 135° -->
      <defs>
       <path d="M 37.25 0 
L 28.46875 0 
L 28.46875 56 
Q 25.296875 52.984375 20.140625 49.953125 
Q 14.984375 46.921875 10.890625 45.40625 
L 10.890625 53.90625 
Q 18.265625 57.375 23.78125 62.296875 
Q 29.296875 67.234375 31.59375 71.875 
L 37.25 71.875 
z
" id="ArialMT-49"/>
       <path d="M 4.203125 18.890625 
L 12.984375 20.0625 
Q 14.5 12.59375 18.140625 9.296875 
Q 21.78125 6 27 6 
Q 33.203125 6 37.46875 10.296875 
Q 41.75 14.59375 41.75 20.953125 
Q 41.75 27 37.796875 30.921875 
Q 33.84375 34.859375 27.734375 34.859375 
Q 25.25 34.859375 21.53125 33.890625 
L 22.515625 41.609375 
Q 23.390625 41.5 23.921875 41.5 
Q 29.546875 41.5 34.03125 44.421875 
Q 38.53125 47.359375 38.53125 53.46875 
Q 38.53125 58.296875 35.25 61.46875 
Q 31.984375 64.65625 26.8125 64.65625 
Q 21.6875 64.65625 18.265625 61.421875 
Q 14.84375 58.203125 13.875 51.765625 
L 5.078125 53.328125 
Q 6.6875 62.15625 12.390625 67.015625 
Q 18.109375 71.875 26.609375 71.875 
Q 32.46875 71.875 37.390625 69.359375 
Q 42.328125 66.84375 44.9375 62.5 
Q 47.5625 58.15625 47.5625 53.265625 
Q 47.5625 48.640625 45.0625 44.828125 
Q 42.578125 41.015625 37.703125 38.765625 
Q 44.046875 37.3125 47.5625 32.6875 
Q 51.078125 28.078125 51.078125 21.140625 
Q 51.078125 11.765625 44.234375 5.25 
Q 37.40625 -1.265625 26.953125 -1.265625 
Q 17.53125 -1.265625 11.296875 4.34375 
Q 5.078125 9.96875 4.203125 18.890625 
z
" id="ArialMT-51"/>
      </defs>
      <g style="fill:#262626;" transform="translate(118.404752 123.983111)scale(0.11 -0.11)">
       <use xlink:href="#ArialMT-49"/>
       <use x="55.615234" xlink:href="#ArialMT-51"/>
       <use x="111.230469" xlink:href="#ArialMT-53"/>
       <use x="166.845703" xlink:href="#ArialMT-176"/>
      </g>
     </g>
    </g>
    <g id="xtick_5">
     <g id="line2d_5">
      <path clip-path="url(#p44b88df0fe)" d="M 295.2 286.56 
L 77.76 286.56 
" style="fill:none;stroke:#ffffff;stroke-linecap:round;"/>
     </g>
     <g id="text_5">
      <!-- 180° -->
      <defs>
       <path d="M 17.671875 38.8125 
Q 12.203125 40.828125 9.5625 44.53125 
Q 6.9375 48.25 6.9375 53.421875 
Q 6.9375 61.234375 12.546875 66.546875 
Q 18.171875 71.875 27.484375 71.875 
Q 36.859375 71.875 42.578125 66.421875 
Q 48.296875 60.984375 48.296875 53.171875 
Q 48.296875 48.1875 45.671875 44.5 
Q 43.0625 40.828125 37.75 38.8125 
Q 44.34375 36.671875 47.78125 31.875 
Q 51.21875 27.09375 51.21875 20.453125 
Q 51.21875 11.28125 44.71875 5.03125 
Q 38.234375 -1.21875 27.640625 -1.21875 
Q 17.046875 -1.21875 10.546875 5.046875 
Q 4.046875 11.328125 4.046875 20.703125 
Q 4.046875 27.6875 7.59375 32.390625 
Q 11.140625 37.109375 17.671875 38.8125 
z
M 15.921875 53.71875 
Q 15.921875 48.640625 19.1875 45.40625 
Q 22.46875 42.1875 27.6875 42.1875 
Q 32.765625 42.1875 36.015625 45.375 
Q 39.265625 48.578125 39.265625 53.21875 
Q 39.265625 58.0625 35.90625 61.359375 
Q 32.5625 64.65625 27.59375 64.65625 
Q 22.5625 64.65625 19.234375 61.421875 
Q 15.921875 58.203125 15.921875 53.71875 
z
M 13.09375 20.65625 
Q 13.09375 16.890625 14.875 13.375 
Q 16.65625 9.859375 20.171875 7.921875 
Q 23.6875 6 27.734375 6 
Q 34.03125 6 38.125 10.046875 
Q 42.234375 14.109375 42.234375 20.359375 
Q 42.234375 26.703125 38.015625 30.859375 
Q 33.796875 35.015625 27.4375 35.015625 
Q 21.234375 35.015625 17.15625 30.90625 
Q 13.09375 26.8125 13.09375 20.65625 
z
" id="ArialMT-56"/>
      </defs>
      <g style="fill:#262626;" transform="translate(49.885312 289.403672)scale(0.11 -0.11)">
       <use xlink:href="#ArialMT-49"/>
       <use x="55.615234" xlink:href="#ArialMT-56"/>
       <use x="111.230469" xlink:href="#ArialMT-48"/>
       <use x="166.845703" xlink:href="#ArialMT-176"/>
      </g>
     </g>
    </g>
    <g id="xtick_6">
     <g id="line2d_6">
      <path clip-path="url(#p44b88df0fe)" d="M 295.2 286.56 
L 141.446701 440.313299 
" style="fill:none;stroke:#ffffff;stroke-linecap:round;"/>
     </g>
     <g id="text_6">
      <!-- 225° -->
      <defs>
       <path d="M 50.34375 8.453125 
L 50.34375 0 
L 3.03125 0 
Q 2.9375 3.171875 4.046875 6.109375 
Q 5.859375 10.9375 9.828125 15.625 
Q 13.8125 20.3125 21.34375 26.46875 
Q 33.015625 36.03125 37.109375 41.625 
Q 41.21875 47.21875 41.21875 52.203125 
Q 41.21875 57.421875 37.46875 61 
Q 33.734375 64.59375 27.734375 64.59375 
Q 21.390625 64.59375 17.578125 60.78125 
Q 13.765625 56.984375 13.71875 50.25 
L 4.6875 51.171875 
Q 5.609375 61.28125 11.65625 66.578125 
Q 17.71875 71.875 27.9375 71.875 
Q 38.234375 71.875 44.234375 66.15625 
Q 50.25 60.453125 50.25 52 
Q 50.25 47.703125 48.484375 43.546875 
Q 46.734375 39.40625 42.65625 34.8125 
Q 38.578125 30.21875 29.109375 22.21875 
Q 21.1875 15.578125 18.9375 13.203125 
Q 16.703125 10.84375 15.234375 8.453125 
z
" id="ArialMT-50"/>
      </defs>
      <g style="fill:#262626;" transform="translate(118.404752 454.824232)scale(0.11 -0.11)">
       <use xlink:href="#ArialMT-50"/>
       <use x="55.615234" xlink:href="#ArialMT-50"/>
       <use x="111.230469" xlink:href="#ArialMT-53"/>
       <use x="166.845703" xlink:href="#ArialMT-176"/>
      </g>
     </g>
    </g>
    <g id="xtick_7">
     <g id="line2d_7">
      <path clip-path="url(#p44b88df0fe)" d="M 295.2 286.56 
L 295.2 504 
" style="fill:none;stroke:#ffffff;stroke-linecap:round;"/>
     </g>
     <g id="text_7">
      <!-- 270° -->
      <defs>
       <path d="M 4.734375 62.203125 
L 4.734375 70.65625 
L 51.078125 70.65625 
L 51.078125 63.8125 
Q 44.234375 56.546875 37.515625 44.484375 
Q 30.8125 32.421875 27.15625 19.671875 
Q 24.515625 10.6875 23.78125 0 
L 14.75 0 
Q 14.890625 8.453125 18.0625 20.40625 
Q 21.234375 32.375 27.171875 43.484375 
Q 33.109375 54.59375 39.796875 62.203125 
z
" id="ArialMT-55"/>
      </defs>
      <g style="fill:#262626;" transform="translate(283.825312 523.343672)scale(0.11 -0.11)">
       <use xlink:href="#ArialMT-50"/>
       <use x="55.615234" xlink:href="#ArialMT-55"/>
       <use x="111.230469" xlink:href="#ArialMT-48"/>
       <use x="166.845703" xlink:href="#ArialMT-176"/>
      </g>
     </g>
    </g>
    <g id="xtick_8">
     <g id="line2d_8">
      <path clip-path="url(#p44b88df0fe)" d="M 295.2 286.56 
L 448.953299 440.313299 
" style="fill:none;stroke:#ffffff;stroke-linecap:round;"/>
     </g>
     <g id="text_8">
      <!-- 315° -->
      <g style="fill:#262626;" transform="translate(449.245873 454.824232)scale(0.11 -0.11)">
       <use xlink:href="#ArialMT-51"/>
       <use x="55.615234" xlink:href="#ArialMT-49"/>
       <use x="111.230469" xlink:href="#ArialMT-53"/>
       <use x="166.845703" xlink:href="#ArialMT-176"/>
      </g>
     </g>
    </g>
   </g>
   <g id="matplotlib.axis_2">
    <g id="ytick_1">
     <g id="line2d_9">
      <path clip-path="url(#p44b88df0fe)" d="M 319.680921 286.56 
L 319.546812 284.001047 
L 319.145954 281.47013 
L 318.482739 278.994979 
L 317.564434 276.602713 
L 316.401099 274.31954 
L 315.005481 272.170476 
L 313.392869 270.179067 
L 311.580933 268.367131 
L 309.589524 266.754519 
L 307.44046 265.358901 
L 305.157287 264.195566 
L 302.765021 263.277261 
L 300.28987 262.614046 
L 297.758953 262.213188 
L 295.2 262.079079 
L 292.641047 262.213188 
L 290.11013 262.614046 
L 287.634979 263.277261 
L 285.242713 264.195566 
L 282.95954 265.358901 
L 280.810476 266.754519 
L 278.819067 268.367131 
L 277.007131 270.179067 
L 275.394519 272.170476 
L 273.998901 274.31954 
L 272.835566 276.602713 
L 271.917261 278.994979 
L 271.254046 281.47013 
L 270.853188 284.001047 
L 270.719079 286.56 
L 270.853188 289.118953 
L 271.254046 291.64987 
L 271.917261 294.125021 
L 272.835566 296.517287 
L 273.998901 298.80046 
L 275.394519 300.949524 
L 277.007131 302.940933 
L 278.819067 304.752869 
L 280.810476 306.365481 
L 282.95954 307.761099 
L 285.242713 308.924434 
L 287.634979 309.842739 
L 290.11013 310.505954 
L 292.641047 310.906812 
L 295.2 311.040921 
L 297.758953 310.906812 
L 300.28987 310.505954 
L 302.765021 309.842739 
L 305.157287 308.924434 
L 307.44046 307.761099 
L 309.589524 306.365481 
L 311.580933 304.752869 
L 313.392869 302.940933 
L 315.005481 300.949524 
L 316.401099 298.80046 
L 317.564434 296.517287 
L 318.482739 294.125021 
L 319.145954 291.64987 
L 319.546812 289.118953 
L 319.680921 286.56 
L 319.680921 286.56 
" style="fill:none;stroke:#ffffff;stroke-linecap:round;"/>
     </g>
     <g id="text_9">
      <!-- 0.5 -->
      <defs>
       <path d="M 9.078125 0 
L 9.078125 10.015625 
L 19.09375 10.015625 
L 19.09375 0 
z
" id="ArialMT-46"/>
      </defs>
      <g style="fill:#262626;" transform="translate(317.817422 275.005307)scale(0.11 -0.11)">
       <use xlink:href="#ArialMT-48"/>
       <use x="55.615234" xlink:href="#ArialMT-46"/>
       <use x="83.398438" xlink:href="#ArialMT-53"/>
      </g>
     </g>
    </g>
    <g id="ytick_2">
     <g id="line2d_10">
      <path clip-path="url(#p44b88df0fe)" d="M 344.161841 286.56 
L 344.042573 283.144595 
L 343.685348 279.745829 
L 343.091908 276.380261 
L 342.265143 273.064288 
L 341.209081 269.814064 
L 339.928868 266.645425 
L 338.43074 263.573808 
L 336.721996 260.614177 
L 334.810962 257.780952 
L 332.706946 255.087935 
L 330.420201 252.548247 
L 327.961867 250.174261 
L 325.343919 247.977543 
L 322.579114 245.968794 
L 319.680921 244.157802 
L 316.663459 242.553389 
L 313.541429 241.163371 
L 310.330041 239.994522 
L 307.044941 239.052535 
L 303.702135 238.341999 
L 300.317906 237.866377 
L 296.908744 237.627985 
L 293.491256 237.627985 
L 290.082094 237.866377 
L 286.697865 238.341999 
L 283.355059 239.052535 
L 280.069959 239.994522 
L 276.858571 241.163371 
L 273.736541 242.553389 
L 270.719079 244.157802 
L 267.820886 245.968794 
L 265.056081 247.977543 
L 262.438133 250.174261 
L 259.979799 252.548247 
L 257.693054 255.087935 
L 255.589038 257.780952 
L 253.678004 260.614177 
L 251.96926 263.573808 
L 250.471132 266.645425 
L 249.190919 269.814064 
L 248.134857 273.064288 
L 247.308092 276.380261 
L 246.714652 279.745829 
L 246.357427 283.144595 
L 246.238159 286.56 
L 246.357427 289.975405 
L 246.714652 293.374171 
L 247.308092 296.739739 
L 248.134857 300.055712 
L 249.190919 303.305936 
L 250.471132 306.474575 
L 251.96926 309.546192 
L 253.678004 312.505823 
L 255.589038 315.339048 
L 257.693054 318.032065 
L 259.979799 320.571753 
L 262.438133 322.945739 
L 265.056081 325.142457 
L 267.820886 327.151206 
L 270.719079 328.962198 
L 273.736541 330.566611 
L 276.858571 331.956629 
L 280.069959 333.125478 
L 283.355059 334.067465 
L 286.697865 334.778001 
L 290.082094 335.253623 
L 293.491256 335.492015 
L 296.908744 335.492015 
L 300.317906 335.253623 
L 303.702135 334.778001 
L 307.044941 334.067465 
L 310.330041 333.125478 
L 313.541429 331.956629 
L 316.663459 330.566611 
L 319.680921 328.962198 
L 322.579114 327.151206 
L 325.343919 325.142457 
L 327.961867 322.945739 
L 330.420201 320.571753 
L 332.706946 318.032065 
L 334.810962 315.339048 
L 336.721996 312.505823 
L 338.43074 309.546192 
L 339.928868 306.474575 
L 341.209081 303.305936 
L 342.265143 300.055712 
L 343.091908 296.739739 
L 343.685348 293.374171 
L 344.042573 289.975405 
L 344.161841 286.56 
L 344.161841 286.56 
" style="fill:none;stroke:#ffffff;stroke-linecap:round;"/>
     </g>
     <g id="text_10">
      <!-- 1.0 -->
      <g style="fill:#262626;" transform="translate(340.434843 265.636865)scale(0.11 -0.11)">
       <use xlink:href="#ArialMT-49"/>
       <use x="55.615234" xlink:href="#ArialMT-46"/>
       <use x="83.398438" xlink:href="#ArialMT-48"/>
      </g>
     </g>
    </g>
    <g id="ytick_3">
     <g id="line2d_11">
      <path clip-path="url(#p44b88df0fe)" d="M 368.642762 286.56 
L 368.463859 281.436892 
L 367.928022 276.338743 
L 367.037861 271.290391 
L 365.797714 266.316431 
L 364.213621 261.441096 
L 362.293302 256.688138 
L 360.04611 252.080712 
L 357.482994 247.641266 
L 354.616443 243.391428 
L 351.46042 239.351903 
L 348.030302 235.542371 
L 344.3428 231.981392 
L 340.415879 228.686314 
L 336.268671 225.673191 
L 331.921381 222.956702 
L 327.395188 220.550083 
L 322.712143 218.465057 
L 317.895062 216.711783 
L 312.967412 215.298802 
L 307.953202 214.232999 
L 302.876859 213.519565 
L 297.763115 213.161977 
L 292.636885 213.161977 
L 287.523141 213.519565 
L 282.446798 214.232999 
L 277.432588 215.298802 
L 272.504938 216.711783 
L 267.687857 218.465057 
L 263.004812 220.550083 
L 258.478619 222.956702 
L 254.131329 225.673191 
L 249.984121 228.686314 
L 246.0572 231.981392 
L 242.369698 235.542371 
L 238.93958 239.351903 
L 235.783557 243.391428 
L 232.917006 247.641266 
L 230.35389 252.080712 
L 228.106698 256.688138 
L 226.186379 261.441096 
L 224.602286 266.316431 
L 223.362139 271.290391 
L 222.471978 276.338743 
L 221.936141 281.436892 
L 221.757238 286.56 
L 221.936141 291.683108 
L 222.471978 296.781257 
L 223.362139 301.829609 
L 224.602286 306.803569 
L 226.186379 311.678904 
L 228.106698 316.431862 
L 230.35389 321.039288 
L 232.917006 325.478734 
L 235.783557 329.728572 
L 238.93958 333.768097 
L 242.369698 337.577629 
L 246.0572 341.138608 
L 249.984121 344.433686 
L 254.131329 347.446809 
L 258.478619 350.163298 
L 263.004812 352.569917 
L 267.687857 354.654943 
L 272.504938 356.408217 
L 277.432588 357.821198 
L 282.446798 358.887001 
L 287.523141 359.600435 
L 292.636885 359.958023 
L 297.763115 359.958023 
L 302.876859 359.600435 
L 307.953202 358.887001 
L 312.967412 357.821198 
L 317.895062 356.408217 
L 322.712143 354.654943 
L 327.395188 352.569917 
L 331.921381 350.163298 
L 336.268671 347.446809 
L 340.415879 344.433686 
L 344.3428 341.138608 
L 348.030302 337.577629 
L 351.46042 333.768097 
L 354.616443 329.728572 
L 357.482994 325.478734 
L 360.04611 321.039288 
L 362.293302 316.431862 
L 364.213621 311.678904 
L 365.797714 306.803569 
L 367.037861 301.829609 
L 367.928022 296.781257 
L 368.463859 291.683108 
L 368.642762 286.56 
L 368.642762 286.56 
" style="fill:none;stroke:#ffffff;stroke-linecap:round;"/>
     </g>
     <g id="text_11">
      <!-- 1.5 -->
      <g style="fill:#262626;" transform="translate(363.052265 256.268422)scale(0.11 -0.11)">
       <use xlink:href="#ArialMT-49"/>
       <use x="55.615234" xlink:href="#ArialMT-46"/>
       <use x="83.398438" xlink:href="#ArialMT-53"/>
      </g>
     </g>
    </g>
    <g id="ytick_4">
     <g id="line2d_12">
      <path clip-path="url(#p44b88df0fe)" d="M 393.123683 286.56 
L 393.06403 283.142513 
L 392.885145 279.729189 
L 392.587246 276.324188 
L 392.170696 272.931657 
L 391.636002 269.555731 
L 390.983815 266.200522 
L 390.214931 262.870117 
L 389.330285 259.568575 
L 388.330956 256.299918 
L 387.218162 253.068128 
L 385.993257 249.877143 
L 384.657735 246.73085 
L 383.213223 243.633083 
L 381.66148 240.587616 
L 380.004397 237.598159 
L 378.243993 234.668354 
L 376.382412 231.801772 
L 374.421923 229.001904 
L 372.364915 226.272161 
L 370.213893 223.61587 
L 367.971478 221.036267 
L 365.640402 218.536494 
L 363.223506 216.119598 
L 360.723733 213.788522 
L 358.14413 211.546107 
L 355.487839 209.395085 
L 352.758096 207.338077 
L 349.958228 205.377588 
L 347.091646 203.516007 
L 344.161841 201.755603 
L 341.172384 200.09852 
L 338.126917 198.546777 
L 335.02915 197.102265 
L 331.882857 195.766743 
L 328.691872 194.541838 
L 325.460082 193.429044 
L 322.191425 192.429715 
L 318.889883 191.545069 
L 315.559478 190.776185 
L 312.204269 190.123998 
L 308.828343 189.589304 
L 305.435812 189.172754 
L 302.030811 188.874855 
L 298.617487 188.69597 
L 295.2 188.636317 
L 291.782513 188.69597 
L 288.369189 188.874855 
L 284.964188 189.172754 
L 281.571657 189.589304 
L 278.195731 190.123998 
L 274.840522 190.776185 
L 271.510117 191.545069 
L 268.208575 192.429715 
L 264.939918 193.429044 
L 261.708128 194.541838 
L 258.517143 195.766743 
L 255.37085 197.102265 
L 252.273083 198.546777 
L 249.227616 200.09852 
L 246.238159 201.755603 
L 243.308354 203.516007 
L 240.441772 205.377588 
L 237.641904 207.338077 
L 234.912161 209.395085 
L 232.25587 211.546107 
L 229.676267 213.788522 
L 227.176494 216.119598 
L 224.759598 218.536494 
L 222.428522 221.036267 
L 220.186107 223.61587 
L 218.035085 226.272161 
L 215.978077 229.001904 
L 214.017588 231.801772 
L 212.156007 234.668354 
L 210.395603 237.598159 
L 208.73852 240.587616 
L 207.186777 243.633083 
L 205.742265 246.73085 
L 204.406743 249.877143 
L 203.181838 253.068128 
L 202.069044 256.299918 
L 201.069715 259.568575 
L 200.185069 262.870117 
L 199.416185 266.200522 
L 198.763998 269.555731 
L 198.229304 272.931657 
L 197.812754 276.324188 
L 197.514855 279.729189 
L 197.33597 283.142513 
L 197.276317 286.56 
L 197.33597 289.977487 
L 197.514855 293.390811 
L 197.812754 296.795812 
L 198.229304 300.188343 
L 198.763998 303.564269 
L 199.416185 306.919478 
L 200.185069 310.249883 
L 201.069715 313.551425 
L 202.069044 316.820082 
L 203.181838 320.051872 
L 204.406743 323.242857 
L 205.742265 326.38915 
L 207.186777 329.486917 
L 208.73852 332.532384 
L 210.395603 335.521841 
L 212.156007 338.451646 
L 214.017588 341.318228 
L 215.978077 344.118096 
L 218.035085 346.847839 
L 220.186107 349.50413 
L 222.428522 352.083733 
L 224.759598 354.583506 
L 227.176494 357.000402 
L 229.676267 359.331478 
L 232.25587 361.573893 
L 234.912161 363.724915 
L 237.641904 365.781923 
L 240.441772 367.742412 
L 243.308354 369.603993 
L 246.238159 371.364397 
L 249.227616 373.02148 
L 252.273083 374.573223 
L 255.37085 376.017735 
L 258.517143 377.353257 
L 261.708128 378.578162 
L 264.939918 379.690956 
L 268.208575 380.690285 
L 271.510117 381.574931 
L 274.840522 382.343815 
L 278.195731 382.996002 
L 281.571657 383.530696 
L 284.964188 383.947246 
L 288.369189 384.245145 
L 291.782513 384.42403 
L 295.2 384.483683 
L 298.617487 384.42403 
L 302.030811 384.245145 
L 305.435812 383.947246 
L 308.828343 383.530696 
L 312.204269 382.996002 
L 315.559478 382.343815 
L 318.889883 381.574931 
L 322.191425 380.690285 
L 325.460082 379.690956 
L 328.691872 378.578162 
L 331.882857 377.353257 
L 335.02915 376.017735 
L 338.126917 374.573223 
L 341.172384 373.02148 
L 344.161841 371.364397 
L 347.091646 369.603993 
L 349.958228 367.742412 
L 352.758096 365.781923 
L 355.487839 363.724915 
L 358.14413 361.573893 
L 360.723733 359.331478 
L 363.223506 357.000402 
L 365.640402 354.583506 
L 367.971478 352.083733 
L 370.213893 349.50413 
L 372.364915 346.847839 
L 374.421923 344.118096 
L 376.382412 341.318228 
L 378.243993 338.451646 
L 380.004397 335.521841 
L 381.66148 332.532384 
L 383.213223 329.486917 
L 384.657735 326.38915 
L 385.993257 323.242857 
L 387.218162 320.051872 
L 388.330956 316.820082 
L 389.330285 313.551425 
L 390.214931 310.249883 
L 390.983815 306.919478 
L 391.636002 303.564269 
L 392.170696 300.188343 
L 392.587246 296.795812 
L 392.885145 293.390811 
L 393.06403 289.977487 
L 393.123683 286.56 
L 393.123683 286.56 
" style="fill:none;stroke:#ffffff;stroke-linecap:round;"/>
     </g>
     <g id="text_12">
      <!-- 2.0 -->
      <g style="fill:#262626;" transform="translate(385.669686 246.899979)scale(0.11 -0.11)">
       <use xlink:href="#ArialMT-50"/>
       <use x="55.615234" xlink:href="#ArialMT-46"/>
       <use x="83.398438" xlink:href="#ArialMT-48"/>
      </g>
     </g>
    </g>
    <g id="ytick_5">
     <g id="line2d_13">
      <path clip-path="url(#p44b88df0fe)" d="M 417.604603 286.56 
L 417.530038 282.288141 
L 417.306432 278.021487 
L 416.934058 273.765235 
L 416.41337 269.524572 
L 415.745002 265.304664 
L 414.929769 261.110652 
L 413.968663 256.947646 
L 412.862856 252.820719 
L 411.613695 248.734897 
L 410.222702 244.69516 
L 408.691572 240.706429 
L 407.022169 236.773563 
L 405.216529 232.901354 
L 403.27685 229.09452 
L 401.205496 225.357698 
L 399.004991 221.695443 
L 396.678015 218.112215 
L 394.227404 214.612379 
L 391.656144 211.200201 
L 388.967366 207.879838 
L 386.164347 204.655334 
L 383.250503 201.530618 
L 380.229382 198.509497 
L 377.104666 195.595653 
L 373.880162 192.792634 
L 370.559799 190.103856 
L 367.147621 187.532596 
L 363.647785 185.081985 
L 360.064557 182.755009 
L 356.402302 180.554504 
L 352.66548 178.48315 
L 348.858646 176.543471 
L 344.986437 174.737831 
L 341.053571 173.068428 
L 337.06484 171.537298 
L 333.025103 170.146305 
L 328.939281 168.897144 
L 324.812354 167.791337 
L 320.649348 166.830231 
L 316.455336 166.014998 
L 312.235428 165.34663 
L 307.994765 164.825942 
L 303.738513 164.453568 
L 299.471859 164.229962 
L 295.2 164.155397 
L 290.928141 164.229962 
L 286.661487 164.453568 
L 282.405235 164.825942 
L 278.164572 165.34663 
L 273.944664 166.014998 
L 269.750652 166.830231 
L 265.587646 167.791337 
L 261.460719 168.897144 
L 257.374897 170.146305 
L 253.33516 171.537298 
L 249.346429 173.068428 
L 245.413563 174.737831 
L 241.541354 176.543471 
L 237.73452 178.48315 
L 233.997698 180.554504 
L 230.335443 182.755009 
L 226.752215 185.081985 
L 223.252379 187.532596 
L 219.840201 190.103856 
L 216.519838 192.792634 
L 213.295334 195.595653 
L 210.170618 198.509497 
L 207.149497 201.530618 
L 204.235653 204.655334 
L 201.432634 207.879838 
L 198.743856 211.200201 
L 196.172596 214.612379 
L 193.721985 218.112215 
L 191.395009 221.695443 
L 189.194504 225.357698 
L 187.12315 229.09452 
L 185.183471 232.901354 
L 183.377831 236.773563 
L 181.708428 240.706429 
L 180.177298 244.69516 
L 178.786305 248.734897 
L 177.537144 252.820719 
L 176.431337 256.947646 
L 175.470231 261.110652 
L 174.654998 265.304664 
L 173.98663 269.524572 
L 173.465942 273.765235 
L 173.093568 278.021487 
L 172.869962 282.288141 
L 172.795397 286.56 
L 172.869962 290.831859 
L 173.093568 295.098513 
L 173.465942 299.354765 
L 173.98663 303.595428 
L 174.654998 307.815336 
L 175.470231 312.009348 
L 176.431337 316.172354 
L 177.537144 320.299281 
L 178.786305 324.385103 
L 180.177298 328.42484 
L 181.708428 332.413571 
L 183.377831 336.346437 
L 185.183471 340.218646 
L 187.12315 344.02548 
L 189.194504 347.762302 
L 191.395009 351.424557 
L 193.721985 355.007785 
L 196.172596 358.507621 
L 198.743856 361.919799 
L 201.432634 365.240162 
L 204.235653 368.464666 
L 207.149497 371.589382 
L 210.170618 374.610503 
L 213.295334 377.524347 
L 216.519838 380.327366 
L 219.840201 383.016144 
L 223.252379 385.587404 
L 226.752215 388.038015 
L 230.335443 390.364991 
L 233.997698 392.565496 
L 237.73452 394.63685 
L 241.541354 396.576529 
L 245.413563 398.382169 
L 249.346429 400.051572 
L 253.33516 401.582702 
L 257.374897 402.973695 
L 261.460719 404.222856 
L 265.587646 405.328663 
L 269.750652 406.289769 
L 273.944664 407.105002 
L 278.164572 407.77337 
L 282.405235 408.294058 
L 286.661487 408.666432 
L 290.928141 408.890038 
L 295.2 408.964603 
L 299.471859 408.890038 
L 303.738513 408.666432 
L 307.994765 408.294058 
L 312.235428 407.77337 
L 316.455336 407.105002 
L 320.649348 406.289769 
L 324.812354 405.328663 
L 328.939281 404.222856 
L 333.025103 402.973695 
L 337.06484 401.582702 
L 341.053571 400.051572 
L 344.986437 398.382169 
L 348.858646 396.576529 
L 352.66548 394.63685 
L 356.402302 392.565496 
L 360.064557 390.364991 
L 363.647785 388.038015 
L 367.147621 385.587404 
L 370.559799 383.016144 
L 373.880162 380.327366 
L 377.104666 377.524347 
L 380.229382 374.610503 
L 383.250503 371.589382 
L 386.164347 368.464666 
L 388.967366 365.240162 
L 391.656144 361.919799 
L 394.227404 358.507621 
L 396.678015 355.007785 
L 399.004991 351.424557 
L 401.205496 347.762302 
L 403.27685 344.02548 
L 405.216529 340.218646 
L 407.022169 336.346437 
L 408.691572 332.413571 
L 410.222702 328.42484 
L 411.613695 324.385103 
L 412.862856 320.299281 
L 413.968663 316.172354 
L 414.929769 312.009348 
L 415.745002 307.815336 
L 416.41337 303.595428 
L 416.934058 299.354765 
L 417.306432 295.098513 
L 417.530038 290.831859 
L 417.604603 286.56 
L 417.604603 286.56 
" style="fill:none;stroke:#ffffff;stroke-linecap:round;"/>
     </g>
     <g id="text_13">
      <!-- 2.5 -->
      <g style="fill:#262626;" transform="translate(408.287108 237.531536)scale(0.11 -0.11)">
       <use xlink:href="#ArialMT-50"/>
       <use x="55.615234" xlink:href="#ArialMT-46"/>
       <use x="83.398438" xlink:href="#ArialMT-53"/>
      </g>
     </g>
    </g>
    <g id="ytick_6">
     <g id="line2d_14">
      <path clip-path="url(#p44b88df0fe)" d="M 442.085524 286.56 
L 441.996045 281.433769 
L 441.727718 276.313784 
L 441.28087 271.206282 
L 440.656044 266.117486 
L 439.854003 261.053596 
L 438.875723 256.020782 
L 437.722396 251.025176 
L 436.395428 246.072863 
L 434.896435 241.169877 
L 433.227243 236.322192 
L 431.389886 231.535714 
L 429.386603 226.816275 
L 427.219834 222.169624 
L 424.89222 217.601424 
L 422.406595 213.117238 
L 419.765989 208.722531 
L 416.973618 204.422657 
L 414.032885 200.222855 
L 410.947372 196.128242 
L 407.720839 192.143805 
L 404.357217 188.2744 
L 400.860603 184.524741 
L 397.235259 180.899397 
L 393.4856 177.402783 
L 389.616195 174.039161 
L 385.631758 170.812628 
L 381.537145 167.727115 
L 377.337343 164.786382 
L 373.037469 161.994011 
L 368.642762 159.353405 
L 364.158576 156.86778 
L 359.590376 154.540166 
L 354.943725 152.373397 
L 350.224286 150.370114 
L 345.437808 148.532757 
L 340.590123 146.863565 
L 335.687137 145.364572 
L 330.734824 144.037604 
L 325.739218 142.884277 
L 320.706404 141.905997 
L 315.642514 141.103956 
L 310.553718 140.47913 
L 305.446216 140.032282 
L 300.326231 139.763955 
L 295.2 139.674476 
L 290.073769 139.763955 
L 284.953784 140.032282 
L 279.846282 140.47913 
L 274.757486 141.103956 
L 269.693596 141.905997 
L 264.660782 142.884277 
L 259.665176 144.037604 
L 254.712863 145.364572 
L 249.809877 146.863565 
L 244.962192 148.532757 
L 240.175714 150.370114 
L 235.456275 152.373397 
L 230.809624 154.540166 
L 226.241424 156.86778 
L 221.757238 159.353405 
L 217.362531 161.994011 
L 213.062657 164.786382 
L 208.862855 167.727115 
L 204.768242 170.812628 
L 200.783805 174.039161 
L 196.9144 177.402783 
L 193.164741 180.899397 
L 189.539397 184.524741 
L 186.042783 188.2744 
L 182.679161 192.143805 
L 179.452628 196.128242 
L 176.367115 200.222855 
L 173.426382 204.422657 
L 170.634011 208.722531 
L 167.993405 213.117238 
L 165.50778 217.601424 
L 163.180166 222.169624 
L 161.013397 226.816275 
L 159.010114 231.535714 
L 157.172757 236.322192 
L 155.503565 241.169877 
L 154.004572 246.072863 
L 152.677604 251.025176 
L 151.524277 256.020782 
L 150.545997 261.053596 
L 149.743956 266.117486 
L 149.11913 271.206282 
L 148.672282 276.313784 
L 148.403955 281.433769 
L 148.314476 286.56 
L 148.403955 291.686231 
L 148.672282 296.806216 
L 149.11913 301.913718 
L 149.743956 307.002514 
L 150.545997 312.066404 
L 151.524277 317.099218 
L 152.677604 322.094824 
L 154.004572 327.047137 
L 155.503565 331.950123 
L 157.172757 336.797808 
L 159.010114 341.584286 
L 161.013397 346.303725 
L 163.180166 350.950376 
L 165.50778 355.518576 
L 167.993405 360.002762 
L 170.634011 364.397469 
L 173.426382 368.697343 
L 176.367115 372.897145 
L 179.452628 376.991758 
L 182.679161 380.976195 
L 186.042783 384.8456 
L 189.539397 388.595259 
L 193.164741 392.220603 
L 196.9144 395.717217 
L 200.783805 399.080839 
L 204.768242 402.307372 
L 208.862855 405.392885 
L 213.062657 408.333618 
L 217.362531 411.125989 
L 221.757238 413.766595 
L 226.241424 416.25222 
L 230.809624 418.579834 
L 235.456275 420.746603 
L 240.175714 422.749886 
L 244.962192 424.587243 
L 249.809877 426.256435 
L 254.712863 427.755428 
L 259.665176 429.082396 
L 264.660782 430.235723 
L 269.693596 431.214003 
L 274.757486 432.016044 
L 279.846282 432.64087 
L 284.953784 433.087718 
L 290.073769 433.356045 
L 295.2 433.445524 
L 300.326231 433.356045 
L 305.446216 433.087718 
L 310.553718 432.64087 
L 315.642514 432.016044 
L 320.706404 431.214003 
L 325.739218 430.235723 
L 330.734824 429.082396 
L 335.687137 427.755428 
L 340.590123 426.256435 
L 345.437808 424.587243 
L 350.224286 422.749886 
L 354.943725 420.746603 
L 359.590376 418.579834 
L 364.158576 416.25222 
L 368.642762 413.766595 
L 373.037469 411.125989 
L 377.337343 408.333618 
L 381.537145 405.392885 
L 385.631758 402.307372 
L 389.616195 399.080839 
L 393.4856 395.717217 
L 397.235259 392.220603 
L 400.860603 388.595259 
L 404.357217 384.8456 
L 407.720839 380.976195 
L 410.947372 376.991758 
L 414.032885 372.897145 
L 416.973618 368.697343 
L 419.765989 364.397469 
L 422.406595 360.002762 
L 424.89222 355.518576 
L 427.219834 350.950376 
L 429.386603 346.303725 
L 431.389886 341.584286 
L 433.227243 336.797808 
L 434.896435 331.950123 
L 436.395428 327.047137 
L 437.722396 322.094824 
L 438.875723 317.099218 
L 439.854003 312.066404 
L 440.656044 307.002514 
L 441.28087 301.913718 
L 441.727718 296.806216 
L 441.996045 291.686231 
L 442.085524 286.56 
L 442.085524 286.56 
" style="fill:none;stroke:#ffffff;stroke-linecap:round;"/>
     </g>
     <g id="text_14">
      <!-- 3.0 -->
      <g style="fill:#262626;" transform="translate(430.904529 228.163094)scale(0.11 -0.11)">
       <use xlink:href="#ArialMT-51"/>
       <use x="55.615234" xlink:href="#ArialMT-46"/>
       <use x="83.398438" xlink:href="#ArialMT-48"/>
      </g>
     </g>
    </g>
    <g id="ytick_7">
     <g id="line2d_15">
      <path clip-path="url(#p44b88df0fe)" d="M 466.566444 286.56 
L 466.462053 280.579397 
L 466.149004 274.606081 
L 465.627681 268.647329 
L 464.898718 262.710401 
L 463.963003 256.802529 
L 462.821676 250.930913 
L 461.476129 245.102705 
L 459.927999 239.325006 
L 458.179174 233.604856 
L 456.231783 227.949224 
L 454.088201 222.365 
L 451.751037 216.858988 
L 449.22314 211.437895 
L 446.50759 206.108328 
L 443.607694 200.876778 
L 440.526987 195.74962 
L 437.269221 190.7331 
L 433.838366 185.833331 
L 430.238601 181.056282 
L 426.474313 176.407773 
L 422.550086 171.893467 
L 418.470704 167.518865 
L 414.241135 163.289296 
L 409.866533 159.209914 
L 405.352227 155.285687 
L 400.703718 151.521399 
L 395.926669 147.921634 
L 391.0269 144.490779 
L 386.01038 141.233013 
L 380.883222 138.152306 
L 375.651672 135.25241 
L 370.322105 132.53686 
L 364.901012 130.008963 
L 359.395 127.671799 
L 353.810776 125.528217 
L 348.155144 123.580826 
L 342.434994 121.832001 
L 336.657295 120.283871 
L 330.829087 118.938324 
L 324.957471 117.796997 
L 319.049599 116.861282 
L 313.112671 116.132319 
L 307.153919 115.610996 
L 301.180603 115.297947 
L 295.2 115.193556 
L 289.219397 115.297947 
L 283.246081 115.610996 
L 277.287329 116.132319 
L 271.350401 116.861282 
L 265.442529 117.796997 
L 259.570913 118.938324 
L 253.742705 120.283871 
L 247.965006 121.832001 
L 242.244856 123.580826 
L 236.589224 125.528217 
L 231.005 127.671799 
L 225.498988 130.008963 
L 220.077895 132.53686 
L 214.748328 135.25241 
L 209.516778 138.152306 
L 204.38962 141.233013 
L 199.3731 144.490779 
L 194.473331 147.921634 
L 189.696282 151.521399 
L 185.047773 155.285687 
L 180.533467 159.209914 
L 176.158865 163.289296 
L 171.929296 167.518865 
L 167.849914 171.893467 
L 163.925687 176.407773 
L 160.161399 181.056282 
L 156.561634 185.833331 
L 153.130779 190.7331 
L 149.873013 195.74962 
L 146.792306 200.876778 
L 143.89241 206.108328 
L 141.17686 211.437895 
L 138.648963 216.858988 
L 136.311799 222.365 
L 134.168217 227.949224 
L 132.220826 233.604856 
L 130.472001 239.325006 
L 128.923871 245.102705 
L 127.578324 250.930913 
L 126.436997 256.802529 
L 125.501282 262.710401 
L 124.772319 268.647329 
L 124.250996 274.606081 
L 123.937947 280.579397 
L 123.833556 286.56 
L 123.937947 292.540603 
L 124.250996 298.513919 
L 124.772319 304.472671 
L 125.501282 310.409599 
L 126.436997 316.317471 
L 127.578324 322.189087 
L 128.923871 328.017295 
L 130.472001 333.794994 
L 132.220826 339.515144 
L 134.168217 345.170776 
L 136.311799 350.755 
L 138.648963 356.261012 
L 141.17686 361.682105 
L 143.89241 367.011672 
L 146.792306 372.243222 
L 149.873013 377.37038 
L 153.130779 382.3869 
L 156.561634 387.286669 
L 160.161399 392.063718 
L 163.925687 396.712227 
L 167.849914 401.226533 
L 171.929296 405.601135 
L 176.158865 409.830704 
L 180.533467 413.910086 
L 185.047773 417.834313 
L 189.696282 421.598601 
L 194.473331 425.198366 
L 199.3731 428.629221 
L 204.38962 431.886987 
L 209.516778 434.967694 
L 214.748328 437.86759 
L 220.077895 440.58314 
L 225.498988 443.111037 
L 231.005 445.448201 
L 236.589224 447.591783 
L 242.244856 449.539174 
L 247.965006 451.287999 
L 253.742705 452.836129 
L 259.570913 454.181676 
L 265.442529 455.323003 
L 271.350401 456.258718 
L 277.287329 456.987681 
L 283.246081 457.509004 
L 289.219397 457.822053 
L 295.2 457.926444 
L 301.180603 457.822053 
L 307.153919 457.509004 
L 313.112671 456.987681 
L 319.049599 456.258718 
L 324.957471 455.323003 
L 330.829087 454.181676 
L 336.657295 452.836129 
L 342.434994 451.287999 
L 348.155144 449.539174 
L 353.810776 447.591783 
L 359.395 445.448201 
L 364.901012 443.111037 
L 370.322105 440.58314 
L 375.651672 437.86759 
L 380.883222 434.967694 
L 386.01038 431.886987 
L 391.0269 428.629221 
L 395.926669 425.198366 
L 400.703718 421.598601 
L 405.352227 417.834313 
L 409.866533 413.910086 
L 414.241135 409.830704 
L 418.470704 405.601135 
L 422.550086 401.226533 
L 426.474313 396.712227 
L 430.238601 392.063718 
L 433.838366 387.286669 
L 437.269221 382.3869 
L 440.526987 377.37038 
L 443.607694 372.243222 
L 446.50759 367.011672 
L 449.22314 361.682105 
L 451.751037 356.261012 
L 454.088201 350.755 
L 456.231783 345.170776 
L 458.179174 339.515144 
L 459.927999 333.794994 
L 461.476129 328.017295 
L 462.821676 322.189087 
L 463.963003 316.317471 
L 464.898718 310.409599 
L 465.627681 304.472671 
L 466.149004 298.513919 
L 466.462053 292.540603 
L 466.566444 286.56 
L 466.566444 286.56 
" style="fill:none;stroke:#ffffff;stroke-linecap:round;"/>
     </g>
     <g id="text_15">
      <!-- 3.5 -->
      <g style="fill:#262626;" transform="translate(453.521951 218.794651)scale(0.11 -0.11)">
       <use xlink:href="#ArialMT-51"/>
       <use x="55.615234" xlink:href="#ArialMT-46"/>
       <use x="83.398438" xlink:href="#ArialMT-53"/>
      </g>
     </g>
    </g>
    <g id="ytick_8">
     <g id="line2d_16">
      <path clip-path="url(#p44b88df0fe)" d="M 491.047365 286.56 
L 490.92806 279.725026 
L 490.570291 272.898378 
L 489.974493 266.088376 
L 489.141392 259.303315 
L 488.072004 252.551462 
L 486.76763 245.841043 
L 485.229861 239.180234 
L 483.46057 232.57715 
L 481.461913 226.039836 
L 479.236324 219.576256 
L 476.786515 213.194286 
L 474.115471 206.9017 
L 471.226446 200.706166 
L 468.12296 194.615231 
L 464.808793 188.636317 
L 461.287985 182.776708 
L 457.564824 177.043543 
L 453.643847 171.443807 
L 449.52983 165.984322 
L 445.227786 160.67174 
L 440.742956 155.512534 
L 436.080805 150.512988 
L 431.247012 145.679195 
L 426.247466 141.017044 
L 421.08826 136.532214 
L 415.775678 132.23017 
L 410.316193 128.116153 
L 404.716457 124.195176 
L 398.983292 120.472015 
L 393.123683 116.951207 
L 387.144769 113.63704 
L 381.053834 110.533554 
L 374.8583 107.644529 
L 368.565714 104.973485 
L 362.183744 102.523676 
L 355.720164 100.298087 
L 349.18285 98.29943 
L 342.579766 96.530139 
L 335.918957 94.99237 
L 329.208538 93.687996 
L 322.456685 92.618608 
L 315.671624 91.785507 
L 308.861622 91.189709 
L 302.034974 90.83194 
L 295.2 90.712635 
L 288.365026 90.83194 
L 281.538378 91.189709 
L 274.728376 91.785507 
L 267.943315 92.618608 
L 261.191462 93.687996 
L 254.481043 94.99237 
L 247.820234 96.530139 
L 241.21715 98.29943 
L 234.679836 100.298087 
L 228.216256 102.523676 
L 221.834286 104.973485 
L 215.5417 107.644529 
L 209.346166 110.533554 
L 203.255231 113.63704 
L 197.276317 116.951207 
L 191.416708 120.472015 
L 185.683543 124.195176 
L 180.083807 128.116153 
L 174.624322 132.23017 
L 169.31174 136.532214 
L 164.152534 141.017044 
L 159.152988 145.679195 
L 154.319195 150.512988 
L 149.657044 155.512534 
L 145.172214 160.67174 
L 140.87017 165.984322 
L 136.756153 171.443807 
L 132.835176 177.043543 
L 129.112015 182.776708 
L 125.591207 188.636317 
L 122.27704 194.615231 
L 119.173554 200.706166 
L 116.284529 206.9017 
L 113.613485 213.194286 
L 111.163676 219.576256 
L 108.938087 226.039836 
L 106.93943 232.57715 
L 105.170139 239.180234 
L 103.63237 245.841043 
L 102.327996 252.551462 
L 101.258608 259.303315 
L 100.425507 266.088376 
L 99.829709 272.898378 
L 99.47194 279.725026 
L 99.352635 286.56 
L 99.47194 293.394974 
L 99.829709 300.221622 
L 100.425507 307.031624 
L 101.258608 313.816685 
L 102.327996 320.568538 
L 103.63237 327.278957 
L 105.170139 333.939766 
L 106.93943 340.54285 
L 108.938087 347.080164 
L 111.163676 353.543744 
L 113.613485 359.925714 
L 116.284529 366.2183 
L 119.173554 372.413834 
L 122.27704 378.504769 
L 125.591207 384.483683 
L 129.112015 390.343292 
L 132.835176 396.076457 
L 136.756153 401.676193 
L 140.87017 407.135678 
L 145.172214 412.44826 
L 149.657044 417.607466 
L 154.319195 422.607012 
L 159.152988 427.440805 
L 164.152534 432.102956 
L 169.31174 436.587786 
L 174.624322 440.88983 
L 180.083807 445.003847 
L 185.683543 448.924824 
L 191.416708 452.647985 
L 197.276317 456.168793 
L 203.255231 459.48296 
L 209.346166 462.586446 
L 215.5417 465.475471 
L 221.834286 468.146515 
L 228.216256 470.596324 
L 234.679836 472.821913 
L 241.21715 474.82057 
L 247.820234 476.589861 
L 254.481043 478.12763 
L 261.191462 479.432004 
L 267.943315 480.501392 
L 274.728376 481.334493 
L 281.538378 481.930291 
L 288.365026 482.28806 
L 295.2 482.407365 
L 302.034974 482.28806 
L 308.861622 481.930291 
L 315.671624 481.334493 
L 322.456685 480.501392 
L 329.208538 479.432004 
L 335.918957 478.12763 
L 342.579766 476.589861 
L 349.18285 474.82057 
L 355.720164 472.821913 
L 362.183744 470.596324 
L 368.565714 468.146515 
L 374.8583 465.475471 
L 381.053834 462.586446 
L 387.144769 459.48296 
L 393.123683 456.168793 
L 398.983292 452.647985 
L 404.716457 448.924824 
L 410.316193 445.003847 
L 415.775678 440.88983 
L 421.08826 436.587786 
L 426.247466 432.102956 
L 431.247012 427.440805 
L 436.080805 422.607012 
L 440.742956 417.607466 
L 445.227786 412.44826 
L 449.52983 407.135678 
L 453.643847 401.676193 
L 457.564824 396.076457 
L 461.287985 390.343292 
L 464.808793 384.483683 
L 468.12296 378.504769 
L 471.226446 372.413834 
L 474.115471 366.2183 
L 476.786515 359.925714 
L 479.236324 353.543744 
L 481.461913 347.080164 
L 483.46057 340.54285 
L 485.229861 333.939766 
L 486.76763 327.278957 
L 488.072004 320.568538 
L 489.141392 313.816685 
L 489.974493 307.031624 
L 490.570291 300.221622 
L 490.92806 293.394974 
L 491.047365 286.56 
L 491.047365 286.56 
" style="fill:none;stroke:#ffffff;stroke-linecap:round;"/>
     </g>
     <g id="text_16">
      <!-- 4.0 -->
      <g style="fill:#262626;" transform="translate(476.139372 209.426208)scale(0.11 -0.11)">
       <use xlink:href="#ArialMT-52"/>
       <use x="55.615234" xlink:href="#ArialMT-46"/>
       <use x="83.398438" xlink:href="#ArialMT-48"/>
      </g>
     </g>
    </g>
   </g>
   <g id="line2d_17">
    <defs>
     <path d="M 0 3 
C 0.795609 3 1.55874 2.683901 2.12132 2.12132 
C 2.683901 1.55874 3 0.795609 3 0 
C 3 -0.795609 2.683901 -1.55874 2.12132 -2.12132 
C 1.55874 -2.683901 0.795609 -3 0 -3 
C -0.795609 -3 -1.55874 -2.683901 -2.12132 -2.12132 
C -2.683901 -1.55874 -3 -0.795609 -3 0 
C -3 0.795609 -2.683901 1.55874 -2.12132 2.12132 
C -1.55874 2.683901 -0.795609 3 0 3 
z
" id="ma92c09efb6" style="stroke:#4c72b0;"/>
    </defs>
    <g clip-path="url(#p44b88df0fe)">
     <use style="fill:#4c72b0;stroke:#4c72b0;" x="295.2" xlink:href="#ma92c09efb6" y="139.674476"/>
     <use style="fill:#4c72b0;stroke:#4c72b0;" x="389.22341" xlink:href="#ma92c09efb6" y="313.921395"/>
    </g>
   </g>
   <g id="line2d_18">
    <defs>
     <path d="M -3 3 
L 3 -3 
M -3 -3 
L 3 3 
" id="mcb74f4f93c" style="stroke:#dd8452;"/>
    </defs>
    <g clip-path="url(#p44b88df0fe)">
     <use style="fill:#dd8452;stroke:#dd8452;" x="483.246821" xlink:href="#mcb74f4f93c" y="194.397265"/>
    </g>
   </g>
   <g id="line2d_19">
    <defs>
     <path d="M -3 3 
L 3 -3 
M -3 -3 
L 3 3 
" id="m452ccea89d" style="stroke:#55a868;"/>
    </defs>
    <g clip-path="url(#p44b88df0fe)">
     <use style="fill:#55a868;stroke:#55a868;" x="357.882274" xlink:href="#m452ccea89d" y="255.839088"/>
    </g>
   </g>
   <g id="line2d_20">
    <defs>
     <path d="M -3 3 
L 3 -3 
M -3 -3 
L 3 3 
" id="mb7026018e3" style="stroke:#c44e52;"/>
    </defs>
    <g clip-path="url(#p44b88df0fe)">
     <use style="fill:#c44e52;stroke:#c44e52;" x="251.23457" xlink:href="#mb7026018e3" y="308.107688"/>
    </g>
   </g>
   <g id="patch_3">
    <path d="M 512.64 286.56 
C 512.64 258.006041 507.015493 229.729733 496.088366 203.349314 
C 485.161238 176.968896 469.143997 152.9974 448.953299 132.806701 
C 428.7626 112.616003 404.791104 96.598762 378.410686 85.671634 
C 352.030267 74.744507 323.753959 69.12 295.2 69.12 
C 266.646041 69.12 238.369733 74.744507 211.989314 85.671634 
C 185.608896 96.598762 161.6374 112.616003 141.446701 132.806701 
C 121.256003 152.9974 105.238762 176.968896 94.311634 203.349314 
C 83.384507 229.729733 77.76 258.006041 77.76 286.56 
C 77.76 315.113959 83.384507 343.390267 94.311634 369.770686 
C 105.238762 396.151104 121.256003 420.1226 141.446701 440.313299 
C 161.6374 460.503997 185.608896 476.521238 211.989314 487.448366 
C 238.369733 498.375493 266.646041 504 295.2 504 
C 323.753959 504 352.030267 498.375493 378.410686 487.448366 
C 404.791104 476.521238 428.7626 460.503997 448.953299 440.313299 
C 469.143997 420.1226 485.161238 396.151104 496.088366 369.770686 
C 507.015493 343.390267 512.64 315.113959 512.64 286.56 
" style="fill:none;stroke:#ffffff;stroke-linecap:square;stroke-linejoin:miter;stroke-width:1.25;"/>
   </g>
   <g id="legend_1">
    <g id="patch_4">
     <path d="M 392.703906 140.417188 
L 504.94 140.417188 
Q 507.14 140.417188 507.14 138.217188 
L 507.14 76.82 
Q 507.14 74.62 504.94 74.62 
L 392.703906 74.62 
Q 390.503906 74.62 390.503906 76.82 
L 390.503906 138.217188 
Q 390.503906 140.417188 392.703906 140.417188 
z
" style="fill:#eaeaf2;opacity:0.8;stroke:#cccccc;stroke-linejoin:miter;"/>
    </g>
    <g id="line2d_21"/>
    <g id="line2d_22">
     <g>
      <use style="fill:#4c72b0;stroke:#4c72b0;" x="405.903906" xlink:href="#ma92c09efb6" y="83.043594"/>
     </g>
    </g>
    <g id="text_17">
     <!-- Seeds -->
     <defs>
      <path d="M 4.5 23 
L 13.421875 23.78125 
Q 14.0625 18.40625 16.375 14.96875 
Q 18.703125 11.53125 23.578125 9.40625 
Q 28.46875 7.28125 34.578125 7.28125 
Q 39.984375 7.28125 44.140625 8.890625 
Q 48.296875 10.5 50.3125 13.296875 
Q 52.34375 16.109375 52.34375 19.4375 
Q 52.34375 22.796875 50.390625 25.3125 
Q 48.4375 27.828125 43.953125 29.546875 
Q 41.0625 30.671875 31.203125 33.03125 
Q 21.34375 35.40625 17.390625 37.5 
Q 12.25 40.1875 9.734375 44.15625 
Q 7.234375 48.140625 7.234375 53.078125 
Q 7.234375 58.5 10.296875 63.203125 
Q 13.375 67.921875 19.28125 70.359375 
Q 25.203125 72.796875 32.421875 72.796875 
Q 40.375 72.796875 46.453125 70.234375 
Q 52.546875 67.671875 55.8125 62.6875 
Q 59.078125 57.71875 59.328125 51.421875 
L 50.25 50.734375 
Q 49.515625 57.515625 45.28125 60.984375 
Q 41.0625 64.453125 32.8125 64.453125 
Q 24.21875 64.453125 20.28125 61.296875 
Q 16.359375 58.15625 16.359375 53.71875 
Q 16.359375 49.859375 19.140625 47.359375 
Q 21.875 44.875 33.421875 42.265625 
Q 44.96875 39.65625 49.265625 37.703125 
Q 55.515625 34.8125 58.484375 30.390625 
Q 61.46875 25.984375 61.46875 20.21875 
Q 61.46875 14.5 58.203125 9.4375 
Q 54.9375 4.390625 48.796875 1.578125 
Q 42.671875 -1.21875 35.015625 -1.21875 
Q 25.296875 -1.21875 18.71875 1.609375 
Q 12.15625 4.4375 8.421875 10.125 
Q 4.6875 15.828125 4.5 23 
z
" id="ArialMT-83"/>
      <path d="M 42.09375 16.703125 
L 51.171875 15.578125 
Q 49.03125 7.625 43.21875 3.21875 
Q 37.40625 -1.171875 28.375 -1.171875 
Q 17 -1.171875 10.328125 5.828125 
Q 3.65625 12.84375 3.65625 25.484375 
Q 3.65625 38.578125 10.390625 45.796875 
Q 17.140625 53.03125 27.875 53.03125 
Q 38.28125 53.03125 44.875 45.953125 
Q 51.46875 38.875 51.46875 26.03125 
Q 51.46875 25.25 51.421875 23.6875 
L 12.75 23.6875 
Q 13.234375 15.140625 17.578125 10.59375 
Q 21.921875 6.0625 28.421875 6.0625 
Q 33.25 6.0625 36.671875 8.59375 
Q 40.09375 11.140625 42.09375 16.703125 
z
M 13.234375 30.90625 
L 42.1875 30.90625 
Q 41.609375 37.453125 38.875 40.71875 
Q 34.671875 45.796875 27.984375 45.796875 
Q 21.921875 45.796875 17.796875 41.75 
Q 13.671875 37.703125 13.234375 30.90625 
z
" id="ArialMT-101"/>
      <path d="M 40.234375 0 
L 40.234375 6.546875 
Q 35.296875 -1.171875 25.734375 -1.171875 
Q 19.53125 -1.171875 14.328125 2.25 
Q 9.125 5.671875 6.265625 11.796875 
Q 3.421875 17.921875 3.421875 25.875 
Q 3.421875 33.640625 6 39.96875 
Q 8.59375 46.296875 13.765625 49.65625 
Q 18.953125 53.03125 25.34375 53.03125 
Q 30.03125 53.03125 33.6875 51.046875 
Q 37.359375 49.078125 39.65625 45.90625 
L 39.65625 71.578125 
L 48.390625 71.578125 
L 48.390625 0 
z
M 12.453125 25.875 
Q 12.453125 15.921875 16.640625 10.984375 
Q 20.84375 6.0625 26.5625 6.0625 
Q 32.328125 6.0625 36.34375 10.765625 
Q 40.375 15.484375 40.375 25.140625 
Q 40.375 35.796875 36.265625 40.765625 
Q 32.171875 45.75 26.171875 45.75 
Q 20.3125 45.75 16.375 40.96875 
Q 12.453125 36.1875 12.453125 25.875 
z
" id="ArialMT-100"/>
      <path d="M 3.078125 15.484375 
L 11.765625 16.84375 
Q 12.5 11.625 15.84375 8.84375 
Q 19.1875 6.0625 25.203125 6.0625 
Q 31.25 6.0625 34.171875 8.515625 
Q 37.109375 10.984375 37.109375 14.3125 
Q 37.109375 17.28125 34.515625 19 
Q 32.71875 20.171875 25.53125 21.96875 
Q 15.875 24.421875 12.140625 26.203125 
Q 8.40625 27.984375 6.46875 31.125 
Q 4.546875 34.28125 4.546875 38.09375 
Q 4.546875 41.546875 6.125 44.5 
Q 7.71875 47.46875 10.453125 49.421875 
Q 12.5 50.921875 16.03125 51.96875 
Q 19.578125 53.03125 23.640625 53.03125 
Q 29.734375 53.03125 34.34375 51.265625 
Q 38.96875 49.515625 41.15625 46.5 
Q 43.359375 43.5 44.1875 38.484375 
L 35.59375 37.3125 
Q 35.015625 41.3125 32.203125 43.546875 
Q 29.390625 45.796875 24.265625 45.796875 
Q 18.21875 45.796875 15.625 43.796875 
Q 13.03125 41.796875 13.03125 39.109375 
Q 13.03125 37.40625 14.109375 36.03125 
Q 15.1875 34.625 17.484375 33.6875 
Q 18.796875 33.203125 25.25 31.453125 
Q 34.578125 28.953125 38.25 27.359375 
Q 41.9375 25.78125 44.03125 22.75 
Q 46.140625 19.734375 46.140625 15.234375 
Q 46.140625 10.84375 43.578125 6.953125 
Q 41.015625 3.078125 36.171875 0.953125 
Q 31.34375 -1.171875 25.25 -1.171875 
Q 15.140625 -1.171875 9.84375 3.03125 
Q 4.546875 7.234375 3.078125 15.484375 
z
" id="ArialMT-115"/>
     </defs>
     <g style="fill:#262626;" transform="translate(425.703906 86.893594)scale(0.11 -0.11)">
      <use xlink:href="#ArialMT-83"/>
      <use x="66.699219" xlink:href="#ArialMT-101"/>
      <use x="122.314453" xlink:href="#ArialMT-101"/>
      <use x="177.929688" xlink:href="#ArialMT-100"/>
      <use x="233.544922" xlink:href="#ArialMT-115"/>
     </g>
    </g>
    <g id="line2d_23"/>
    <g id="line2d_24">
     <g>
      <use style="fill:#dd8452;stroke:#dd8452;" x="405.903906" xlink:href="#mcb74f4f93c" y="98.603438"/>
     </g>
    </g>
    <g id="text_18">
     <!-- Weighted sum -->
     <defs>
      <path d="M 20.21875 0 
L 1.21875 71.578125 
L 10.9375 71.578125 
L 21.828125 24.65625 
Q 23.578125 17.28125 24.859375 10.015625 
Q 27.59375 21.484375 28.078125 23.25 
L 41.703125 71.578125 
L 53.125 71.578125 
L 63.375 35.359375 
Q 67.234375 21.875 68.953125 10.015625 
Q 70.3125 16.796875 72.515625 25.59375 
L 83.734375 71.578125 
L 93.265625 71.578125 
L 73.640625 0 
L 64.5 0 
L 49.421875 54.546875 
Q 47.515625 61.375 47.171875 62.9375 
Q 46.046875 58.015625 45.0625 54.546875 
L 29.890625 0 
z
" id="ArialMT-87"/>
      <path d="M 6.640625 61.46875 
L 6.640625 71.578125 
L 15.4375 71.578125 
L 15.4375 61.46875 
z
M 6.640625 0 
L 6.640625 51.859375 
L 15.4375 51.859375 
L 15.4375 0 
z
" id="ArialMT-105"/>
      <path d="M 4.984375 -4.296875 
L 13.53125 -5.5625 
Q 14.0625 -9.515625 16.5 -11.328125 
Q 19.78125 -13.765625 25.4375 -13.765625 
Q 31.546875 -13.765625 34.859375 -11.328125 
Q 38.1875 -8.890625 39.359375 -4.5 
Q 40.046875 -1.8125 39.984375 6.78125 
Q 34.234375 0 25.640625 0 
Q 14.9375 0 9.078125 7.71875 
Q 3.21875 15.4375 3.21875 26.21875 
Q 3.21875 33.640625 5.90625 39.90625 
Q 8.59375 46.1875 13.6875 49.609375 
Q 18.796875 53.03125 25.6875 53.03125 
Q 34.859375 53.03125 40.828125 45.609375 
L 40.828125 51.859375 
L 48.921875 51.859375 
L 48.921875 7.03125 
Q 48.921875 -5.078125 46.453125 -10.125 
Q 44 -15.1875 38.640625 -18.109375 
Q 33.296875 -21.046875 25.484375 -21.046875 
Q 16.21875 -21.046875 10.5 -16.875 
Q 4.78125 -12.703125 4.984375 -4.296875 
z
M 12.25 26.859375 
Q 12.25 16.65625 16.296875 11.96875 
Q 20.359375 7.28125 26.46875 7.28125 
Q 32.515625 7.28125 36.609375 11.9375 
Q 40.71875 16.609375 40.71875 26.5625 
Q 40.71875 36.078125 36.5 40.90625 
Q 32.28125 45.75 26.3125 45.75 
Q 20.453125 45.75 16.34375 40.984375 
Q 12.25 36.234375 12.25 26.859375 
z
" id="ArialMT-103"/>
      <path d="M 6.59375 0 
L 6.59375 71.578125 
L 15.375 71.578125 
L 15.375 45.90625 
Q 21.53125 53.03125 30.90625 53.03125 
Q 36.671875 53.03125 40.921875 50.75 
Q 45.171875 48.484375 47 44.484375 
Q 48.828125 40.484375 48.828125 32.859375 
L 48.828125 0 
L 40.046875 0 
L 40.046875 32.859375 
Q 40.046875 39.453125 37.1875 42.453125 
Q 34.328125 45.453125 29.109375 45.453125 
Q 25.203125 45.453125 21.75 43.421875 
Q 18.3125 41.40625 16.84375 37.9375 
Q 15.375 34.46875 15.375 28.375 
L 15.375 0 
z
" id="ArialMT-104"/>
      <path d="M 25.78125 7.859375 
L 27.046875 0.09375 
Q 23.34375 -0.6875 20.40625 -0.6875 
Q 15.625 -0.6875 12.984375 0.828125 
Q 10.359375 2.34375 9.28125 4.8125 
Q 8.203125 7.28125 8.203125 15.1875 
L 8.203125 45.015625 
L 1.765625 45.015625 
L 1.765625 51.859375 
L 8.203125 51.859375 
L 8.203125 64.703125 
L 16.9375 69.96875 
L 16.9375 51.859375 
L 25.78125 51.859375 
L 25.78125 45.015625 
L 16.9375 45.015625 
L 16.9375 14.703125 
Q 16.9375 10.9375 17.40625 9.859375 
Q 17.875 8.796875 18.921875 8.15625 
Q 19.96875 7.515625 21.921875 7.515625 
Q 23.390625 7.515625 25.78125 7.859375 
z
" id="ArialMT-116"/>
      <path id="ArialMT-32"/>
      <path d="M 40.578125 0 
L 40.578125 7.625 
Q 34.515625 -1.171875 24.125 -1.171875 
Q 19.53125 -1.171875 15.546875 0.578125 
Q 11.578125 2.34375 9.640625 5 
Q 7.71875 7.671875 6.9375 11.53125 
Q 6.390625 14.109375 6.390625 19.734375 
L 6.390625 51.859375 
L 15.1875 51.859375 
L 15.1875 23.09375 
Q 15.1875 16.21875 15.71875 13.8125 
Q 16.546875 10.359375 19.234375 8.375 
Q 21.921875 6.390625 25.875 6.390625 
Q 29.828125 6.390625 33.296875 8.421875 
Q 36.765625 10.453125 38.203125 13.9375 
Q 39.65625 17.4375 39.65625 24.078125 
L 39.65625 51.859375 
L 48.4375 51.859375 
L 48.4375 0 
z
" id="ArialMT-117"/>
      <path d="M 6.59375 0 
L 6.59375 51.859375 
L 14.453125 51.859375 
L 14.453125 44.578125 
Q 16.890625 48.390625 20.9375 50.703125 
Q 25 53.03125 30.171875 53.03125 
Q 35.9375 53.03125 39.625 50.640625 
Q 43.3125 48.25 44.828125 43.953125 
Q 50.984375 53.03125 60.84375 53.03125 
Q 68.5625 53.03125 72.703125 48.75 
Q 76.859375 44.484375 76.859375 35.59375 
L 76.859375 0 
L 68.109375 0 
L 68.109375 32.671875 
Q 68.109375 37.9375 67.25 40.25 
Q 66.40625 42.578125 64.15625 43.984375 
Q 61.921875 45.40625 58.890625 45.40625 
Q 53.421875 45.40625 49.796875 41.765625 
Q 46.1875 38.140625 46.1875 30.125 
L 46.1875 0 
L 37.40625 0 
L 37.40625 33.6875 
Q 37.40625 39.546875 35.25 42.46875 
Q 33.109375 45.40625 28.21875 45.40625 
Q 24.515625 45.40625 21.359375 43.453125 
Q 18.21875 41.5 16.796875 37.734375 
Q 15.375 33.984375 15.375 26.90625 
L 15.375 0 
z
" id="ArialMT-109"/>
     </defs>
     <g style="fill:#262626;" transform="translate(425.703906 102.453438)scale(0.11 -0.11)">
      <use xlink:href="#ArialMT-87"/>
      <use x="94.369141" xlink:href="#ArialMT-101"/>
      <use x="149.984375" xlink:href="#ArialMT-105"/>
      <use x="172.201172" xlink:href="#ArialMT-103"/>
      <use x="227.816406" xlink:href="#ArialMT-104"/>
      <use x="283.431641" xlink:href="#ArialMT-116"/>
      <use x="311.214844" xlink:href="#ArialMT-101"/>
      <use x="366.830078" xlink:href="#ArialMT-100"/>
      <use x="422.445312" xlink:href="#ArialMT-32"/>
      <use x="450.228516" xlink:href="#ArialMT-115"/>
      <use x="500.228516" xlink:href="#ArialMT-117"/>
      <use x="555.84375" xlink:href="#ArialMT-109"/>
     </g>
    </g>
    <g id="line2d_25"/>
    <g id="line2d_26">
     <g>
      <use style="fill:#55a868;stroke:#55a868;" x="405.903906" xlink:href="#m452ccea89d" y="114.292188"/>
     </g>
    </g>
    <g id="text_19">
     <!-- Weighted mean -->
     <defs>
      <path d="M 40.4375 6.390625 
Q 35.546875 2.25 31.03125 0.53125 
Q 26.515625 -1.171875 21.34375 -1.171875 
Q 12.796875 -1.171875 8.203125 3 
Q 3.609375 7.171875 3.609375 13.671875 
Q 3.609375 17.484375 5.34375 20.625 
Q 7.078125 23.78125 9.890625 25.6875 
Q 12.703125 27.59375 16.21875 28.5625 
Q 18.796875 29.25 24.03125 29.890625 
Q 34.671875 31.15625 39.703125 32.90625 
Q 39.75 34.71875 39.75 35.203125 
Q 39.75 40.578125 37.25 42.78125 
Q 33.890625 45.75 27.25 45.75 
Q 21.046875 45.75 18.09375 43.578125 
Q 15.140625 41.40625 13.71875 35.890625 
L 5.125 37.0625 
Q 6.296875 42.578125 8.984375 45.96875 
Q 11.671875 49.359375 16.75 51.1875 
Q 21.828125 53.03125 28.515625 53.03125 
Q 35.15625 53.03125 39.296875 51.46875 
Q 43.453125 49.90625 45.40625 47.53125 
Q 47.359375 45.171875 48.140625 41.546875 
Q 48.578125 39.3125 48.578125 33.453125 
L 48.578125 21.734375 
Q 48.578125 9.46875 49.140625 6.21875 
Q 49.703125 2.984375 51.375 0 
L 42.1875 0 
Q 40.828125 2.734375 40.4375 6.390625 
z
M 39.703125 26.03125 
Q 34.90625 24.078125 25.34375 22.703125 
Q 19.921875 21.921875 17.671875 20.9375 
Q 15.4375 19.96875 14.203125 18.09375 
Q 12.984375 16.21875 12.984375 13.921875 
Q 12.984375 10.40625 15.640625 8.0625 
Q 18.3125 5.71875 23.4375 5.71875 
Q 28.515625 5.71875 32.46875 7.9375 
Q 36.421875 10.15625 38.28125 14.015625 
Q 39.703125 17 39.703125 22.796875 
z
" id="ArialMT-97"/>
      <path d="M 6.59375 0 
L 6.59375 51.859375 
L 14.5 51.859375 
L 14.5 44.484375 
Q 20.21875 53.03125 31 53.03125 
Q 35.6875 53.03125 39.625 51.34375 
Q 43.5625 49.65625 45.515625 46.921875 
Q 47.46875 44.1875 48.25 40.4375 
Q 48.734375 37.984375 48.734375 31.890625 
L 48.734375 0 
L 39.9375 0 
L 39.9375 31.546875 
Q 39.9375 36.921875 38.90625 39.578125 
Q 37.890625 42.234375 35.28125 43.8125 
Q 32.671875 45.40625 29.15625 45.40625 
Q 23.53125 45.40625 19.453125 41.84375 
Q 15.375 38.28125 15.375 28.328125 
L 15.375 0 
z
" id="ArialMT-110"/>
     </defs>
     <g style="fill:#262626;" transform="translate(425.703906 118.142188)scale(0.11 -0.11)">
      <use xlink:href="#ArialMT-87"/>
      <use x="94.369141" xlink:href="#ArialMT-101"/>
      <use x="149.984375" xlink:href="#ArialMT-105"/>
      <use x="172.201172" xlink:href="#ArialMT-103"/>
      <use x="227.816406" xlink:href="#ArialMT-104"/>
      <use x="283.431641" xlink:href="#ArialMT-116"/>
      <use x="311.214844" xlink:href="#ArialMT-101"/>
      <use x="366.830078" xlink:href="#ArialMT-100"/>
      <use x="422.445312" xlink:href="#ArialMT-32"/>
      <use x="450.228516" xlink:href="#ArialMT-109"/>
      <use x="533.529297" xlink:href="#ArialMT-101"/>
      <use x="589.144531" xlink:href="#ArialMT-97"/>
      <use x="644.759766" xlink:href="#ArialMT-110"/>
     </g>
    </g>
    <g id="line2d_27"/>
    <g id="line2d_28">
     <g>
      <use style="fill:#c44e52;stroke:#c44e52;" x="405.903906" xlink:href="#mb7026018e3" y="129.980938"/>
     </g>
    </g>
    <g id="text_20">
     <!-- Next seed -->
     <defs>
      <path d="M 7.625 0 
L 7.625 71.578125 
L 17.328125 71.578125 
L 54.9375 15.375 
L 54.9375 71.578125 
L 64.015625 71.578125 
L 64.015625 0 
L 54.296875 0 
L 16.703125 56.25 
L 16.703125 0 
z
" id="ArialMT-78"/>
      <path d="M 0.734375 0 
L 19.671875 26.953125 
L 2.15625 51.859375 
L 13.140625 51.859375 
L 21.09375 39.703125 
Q 23.34375 36.234375 24.703125 33.890625 
Q 26.859375 37.109375 28.65625 39.59375 
L 37.40625 51.859375 
L 47.90625 51.859375 
L 29.984375 27.4375 
L 49.265625 0 
L 38.484375 0 
L 27.828125 16.109375 
L 25 20.453125 
L 11.375 0 
z
" id="ArialMT-120"/>
     </defs>
     <g style="fill:#262626;" transform="translate(425.703906 133.830938)scale(0.11 -0.11)">
      <use xlink:href="#ArialMT-78"/>
      <use x="72.216797" xlink:href="#ArialMT-101"/>
      <use x="127.832031" xlink:href="#ArialMT-120"/>
      <use x="177.832031" xlink:href="#ArialMT-116"/>
      <use x="205.615234" xlink:href="#ArialMT-32"/>
      <use x="233.398438" xlink:href="#ArialMT-115"/>
      <use x="283.398438" xlink:href="#ArialMT-101"/>
      <use x="339.013672" xlink:href="#ArialMT-101"/>
      <use x="394.628906" xlink:href="#ArialMT-100"/>
     </g>
    </g>
   </g>
  </g>
 </g>
 <defs>
  <clipPath id="p44b88df0fe">
   <path d="M 512.64 286.56 
C 512.64 258.006041 507.015493 229.729733 496.088366 203.349314 
C 485.161238 176.968896 469.143997 152.9974 448.953299 132.806701 
C 428.7626 112.616003 404.791104 96.598762 378.410686 85.671634 
C 352.030267 74.744507 323.753959 69.12 295.2 69.12 
C 266.646041 69.12 238.369733 74.744507 211.989314 85.671634 
C 185.608896 96.598762 161.6374 112.616003 141.446701 132.806701 
C 121.256003 152.9974 105.238762 176.968896 94.311634 203.349314 
C 83.384507 229.729733 77.76 258.006041 77.76 286.56 
C 77.76 315.113959 83.384507 343.390267 94.311634 369.770686 
C 105.238762 396.151104 121.256003 420.1226 141.446701 440.313299 
C 161.6374 460.503997 185.608896 476.521238 211.989314 487.448366 
C 238.369733 498.375493 266.646041 504 295.2 504 
C 323.753959 504 352.030267 498.375493 378.410686 487.448366 
C 404.791104 476.521238 428.7626 460.503997 448.953299 440.313299 
C 469.143997 420.1226 485.161238 396.151104 496.088366 369.770686 
C 507.015493 343.390267 512.64 315.113959 512.64 286.56 
M 295.2 286.56 
C 295.2 286.56 295.2 286.56 295.2 286.56 
C 295.2 286.56 295.2 286.56 295.2 286.56 
C 295.2 286.56 295.2 286.56 295.2 286.56 
C 295.2 286.56 295.2 286.56 295.2 286.56 
C 295.2 286.56 295.2 286.56 295.2 286.56 
C 295.2 286.56 295.2 286.56 295.2 286.56 
C 295.2 286.56 295.2 286.56 295.2 286.56 
C 295.2 286.56 295.2 286.56 295.2 286.56 
C 295.2 286.56 295.2 286.56 295.2 286.56 
C 295.2 286.56 295.2 286.56 295.2 286.56 
C 295.2 286.56 295.2 286.56 295.2 286.56 
C 295.2 286.56 295.2 286.56 295.2 286.56 
C 295.2 286.56 295.2 286.56 295.2 286.56 
C 295.2 286.56 295.2 286.56 295.2 286.56 
C 295.2 286.56 295.2 286.56 295.2 286.56 
C 295.2 286.56 295.2 286.56 295.2 286.56 
M 512.64 286.56 
z
"/>
  </clipPath>
 </defs>
</svg>
