<?xml version="1.0" encoding="utf-8" standalone="no"?>
<!DOCTYPE svg PUBLIC "-//W3C//DTD SVG 1.1//EN"
  "http://www.w3.org/Graphics/SVG/1.1/DTD/svg11.dtd">
<!-- Created with matplotlib (https://matplotlib.org/) -->
<svg height="864pt" version="1.1" viewBox="0 0 864 864" width="864pt" xmlns="http://www.w3.org/2000/svg" xmlns:xlink="http://www.w3.org/1999/xlink">
 <defs>
  <style type="text/css">
*{stroke-linecap:butt;stroke-linejoin:round;}
  </style>
 </defs>
 <g id="figure_1">
  <g id="patch_1">
   <path d="M 0 864 
L 864 864 
L 864 0 
L 0 0 
z
" style="fill:#ffffff;"/>
  </g>
  <g id="axes_1">
   <g id="patch_2">
    <path d="M 591.054545 251.934545 
C 591.054545 232.465937 587.219654 213.186636 579.76934 195.199987 
C 572.319026 177.213338 561.39818 160.869136 547.631794 147.102751 
C 533.865409 133.336366 517.521207 122.415519 499.534558 114.965205 
C 481.547909 107.514891 462.268609 103.68 442.8 103.68 
C 423.331391 103.68 404.052091 107.514891 386.065442 114.965205 
C 368.078793 122.415519 351.734591 133.336366 337.968206 147.102751 
C 324.20182 160.869136 313.280974 177.213338 305.83066 195.199987 
C 298.380346 213.186636 294.545455 232.465937 294.545455 251.934545 
C 294.545455 271.403154 298.380346 290.682455 305.83066 308.669104 
C 313.280974 326.655753 324.20182 342.999955 337.968206 356.76634 
C 351.734591 370.532725 368.078793 381.453572 386.065442 388.903886 
C 404.052091 396.3542 423.331391 400.189091 442.8 400.189091 
C 462.268609 400.189091 481.547909 396.3542 499.534558 388.903886 
C 517.521207 381.453572 533.865409 370.532725 547.631794 356.76634 
C 561.39818 342.999955 572.319026 326.655753 579.76934 308.669104 
C 587.219654 290.682455 591.054545 271.403154 591.054545 251.934545 
M 442.8 251.934545 
C 442.8 251.934545 442.8 251.934545 442.8 251.934545 
C 442.8 251.934545 442.8 251.934545 442.8 251.934545 
C 442.8 251.934545 442.8 251.934545 442.8 251.934545 
C 442.8 251.934545 442.8 251.934545 442.8 251.934545 
C 442.8 251.934545 442.8 251.934545 442.8 251.934545 
C 442.8 251.934545 442.8 251.934545 442.8 251.934545 
C 442.8 251.934545 442.8 251.934545 442.8 251.934545 
C 442.8 251.934545 442.8 251.934545 442.8 251.934545 
C 442.8 251.934545 442.8 251.934545 442.8 251.934545 
C 442.8 251.934545 442.8 251.934545 442.8 251.934545 
C 442.8 251.934545 442.8 251.934545 442.8 251.934545 
C 442.8 251.934545 442.8 251.934545 442.8 251.934545 
C 442.8 251.934545 442.8 251.934545 442.8 251.934545 
C 442.8 251.934545 442.8 251.934545 442.8 251.934545 
C 442.8 251.934545 442.8 251.934545 442.8 251.934545 
C 442.8 251.934545 442.8 251.934545 442.8 251.934545 
M 591.054545 251.934545 
z
" style="fill:#eaeaf2;"/>
   </g>
   <g id="matplotlib.axis_1">
    <g id="xtick_1">
     <g id="line2d_1">
      <path clip-path="url(#p86be086e8f)" d="M 442.8 251.934545 
L 591.054545 251.934545 
" style="fill:none;stroke:#ffffff;stroke-linecap:round;"/>
     </g>
     <g id="text_1">
      <!-- 0° -->
      <defs>
       <path d="M 4.15625 35.296875 
Q 4.15625 48 6.765625 55.734375 
Q 9.375 63.484375 14.515625 67.671875 
Q 19.671875 71.875 27.484375 71.875 
Q 33.25 71.875 37.59375 69.546875 
Q 41.9375 67.234375 44.765625 62.859375 
Q 47.609375 58.5 49.21875 52.21875 
Q 50.828125 45.953125 50.828125 35.296875 
Q 50.828125 22.703125 48.234375 14.96875 
Q 45.65625 7.234375 40.5 3 
Q 35.359375 -1.21875 27.484375 -1.21875 
Q 17.140625 -1.21875 11.234375 6.203125 
Q 4.15625 15.140625 4.15625 35.296875 
z
M 13.1875 35.296875 
Q 13.1875 17.671875 17.3125 11.828125 
Q 21.4375 6 27.484375 6 
Q 33.546875 6 37.671875 11.859375 
Q 41.796875 17.71875 41.796875 35.296875 
Q 41.796875 52.984375 37.671875 58.78125 
Q 33.546875 64.59375 27.390625 64.59375 
Q 21.34375 64.59375 17.71875 59.46875 
Q 13.1875 52.9375 13.1875 35.296875 
z
" id="ArialMT-48"/>
       <path d="M 6.25 59.28125 
Q 6.25 64.890625 10.21875 68.84375 
Q 14.203125 72.796875 19.78125 72.796875 
Q 25.4375 72.796875 29.390625 68.84375 
Q 33.34375 64.890625 33.34375 59.28125 
Q 33.34375 53.65625 29.359375 49.671875 
Q 25.390625 45.703125 19.78125 45.703125 
Q 14.203125 45.703125 10.21875 49.65625 
Q 6.25 53.609375 6.25 59.28125 
z
M 11.578125 59.28125 
Q 11.578125 55.859375 13.984375 53.4375 
Q 16.40625 51.03125 19.828125 51.03125 
Q 23.1875 51.03125 25.609375 53.4375 
Q 28.03125 55.859375 28.03125 59.28125 
Q 28.03125 62.703125 25.609375 65.109375 
Q 23.1875 67.53125 19.828125 67.53125 
Q 16.40625 67.53125 13.984375 65.109375 
Q 11.578125 62.703125 11.578125 59.28125 
z
" id="ArialMT-176"/>
      </defs>
      <g style="fill:#262626;" transform="translate(602.296889 254.778217)scale(0.11 -0.11)">
       <use xlink:href="#ArialMT-48"/>
       <use x="55.615234" xlink:href="#ArialMT-176"/>
      </g>
     </g>
    </g>
    <g id="xtick_2">
     <g id="line2d_2">
      <path clip-path="url(#p86be086e8f)" d="M 442.8 251.934545 
L 547.631794 147.102751 
" style="fill:none;stroke:#ffffff;stroke-linecap:round;"/>
     </g>
     <g id="text_2">
      <!-- 45° -->
      <defs>
       <path d="M 32.328125 0 
L 32.328125 17.140625 
L 1.265625 17.140625 
L 1.265625 25.203125 
L 33.9375 71.578125 
L 41.109375 71.578125 
L 41.109375 25.203125 
L 50.78125 25.203125 
L 50.78125 17.140625 
L 41.109375 17.140625 
L 41.109375 0 
z
M 32.328125 25.203125 
L 32.328125 57.46875 
L 9.90625 25.203125 
z
" id="ArialMT-52"/>
       <path d="M 4.15625 18.75 
L 13.375 19.53125 
Q 14.40625 12.796875 18.140625 9.390625 
Q 21.875 6 27.15625 6 
Q 33.5 6 37.890625 10.78125 
Q 42.28125 15.578125 42.28125 23.484375 
Q 42.28125 31 38.0625 35.34375 
Q 33.84375 39.703125 27 39.703125 
Q 22.75 39.703125 19.328125 37.765625 
Q 15.921875 35.84375 13.96875 32.765625 
L 5.71875 33.84375 
L 12.640625 70.609375 
L 48.25 70.609375 
L 48.25 62.203125 
L 19.671875 62.203125 
L 15.828125 42.96875 
Q 22.265625 47.46875 29.34375 47.46875 
Q 38.71875 47.46875 45.15625 40.96875 
Q 51.609375 34.46875 51.609375 24.265625 
Q 51.609375 14.546875 45.953125 7.46875 
Q 39.0625 -1.21875 27.15625 -1.21875 
Q 17.390625 -1.21875 11.203125 4.25 
Q 5.03125 9.71875 4.15625 18.75 
z
" id="ArialMT-53"/>
      </defs>
      <g style="fill:#262626;" transform="translate(550.982884 138.279161)scale(0.11 -0.11)">
       <use xlink:href="#ArialMT-52"/>
       <use x="55.615234" xlink:href="#ArialMT-53"/>
       <use x="111.230469" xlink:href="#ArialMT-176"/>
      </g>
     </g>
    </g>
    <g id="xtick_3">
     <g id="line2d_3">
      <path clip-path="url(#p86be086e8f)" d="M 442.8 251.934545 
L 442.8 103.68 
" style="fill:none;stroke:#ffffff;stroke-linecap:round;"/>
     </g>
     <g id="text_3">
      <!-- 90° -->
      <defs>
       <path d="M 5.46875 16.546875 
L 13.921875 17.328125 
Q 14.984375 11.375 18.015625 8.6875 
Q 21.046875 6 25.78125 6 
Q 29.828125 6 32.875 7.859375 
Q 35.9375 9.71875 37.890625 12.8125 
Q 39.84375 15.921875 41.15625 21.1875 
Q 42.484375 26.46875 42.484375 31.9375 
Q 42.484375 32.515625 42.4375 33.6875 
Q 39.796875 29.5 35.234375 26.875 
Q 30.671875 24.265625 25.34375 24.265625 
Q 16.453125 24.265625 10.296875 30.703125 
Q 4.15625 37.15625 4.15625 47.703125 
Q 4.15625 58.59375 10.578125 65.234375 
Q 17 71.875 26.65625 71.875 
Q 33.640625 71.875 39.421875 68.109375 
Q 45.21875 64.359375 48.21875 57.390625 
Q 51.21875 50.4375 51.21875 37.25 
Q 51.21875 23.53125 48.234375 15.40625 
Q 45.265625 7.28125 39.375 3.03125 
Q 33.5 -1.21875 25.59375 -1.21875 
Q 17.1875 -1.21875 11.859375 3.4375 
Q 6.546875 8.109375 5.46875 16.546875 
z
M 41.453125 48.140625 
Q 41.453125 55.71875 37.421875 60.15625 
Q 33.40625 64.59375 27.734375 64.59375 
Q 21.875 64.59375 17.53125 59.8125 
Q 13.1875 55.03125 13.1875 47.40625 
Q 13.1875 40.578125 17.3125 36.296875 
Q 21.4375 32.03125 27.484375 32.03125 
Q 33.59375 32.03125 37.515625 36.296875 
Q 41.453125 40.578125 41.453125 48.140625 
z
" id="ArialMT-57"/>
      </defs>
      <g style="fill:#262626;" transform="translate(434.483828 90.023672)scale(0.11 -0.11)">
       <use xlink:href="#ArialMT-57"/>
       <use x="55.615234" xlink:href="#ArialMT-48"/>
       <use x="111.230469" xlink:href="#ArialMT-176"/>
      </g>
     </g>
    </g>
    <g id="xtick_4">
     <g id="line2d_4">
      <path clip-path="url(#p86be086e8f)" d="M 442.8 251.934545 
L 337.968206 147.102751 
" style="fill:none;stroke:#ffffff;stroke-linecap:round;"/>
     </g>
     <g id="text_4">
      <!-- 135° -->
      <defs>
       <path d="M 37.25 0 
L 28.46875 0 
L 28.46875 56 
Q 25.296875 52.984375 20.140625 49.953125 
Q 14.984375 46.921875 10.890625 45.40625 
L 10.890625 53.90625 
Q 18.265625 57.375 23.78125 62.296875 
Q 29.296875 67.234375 31.59375 71.875 
L 37.25 71.875 
z
" id="ArialMT-49"/>
       <path d="M 4.203125 18.890625 
L 12.984375 20.0625 
Q 14.5 12.59375 18.140625 9.296875 
Q 21.78125 6 27 6 
Q 33.203125 6 37.46875 10.296875 
Q 41.75 14.59375 41.75 20.953125 
Q 41.75 27 37.796875 30.921875 
Q 33.84375 34.859375 27.734375 34.859375 
Q 25.25 34.859375 21.53125 33.890625 
L 22.515625 41.609375 
Q 23.390625 41.5 23.921875 41.5 
Q 29.546875 41.5 34.03125 44.421875 
Q 38.53125 47.359375 38.53125 53.46875 
Q 38.53125 58.296875 35.25 61.46875 
Q 31.984375 64.65625 26.8125 64.65625 
Q 21.6875 64.65625 18.265625 61.421875 
Q 14.84375 58.203125 13.875 51.765625 
L 5.078125 53.328125 
Q 6.6875 62.15625 12.390625 67.015625 
Q 18.109375 71.875 26.609375 71.875 
Q 32.46875 71.875 37.390625 69.359375 
Q 42.328125 66.84375 44.9375 62.5 
Q 47.5625 58.15625 47.5625 53.265625 
Q 47.5625 48.640625 45.0625 44.828125 
Q 42.578125 41.015625 37.703125 38.765625 
Q 44.046875 37.3125 47.5625 32.6875 
Q 51.078125 28.078125 51.078125 21.140625 
Q 51.078125 11.765625 44.234375 5.25 
Q 37.40625 -1.265625 26.953125 -1.265625 
Q 17.53125 -1.265625 11.296875 4.34375 
Q 5.078125 9.96875 4.203125 18.890625 
z
" id="ArialMT-51"/>
      </defs>
      <g style="fill:#262626;" transform="translate(314.926256 138.279161)scale(0.11 -0.11)">
       <use xlink:href="#ArialMT-49"/>
       <use x="55.615234" xlink:href="#ArialMT-51"/>
       <use x="111.230469" xlink:href="#ArialMT-53"/>
       <use x="166.845703" xlink:href="#ArialMT-176"/>
      </g>
     </g>
    </g>
    <g id="xtick_5">
     <g id="line2d_5">
      <path clip-path="url(#p86be086e8f)" d="M 442.8 251.934545 
L 294.545455 251.934545 
" style="fill:none;stroke:#ffffff;stroke-linecap:round;"/>
     </g>
     <g id="text_5">
      <!-- 180° -->
      <defs>
       <path d="M 17.671875 38.8125 
Q 12.203125 40.828125 9.5625 44.53125 
Q 6.9375 48.25 6.9375 53.421875 
Q 6.9375 61.234375 12.546875 66.546875 
Q 18.171875 71.875 27.484375 71.875 
Q 36.859375 71.875 42.578125 66.421875 
Q 48.296875 60.984375 48.296875 53.171875 
Q 48.296875 48.1875 45.671875 44.5 
Q 43.0625 40.828125 37.75 38.8125 
Q 44.34375 36.671875 47.78125 31.875 
Q 51.21875 27.09375 51.21875 20.453125 
Q 51.21875 11.28125 44.71875 5.03125 
Q 38.234375 -1.21875 27.640625 -1.21875 
Q 17.046875 -1.21875 10.546875 5.046875 
Q 4.046875 11.328125 4.046875 20.703125 
Q 4.046875 27.6875 7.59375 32.390625 
Q 11.140625 37.109375 17.671875 38.8125 
z
M 15.921875 53.71875 
Q 15.921875 48.640625 19.1875 45.40625 
Q 22.46875 42.1875 27.6875 42.1875 
Q 32.765625 42.1875 36.015625 45.375 
Q 39.265625 48.578125 39.265625 53.21875 
Q 39.265625 58.0625 35.90625 61.359375 
Q 32.5625 64.65625 27.59375 64.65625 
Q 22.5625 64.65625 19.234375 61.421875 
Q 15.921875 58.203125 15.921875 53.71875 
z
M 13.09375 20.65625 
Q 13.09375 16.890625 14.875 13.375 
Q 16.65625 9.859375 20.171875 7.921875 
Q 23.6875 6 27.734375 6 
Q 34.03125 6 38.125 10.046875 
Q 42.234375 14.109375 42.234375 20.359375 
Q 42.234375 26.703125 38.015625 30.859375 
Q 33.796875 35.015625 27.4375 35.015625 
Q 21.234375 35.015625 17.15625 30.90625 
Q 13.09375 26.8125 13.09375 20.65625 
z
" id="ArialMT-56"/>
      </defs>
      <g style="fill:#262626;" transform="translate(266.670767 254.778217)scale(0.11 -0.11)">
       <use xlink:href="#ArialMT-49"/>
       <use x="55.615234" xlink:href="#ArialMT-56"/>
       <use x="111.230469" xlink:href="#ArialMT-48"/>
       <use x="166.845703" xlink:href="#ArialMT-176"/>
      </g>
     </g>
    </g>
    <g id="xtick_6">
     <g id="line2d_6">
      <path clip-path="url(#p86be086e8f)" d="M 442.8 251.934545 
L 337.968206 356.76634 
" style="fill:none;stroke:#ffffff;stroke-linecap:round;"/>
     </g>
     <g id="text_6">
      <!-- 225° -->
      <defs>
       <path d="M 50.34375 8.453125 
L 50.34375 0 
L 3.03125 0 
Q 2.9375 3.171875 4.046875 6.109375 
Q 5.859375 10.9375 9.828125 15.625 
Q 13.8125 20.3125 21.34375 26.46875 
Q 33.015625 36.03125 37.109375 41.625 
Q 41.21875 47.21875 41.21875 52.203125 
Q 41.21875 57.421875 37.46875 61 
Q 33.734375 64.59375 27.734375 64.59375 
Q 21.390625 64.59375 17.578125 60.78125 
Q 13.765625 56.984375 13.71875 50.25 
L 4.6875 51.171875 
Q 5.609375 61.28125 11.65625 66.578125 
Q 17.71875 71.875 27.9375 71.875 
Q 38.234375 71.875 44.234375 66.15625 
Q 50.25 60.453125 50.25 52 
Q 50.25 47.703125 48.484375 43.546875 
Q 46.734375 39.40625 42.65625 34.8125 
Q 38.578125 30.21875 29.109375 22.21875 
Q 21.1875 15.578125 18.9375 13.203125 
Q 16.703125 10.84375 15.234375 8.453125 
z
" id="ArialMT-50"/>
      </defs>
      <g style="fill:#262626;" transform="translate(314.926256 371.277274)scale(0.11 -0.11)">
       <use xlink:href="#ArialMT-50"/>
       <use x="55.615234" xlink:href="#ArialMT-50"/>
       <use x="111.230469" xlink:href="#ArialMT-53"/>
       <use x="166.845703" xlink:href="#ArialMT-176"/>
      </g>
     </g>
    </g>
    <g id="xtick_7">
     <g id="line2d_7">
      <path clip-path="url(#p86be086e8f)" d="M 442.8 251.934545 
L 442.8 400.189091 
" style="fill:none;stroke:#ffffff;stroke-linecap:round;"/>
     </g>
     <g id="text_7">
      <!-- 270° -->
      <defs>
       <path d="M 4.734375 62.203125 
L 4.734375 70.65625 
L 51.078125 70.65625 
L 51.078125 63.8125 
Q 44.234375 56.546875 37.515625 44.484375 
Q 30.8125 32.421875 27.15625 19.671875 
Q 24.515625 10.6875 23.78125 0 
L 14.75 0 
Q 14.890625 8.453125 18.0625 20.40625 
Q 21.234375 32.375 27.171875 43.484375 
Q 33.109375 54.59375 39.796875 62.203125 
z
" id="ArialMT-55"/>
      </defs>
      <g style="fill:#262626;" transform="translate(431.425312 419.532763)scale(0.11 -0.11)">
       <use xlink:href="#ArialMT-50"/>
       <use x="55.615234" xlink:href="#ArialMT-55"/>
       <use x="111.230469" xlink:href="#ArialMT-48"/>
       <use x="166.845703" xlink:href="#ArialMT-176"/>
      </g>
     </g>
    </g>
    <g id="xtick_8">
     <g id="line2d_8">
      <path clip-path="url(#p86be086e8f)" d="M 442.8 251.934545 
L 547.631794 356.76634 
" style="fill:none;stroke:#ffffff;stroke-linecap:round;"/>
     </g>
     <g id="text_8">
      <!-- 315° -->
      <g style="fill:#262626;" transform="translate(547.924369 371.277274)scale(0.11 -0.11)">
       <use xlink:href="#ArialMT-51"/>
       <use x="55.615234" xlink:href="#ArialMT-49"/>
       <use x="111.230469" xlink:href="#ArialMT-53"/>
       <use x="166.845703" xlink:href="#ArialMT-176"/>
      </g>
     </g>
    </g>
   </g>
   <g id="matplotlib.axis_2">
    <g id="ytick_1">
     <g id="line2d_9">
      <path clip-path="url(#p86be086e8f)" d="M 449.459596 251.934545 
L 449.358422 250.778119 
L 449.057973 249.656829 
L 448.567379 248.604747 
L 447.901547 247.65384 
L 447.080706 246.832999 
L 446.129798 246.167166 
L 445.077716 245.676572 
L 443.956427 245.376124 
L 442.8 245.274949 
L 441.643573 245.376124 
L 440.522284 245.676572 
L 439.470202 246.167166 
L 438.519294 246.832999 
L 437.698453 247.65384 
L 437.032621 248.604747 
L 436.542027 249.656829 
L 436.241578 250.778119 
L 436.140404 251.934545 
L 436.241578 253.090972 
L 436.542027 254.212261 
L 437.032621 255.264343 
L 437.698453 256.215251 
L 438.519294 257.036092 
L 439.470202 257.701925 
L 440.522284 258.192519 
L 441.643573 258.492967 
L 442.8 258.594141 
L 443.956427 258.492967 
L 445.077716 258.192519 
L 446.129798 257.701925 
L 447.080706 257.036092 
L 447.901547 256.215251 
L 448.567379 255.264343 
L 449.057973 254.212261 
L 449.358422 253.090972 
L 449.459596 251.934545 
L 449.459596 251.934545 
" style="fill:none;stroke:#ffffff;stroke-linecap:round;"/>
     </g>
     <g id="text_9">
      <!-- 0.0 -->
      <defs>
       <path d="M 9.078125 0 
L 9.078125 10.015625 
L 19.09375 10.015625 
L 19.09375 0 
z
" id="ArialMT-46"/>
      </defs>
      <g style="fill:#262626;" transform="translate(448.952664 247.199778)scale(0.11 -0.11)">
       <use xlink:href="#ArialMT-48"/>
       <use x="55.615234" xlink:href="#ArialMT-46"/>
       <use x="83.398438" xlink:href="#ArialMT-48"/>
      </g>
     </g>
    </g>
    <g id="ytick_2">
     <g id="line2d_10">
      <path clip-path="url(#p86be086e8f)" d="M 471.935614 251.934545 
L 471.776006 248.889045 
L 471.298931 245.876911 
L 470.509615 242.931146 
L 469.416708 240.084024 
L 468.032182 237.366739 
L 466.371207 234.809061 
L 464.451981 232.439015 
L 462.295531 230.282565 
L 459.925484 228.363339 
L 457.367807 226.702364 
L 454.650522 225.317838 
L 451.8034 224.22493 
L 448.857635 223.435615 
L 445.845501 222.95854 
L 442.8 222.798932 
L 439.754499 222.95854 
L 436.742365 223.435615 
L 433.7966 224.22493 
L 430.949478 225.317838 
L 428.232193 226.702364 
L 425.674516 228.363339 
L 423.304469 230.282565 
L 421.148019 232.439015 
L 419.228793 234.809061 
L 417.567818 237.366739 
L 416.183292 240.084024 
L 415.090385 242.931146 
L 414.301069 245.876911 
L 413.823994 248.889045 
L 413.664386 251.934545 
L 413.823994 254.980046 
L 414.301069 257.99218 
L 415.090385 260.937945 
L 416.183292 263.785067 
L 417.567818 266.502352 
L 419.228793 269.06003 
L 421.148019 271.430076 
L 423.304469 273.586526 
L 425.674516 275.505752 
L 428.232193 277.166727 
L 430.949478 278.551253 
L 433.7966 279.644161 
L 436.742365 280.433476 
L 439.754499 280.910551 
L 442.8 281.070159 
L 445.845501 280.910551 
L 448.857635 280.433476 
L 451.8034 279.644161 
L 454.650522 278.551253 
L 457.367807 277.166727 
L 459.925484 275.505752 
L 462.295531 273.586526 
L 464.451981 271.430076 
L 466.371207 269.06003 
L 468.032182 266.502352 
L 469.416708 263.785067 
L 470.509615 260.937945 
L 471.298931 257.99218 
L 471.776006 254.980046 
L 471.935614 251.934545 
L 471.935614 251.934545 
" style="fill:none;stroke:#ffffff;stroke-linecap:round;"/>
     </g>
     <g id="text_10">
      <!-- 0.5 -->
      <g style="fill:#262626;" transform="translate(469.717797 238.598579)scale(0.11 -0.11)">
       <use xlink:href="#ArialMT-48"/>
       <use x="55.615234" xlink:href="#ArialMT-46"/>
       <use x="83.398438" xlink:href="#ArialMT-53"/>
      </g>
     </g>
    </g>
    <g id="ytick_3">
     <g id="line2d_11">
      <path clip-path="url(#p86be086e8f)" d="M 494.411632 251.934545 
L 494.285908 248.3343 
L 493.909351 244.751595 
L 493.283794 241.203884 
L 492.412284 237.708452 
L 491.299069 234.282328 
L 489.949572 230.942204 
L 488.370366 227.704352 
L 486.569146 224.584548 
L 484.554687 221.59799 
L 482.336804 218.759228 
L 479.926301 216.082094 
L 477.334922 213.579629 
L 474.575293 211.264025 
L 471.660858 209.146564 
L 468.605816 207.237561 
L 465.42505 205.546318 
L 462.134057 204.081074 
L 458.748871 202.848967 
L 455.285984 201.856 
L 451.762266 201.107011 
L 448.194885 200.605648 
L 444.60122 200.354354 
L 440.99878 200.354354 
L 437.405115 200.605648 
L 433.837734 201.107011 
L 430.314016 201.856 
L 426.851129 202.848967 
L 423.465943 204.081074 
L 420.17495 205.546318 
L 416.994184 207.237561 
L 413.939142 209.146564 
L 411.024707 211.264025 
L 408.265078 213.579629 
L 405.673699 216.082094 
L 403.263196 218.759228 
L 401.045313 221.59799 
L 399.030854 224.584548 
L 397.229634 227.704352 
L 395.650428 230.942204 
L 394.300931 234.282328 
L 393.187716 237.708452 
L 392.316206 241.203884 
L 391.690649 244.751595 
L 391.314092 248.3343 
L 391.188368 251.934545 
L 391.314092 255.534791 
L 391.690649 259.117496 
L 392.316206 262.665207 
L 393.187716 266.160639 
L 394.300931 269.586763 
L 395.650428 272.926887 
L 397.229634 276.164739 
L 399.030854 279.284543 
L 401.045313 282.271101 
L 403.263196 285.109863 
L 405.673699 287.786997 
L 408.265078 290.289462 
L 411.024707 292.605066 
L 413.939142 294.722527 
L 416.994184 296.631529 
L 420.17495 298.322773 
L 423.465943 299.788017 
L 426.851129 301.020124 
L 430.314016 302.013091 
L 433.837734 302.76208 
L 437.405115 303.263443 
L 440.99878 303.514737 
L 444.60122 303.514737 
L 448.194885 303.263443 
L 451.762266 302.76208 
L 455.285984 302.013091 
L 458.748871 301.020124 
L 462.134057 299.788017 
L 465.42505 298.322773 
L 468.605816 296.631529 
L 471.660858 294.722527 
L 474.575293 292.605066 
L 477.334922 290.289462 
L 479.926301 287.786997 
L 482.336804 285.109863 
L 484.554687 282.271101 
L 486.569146 279.284543 
L 488.370366 276.164739 
L 489.949572 272.926887 
L 491.299069 269.586763 
L 492.412284 266.160639 
L 493.283794 262.665207 
L 493.909351 259.117496 
L 494.285908 255.534791 
L 494.411632 251.934545 
L 494.411632 251.934545 
" style="fill:none;stroke:#ffffff;stroke-linecap:round;"/>
     </g>
     <g id="text_11">
      <!-- 1.0 -->
      <g style="fill:#262626;" transform="translate(490.48293 229.997379)scale(0.11 -0.11)">
       <use xlink:href="#ArialMT-49"/>
       <use x="55.615234" xlink:href="#ArialMT-46"/>
       <use x="83.398438" xlink:href="#ArialMT-48"/>
      </g>
     </g>
    </g>
    <g id="ytick_4">
     <g id="line2d_12">
      <path clip-path="url(#p86be086e8f)" d="M 516.887649 251.934545 
L 516.707175 246.766452 
L 516.166633 241.623538 
L 515.268656 236.530857 
L 514.017619 231.513222 
L 512.419617 226.595077 
L 510.482435 221.800384 
L 508.215512 217.152501 
L 505.62989 212.674073 
L 502.738167 208.386918 
L 499.554432 204.311922 
L 496.094195 200.46894 
L 492.374314 196.876692 
L 488.412911 193.552681 
L 484.229288 190.513101 
L 479.843825 187.772759 
L 475.277888 185.345007 
L 470.553722 183.241673 
L 465.694343 181.473004 
L 460.723425 180.047616 
L 455.665185 178.972454 
L 450.544268 178.252756 
L 445.385622 177.892028 
L 440.214378 177.892028 
L 435.055732 178.252756 
L 429.934815 178.972454 
L 424.876575 180.047616 
L 419.905657 181.473004 
L 415.046278 183.241673 
L 410.322112 185.345007 
L 405.756175 187.772759 
L 401.370712 190.513101 
L 397.187089 193.552681 
L 393.225686 196.876692 
L 389.505805 200.46894 
L 386.045568 204.311922 
L 382.861833 208.386918 
L 379.97011 212.674073 
L 377.384488 217.152501 
L 375.117565 221.800384 
L 373.180383 226.595077 
L 371.582381 231.513222 
L 370.331344 236.530857 
L 369.433367 241.623538 
L 368.892825 246.766452 
L 368.712351 251.934545 
L 368.892825 257.102639 
L 369.433367 262.245553 
L 370.331344 267.338234 
L 371.582381 272.355869 
L 373.180383 277.274014 
L 375.117565 282.068707 
L 377.384488 286.71659 
L 379.97011 291.195018 
L 382.861833 295.482173 
L 386.045568 299.557168 
L 389.505805 303.400151 
L 393.225686 306.992399 
L 397.187089 310.31641 
L 401.370712 313.35599 
L 405.756175 316.096332 
L 410.322112 318.524084 
L 415.046278 320.627418 
L 419.905657 322.396087 
L 424.876575 323.821475 
L 429.934815 324.896637 
L 435.055732 325.616335 
L 440.214378 325.977063 
L 445.385622 325.977063 
L 450.544268 325.616335 
L 455.665185 324.896637 
L 460.723425 323.821475 
L 465.694343 322.396087 
L 470.553722 320.627418 
L 475.277888 318.524084 
L 479.843825 316.096332 
L 484.229288 313.35599 
L 488.412911 310.31641 
L 492.374314 306.992399 
L 496.094195 303.400151 
L 499.554432 299.557168 
L 502.738167 295.482173 
L 505.62989 291.195018 
L 508.215512 286.71659 
L 510.482435 282.068707 
L 512.419617 277.274014 
L 514.017619 272.355869 
L 515.268656 267.338234 
L 516.166633 262.245553 
L 516.707175 257.102639 
L 516.887649 251.934545 
L 516.887649 251.934545 
" style="fill:none;stroke:#ffffff;stroke-linecap:round;"/>
     </g>
     <g id="text_12">
      <!-- 1.5 -->
      <g style="fill:#262626;" transform="translate(511.248063 221.39618)scale(0.11 -0.11)">
       <use xlink:href="#ArialMT-49"/>
       <use x="55.615234" xlink:href="#ArialMT-46"/>
       <use x="83.398438" xlink:href="#ArialMT-53"/>
      </g>
     </g>
    </g>
    <g id="ytick_5">
     <g id="line2d_13">
      <path clip-path="url(#p86be086e8f)" d="M 539.363667 251.934545 
L 539.304843 248.564522 
L 539.128443 245.198605 
L 538.834681 241.840894 
L 538.423916 238.49548 
L 537.896648 235.166441 
L 537.253519 231.85783 
L 536.495313 228.57368 
L 535.622954 225.317992 
L 534.637505 222.094731 
L 533.540165 218.907826 
L 532.332273 215.761159 
L 531.015299 212.658564 
L 529.590849 209.60382 
L 528.060657 206.60065 
L 526.426589 203.652712 
L 524.690634 200.763598 
L 522.854908 197.936828 
L 520.921648 195.175846 
L 518.893208 192.484016 
L 516.772061 189.864617 
L 514.560789 187.32084 
L 512.262089 184.855786 
L 509.87876 182.472457 
L 507.413705 180.173756 
L 504.869929 177.962485 
L 502.25053 175.841337 
L 499.558699 173.812898 
L 496.797717 171.879637 
L 493.970947 170.043912 
L 491.081833 168.307957 
L 488.133896 166.673888 
L 485.130725 165.143696 
L 482.075982 163.719246 
L 478.973386 162.402272 
L 475.826719 161.19438 
L 472.639814 160.097041 
L 469.416554 159.111591 
L 466.160865 158.239232 
L 462.876715 157.481026 
L 459.568105 156.837898 
L 456.239065 156.310629 
L 452.893652 155.899864 
L 449.535941 155.606103 
L 446.170023 155.429702 
L 442.8 155.370878 
L 439.429977 155.429702 
L 436.064059 155.606103 
L 432.706348 155.899864 
L 429.360935 156.310629 
L 426.031895 156.837898 
L 422.723285 157.481026 
L 419.439135 158.239232 
L 416.183446 159.111591 
L 412.960186 160.097041 
L 409.773281 161.19438 
L 406.626614 162.402272 
L 403.524018 163.719246 
L 400.469275 165.143696 
L 397.466104 166.673888 
L 394.518167 168.307957 
L 391.629053 170.043912 
L 388.802283 171.879637 
L 386.041301 173.812898 
L 383.34947 175.841337 
L 380.730071 177.962485 
L 378.186295 180.173756 
L 375.72124 182.472457 
L 373.337911 184.855786 
L 371.039211 187.32084 
L 368.827939 189.864617 
L 366.706792 192.484016 
L 364.678352 195.175846 
L 362.745092 197.936828 
L 360.909366 200.763598 
L 359.173411 203.652712 
L 357.539343 206.60065 
L 356.009151 209.60382 
L 354.584701 212.658564 
L 353.267727 215.761159 
L 352.059835 218.907826 
L 350.962495 222.094731 
L 349.977046 225.317992 
L 349.104687 228.57368 
L 348.346481 231.85783 
L 347.703352 235.166441 
L 347.176084 238.49548 
L 346.765319 241.840894 
L 346.471557 245.198605 
L 346.295157 248.564522 
L 346.236333 251.934545 
L 346.295157 255.304569 
L 346.471557 258.670486 
L 346.765319 262.028197 
L 347.176084 265.37361 
L 347.703352 268.70265 
L 348.346481 272.011261 
L 349.104687 275.295411 
L 349.977046 278.551099 
L 350.962495 281.77436 
L 352.059835 284.961265 
L 353.267727 288.107932 
L 354.584701 291.210527 
L 356.009151 294.265271 
L 357.539343 297.268441 
L 359.173411 300.216379 
L 360.909366 303.105493 
L 362.745092 305.932263 
L 364.678352 308.693245 
L 366.706792 311.385075 
L 368.827939 314.004474 
L 371.039211 316.548251 
L 373.337911 319.013305 
L 375.72124 321.396634 
L 378.186295 323.695335 
L 380.730071 325.906606 
L 383.34947 328.027753 
L 386.041301 330.056193 
L 388.802283 331.989454 
L 391.629053 333.825179 
L 394.518167 335.561134 
L 397.466104 337.195203 
L 400.469275 338.725394 
L 403.524018 340.149845 
L 406.626614 341.466818 
L 409.773281 342.674711 
L 412.960186 343.77205 
L 416.183446 344.7575 
L 419.439135 345.629859 
L 422.723285 346.388065 
L 426.031895 347.031193 
L 429.360935 347.558461 
L 432.706348 347.969227 
L 436.064059 348.262988 
L 439.429977 348.439388 
L 442.8 348.498212 
L 446.170023 348.439388 
L 449.535941 348.262988 
L 452.893652 347.969227 
L 456.239065 347.558461 
L 459.568105 347.031193 
L 462.876715 346.388065 
L 466.160865 345.629859 
L 469.416554 344.7575 
L 472.639814 343.77205 
L 475.826719 342.674711 
L 478.973386 341.466818 
L 482.075982 340.149845 
L 485.130725 338.725394 
L 488.133896 337.195203 
L 491.081833 335.561134 
L 493.970947 333.825179 
L 496.797717 331.989454 
L 499.558699 330.056193 
L 502.25053 328.027753 
L 504.869929 325.906606 
L 507.413705 323.695335 
L 509.87876 321.396634 
L 512.262089 319.013305 
L 514.560789 316.548251 
L 516.772061 314.004474 
L 518.893208 311.385075 
L 520.921648 308.693245 
L 522.854908 305.932263 
L 524.690634 303.105493 
L 526.426589 300.216379 
L 528.060657 297.268441 
L 529.590849 294.265271 
L 531.015299 291.210527 
L 532.332273 288.107932 
L 533.540165 284.961265 
L 534.637505 281.77436 
L 535.622954 278.551099 
L 536.495313 275.295411 
L 537.253519 272.011261 
L 537.896648 268.70265 
L 538.423916 265.37361 
L 538.834681 262.028197 
L 539.128443 258.670486 
L 539.304843 255.304569 
L 539.363667 251.934545 
L 539.363667 251.934545 
" style="fill:none;stroke:#ffffff;stroke-linecap:round;"/>
     </g>
     <g id="text_13">
      <!-- 2.0 -->
      <g style="fill:#262626;" transform="translate(532.013196 212.79498)scale(0.11 -0.11)">
       <use xlink:href="#ArialMT-50"/>
       <use x="55.615234" xlink:href="#ArialMT-46"/>
       <use x="83.398438" xlink:href="#ArialMT-48"/>
      </g>
     </g>
    </g>
    <g id="ytick_6">
     <g id="line2d_14">
      <path clip-path="url(#p86be086e8f)" d="M 561.839685 251.934545 
L 561.767169 247.78012 
L 561.54971 243.630757 
L 561.187573 239.49151 
L 560.681199 235.367423 
L 560.031204 231.263521 
L 559.238382 227.184803 
L 558.303697 223.136239 
L 557.228289 219.122762 
L 556.013468 215.14926 
L 554.660713 211.220575 
L 553.171674 207.341495 
L 551.548163 203.516744 
L 549.79216 199.750982 
L 547.905803 196.048799 
L 545.891391 192.414703 
L 543.751378 188.853123 
L 541.488371 185.368399 
L 539.105128 181.964774 
L 536.604552 178.646398 
L 533.989689 175.417311 
L 531.263726 172.281449 
L 528.429983 169.242632 
L 525.491913 166.304562 
L 522.453096 163.47082 
L 519.317234 160.744856 
L 516.088148 158.129994 
L 512.769771 155.629417 
L 509.366147 153.246174 
L 505.881422 150.983167 
L 502.319842 148.843154 
L 498.685747 146.828742 
L 494.983563 144.942386 
L 491.217802 143.186382 
L 487.393051 141.562872 
L 483.51397 140.073832 
L 479.585286 138.721078 
L 475.611784 137.506256 
L 471.598306 136.430848 
L 467.549742 135.496163 
L 463.471024 134.703341 
L 459.367122 134.053347 
L 455.243035 133.546973 
L 451.103789 133.184835 
L 446.954425 132.967376 
L 442.8 132.894861 
L 438.645575 132.967376 
L 434.496211 133.184835 
L 430.356965 133.546973 
L 426.232878 134.053347 
L 422.128976 134.703341 
L 418.050258 135.496163 
L 414.001694 136.430848 
L 409.988216 137.506256 
L 406.014714 138.721078 
L 402.08603 140.073832 
L 398.206949 141.562872 
L 394.382198 143.186382 
L 390.616437 144.942386 
L 386.914253 146.828742 
L 383.280158 148.843154 
L 379.718578 150.983167 
L 376.233853 153.246174 
L 372.830229 155.629417 
L 369.511852 158.129994 
L 366.282766 160.744856 
L 363.146904 163.47082 
L 360.108087 166.304562 
L 357.170017 169.242632 
L 354.336274 172.281449 
L 351.610311 175.417311 
L 348.995448 178.646398 
L 346.494872 181.964774 
L 344.111629 185.368399 
L 341.848622 188.853123 
L 339.708609 192.414703 
L 337.694197 196.048799 
L 335.80784 199.750982 
L 334.051837 203.516744 
L 332.428326 207.341495 
L 330.939287 211.220575 
L 329.586532 215.14926 
L 328.371711 219.122762 
L 327.296303 223.136239 
L 326.361618 227.184803 
L 325.568796 231.263521 
L 324.918801 235.367423 
L 324.412427 239.49151 
L 324.05029 243.630757 
L 323.832831 247.78012 
L 323.760315 251.934545 
L 323.832831 256.088971 
L 324.05029 260.238334 
L 324.412427 264.377581 
L 324.918801 268.501668 
L 325.568796 272.60557 
L 326.361618 276.684288 
L 327.296303 280.732852 
L 328.371711 284.746329 
L 329.586532 288.719831 
L 330.939287 292.648515 
L 332.428326 296.527596 
L 334.051837 300.352347 
L 335.80784 304.118109 
L 337.694197 307.820292 
L 339.708609 311.454388 
L 341.848622 315.015968 
L 344.111629 318.500692 
L 346.494872 321.904317 
L 348.995448 325.222693 
L 351.610311 328.45178 
L 354.336274 331.587642 
L 357.170017 334.626459 
L 360.108087 337.564529 
L 363.146904 340.398271 
L 366.282766 343.124234 
L 369.511852 345.739097 
L 372.830229 348.239673 
L 376.233853 350.622917 
L 379.718578 352.885923 
L 383.280158 355.025936 
L 386.914253 357.040349 
L 390.616437 358.926705 
L 394.382198 360.682709 
L 398.206949 362.306219 
L 402.08603 363.795259 
L 406.014714 365.148013 
L 409.988216 366.362835 
L 414.001694 367.438243 
L 418.050258 368.372927 
L 422.128976 369.16575 
L 426.232878 369.815744 
L 430.356965 370.322118 
L 434.496211 370.684256 
L 438.645575 370.901714 
L 442.8 370.97423 
L 446.954425 370.901714 
L 451.103789 370.684256 
L 455.243035 370.322118 
L 459.367122 369.815744 
L 463.471024 369.16575 
L 467.549742 368.372927 
L 471.598306 367.438243 
L 475.611784 366.362835 
L 479.585286 365.148013 
L 483.51397 363.795259 
L 487.393051 362.306219 
L 491.217802 360.682709 
L 494.983563 358.926705 
L 498.685747 357.040349 
L 502.319842 355.025936 
L 505.881422 352.885923 
L 509.366147 350.622917 
L 512.769771 348.239673 
L 516.088148 345.739097 
L 519.317234 343.124234 
L 522.453096 340.398271 
L 525.491913 337.564529 
L 528.429983 334.626459 
L 531.263726 331.587642 
L 533.989689 328.45178 
L 536.604552 325.222693 
L 539.105128 321.904317 
L 541.488371 318.500692 
L 543.751378 315.015968 
L 545.891391 311.454388 
L 547.905803 307.820292 
L 549.79216 304.118109 
L 551.548163 300.352347 
L 553.171674 296.527596 
L 554.660713 292.648515 
L 556.013468 288.719831 
L 557.228289 284.746329 
L 558.303697 280.732852 
L 559.238382 276.684288 
L 560.031204 272.60557 
L 560.681199 268.501668 
L 561.187573 264.377581 
L 561.54971 260.238334 
L 561.767169 256.088971 
L 561.839685 251.934545 
L 561.839685 251.934545 
" style="fill:none;stroke:#ffffff;stroke-linecap:round;"/>
     </g>
     <g id="text_14">
      <!-- 2.5 -->
      <g style="fill:#262626;" transform="translate(552.778328 204.19378)scale(0.11 -0.11)">
       <use xlink:href="#ArialMT-50"/>
       <use x="55.615234" xlink:href="#ArialMT-46"/>
       <use x="83.398438" xlink:href="#ArialMT-53"/>
      </g>
     </g>
    </g>
    <g id="ytick_7">
     <g id="line2d_15">
      <path clip-path="url(#p86be086e8f)" d="M 584.315702 251.934545 
L 584.229495 246.995719 
L 583.970977 242.062909 
L 583.540465 237.142127 
L 582.938481 232.239366 
L 582.165761 227.360602 
L 581.223245 222.511776 
L 580.112081 217.698798 
L 578.833624 212.927531 
L 577.389431 208.203788 
L 575.781261 203.533325 
L 574.011075 198.92183 
L 572.081027 194.374924 
L 569.993471 189.898145 
L 567.750949 185.496947 
L 565.356193 181.176694 
L 562.812122 176.942649 
L 560.121834 172.799969 
L 557.288608 168.753703 
L 554.315895 164.808779 
L 551.207317 160.970005 
L 547.966662 157.242058 
L 544.597877 153.629478 
L 541.105067 150.136668 
L 537.492488 146.767883 
L 533.76454 143.527228 
L 529.925766 140.41865 
L 525.980843 137.445937 
L 521.934577 134.612711 
L 517.791897 131.922423 
L 513.557851 129.378352 
L 509.237598 126.983597 
L 504.836401 124.741075 
L 500.359622 122.653518 
L 495.812715 120.723471 
L 491.201221 118.953284 
L 486.530757 117.345114 
L 481.807014 115.900921 
L 477.035747 114.622464 
L 472.222769 113.511301 
L 467.373944 112.568784 
L 462.495179 111.796064 
L 457.592419 111.194081 
L 452.671636 110.763568 
L 447.738827 110.505051 
L 442.8 110.418843 
L 437.861173 110.505051 
L 432.928364 110.763568 
L 428.007581 111.194081 
L 423.104821 111.796064 
L 418.226056 112.568784 
L 413.377231 113.511301 
L 408.564253 114.622464 
L 403.792986 115.900921 
L 399.069243 117.345114 
L 394.398779 118.953284 
L 389.787285 120.723471 
L 385.240378 122.653518 
L 380.763599 124.741075 
L 376.362402 126.983597 
L 372.042149 129.378352 
L 367.808103 131.922423 
L 363.665423 134.612711 
L 359.619157 137.445937 
L 355.674234 140.41865 
L 351.83546 143.527228 
L 348.107512 146.767883 
L 344.494933 150.136668 
L 341.002123 153.629478 
L 337.633338 157.242058 
L 334.392683 160.970005 
L 331.284105 164.808779 
L 328.311392 168.753703 
L 325.478166 172.799969 
L 322.787878 176.942649 
L 320.243807 181.176694 
L 317.849051 185.496947 
L 315.606529 189.898145 
L 313.518973 194.374924 
L 311.588925 198.92183 
L 309.818739 203.533325 
L 308.210569 208.203788 
L 306.766376 212.927531 
L 305.487919 217.698798 
L 304.376755 222.511776 
L 303.434239 227.360602 
L 302.661519 232.239366 
L 302.059535 237.142127 
L 301.629023 242.062909 
L 301.370505 246.995719 
L 301.284298 251.934545 
L 301.370505 256.873372 
L 301.629023 261.806182 
L 302.059535 266.726964 
L 302.661519 271.629725 
L 303.434239 276.508489 
L 304.376755 281.357314 
L 305.487919 286.170292 
L 306.766376 290.941559 
L 308.210569 295.665302 
L 309.818739 300.335766 
L 311.588925 304.947261 
L 313.518973 309.494167 
L 315.606529 313.970946 
L 317.849051 318.372143 
L 320.243807 322.692397 
L 322.787878 326.926442 
L 325.478166 331.069122 
L 328.311392 335.115388 
L 331.284105 339.060312 
L 334.392683 342.899086 
L 337.633338 346.627033 
L 341.002123 350.239613 
L 344.494933 353.732423 
L 348.107512 357.101207 
L 351.83546 360.341863 
L 355.674234 363.450441 
L 359.619157 366.423154 
L 363.665423 369.25638 
L 367.808103 371.946668 
L 372.042149 374.490739 
L 376.362402 376.885494 
L 380.763599 379.128016 
L 385.240378 381.215573 
L 389.787285 383.14562 
L 394.398779 384.915807 
L 399.069243 386.523976 
L 403.792986 387.96817 
L 408.564253 389.246627 
L 413.377231 390.35779 
L 418.226056 391.300306 
L 423.104821 392.073027 
L 428.007581 392.67501 
L 432.928364 393.105523 
L 437.861173 393.36404 
L 442.8 393.450248 
L 447.738827 393.36404 
L 452.671636 393.105523 
L 457.592419 392.67501 
L 462.495179 392.073027 
L 467.373944 391.300306 
L 472.222769 390.35779 
L 477.035747 389.246627 
L 481.807014 387.96817 
L 486.530757 386.523976 
L 491.201221 384.915807 
L 495.812715 383.14562 
L 500.359622 381.215573 
L 504.836401 379.128016 
L 509.237598 376.885494 
L 513.557851 374.490739 
L 517.791897 371.946668 
L 521.934577 369.25638 
L 525.980843 366.423154 
L 529.925766 363.450441 
L 533.76454 360.341863 
L 537.492488 357.101207 
L 541.105067 353.732423 
L 544.597877 350.239613 
L 547.966662 346.627033 
L 551.207317 342.899086 
L 554.315895 339.060312 
L 557.288608 335.115388 
L 560.121834 331.069122 
L 562.812122 326.926442 
L 565.356193 322.692397 
L 567.750949 318.372143 
L 569.993471 313.970946 
L 572.081027 309.494167 
L 574.011075 304.947261 
L 575.781261 300.335766 
L 577.389431 295.665302 
L 578.833624 290.941559 
L 580.112081 286.170292 
L 581.223245 281.357314 
L 582.165761 276.508489 
L 582.938481 271.629725 
L 583.540465 266.726964 
L 583.970977 261.806182 
L 584.229495 256.873372 
L 584.315702 251.934545 
L 584.315702 251.934545 
" style="fill:none;stroke:#ffffff;stroke-linecap:round;"/>
     </g>
     <g id="text_15">
      <!-- 3.0 -->
      <g style="fill:#262626;" transform="translate(573.543461 195.592581)scale(0.11 -0.11)">
       <use xlink:href="#ArialMT-51"/>
       <use x="55.615234" xlink:href="#ArialMT-46"/>
       <use x="83.398438" xlink:href="#ArialMT-48"/>
      </g>
     </g>
    </g>
   </g>
   <g id="line2d_16">
    <defs>
     <path d="M 0 3 
C 0.795609 3 1.55874 2.683901 2.12132 2.12132 
C 2.683901 1.55874 3 0.795609 3 0 
C 3 -0.795609 2.683901 -1.55874 2.12132 -2.12132 
C 1.55874 -2.683901 0.795609 -3 0 -3 
C -0.795609 -3 -1.55874 -2.683901 -2.12132 -2.12132 
C -2.683901 -1.55874 -3 -0.795609 -3 0 
C -3 0.795609 -2.683901 1.55874 -2.12132 2.12132 
C -1.55874 2.683901 -0.795609 3 0 3 
z
" id="md3cf66bcfe" style="stroke:#4c72b0;"/>
    </defs>
    <g clip-path="url(#p86be086e8f)">
     <use style="fill:#4c72b0;stroke:#4c72b0;" x="442.8" xlink:href="#md3cf66bcfe" y="110.418843"/>
     <use style="fill:#4c72b0;stroke:#4c72b0;" x="535.517564" xlink:href="#md3cf66bcfe" y="278.915931"/>
    </g>
   </g>
   <g id="line2d_17">
    <path clip-path="url(#p86be086e8f)" d="M 491.109154 251.934545 
L 490.013967 249.854544 
L 488.722555 247.88046 
L 487.258778 246.02809 
L 485.408391 244.075654 
L 483.408489 242.310157 
L 481.302008 240.73686 
L 478.858379 239.19431 
L 476.120841 237.747385 
L 473.168117 236.443169 
L 469.385283 235.041895 
L 462.77349 232.670633 
L 460.830647 231.705718 
L 459.248533 230.689246 
L 457.663676 229.412638 
L 455.491233 227.342885 
L 452.736182 224.768094 
L 451.030897 223.466659 
L 449.345126 222.466214 
L 447.72669 221.780669 
L 446.224824 221.384207 
L 444.685998 221.217638 
L 443.330319 221.276346 
L 441.987188 221.533866 
L 440.677805 221.991718 
L 439.423272 222.645468 
L 438.243572 223.484952 
L 437.00985 224.651847 
L 435.919314 226.011062 
L 434.988058 227.526742 
L 434.225444 229.159287 
L 433.571828 231.08433 
L 433.12792 233.04756 
L 432.860931 235.209026 
L 432.804166 237.49048 
L 432.964057 239.792071 
L 433.34627 242.163386 
L 433.978294 244.672969 
L 435.109773 248.102604 
L 435.701133 250.228487 
L 436.085818 252.719321 
L 436.476662 254.32655 
L 437.096228 255.895047 
L 441.117963 264.444783 
L 442.49787 266.713217 
L 444.052471 268.851559 
L 445.767659 270.844764 
L 447.698615 272.749221 
L 449.787342 274.496952 
L 451.961489 276.038634 
L 454.398191 277.485528 
L 456.80781 278.663468 
L 459.40748 279.682632 
L 461.859863 280.423268 
L 464.423852 280.980419 
L 467.073815 281.329208 
L 469.779724 281.447546 
L 472.166692 281.347449 
L 474.545763 281.047143 
L 476.890664 280.540009 
L 479.17413 279.822687 
L 481.368447 278.895299 
L 483.446029 277.761585 
L 485.380017 276.428942 
L 487.144888 274.908369 
L 488.505083 273.466308 
L 489.710233 271.907721 
L 490.748502 270.245162 
L 491.609862 268.492563 
L 492.286275 266.665019 
L 492.771849 264.778537 
L 493.062952 262.849771 
L 493.15829 260.895737 
L 493.058942 258.933521 
L 492.701691 256.656394 
L 492.093653 254.41689 
L 491.248323 252.239264 
L 491.109154 251.934545 
L 491.109154 251.934545 
" style="fill:none;stroke:#dd8452;stroke-linecap:round;stroke-width:1.5;"/>
   </g>
   <g id="line2d_18">
    <defs>
     <path d="M -3 3 
L 3 -3 
M -3 -3 
L 3 3 
" id="mda8767f133" style="stroke:#55a868;"/>
    </defs>
    <g clip-path="url(#p86be086e8f)">
     <use style="fill:#55a868;stroke:#55a868;" x="392.617245" xlink:href="#mda8767f133" y="263.994878"/>
    </g>
   </g>
   <g id="patch_3">
    <path d="M 591.054545 251.934545 
C 591.054545 232.465937 587.219654 213.186636 579.76934 195.199987 
C 572.319026 177.213338 561.39818 160.869136 547.631794 147.102751 
C 533.865409 133.336366 517.521207 122.415519 499.534558 114.965205 
C 481.547909 107.514891 462.268609 103.68 442.8 103.68 
C 423.331391 103.68 404.052091 107.514891 386.065442 114.965205 
C 368.078793 122.415519 351.734591 133.336366 337.968206 147.102751 
C 324.20182 160.869136 313.280974 177.213338 305.83066 195.199987 
C 298.380346 213.186636 294.545455 232.465937 294.545455 251.934545 
C 294.545455 271.403154 298.380346 290.682455 305.83066 308.669104 
C 313.280974 326.655753 324.20182 342.999955 337.968206 356.76634 
C 351.734591 370.532725 368.078793 381.453572 386.065442 388.903886 
C 404.052091 396.3542 423.331391 400.189091 442.8 400.189091 
C 462.268609 400.189091 481.547909 396.3542 499.534558 388.903886 
C 517.521207 381.453572 533.865409 370.532725 547.631794 356.76634 
C 561.39818 342.999955 572.319026 326.655753 579.76934 308.669104 
C 587.219654 290.682455 591.054545 271.403154 591.054545 251.934545 
" style="fill:none;stroke:#ffffff;stroke-linecap:square;stroke-linejoin:miter;stroke-width:1.25;"/>
   </g>
  </g>
  <g id="axes_2">
   <g id="patch_4">
    <path d="M 108 756 
L 777.6 756 
L 777.6 459.490909 
L 108 459.490909 
z
" style="fill:#eaeaf2;"/>
   </g>
   <g id="matplotlib.axis_3">
    <g id="xtick_9">
     <g id="line2d_19">
      <path clip-path="url(#p384e088738)" d="M 138.436364 756 
L 138.436364 459.490909 
" style="fill:none;stroke:#ffffff;stroke-linecap:round;"/>
     </g>
     <g id="text_16">
      <!-- 0 -->
      <g style="fill:#262626;" transform="translate(135.377848 773.373594)scale(0.11 -0.11)">
       <use xlink:href="#ArialMT-48"/>
      </g>
     </g>
    </g>
    <g id="xtick_10">
     <g id="line2d_20">
      <path clip-path="url(#p384e088738)" d="M 235.318318 756 
L 235.318318 459.490909 
" style="fill:none;stroke:#ffffff;stroke-linecap:round;"/>
     </g>
     <g id="text_17">
      <!-- 1 -->
      <g style="fill:#262626;" transform="translate(232.259802 773.373594)scale(0.11 -0.11)">
       <use xlink:href="#ArialMT-49"/>
      </g>
     </g>
    </g>
    <g id="xtick_11">
     <g id="line2d_21">
      <path clip-path="url(#p384e088738)" d="M 332.200273 756 
L 332.200273 459.490909 
" style="fill:none;stroke:#ffffff;stroke-linecap:round;"/>
     </g>
     <g id="text_18">
      <!-- 2 -->
      <g style="fill:#262626;" transform="translate(329.141757 773.373594)scale(0.11 -0.11)">
       <use xlink:href="#ArialMT-50"/>
      </g>
     </g>
    </g>
    <g id="xtick_12">
     <g id="line2d_22">
      <path clip-path="url(#p384e088738)" d="M 429.082227 756 
L 429.082227 459.490909 
" style="fill:none;stroke:#ffffff;stroke-linecap:round;"/>
     </g>
     <g id="text_19">
      <!-- 3 -->
      <g style="fill:#262626;" transform="translate(426.023711 773.373594)scale(0.11 -0.11)">
       <use xlink:href="#ArialMT-51"/>
      </g>
     </g>
    </g>
    <g id="xtick_13">
     <g id="line2d_23">
      <path clip-path="url(#p384e088738)" d="M 525.964181 756 
L 525.964181 459.490909 
" style="fill:none;stroke:#ffffff;stroke-linecap:round;"/>
     </g>
     <g id="text_20">
      <!-- 4 -->
      <g style="fill:#262626;" transform="translate(522.905666 773.373594)scale(0.11 -0.11)">
       <use xlink:href="#ArialMT-52"/>
      </g>
     </g>
    </g>
    <g id="xtick_14">
     <g id="line2d_24">
      <path clip-path="url(#p384e088738)" d="M 622.846136 756 
L 622.846136 459.490909 
" style="fill:none;stroke:#ffffff;stroke-linecap:round;"/>
     </g>
     <g id="text_21">
      <!-- 5 -->
      <g style="fill:#262626;" transform="translate(619.78762 773.373594)scale(0.11 -0.11)">
       <use xlink:href="#ArialMT-53"/>
      </g>
     </g>
    </g>
    <g id="xtick_15">
     <g id="line2d_25">
      <path clip-path="url(#p384e088738)" d="M 719.72809 756 
L 719.72809 459.490909 
" style="fill:none;stroke:#ffffff;stroke-linecap:round;"/>
     </g>
     <g id="text_22">
      <!-- 6 -->
      <defs>
       <path d="M 49.75 54.046875 
L 41.015625 53.375 
Q 39.84375 58.546875 37.703125 60.890625 
Q 34.125 64.65625 28.90625 64.65625 
Q 24.703125 64.65625 21.53125 62.3125 
Q 17.390625 59.28125 14.984375 53.46875 
Q 12.59375 47.65625 12.5 36.921875 
Q 15.671875 41.75 20.265625 44.09375 
Q 24.859375 46.4375 29.890625 46.4375 
Q 38.671875 46.4375 44.84375 39.96875 
Q 51.03125 33.5 51.03125 23.25 
Q 51.03125 16.5 48.125 10.71875 
Q 45.21875 4.9375 40.140625 1.859375 
Q 35.0625 -1.21875 28.609375 -1.21875 
Q 17.625 -1.21875 10.6875 6.859375 
Q 3.765625 14.9375 3.765625 33.5 
Q 3.765625 54.25 11.421875 63.671875 
Q 18.109375 71.875 29.4375 71.875 
Q 37.890625 71.875 43.28125 67.140625 
Q 48.6875 62.40625 49.75 54.046875 
z
M 13.875 23.1875 
Q 13.875 18.65625 15.796875 14.5 
Q 17.71875 10.359375 21.1875 8.171875 
Q 24.65625 6 28.46875 6 
Q 34.03125 6 38.03125 10.484375 
Q 42.046875 14.984375 42.046875 22.703125 
Q 42.046875 30.125 38.078125 34.390625 
Q 34.125 38.671875 28.125 38.671875 
Q 22.171875 38.671875 18.015625 34.390625 
Q 13.875 30.125 13.875 23.1875 
z
" id="ArialMT-54"/>
      </defs>
      <g style="fill:#262626;" transform="translate(716.669575 773.373594)scale(0.11 -0.11)">
       <use xlink:href="#ArialMT-54"/>
      </g>
     </g>
    </g>
    <g id="text_23">
     <!-- $\theta$ -->
     <defs>
      <path d="M 45.515625 34.671875 
L 14.453125 34.671875 
Q 12.359375 20.0625 14.5 13.875 
Q 17.1875 6.25 24.46875 6.25 
Q 31.78125 6.25 37.359375 13.921875 
Q 42.234375 20.65625 45.515625 34.671875 
z
M 47.015625 42.96875 
Q 48.34375 56.84375 46.625 61.71875 
Q 43.953125 69.4375 36.765625 69.4375 
Q 29.296875 69.4375 23.828125 61.8125 
Q 19.53125 55.671875 16.15625 42.96875 
z
M 38.1875 76.765625 
Q 49.90625 76.765625 54.59375 66.40625 
Q 59.28125 56.109375 55.71875 37.84375 
Q 52.203125 19.625 43.453125 9.28125 
Q 34.765625 -1.125 23.046875 -1.125 
Q 11.28125 -1.125 6.640625 9.28125 
Q 2 19.625 5.515625 37.84375 
Q 9.078125 56.109375 17.71875 66.40625 
Q 26.421875 76.765625 38.1875 76.765625 
z
" id="DejaVuSans-Oblique-952"/>
     </defs>
     <g style="fill:#262626;" transform="translate(439.08 788.149219)scale(0.12 -0.12)">
      <use transform="translate(0 0.234375)" xlink:href="#DejaVuSans-Oblique-952"/>
     </g>
    </g>
   </g>
   <g id="matplotlib.axis_4">
    <g id="ytick_8">
     <g id="line2d_26">
      <path clip-path="url(#p384e088738)" d="M 108 742.680808 
L 777.6 742.680808 
" style="fill:none;stroke:#ffffff;stroke-linecap:round;"/>
     </g>
     <g id="text_24">
      <!-- 0.0 -->
      <g style="fill:#262626;" transform="translate(83.21 746.617605)scale(0.11 -0.11)">
       <use xlink:href="#ArialMT-48"/>
       <use x="55.615234" xlink:href="#ArialMT-46"/>
       <use x="83.398438" xlink:href="#ArialMT-48"/>
      </g>
     </g>
    </g>
    <g id="ytick_9">
     <g id="line2d_27">
      <path clip-path="url(#p384e088738)" d="M 108 697.728772 
L 777.6 697.728772 
" style="fill:none;stroke:#ffffff;stroke-linecap:round;"/>
     </g>
     <g id="text_25">
      <!-- 0.5 -->
      <g style="fill:#262626;" transform="translate(83.21 701.665569)scale(0.11 -0.11)">
       <use xlink:href="#ArialMT-48"/>
       <use x="55.615234" xlink:href="#ArialMT-46"/>
       <use x="83.398438" xlink:href="#ArialMT-53"/>
      </g>
     </g>
    </g>
    <g id="ytick_10">
     <g id="line2d_28">
      <path clip-path="url(#p384e088738)" d="M 108 652.776737 
L 777.6 652.776737 
" style="fill:none;stroke:#ffffff;stroke-linecap:round;"/>
     </g>
     <g id="text_26">
      <!-- 1.0 -->
      <g style="fill:#262626;" transform="translate(83.21 656.713534)scale(0.11 -0.11)">
       <use xlink:href="#ArialMT-49"/>
       <use x="55.615234" xlink:href="#ArialMT-46"/>
       <use x="83.398438" xlink:href="#ArialMT-48"/>
      </g>
     </g>
    </g>
    <g id="ytick_11">
     <g id="line2d_29">
      <path clip-path="url(#p384e088738)" d="M 108 607.824702 
L 777.6 607.824702 
" style="fill:none;stroke:#ffffff;stroke-linecap:round;"/>
     </g>
     <g id="text_27">
      <!-- 1.5 -->
      <g style="fill:#262626;" transform="translate(83.21 611.761498)scale(0.11 -0.11)">
       <use xlink:href="#ArialMT-49"/>
       <use x="55.615234" xlink:href="#ArialMT-46"/>
       <use x="83.398438" xlink:href="#ArialMT-53"/>
      </g>
     </g>
    </g>
    <g id="ytick_12">
     <g id="line2d_30">
      <path clip-path="url(#p384e088738)" d="M 108 562.872666 
L 777.6 562.872666 
" style="fill:none;stroke:#ffffff;stroke-linecap:round;"/>
     </g>
     <g id="text_28">
      <!-- 2.0 -->
      <g style="fill:#262626;" transform="translate(83.21 566.809463)scale(0.11 -0.11)">
       <use xlink:href="#ArialMT-50"/>
       <use x="55.615234" xlink:href="#ArialMT-46"/>
       <use x="83.398438" xlink:href="#ArialMT-48"/>
      </g>
     </g>
    </g>
    <g id="ytick_13">
     <g id="line2d_31">
      <path clip-path="url(#p384e088738)" d="M 108 517.920631 
L 777.6 517.920631 
" style="fill:none;stroke:#ffffff;stroke-linecap:round;"/>
     </g>
     <g id="text_29">
      <!-- 2.5 -->
      <g style="fill:#262626;" transform="translate(83.21 521.857427)scale(0.11 -0.11)">
       <use xlink:href="#ArialMT-50"/>
       <use x="55.615234" xlink:href="#ArialMT-46"/>
       <use x="83.398438" xlink:href="#ArialMT-53"/>
      </g>
     </g>
    </g>
    <g id="ytick_14">
     <g id="line2d_32">
      <path clip-path="url(#p384e088738)" d="M 108 472.968595 
L 777.6 472.968595 
" style="fill:none;stroke:#ffffff;stroke-linecap:round;"/>
     </g>
     <g id="text_30">
      <!-- 3.0 -->
      <g style="fill:#262626;" transform="translate(83.21 476.905392)scale(0.11 -0.11)">
       <use xlink:href="#ArialMT-51"/>
       <use x="55.615234" xlink:href="#ArialMT-46"/>
       <use x="83.398438" xlink:href="#ArialMT-48"/>
      </g>
     </g>
    </g>
   </g>
   <g id="line2d_33">
    <g clip-path="url(#p384e088738)">
     <use style="fill:#4c72b0;stroke:#4c72b0;" x="290.618182" xlink:href="#md3cf66bcfe" y="472.968595"/>
     <use style="fill:#4c72b0;stroke:#4c72b0;" x="719.72809" xlink:href="#md3cf66bcfe" y="562.872666"/>
    </g>
   </g>
   <g id="line2d_34">
    <path clip-path="url(#p384e088738)" d="M 138.436364 659.381693 
L 142.70172 661.480477 
L 147.576413 664.144708 
L 153.060442 667.422625 
L 159.763145 671.72607 
L 170.731204 679.103153 
L 179.871253 685.147131 
L 185.964619 688.919459 
L 190.839312 691.705087 
L 195.714005 694.231615 
L 199.979361 696.196605 
L 204.244717 697.907626 
L 207.900737 699.15815 
L 211.556757 700.200556 
L 215.212776 701.030128 
L 218.868796 701.64572 
L 222.524816 702.049904 
L 226.180835 702.249056 
L 230.446192 702.236066 
L 234.711548 701.980632 
L 238.976904 701.511937 
L 243.851597 700.760525 
L 249.944963 699.587581 
L 269.443735 695.627117 
L 274.318428 694.959178 
L 278.583784 694.583169 
L 282.84914 694.436474 
L 286.50516 694.513103 
L 290.161179 694.789142 
L 293.817199 695.271901 
L 297.473219 695.964124 
L 301.129238 696.864024 
L 305.394595 698.167928 
L 309.659951 699.729133 
L 313.925307 701.52408 
L 318.8 703.823934 
L 324.284029 706.667126 
L 331.596069 710.746122 
L 352.92285 722.847444 
L 359.016216 725.963554 
L 364.500246 728.537064 
L 369.984275 730.865022 
L 375.468305 732.934284 
L 380.952334 734.742662 
L 386.436364 736.297177 
L 391.920393 737.612092 
L 397.404423 738.706873 
L 403.497789 739.692849 
L 410.200491 740.535817 
L 417.512531 741.217111 
L 426.043243 741.766563 
L 435.792629 742.158911 
L 447.979361 742.416147 
L 464.43145 742.521998 
L 483.930221 742.424607 
L 500.991646 742.127693 
L 513.787715 741.699292 
L 524.755774 741.114159 
L 533.895823 740.411254 
L 541.817199 739.595912 
L 549.129238 738.633699 
L 555.831941 737.54178 
L 562.534644 736.217411 
L 568.62801 734.785289 
L 574.721376 733.111848 
L 580.205405 731.381216 
L 585.689435 729.422818 
L 591.173464 727.224365 
L 596.657494 724.776468 
L 602.141523 722.073371 
L 607.625553 719.113686 
L 613.109582 715.901088 
L 618.593612 712.44494 
L 624.686978 708.338293 
L 631.389681 703.533288 
L 638.70172 698.011925 
L 649.060442 689.871321 
L 664.293857 677.877614 
L 670.99656 672.873073 
L 677.089926 668.606576 
L 681.964619 665.447345 
L 686.839312 662.559754 
L 691.104668 660.287219 
L 695.370025 658.277518 
L 699.026044 656.780797 
L 702.682064 655.505422 
L 706.338084 654.461724 
L 709.994103 653.658112 
L 713.650123 653.100929 
L 717.306143 652.794345 
L 720.962162 652.740263 
L 724.618182 652.938267 
L 728.274201 653.38558 
L 731.930221 654.077068 
L 735.586241 655.005256 
L 739.24226 656.160382 
L 742.89828 657.530471 
L 747.163636 659.381693 
L 747.163636 659.381693 
" style="fill:none;stroke:#dd8452;stroke-linecap:round;stroke-width:1.5;"/>
   </g>
   <g id="line2d_35">
    <g clip-path="url(#p384e088738)">
     <use style="fill:#55a868;stroke:#55a868;" x="465.650123" xlink:href="#mda8767f133" y="652.776737"/>
    </g>
   </g>
   <g id="patch_5">
    <path d="M 108 756 
L 108 459.490909 
" style="fill:none;stroke:#ffffff;stroke-linecap:square;stroke-linejoin:miter;stroke-width:1.25;"/>
   </g>
   <g id="patch_6">
    <path d="M 777.6 756 
L 777.6 459.490909 
" style="fill:none;stroke:#ffffff;stroke-linecap:square;stroke-linejoin:miter;stroke-width:1.25;"/>
   </g>
   <g id="patch_7">
    <path d="M 108 756 
L 777.6 756 
" style="fill:none;stroke:#ffffff;stroke-linecap:square;stroke-linejoin:miter;stroke-width:1.25;"/>
   </g>
   <g id="patch_8">
    <path d="M 108 459.490909 
L 777.6 459.490909 
" style="fill:none;stroke:#ffffff;stroke-linecap:square;stroke-linejoin:miter;stroke-width:1.25;"/>
   </g>
  </g>
  <g id="legend_1">
   <g id="patch_9">
    <path d="M 727.575938 99.608438 
L 812.3 99.608438 
Q 814.5 99.608438 814.5 97.408437 
L 814.5 51.7 
Q 814.5 49.5 812.3 49.5 
L 727.575938 49.5 
Q 725.375937 49.5 725.375937 51.7 
L 725.375937 97.408437 
Q 725.375937 99.608438 727.575938 99.608438 
z
" style="fill:#eaeaf2;opacity:0.8;stroke:#cccccc;stroke-linejoin:miter;"/>
   </g>
   <g id="line2d_36"/>
   <g id="line2d_37">
    <g>
     <use style="fill:#4c72b0;stroke:#4c72b0;" x="740.775937" xlink:href="#md3cf66bcfe" y="57.923594"/>
    </g>
   </g>
   <g id="text_31">
    <!-- Seeds -->
    <defs>
     <path d="M 4.5 23 
L 13.421875 23.78125 
Q 14.0625 18.40625 16.375 14.96875 
Q 18.703125 11.53125 23.578125 9.40625 
Q 28.46875 7.28125 34.578125 7.28125 
Q 39.984375 7.28125 44.140625 8.890625 
Q 48.296875 10.5 50.3125 13.296875 
Q 52.34375 16.109375 52.34375 19.4375 
Q 52.34375 22.796875 50.390625 25.3125 
Q 48.4375 27.828125 43.953125 29.546875 
Q 41.0625 30.671875 31.203125 33.03125 
Q 21.34375 35.40625 17.390625 37.5 
Q 12.25 40.1875 9.734375 44.15625 
Q 7.234375 48.140625 7.234375 53.078125 
Q 7.234375 58.5 10.296875 63.203125 
Q 13.375 67.921875 19.28125 70.359375 
Q 25.203125 72.796875 32.421875 72.796875 
Q 40.375 72.796875 46.453125 70.234375 
Q 52.546875 67.671875 55.8125 62.6875 
Q 59.078125 57.71875 59.328125 51.421875 
L 50.25 50.734375 
Q 49.515625 57.515625 45.28125 60.984375 
Q 41.0625 64.453125 32.8125 64.453125 
Q 24.21875 64.453125 20.28125 61.296875 
Q 16.359375 58.15625 16.359375 53.71875 
Q 16.359375 49.859375 19.140625 47.359375 
Q 21.875 44.875 33.421875 42.265625 
Q 44.96875 39.65625 49.265625 37.703125 
Q 55.515625 34.8125 58.484375 30.390625 
Q 61.46875 25.984375 61.46875 20.21875 
Q 61.46875 14.5 58.203125 9.4375 
Q 54.9375 4.390625 48.796875 1.578125 
Q 42.671875 -1.21875 35.015625 -1.21875 
Q 25.296875 -1.21875 18.71875 1.609375 
Q 12.15625 4.4375 8.421875 10.125 
Q 4.6875 15.828125 4.5 23 
z
" id="ArialMT-83"/>
     <path d="M 42.09375 16.703125 
L 51.171875 15.578125 
Q 49.03125 7.625 43.21875 3.21875 
Q 37.40625 -1.171875 28.375 -1.171875 
Q 17 -1.171875 10.328125 5.828125 
Q 3.65625 12.84375 3.65625 25.484375 
Q 3.65625 38.578125 10.390625 45.796875 
Q 17.140625 53.03125 27.875 53.03125 
Q 38.28125 53.03125 44.875 45.953125 
Q 51.46875 38.875 51.46875 26.03125 
Q 51.46875 25.25 51.421875 23.6875 
L 12.75 23.6875 
Q 13.234375 15.140625 17.578125 10.59375 
Q 21.921875 6.0625 28.421875 6.0625 
Q 33.25 6.0625 36.671875 8.59375 
Q 40.09375 11.140625 42.09375 16.703125 
z
M 13.234375 30.90625 
L 42.1875 30.90625 
Q 41.609375 37.453125 38.875 40.71875 
Q 34.671875 45.796875 27.984375 45.796875 
Q 21.921875 45.796875 17.796875 41.75 
Q 13.671875 37.703125 13.234375 30.90625 
z
" id="ArialMT-101"/>
     <path d="M 40.234375 0 
L 40.234375 6.546875 
Q 35.296875 -1.171875 25.734375 -1.171875 
Q 19.53125 -1.171875 14.328125 2.25 
Q 9.125 5.671875 6.265625 11.796875 
Q 3.421875 17.921875 3.421875 25.875 
Q 3.421875 33.640625 6 39.96875 
Q 8.59375 46.296875 13.765625 49.65625 
Q 18.953125 53.03125 25.34375 53.03125 
Q 30.03125 53.03125 33.6875 51.046875 
Q 37.359375 49.078125 39.65625 45.90625 
L 39.65625 71.578125 
L 48.390625 71.578125 
L 48.390625 0 
z
M 12.453125 25.875 
Q 12.453125 15.921875 16.640625 10.984375 
Q 20.84375 6.0625 26.5625 6.0625 
Q 32.328125 6.0625 36.34375 10.765625 
Q 40.375 15.484375 40.375 25.140625 
Q 40.375 35.796875 36.265625 40.765625 
Q 32.171875 45.75 26.171875 45.75 
Q 20.3125 45.75 16.375 40.96875 
Q 12.453125 36.1875 12.453125 25.875 
z
" id="ArialMT-100"/>
     <path d="M 3.078125 15.484375 
L 11.765625 16.84375 
Q 12.5 11.625 15.84375 8.84375 
Q 19.1875 6.0625 25.203125 6.0625 
Q 31.25 6.0625 34.171875 8.515625 
Q 37.109375 10.984375 37.109375 14.3125 
Q 37.109375 17.28125 34.515625 19 
Q 32.71875 20.171875 25.53125 21.96875 
Q 15.875 24.421875 12.140625 26.203125 
Q 8.40625 27.984375 6.46875 31.125 
Q 4.546875 34.28125 4.546875 38.09375 
Q 4.546875 41.546875 6.125 44.5 
Q 7.71875 47.46875 10.453125 49.421875 
Q 12.5 50.921875 16.03125 51.96875 
Q 19.578125 53.03125 23.640625 53.03125 
Q 29.734375 53.03125 34.34375 51.265625 
Q 38.96875 49.515625 41.15625 46.5 
Q 43.359375 43.5 44.1875 38.484375 
L 35.59375 37.3125 
Q 35.015625 41.3125 32.203125 43.546875 
Q 29.390625 45.796875 24.265625 45.796875 
Q 18.21875 45.796875 15.625 43.796875 
Q 13.03125 41.796875 13.03125 39.109375 
Q 13.03125 37.40625 14.109375 36.03125 
Q 15.1875 34.625 17.484375 33.6875 
Q 18.796875 33.203125 25.25 31.453125 
Q 34.578125 28.953125 38.25 27.359375 
Q 41.9375 25.78125 44.03125 22.75 
Q 46.140625 19.734375 46.140625 15.234375 
Q 46.140625 10.84375 43.578125 6.953125 
Q 41.015625 3.078125 36.171875 0.953125 
Q 31.34375 -1.171875 25.25 -1.171875 
Q 15.140625 -1.171875 9.84375 3.03125 
Q 4.546875 7.234375 3.078125 15.484375 
z
" id="ArialMT-115"/>
    </defs>
    <g style="fill:#262626;" transform="translate(760.575937 61.773594)scale(0.11 -0.11)">
     <use xlink:href="#ArialMT-83"/>
     <use x="66.699219" xlink:href="#ArialMT-101"/>
     <use x="122.314453" xlink:href="#ArialMT-101"/>
     <use x="177.929688" xlink:href="#ArialMT-100"/>
     <use x="233.544922" xlink:href="#ArialMT-115"/>
    </g>
   </g>
   <g id="line2d_38">
    <path d="M 729.775937 73.483438 
L 751.775937 73.483438 
" style="fill:none;stroke:#dd8452;stroke-linecap:round;stroke-width:1.5;"/>
   </g>
   <g id="line2d_39"/>
   <g id="text_32">
    <!-- Energy -->
    <defs>
     <path d="M 7.90625 0 
L 7.90625 71.578125 
L 59.671875 71.578125 
L 59.671875 63.140625 
L 17.390625 63.140625 
L 17.390625 41.21875 
L 56.984375 41.21875 
L 56.984375 32.8125 
L 17.390625 32.8125 
L 17.390625 8.453125 
L 61.328125 8.453125 
L 61.328125 0 
z
" id="ArialMT-69"/>
     <path d="M 6.59375 0 
L 6.59375 51.859375 
L 14.5 51.859375 
L 14.5 44.484375 
Q 20.21875 53.03125 31 53.03125 
Q 35.6875 53.03125 39.625 51.34375 
Q 43.5625 49.65625 45.515625 46.921875 
Q 47.46875 44.1875 48.25 40.4375 
Q 48.734375 37.984375 48.734375 31.890625 
L 48.734375 0 
L 39.9375 0 
L 39.9375 31.546875 
Q 39.9375 36.921875 38.90625 39.578125 
Q 37.890625 42.234375 35.28125 43.8125 
Q 32.671875 45.40625 29.15625 45.40625 
Q 23.53125 45.40625 19.453125 41.84375 
Q 15.375 38.28125 15.375 28.328125 
L 15.375 0 
z
" id="ArialMT-110"/>
     <path d="M 6.5 0 
L 6.5 51.859375 
L 14.40625 51.859375 
L 14.40625 44 
Q 17.4375 49.515625 20 51.265625 
Q 22.5625 53.03125 25.640625 53.03125 
Q 30.078125 53.03125 34.671875 50.203125 
L 31.640625 42.046875 
Q 28.421875 43.953125 25.203125 43.953125 
Q 22.3125 43.953125 20.015625 42.21875 
Q 17.71875 40.484375 16.75 37.40625 
Q 15.28125 32.71875 15.28125 27.15625 
L 15.28125 0 
z
" id="ArialMT-114"/>
     <path d="M 4.984375 -4.296875 
L 13.53125 -5.5625 
Q 14.0625 -9.515625 16.5 -11.328125 
Q 19.78125 -13.765625 25.4375 -13.765625 
Q 31.546875 -13.765625 34.859375 -11.328125 
Q 38.1875 -8.890625 39.359375 -4.5 
Q 40.046875 -1.8125 39.984375 6.78125 
Q 34.234375 0 25.640625 0 
Q 14.9375 0 9.078125 7.71875 
Q 3.21875 15.4375 3.21875 26.21875 
Q 3.21875 33.640625 5.90625 39.90625 
Q 8.59375 46.1875 13.6875 49.609375 
Q 18.796875 53.03125 25.6875 53.03125 
Q 34.859375 53.03125 40.828125 45.609375 
L 40.828125 51.859375 
L 48.921875 51.859375 
L 48.921875 7.03125 
Q 48.921875 -5.078125 46.453125 -10.125 
Q 44 -15.1875 38.640625 -18.109375 
Q 33.296875 -21.046875 25.484375 -21.046875 
Q 16.21875 -21.046875 10.5 -16.875 
Q 4.78125 -12.703125 4.984375 -4.296875 
z
M 12.25 26.859375 
Q 12.25 16.65625 16.296875 11.96875 
Q 20.359375 7.28125 26.46875 7.28125 
Q 32.515625 7.28125 36.609375 11.9375 
Q 40.71875 16.609375 40.71875 26.5625 
Q 40.71875 36.078125 36.5 40.90625 
Q 32.28125 45.75 26.3125 45.75 
Q 20.453125 45.75 16.34375 40.984375 
Q 12.25 36.234375 12.25 26.859375 
z
" id="ArialMT-103"/>
     <path d="M 6.203125 -19.96875 
L 5.21875 -11.71875 
Q 8.109375 -12.5 10.25 -12.5 
Q 13.1875 -12.5 14.9375 -11.515625 
Q 16.703125 -10.546875 17.828125 -8.796875 
Q 18.65625 -7.46875 20.515625 -2.25 
Q 20.75 -1.515625 21.296875 -0.09375 
L 1.609375 51.859375 
L 11.078125 51.859375 
L 21.875 21.828125 
Q 23.96875 16.109375 25.640625 9.8125 
Q 27.15625 15.875 29.25 21.625 
L 40.328125 51.859375 
L 49.125 51.859375 
L 29.390625 -0.875 
Q 26.21875 -9.421875 24.46875 -12.640625 
Q 22.125 -17 19.09375 -19.015625 
Q 16.0625 -21.046875 11.859375 -21.046875 
Q 9.328125 -21.046875 6.203125 -19.96875 
z
" id="ArialMT-121"/>
    </defs>
    <g style="fill:#262626;" transform="translate(760.575937 77.333438)scale(0.11 -0.11)">
     <use xlink:href="#ArialMT-69"/>
     <use x="66.699219" xlink:href="#ArialMT-110"/>
     <use x="122.314453" xlink:href="#ArialMT-101"/>
     <use x="177.929688" xlink:href="#ArialMT-114"/>
     <use x="211.230469" xlink:href="#ArialMT-103"/>
     <use x="266.845703" xlink:href="#ArialMT-121"/>
    </g>
   </g>
   <g id="line2d_40"/>
   <g id="line2d_41">
    <g>
     <use style="fill:#55a868;stroke:#55a868;" x="740.775937" xlink:href="#mda8767f133" y="89.172187"/>
    </g>
   </g>
   <g id="text_33">
    <!-- Next seed -->
    <defs>
     <path d="M 7.625 0 
L 7.625 71.578125 
L 17.328125 71.578125 
L 54.9375 15.375 
L 54.9375 71.578125 
L 64.015625 71.578125 
L 64.015625 0 
L 54.296875 0 
L 16.703125 56.25 
L 16.703125 0 
z
" id="ArialMT-78"/>
     <path d="M 0.734375 0 
L 19.671875 26.953125 
L 2.15625 51.859375 
L 13.140625 51.859375 
L 21.09375 39.703125 
Q 23.34375 36.234375 24.703125 33.890625 
Q 26.859375 37.109375 28.65625 39.59375 
L 37.40625 51.859375 
L 47.90625 51.859375 
L 29.984375 27.4375 
L 49.265625 0 
L 38.484375 0 
L 27.828125 16.109375 
L 25 20.453125 
L 11.375 0 
z
" id="ArialMT-120"/>
     <path d="M 25.78125 7.859375 
L 27.046875 0.09375 
Q 23.34375 -0.6875 20.40625 -0.6875 
Q 15.625 -0.6875 12.984375 0.828125 
Q 10.359375 2.34375 9.28125 4.8125 
Q 8.203125 7.28125 8.203125 15.1875 
L 8.203125 45.015625 
L 1.765625 45.015625 
L 1.765625 51.859375 
L 8.203125 51.859375 
L 8.203125 64.703125 
L 16.9375 69.96875 
L 16.9375 51.859375 
L 25.78125 51.859375 
L 25.78125 45.015625 
L 16.9375 45.015625 
L 16.9375 14.703125 
Q 16.9375 10.9375 17.40625 9.859375 
Q 17.875 8.796875 18.921875 8.15625 
Q 19.96875 7.515625 21.921875 7.515625 
Q 23.390625 7.515625 25.78125 7.859375 
z
" id="ArialMT-116"/>
     <path id="ArialMT-32"/>
    </defs>
    <g style="fill:#262626;" transform="translate(760.575937 93.022187)scale(0.11 -0.11)">
     <use xlink:href="#ArialMT-78"/>
     <use x="72.216797" xlink:href="#ArialMT-101"/>
     <use x="127.832031" xlink:href="#ArialMT-120"/>
     <use x="177.832031" xlink:href="#ArialMT-116"/>
     <use x="205.615234" xlink:href="#ArialMT-32"/>
     <use x="233.398438" xlink:href="#ArialMT-115"/>
     <use x="283.398438" xlink:href="#ArialMT-101"/>
     <use x="339.013672" xlink:href="#ArialMT-101"/>
     <use x="394.628906" xlink:href="#ArialMT-100"/>
    </g>
   </g>
  </g>
 </g>
 <defs>
  <clipPath id="p86be086e8f">
   <path d="M 591.054545 251.934545 
C 591.054545 232.465937 587.219654 213.186636 579.76934 195.199987 
C 572.319026 177.213338 561.39818 160.869136 547.631794 147.102751 
C 533.865409 133.336366 517.521207 122.415519 499.534558 114.965205 
C 481.547909 107.514891 462.268609 103.68 442.8 103.68 
C 423.331391 103.68 404.052091 107.514891 386.065442 114.965205 
C 368.078793 122.415519 351.734591 133.336366 337.968206 147.102751 
C 324.20182 160.869136 313.280974 177.213338 305.83066 195.199987 
C 298.380346 213.186636 294.545455 232.465937 294.545455 251.934545 
C 294.545455 271.403154 298.380346 290.682455 305.83066 308.669104 
C 313.280974 326.655753 324.20182 342.999955 337.968206 356.76634 
C 351.734591 370.532725 368.078793 381.453572 386.065442 388.903886 
C 404.052091 396.3542 423.331391 400.189091 442.8 400.189091 
C 462.268609 400.189091 481.547909 396.3542 499.534558 388.903886 
C 517.521207 381.453572 533.865409 370.532725 547.631794 356.76634 
C 561.39818 342.999955 572.319026 326.655753 579.76934 308.669104 
C 587.219654 290.682455 591.054545 271.403154 591.054545 251.934545 
M 442.8 251.934545 
C 442.8 251.934545 442.8 251.934545 442.8 251.934545 
C 442.8 251.934545 442.8 251.934545 442.8 251.934545 
C 442.8 251.934545 442.8 251.934545 442.8 251.934545 
C 442.8 251.934545 442.8 251.934545 442.8 251.934545 
C 442.8 251.934545 442.8 251.934545 442.8 251.934545 
C 442.8 251.934545 442.8 251.934545 442.8 251.934545 
C 442.8 251.934545 442.8 251.934545 442.8 251.934545 
C 442.8 251.934545 442.8 251.934545 442.8 251.934545 
C 442.8 251.934545 442.8 251.934545 442.8 251.934545 
C 442.8 251.934545 442.8 251.934545 442.8 251.934545 
C 442.8 251.934545 442.8 251.934545 442.8 251.934545 
C 442.8 251.934545 442.8 251.934545 442.8 251.934545 
C 442.8 251.934545 442.8 251.934545 442.8 251.934545 
C 442.8 251.934545 442.8 251.934545 442.8 251.934545 
C 442.8 251.934545 442.8 251.934545 442.8 251.934545 
C 442.8 251.934545 442.8 251.934545 442.8 251.934545 
M 591.054545 251.934545 
z
"/>
  </clipPath>
  <clipPath id="p384e088738">
   <rect height="296.509091" width="669.6" x="108" y="459.490909"/>
  </clipPath>
 </defs>
</svg>
