<?xml version="1.0" encoding="utf-8" standalone="no"?>
<!DOCTYPE svg PUBLIC "-//W3C//DTD SVG 1.1//EN"
  "http://www.w3.org/Graphics/SVG/1.1/DTD/svg11.dtd">
<!-- Created with matplotlib (https://matplotlib.org/) -->
<svg height="864pt" version="1.1" viewBox="0 0 864 864" width="864pt" xmlns="http://www.w3.org/2000/svg" xmlns:xlink="http://www.w3.org/1999/xlink">
 <defs>
  <style type="text/css">
*{stroke-linecap:butt;stroke-linejoin:round;}
  </style>
 </defs>
 <g id="figure_1">
  <g id="patch_1">
   <path d="M 0 864 
L 864 864 
L 864 0 
L 0 0 
z
" style="fill:#ffffff;"/>
  </g>
  <g id="axes_1">
   <g id="patch_2">
    <path d="M 591.054545 251.934545 
C 591.054545 232.465937 587.219654 213.186636 579.76934 195.199987 
C 572.319026 177.213338 561.39818 160.869136 547.631794 147.102751 
C 533.865409 133.336366 517.521207 122.415519 499.534558 114.965205 
C 481.547909 107.514891 462.268609 103.68 442.8 103.68 
C 423.331391 103.68 404.052091 107.514891 386.065442 114.965205 
C 368.078793 122.415519 351.734591 133.336366 337.968206 147.102751 
C 324.20182 160.869136 313.280974 177.213338 305.83066 195.199987 
C 298.380346 213.186636 294.545455 232.465937 294.545455 251.934545 
C 294.545455 271.403154 298.380346 290.682455 305.83066 308.669104 
C 313.280974 326.655753 324.20182 342.999955 337.968206 356.76634 
C 351.734591 370.532725 368.078793 381.453572 386.065442 388.903886 
C 404.052091 396.3542 423.331391 400.189091 442.8 400.189091 
C 462.268609 400.189091 481.547909 396.3542 499.534558 388.903886 
C 517.521207 381.453572 533.865409 370.532725 547.631794 356.76634 
C 561.39818 342.999955 572.319026 326.655753 579.76934 308.669104 
C 587.219654 290.682455 591.054545 271.403154 591.054545 251.934545 
M 442.8 251.934545 
C 442.8 251.934545 442.8 251.934545 442.8 251.934545 
C 442.8 251.934545 442.8 251.934545 442.8 251.934545 
C 442.8 251.934545 442.8 251.934545 442.8 251.934545 
C 442.8 251.934545 442.8 251.934545 442.8 251.934545 
C 442.8 251.934545 442.8 251.934545 442.8 251.934545 
C 442.8 251.934545 442.8 251.934545 442.8 251.934545 
C 442.8 251.934545 442.8 251.934545 442.8 251.934545 
C 442.8 251.934545 442.8 251.934545 442.8 251.934545 
C 442.8 251.934545 442.8 251.934545 442.8 251.934545 
C 442.8 251.934545 442.8 251.934545 442.8 251.934545 
C 442.8 251.934545 442.8 251.934545 442.8 251.934545 
C 442.8 251.934545 442.8 251.934545 442.8 251.934545 
C 442.8 251.934545 442.8 251.934545 442.8 251.934545 
C 442.8 251.934545 442.8 251.934545 442.8 251.934545 
C 442.8 251.934545 442.8 251.934545 442.8 251.934545 
C 442.8 251.934545 442.8 251.934545 442.8 251.934545 
M 591.054545 251.934545 
z
" style="fill:#eaeaf2;"/>
   </g>
   <g id="matplotlib.axis_1">
    <g id="xtick_1">
     <g id="line2d_1">
      <path clip-path="url(#pe2e8a77a83)" d="M 442.8 251.934545 
L 591.054545 251.934545 
" style="fill:none;stroke:#ffffff;stroke-linecap:round;"/>
     </g>
     <g id="text_1">
      <!-- 0° -->
      <defs>
       <path d="M 4.15625 35.296875 
Q 4.15625 48 6.765625 55.734375 
Q 9.375 63.484375 14.515625 67.671875 
Q 19.671875 71.875 27.484375 71.875 
Q 33.25 71.875 37.59375 69.546875 
Q 41.9375 67.234375 44.765625 62.859375 
Q 47.609375 58.5 49.21875 52.21875 
Q 50.828125 45.953125 50.828125 35.296875 
Q 50.828125 22.703125 48.234375 14.96875 
Q 45.65625 7.234375 40.5 3 
Q 35.359375 -1.21875 27.484375 -1.21875 
Q 17.140625 -1.21875 11.234375 6.203125 
Q 4.15625 15.140625 4.15625 35.296875 
z
M 13.1875 35.296875 
Q 13.1875 17.671875 17.3125 11.828125 
Q 21.4375 6 27.484375 6 
Q 33.546875 6 37.671875 11.859375 
Q 41.796875 17.71875 41.796875 35.296875 
Q 41.796875 52.984375 37.671875 58.78125 
Q 33.546875 64.59375 27.390625 64.59375 
Q 21.34375 64.59375 17.71875 59.46875 
Q 13.1875 52.9375 13.1875 35.296875 
z
" id="ArialMT-48"/>
       <path d="M 6.25 59.28125 
Q 6.25 64.890625 10.21875 68.84375 
Q 14.203125 72.796875 19.78125 72.796875 
Q 25.4375 72.796875 29.390625 68.84375 
Q 33.34375 64.890625 33.34375 59.28125 
Q 33.34375 53.65625 29.359375 49.671875 
Q 25.390625 45.703125 19.78125 45.703125 
Q 14.203125 45.703125 10.21875 49.65625 
Q 6.25 53.609375 6.25 59.28125 
z
M 11.578125 59.28125 
Q 11.578125 55.859375 13.984375 53.4375 
Q 16.40625 51.03125 19.828125 51.03125 
Q 23.1875 51.03125 25.609375 53.4375 
Q 28.03125 55.859375 28.03125 59.28125 
Q 28.03125 62.703125 25.609375 65.109375 
Q 23.1875 67.53125 19.828125 67.53125 
Q 16.40625 67.53125 13.984375 65.109375 
Q 11.578125 62.703125 11.578125 59.28125 
z
" id="ArialMT-176"/>
      </defs>
      <g style="fill:#262626;" transform="translate(602.296889 254.778217)scale(0.11 -0.11)">
       <use xlink:href="#ArialMT-48"/>
       <use x="55.615234" xlink:href="#ArialMT-176"/>
      </g>
     </g>
    </g>
    <g id="xtick_2">
     <g id="line2d_2">
      <path clip-path="url(#pe2e8a77a83)" d="M 442.8 251.934545 
L 547.631794 147.102751 
" style="fill:none;stroke:#ffffff;stroke-linecap:round;"/>
     </g>
     <g id="text_2">
      <!-- 45° -->
      <defs>
       <path d="M 32.328125 0 
L 32.328125 17.140625 
L 1.265625 17.140625 
L 1.265625 25.203125 
L 33.9375 71.578125 
L 41.109375 71.578125 
L 41.109375 25.203125 
L 50.78125 25.203125 
L 50.78125 17.140625 
L 41.109375 17.140625 
L 41.109375 0 
z
M 32.328125 25.203125 
L 32.328125 57.46875 
L 9.90625 25.203125 
z
" id="ArialMT-52"/>
       <path d="M 4.15625 18.75 
L 13.375 19.53125 
Q 14.40625 12.796875 18.140625 9.390625 
Q 21.875 6 27.15625 6 
Q 33.5 6 37.890625 10.78125 
Q 42.28125 15.578125 42.28125 23.484375 
Q 42.28125 31 38.0625 35.34375 
Q 33.84375 39.703125 27 39.703125 
Q 22.75 39.703125 19.328125 37.765625 
Q 15.921875 35.84375 13.96875 32.765625 
L 5.71875 33.84375 
L 12.640625 70.609375 
L 48.25 70.609375 
L 48.25 62.203125 
L 19.671875 62.203125 
L 15.828125 42.96875 
Q 22.265625 47.46875 29.34375 47.46875 
Q 38.71875 47.46875 45.15625 40.96875 
Q 51.609375 34.46875 51.609375 24.265625 
Q 51.609375 14.546875 45.953125 7.46875 
Q 39.0625 -1.21875 27.15625 -1.21875 
Q 17.390625 -1.21875 11.203125 4.25 
Q 5.03125 9.71875 4.15625 18.75 
z
" id="ArialMT-53"/>
      </defs>
      <g style="fill:#262626;" transform="translate(550.982884 138.279161)scale(0.11 -0.11)">
       <use xlink:href="#ArialMT-52"/>
       <use x="55.615234" xlink:href="#ArialMT-53"/>
       <use x="111.230469" xlink:href="#ArialMT-176"/>
      </g>
     </g>
    </g>
    <g id="xtick_3">
     <g id="line2d_3">
      <path clip-path="url(#pe2e8a77a83)" d="M 442.8 251.934545 
L 442.8 103.68 
" style="fill:none;stroke:#ffffff;stroke-linecap:round;"/>
     </g>
     <g id="text_3">
      <!-- 90° -->
      <defs>
       <path d="M 5.46875 16.546875 
L 13.921875 17.328125 
Q 14.984375 11.375 18.015625 8.6875 
Q 21.046875 6 25.78125 6 
Q 29.828125 6 32.875 7.859375 
Q 35.9375 9.71875 37.890625 12.8125 
Q 39.84375 15.921875 41.15625 21.1875 
Q 42.484375 26.46875 42.484375 31.9375 
Q 42.484375 32.515625 42.4375 33.6875 
Q 39.796875 29.5 35.234375 26.875 
Q 30.671875 24.265625 25.34375 24.265625 
Q 16.453125 24.265625 10.296875 30.703125 
Q 4.15625 37.15625 4.15625 47.703125 
Q 4.15625 58.59375 10.578125 65.234375 
Q 17 71.875 26.65625 71.875 
Q 33.640625 71.875 39.421875 68.109375 
Q 45.21875 64.359375 48.21875 57.390625 
Q 51.21875 50.4375 51.21875 37.25 
Q 51.21875 23.53125 48.234375 15.40625 
Q 45.265625 7.28125 39.375 3.03125 
Q 33.5 -1.21875 25.59375 -1.21875 
Q 17.1875 -1.21875 11.859375 3.4375 
Q 6.546875 8.109375 5.46875 16.546875 
z
M 41.453125 48.140625 
Q 41.453125 55.71875 37.421875 60.15625 
Q 33.40625 64.59375 27.734375 64.59375 
Q 21.875 64.59375 17.53125 59.8125 
Q 13.1875 55.03125 13.1875 47.40625 
Q 13.1875 40.578125 17.3125 36.296875 
Q 21.4375 32.03125 27.484375 32.03125 
Q 33.59375 32.03125 37.515625 36.296875 
Q 41.453125 40.578125 41.453125 48.140625 
z
" id="ArialMT-57"/>
      </defs>
      <g style="fill:#262626;" transform="translate(434.483828 90.023672)scale(0.11 -0.11)">
       <use xlink:href="#ArialMT-57"/>
       <use x="55.615234" xlink:href="#ArialMT-48"/>
       <use x="111.230469" xlink:href="#ArialMT-176"/>
      </g>
     </g>
    </g>
    <g id="xtick_4">
     <g id="line2d_4">
      <path clip-path="url(#pe2e8a77a83)" d="M 442.8 251.934545 
L 337.968206 147.102751 
" style="fill:none;stroke:#ffffff;stroke-linecap:round;"/>
     </g>
     <g id="text_4">
      <!-- 135° -->
      <defs>
       <path d="M 37.25 0 
L 28.46875 0 
L 28.46875 56 
Q 25.296875 52.984375 20.140625 49.953125 
Q 14.984375 46.921875 10.890625 45.40625 
L 10.890625 53.90625 
Q 18.265625 57.375 23.78125 62.296875 
Q 29.296875 67.234375 31.59375 71.875 
L 37.25 71.875 
z
" id="ArialMT-49"/>
       <path d="M 4.203125 18.890625 
L 12.984375 20.0625 
Q 14.5 12.59375 18.140625 9.296875 
Q 21.78125 6 27 6 
Q 33.203125 6 37.46875 10.296875 
Q 41.75 14.59375 41.75 20.953125 
Q 41.75 27 37.796875 30.921875 
Q 33.84375 34.859375 27.734375 34.859375 
Q 25.25 34.859375 21.53125 33.890625 
L 22.515625 41.609375 
Q 23.390625 41.5 23.921875 41.5 
Q 29.546875 41.5 34.03125 44.421875 
Q 38.53125 47.359375 38.53125 53.46875 
Q 38.53125 58.296875 35.25 61.46875 
Q 31.984375 64.65625 26.8125 64.65625 
Q 21.6875 64.65625 18.265625 61.421875 
Q 14.84375 58.203125 13.875 51.765625 
L 5.078125 53.328125 
Q 6.6875 62.15625 12.390625 67.015625 
Q 18.109375 71.875 26.609375 71.875 
Q 32.46875 71.875 37.390625 69.359375 
Q 42.328125 66.84375 44.9375 62.5 
Q 47.5625 58.15625 47.5625 53.265625 
Q 47.5625 48.640625 45.0625 44.828125 
Q 42.578125 41.015625 37.703125 38.765625 
Q 44.046875 37.3125 47.5625 32.6875 
Q 51.078125 28.078125 51.078125 21.140625 
Q 51.078125 11.765625 44.234375 5.25 
Q 37.40625 -1.265625 26.953125 -1.265625 
Q 17.53125 -1.265625 11.296875 4.34375 
Q 5.078125 9.96875 4.203125 18.890625 
z
" id="ArialMT-51"/>
      </defs>
      <g style="fill:#262626;" transform="translate(314.926256 138.279161)scale(0.11 -0.11)">
       <use xlink:href="#ArialMT-49"/>
       <use x="55.615234" xlink:href="#ArialMT-51"/>
       <use x="111.230469" xlink:href="#ArialMT-53"/>
       <use x="166.845703" xlink:href="#ArialMT-176"/>
      </g>
     </g>
    </g>
    <g id="xtick_5">
     <g id="line2d_5">
      <path clip-path="url(#pe2e8a77a83)" d="M 442.8 251.934545 
L 294.545455 251.934545 
" style="fill:none;stroke:#ffffff;stroke-linecap:round;"/>
     </g>
     <g id="text_5">
      <!-- 180° -->
      <defs>
       <path d="M 17.671875 38.8125 
Q 12.203125 40.828125 9.5625 44.53125 
Q 6.9375 48.25 6.9375 53.421875 
Q 6.9375 61.234375 12.546875 66.546875 
Q 18.171875 71.875 27.484375 71.875 
Q 36.859375 71.875 42.578125 66.421875 
Q 48.296875 60.984375 48.296875 53.171875 
Q 48.296875 48.1875 45.671875 44.5 
Q 43.0625 40.828125 37.75 38.8125 
Q 44.34375 36.671875 47.78125 31.875 
Q 51.21875 27.09375 51.21875 20.453125 
Q 51.21875 11.28125 44.71875 5.03125 
Q 38.234375 -1.21875 27.640625 -1.21875 
Q 17.046875 -1.21875 10.546875 5.046875 
Q 4.046875 11.328125 4.046875 20.703125 
Q 4.046875 27.6875 7.59375 32.390625 
Q 11.140625 37.109375 17.671875 38.8125 
z
M 15.921875 53.71875 
Q 15.921875 48.640625 19.1875 45.40625 
Q 22.46875 42.1875 27.6875 42.1875 
Q 32.765625 42.1875 36.015625 45.375 
Q 39.265625 48.578125 39.265625 53.21875 
Q 39.265625 58.0625 35.90625 61.359375 
Q 32.5625 64.65625 27.59375 64.65625 
Q 22.5625 64.65625 19.234375 61.421875 
Q 15.921875 58.203125 15.921875 53.71875 
z
M 13.09375 20.65625 
Q 13.09375 16.890625 14.875 13.375 
Q 16.65625 9.859375 20.171875 7.921875 
Q 23.6875 6 27.734375 6 
Q 34.03125 6 38.125 10.046875 
Q 42.234375 14.109375 42.234375 20.359375 
Q 42.234375 26.703125 38.015625 30.859375 
Q 33.796875 35.015625 27.4375 35.015625 
Q 21.234375 35.015625 17.15625 30.90625 
Q 13.09375 26.8125 13.09375 20.65625 
z
" id="ArialMT-56"/>
      </defs>
      <g style="fill:#262626;" transform="translate(266.670767 254.778217)scale(0.11 -0.11)">
       <use xlink:href="#ArialMT-49"/>
       <use x="55.615234" xlink:href="#ArialMT-56"/>
       <use x="111.230469" xlink:href="#ArialMT-48"/>
       <use x="166.845703" xlink:href="#ArialMT-176"/>
      </g>
     </g>
    </g>
    <g id="xtick_6">
     <g id="line2d_6">
      <path clip-path="url(#pe2e8a77a83)" d="M 442.8 251.934545 
L 337.968206 356.76634 
" style="fill:none;stroke:#ffffff;stroke-linecap:round;"/>
     </g>
     <g id="text_6">
      <!-- 225° -->
      <defs>
       <path d="M 50.34375 8.453125 
L 50.34375 0 
L 3.03125 0 
Q 2.9375 3.171875 4.046875 6.109375 
Q 5.859375 10.9375 9.828125 15.625 
Q 13.8125 20.3125 21.34375 26.46875 
Q 33.015625 36.03125 37.109375 41.625 
Q 41.21875 47.21875 41.21875 52.203125 
Q 41.21875 57.421875 37.46875 61 
Q 33.734375 64.59375 27.734375 64.59375 
Q 21.390625 64.59375 17.578125 60.78125 
Q 13.765625 56.984375 13.71875 50.25 
L 4.6875 51.171875 
Q 5.609375 61.28125 11.65625 66.578125 
Q 17.71875 71.875 27.9375 71.875 
Q 38.234375 71.875 44.234375 66.15625 
Q 50.25 60.453125 50.25 52 
Q 50.25 47.703125 48.484375 43.546875 
Q 46.734375 39.40625 42.65625 34.8125 
Q 38.578125 30.21875 29.109375 22.21875 
Q 21.1875 15.578125 18.9375 13.203125 
Q 16.703125 10.84375 15.234375 8.453125 
z
" id="ArialMT-50"/>
      </defs>
      <g style="fill:#262626;" transform="translate(314.926256 371.277274)scale(0.11 -0.11)">
       <use xlink:href="#ArialMT-50"/>
       <use x="55.615234" xlink:href="#ArialMT-50"/>
       <use x="111.230469" xlink:href="#ArialMT-53"/>
       <use x="166.845703" xlink:href="#ArialMT-176"/>
      </g>
     </g>
    </g>
    <g id="xtick_7">
     <g id="line2d_7">
      <path clip-path="url(#pe2e8a77a83)" d="M 442.8 251.934545 
L 442.8 400.189091 
" style="fill:none;stroke:#ffffff;stroke-linecap:round;"/>
     </g>
     <g id="text_7">
      <!-- 270° -->
      <defs>
       <path d="M 4.734375 62.203125 
L 4.734375 70.65625 
L 51.078125 70.65625 
L 51.078125 63.8125 
Q 44.234375 56.546875 37.515625 44.484375 
Q 30.8125 32.421875 27.15625 19.671875 
Q 24.515625 10.6875 23.78125 0 
L 14.75 0 
Q 14.890625 8.453125 18.0625 20.40625 
Q 21.234375 32.375 27.171875 43.484375 
Q 33.109375 54.59375 39.796875 62.203125 
z
" id="ArialMT-55"/>
      </defs>
      <g style="fill:#262626;" transform="translate(431.425312 419.532763)scale(0.11 -0.11)">
       <use xlink:href="#ArialMT-50"/>
       <use x="55.615234" xlink:href="#ArialMT-55"/>
       <use x="111.230469" xlink:href="#ArialMT-48"/>
       <use x="166.845703" xlink:href="#ArialMT-176"/>
      </g>
     </g>
    </g>
    <g id="xtick_8">
     <g id="line2d_8">
      <path clip-path="url(#pe2e8a77a83)" d="M 442.8 251.934545 
L 547.631794 356.76634 
" style="fill:none;stroke:#ffffff;stroke-linecap:round;"/>
     </g>
     <g id="text_8">
      <!-- 315° -->
      <g style="fill:#262626;" transform="translate(547.924369 371.277274)scale(0.11 -0.11)">
       <use xlink:href="#ArialMT-51"/>
       <use x="55.615234" xlink:href="#ArialMT-49"/>
       <use x="111.230469" xlink:href="#ArialMT-53"/>
       <use x="166.845703" xlink:href="#ArialMT-176"/>
      </g>
     </g>
    </g>
   </g>
   <g id="matplotlib.axis_2">
    <g id="ytick_1">
     <g id="line2d_9">
      <path clip-path="url(#pe2e8a77a83)" d="M 449.069398 251.934545 
L 448.974152 250.845876 
L 448.691307 249.790285 
L 448.229458 248.799847 
L 447.602637 247.904654 
L 446.829891 247.131908 
L 445.934699 246.505088 
L 444.94426 246.043239 
L 443.88867 245.760394 
L 442.8 245.665148 
L 441.71133 245.760394 
L 440.65574 246.043239 
L 439.665301 246.505088 
L 438.770109 247.131908 
L 437.997363 247.904654 
L 437.370542 248.799847 
L 436.908693 249.790285 
L 436.625848 250.845876 
L 436.530602 251.934545 
L 436.625848 253.023215 
L 436.908693 254.078806 
L 437.370542 255.069244 
L 437.997363 255.964437 
L 438.770109 256.737183 
L 439.665301 257.364003 
L 440.65574 257.825852 
L 441.71133 258.108697 
L 442.8 258.203943 
L 443.88867 258.108697 
L 444.94426 257.825852 
L 445.934699 257.364003 
L 446.829891 256.737183 
L 447.602637 255.964437 
L 448.229458 255.069244 
L 448.691307 254.078806 
L 448.974152 253.023215 
L 449.069398 251.934545 
L 449.069398 251.934545 
" style="fill:none;stroke:#ffffff;stroke-linecap:round;"/>
     </g>
     <g id="text_9">
      <!-- 0.0 -->
      <defs>
       <path d="M 9.078125 0 
L 9.078125 10.015625 
L 19.09375 10.015625 
L 19.09375 0 
z
" id="ArialMT-46"/>
      </defs>
      <g style="fill:#262626;" transform="translate(448.592168 247.349101)scale(0.11 -0.11)">
       <use xlink:href="#ArialMT-48"/>
       <use x="55.615234" xlink:href="#ArialMT-46"/>
       <use x="83.398438" xlink:href="#ArialMT-48"/>
      </g>
     </g>
    </g>
    <g id="ytick_2">
     <g id="line2d_10">
      <path clip-path="url(#pe2e8a77a83)" d="M 471.610449 251.934545 
L 471.452622 248.923034 
L 470.980871 245.944516 
L 470.200365 243.031627 
L 469.119655 240.21628 
L 467.75058 237.529321 
L 466.108143 235.000189 
L 464.210336 232.656592 
L 462.077953 230.52421 
L 459.734357 228.626403 
L 457.205224 226.983965 
L 454.518265 225.614891 
L 451.702918 224.534181 
L 448.790029 223.753674 
L 445.811512 223.281923 
L 442.8 223.124097 
L 439.788488 223.281923 
L 436.809971 223.753674 
L 433.897082 224.534181 
L 431.081735 225.614891 
L 428.394776 226.983965 
L 425.865643 228.626403 
L 423.522047 230.52421 
L 421.389664 232.656592 
L 419.491857 235.000189 
L 417.84942 237.529321 
L 416.480345 240.21628 
L 415.399635 243.031627 
L 414.619129 245.944516 
L 414.147378 248.923034 
L 413.989551 251.934545 
L 414.147378 254.946057 
L 414.619129 257.924575 
L 415.399635 260.837464 
L 416.480345 263.652811 
L 417.84942 266.33977 
L 419.491857 268.868902 
L 421.389664 271.212498 
L 423.522047 273.344881 
L 425.865643 275.242688 
L 428.394776 276.885126 
L 431.081735 278.2542 
L 433.897082 279.33491 
L 436.809971 280.115417 
L 439.788488 280.587167 
L 442.8 280.744994 
L 445.811512 280.587167 
L 448.790029 280.115417 
L 451.702918 279.33491 
L 454.518265 278.2542 
L 457.205224 276.885126 
L 459.734357 275.242688 
L 462.077953 273.344881 
L 464.210336 271.212498 
L 466.108143 268.868902 
L 467.75058 266.33977 
L 469.119655 263.652811 
L 470.200365 260.837464 
L 470.980871 257.924575 
L 471.452622 254.946057 
L 471.610449 251.934545 
L 471.610449 251.934545 
" style="fill:none;stroke:#ffffff;stroke-linecap:round;"/>
     </g>
     <g id="text_10">
      <!-- 0.5 -->
      <g style="fill:#262626;" transform="translate(469.417384 238.723014)scale(0.11 -0.11)">
       <use xlink:href="#ArialMT-48"/>
       <use x="55.615234" xlink:href="#ArialMT-46"/>
       <use x="83.398438" xlink:href="#ArialMT-53"/>
      </g>
     </g>
    </g>
    <g id="ytick_3">
     <g id="line2d_11">
      <path clip-path="url(#pe2e8a77a83)" d="M 494.151499 251.934545 
L 494.02641 248.352446 
L 493.65175 244.787798 
L 493.029346 241.257968 
L 492.162229 237.780154 
L 491.054625 234.371298 
L 489.711929 231.048009 
L 488.140683 227.826477 
L 486.348541 224.722397 
L 484.344236 221.750891 
L 482.137531 218.926438 
L 479.739177 216.262797 
L 477.16086 213.772944 
L 474.41514 211.469012 
L 471.515394 209.362223 
L 468.47575 207.462842 
L 465.311016 205.780124 
L 462.03661 204.322264 
L 458.668486 203.096367 
L 455.223052 202.108405 
L 451.717094 201.363191 
L 448.167693 200.864355 
L 444.592141 200.614328 
L 441.007859 200.614328 
L 437.432307 200.864355 
L 433.882906 201.363191 
L 430.376948 202.108405 
L 426.931514 203.096367 
L 423.56339 204.322264 
L 420.288984 205.780124 
L 417.12425 207.462842 
L 414.084606 209.362223 
L 411.18486 211.469012 
L 408.43914 213.772944 
L 405.860823 216.262797 
L 403.462469 218.926438 
L 401.255764 221.750891 
L 399.251459 224.722397 
L 397.459317 227.826477 
L 395.888071 231.048009 
L 394.545375 234.371298 
L 393.437771 237.780154 
L 392.570654 241.257968 
L 391.94825 244.787798 
L 391.57359 248.352446 
L 391.448501 251.934545 
L 391.57359 255.516645 
L 391.94825 259.081293 
L 392.570654 262.611123 
L 393.437771 266.088937 
L 394.545375 269.497793 
L 395.888071 272.821082 
L 397.459317 276.042614 
L 399.251459 279.146694 
L 401.255764 282.1182 
L 403.462469 284.942653 
L 405.860823 287.606294 
L 408.43914 290.096147 
L 411.18486 292.400079 
L 414.084606 294.506868 
L 417.12425 296.406248 
L 420.288984 298.088967 
L 423.56339 299.546827 
L 426.931514 300.772724 
L 430.376948 301.760686 
L 433.882906 302.5059 
L 437.432307 303.004736 
L 441.007859 303.254763 
L 444.592141 303.254763 
L 448.167693 303.004736 
L 451.717094 302.5059 
L 455.223052 301.760686 
L 458.668486 300.772724 
L 462.03661 299.546827 
L 465.311016 298.088967 
L 468.47575 296.406248 
L 471.515394 294.506868 
L 474.41514 292.400079 
L 477.16086 290.096147 
L 479.739177 287.606294 
L 482.137531 284.942653 
L 484.344236 282.1182 
L 486.348541 279.146694 
L 488.140683 276.042614 
L 489.711929 272.821082 
L 491.054625 269.497793 
L 492.162229 266.088937 
L 493.029346 262.611123 
L 493.65175 259.081293 
L 494.02641 255.516645 
L 494.151499 251.934545 
L 494.151499 251.934545 
" style="fill:none;stroke:#ffffff;stroke-linecap:round;"/>
     </g>
     <g id="text_11">
      <!-- 1.0 -->
      <g style="fill:#262626;" transform="translate(490.242599 230.096927)scale(0.11 -0.11)">
       <use xlink:href="#ArialMT-49"/>
       <use x="55.615234" xlink:href="#ArialMT-46"/>
       <use x="83.398438" xlink:href="#ArialMT-48"/>
      </g>
     </g>
    </g>
    <g id="ytick_4">
     <g id="line2d_12">
      <path clip-path="url(#pe2e8a77a83)" d="M 516.69255 251.934545 
L 516.512552 246.780062 
L 515.973433 241.65069 
L 515.077821 236.57142 
L 513.830078 231.566998 
L 512.236284 226.661805 
L 510.304204 221.879738 
L 508.043249 217.244094 
L 505.464437 212.77746 
L 502.580329 208.501594 
L 499.404977 204.43733 
L 495.953852 200.604467 
L 492.243767 197.021679 
L 488.292796 193.706421 
L 484.12019 190.674845 
L 479.746275 187.94172 
L 475.192362 185.520361 
L 470.480637 183.422566 
L 465.634054 181.658554 
L 460.676226 180.23692 
L 455.631307 179.164589 
L 450.523875 178.446786 
L 445.378813 178.087009 
L 440.221187 178.087009 
L 435.076125 178.446786 
L 429.968693 179.164589 
L 424.923774 180.23692 
L 419.965946 181.658554 
L 415.119363 183.422566 
L 410.407638 185.520361 
L 405.853725 187.94172 
L 401.47981 190.674845 
L 397.307204 193.706421 
L 393.356233 197.021679 
L 389.646148 200.604467 
L 386.195023 204.43733 
L 383.019671 208.501594 
L 380.135563 212.77746 
L 377.556751 217.244094 
L 375.295796 221.879738 
L 373.363716 226.661805 
L 371.769922 231.566998 
L 370.522179 236.57142 
L 369.626567 241.65069 
L 369.087448 246.780062 
L 368.90745 251.934545 
L 369.087448 257.089029 
L 369.626567 262.218401 
L 370.522179 267.297671 
L 371.769922 272.302093 
L 373.363716 277.207286 
L 375.295796 281.989353 
L 377.556751 286.624996 
L 380.135563 291.091631 
L 383.019671 295.367497 
L 386.195023 299.431761 
L 389.646148 303.264624 
L 393.356233 306.847412 
L 397.307204 310.16267 
L 401.47981 313.194246 
L 405.853725 315.927371 
L 410.407638 318.34873 
L 415.119363 320.446525 
L 419.965946 322.210537 
L 424.923774 323.632171 
L 429.968693 324.704502 
L 435.076125 325.422305 
L 440.221187 325.782082 
L 445.378813 325.782082 
L 450.523875 325.422305 
L 455.631307 324.704502 
L 460.676226 323.632171 
L 465.634054 322.210537 
L 470.480637 320.446525 
L 475.192362 318.34873 
L 479.746275 315.927371 
L 484.12019 313.194246 
L 488.292796 310.16267 
L 492.243767 306.847412 
L 495.953852 303.264624 
L 499.404977 299.431761 
L 502.580329 295.367497 
L 505.464437 291.091631 
L 508.043249 286.624996 
L 510.304204 281.989353 
L 512.236284 277.207286 
L 513.830078 272.302093 
L 515.077821 267.297671 
L 515.973433 262.218401 
L 516.512552 257.089029 
L 516.69255 251.934545 
L 516.69255 251.934545 
" style="fill:none;stroke:#ffffff;stroke-linecap:round;"/>
     </g>
     <g id="text_12">
      <!-- 1.5 -->
      <g style="fill:#262626;" transform="translate(511.067815 221.470841)scale(0.11 -0.11)">
       <use xlink:href="#ArialMT-49"/>
       <use x="55.615234" xlink:href="#ArialMT-46"/>
       <use x="83.398438" xlink:href="#ArialMT-53"/>
      </g>
     </g>
    </g>
    <g id="ytick_5">
     <g id="line2d_13">
      <path clip-path="url(#pe2e8a77a83)" d="M 539.233601 251.934545 
L 539.174856 248.569061 
L 538.998694 245.207678 
L 538.705328 241.854489 
L 538.295116 238.513582 
L 537.768558 235.189026 
L 537.126295 231.884872 
L 536.369111 228.605146 
L 535.497927 225.353843 
L 534.513805 222.134924 
L 533.417943 218.952311 
L 532.211678 215.809883 
L 530.896478 212.711466 
L 529.473946 209.660837 
L 527.945816 206.661712 
L 526.313948 203.717745 
L 524.580332 200.832523 
L 522.747078 198.00956 
L 520.816422 195.252297 
L 518.790715 192.564092 
L 516.672424 189.948222 
L 514.464132 187.407872 
L 512.168527 184.946137 
L 509.788408 182.566018 
L 507.326674 180.270414 
L 504.786324 178.062121 
L 502.170453 175.943831 
L 499.482248 173.918123 
L 496.724985 171.987467 
L 493.902023 170.154214 
L 491.0168 168.420597 
L 488.072833 166.78873 
L 485.073708 165.260599 
L 482.023079 163.838067 
L 478.924663 162.522868 
L 475.782234 161.316602 
L 472.599622 160.220741 
L 469.380703 159.236619 
L 466.1294 158.365435 
L 462.849673 157.60825 
L 459.545519 156.965988 
L 456.220963 156.43943 
L 452.880056 156.029218 
L 449.526868 155.735852 
L 446.165484 155.559689 
L 442.8 155.500945 
L 439.434516 155.559689 
L 436.073132 155.735852 
L 432.719944 156.029218 
L 429.379037 156.43943 
L 426.054481 156.965988 
L 422.750327 157.60825 
L 419.4706 158.365435 
L 416.219297 159.236619 
L 413.000378 160.220741 
L 409.817766 161.316602 
L 406.675337 162.522868 
L 403.576921 163.838067 
L 400.526292 165.260599 
L 397.527167 166.78873 
L 394.5832 168.420597 
L 391.697977 170.154214 
L 388.875015 171.987467 
L 386.117752 173.918123 
L 383.429547 175.943831 
L 380.813676 178.062121 
L 378.273326 180.270414 
L 375.811592 182.566018 
L 373.431473 184.946137 
L 371.135868 187.407872 
L 368.927576 189.948222 
L 366.809285 192.564092 
L 364.783578 195.252297 
L 362.852922 198.00956 
L 361.019668 200.832523 
L 359.286052 203.717745 
L 357.654184 206.661712 
L 356.126054 209.660837 
L 354.703522 212.711466 
L 353.388322 215.809883 
L 352.182057 218.952311 
L 351.086195 222.134924 
L 350.102073 225.353843 
L 349.230889 228.605146 
L 348.473705 231.884872 
L 347.831442 235.189026 
L 347.304884 238.513582 
L 346.894672 241.854489 
L 346.601306 245.207678 
L 346.425144 248.569061 
L 346.366399 251.934545 
L 346.425144 255.30003 
L 346.601306 258.661413 
L 346.894672 262.014602 
L 347.304884 265.355509 
L 347.831442 268.680065 
L 348.473705 271.984218 
L 349.230889 275.263945 
L 350.102073 278.515248 
L 351.086195 281.734167 
L 352.182057 284.916779 
L 353.388322 288.059208 
L 354.703522 291.157625 
L 356.126054 294.208254 
L 357.654184 297.207379 
L 359.286052 300.151346 
L 361.019668 303.036568 
L 362.852922 305.859531 
L 364.783578 308.616794 
L 366.809285 311.304998 
L 368.927576 313.920869 
L 371.135868 316.461219 
L 373.431473 318.922954 
L 375.811592 321.303073 
L 378.273326 323.598677 
L 380.813676 325.80697 
L 383.429547 327.92526 
L 386.117752 329.950967 
L 388.875015 331.881624 
L 391.697977 333.714877 
L 394.5832 335.448494 
L 397.527167 337.080361 
L 400.526292 338.608492 
L 403.576921 340.031024 
L 406.675337 341.346223 
L 409.817766 342.552489 
L 413.000378 343.64835 
L 416.219297 344.632472 
L 419.4706 345.503656 
L 422.750327 346.260841 
L 426.054481 346.903103 
L 429.379037 347.429661 
L 432.719944 347.839873 
L 436.073132 348.133239 
L 439.434516 348.309402 
L 442.8 348.368146 
L 446.165484 348.309402 
L 449.526868 348.133239 
L 452.880056 347.839873 
L 456.220963 347.429661 
L 459.545519 346.903103 
L 462.849673 346.260841 
L 466.1294 345.503656 
L 469.380703 344.632472 
L 472.599622 343.64835 
L 475.782234 342.552489 
L 478.924663 341.346223 
L 482.023079 340.031024 
L 485.073708 338.608492 
L 488.072833 337.080361 
L 491.0168 335.448494 
L 493.902023 333.714877 
L 496.724985 331.881624 
L 499.482248 329.950967 
L 502.170453 327.92526 
L 504.786324 325.80697 
L 507.326674 323.598677 
L 509.788408 321.303073 
L 512.168527 318.922954 
L 514.464132 316.461219 
L 516.672424 313.920869 
L 518.790715 311.304998 
L 520.816422 308.616794 
L 522.747078 305.859531 
L 524.580332 303.036568 
L 526.313948 300.151346 
L 527.945816 297.207379 
L 529.473946 294.208254 
L 530.896478 291.157625 
L 532.211678 288.059208 
L 533.417943 284.916779 
L 534.513805 281.734167 
L 535.497927 278.515248 
L 536.369111 275.263945 
L 537.126295 271.984218 
L 537.768558 268.680065 
L 538.295116 265.355509 
L 538.705328 262.014602 
L 538.998694 258.661413 
L 539.174856 255.30003 
L 539.233601 251.934545 
L 539.233601 251.934545 
" style="fill:none;stroke:#ffffff;stroke-linecap:round;"/>
     </g>
     <g id="text_13">
      <!-- 2.0 -->
      <g style="fill:#262626;" transform="translate(531.89303 212.844754)scale(0.11 -0.11)">
       <use xlink:href="#ArialMT-50"/>
       <use x="55.615234" xlink:href="#ArialMT-46"/>
       <use x="83.398438" xlink:href="#ArialMT-48"/>
      </g>
     </g>
    </g>
    <g id="ytick_6">
     <g id="line2d_14">
      <path clip-path="url(#pe2e8a77a83)" d="M 561.774652 251.934545 
L 561.702176 247.78239 
L 561.484835 243.635293 
L 561.122896 239.498308 
L 560.616799 235.376474 
L 559.967159 231.274814 
L 559.17477 227.198324 
L 558.240596 223.151972 
L 557.165775 219.140687 
L 555.951618 215.169356 
L 554.599602 211.242818 
L 553.111376 207.365856 
L 551.488753 203.543195 
L 549.733709 199.779491 
L 547.848382 196.07933 
L 545.835071 192.44722 
L 543.696227 188.887586 
L 541.434456 185.404765 
L 539.052515 182.003 
L 536.553305 178.686436 
L 533.939871 175.459113 
L 531.215397 172.324965 
L 528.383202 169.287808 
L 525.446738 166.351343 
L 522.409581 163.519149 
L 519.275432 160.794675 
L 516.04811 158.18124 
L 512.731546 155.68203 
L 509.329781 153.300089 
L 505.84696 151.038319 
L 502.287326 148.899475 
L 498.655216 146.886163 
L 494.955055 145.000837 
L 491.19135 143.245793 
L 487.368689 141.623169 
L 483.491727 140.134943 
L 479.565189 138.782928 
L 475.593858 137.56877 
L 471.582573 136.493949 
L 467.536221 135.559775 
L 463.459731 134.767386 
L 459.358071 134.117747 
L 455.236238 133.611649 
L 451.099252 133.24971 
L 446.952155 133.03237 
L 442.8 132.959894 
L 438.647845 133.03237 
L 434.500748 133.24971 
L 430.363762 133.611649 
L 426.241929 134.117747 
L 422.140269 134.767386 
L 418.063779 135.559775 
L 414.017427 136.493949 
L 410.006142 137.56877 
L 406.034811 138.782928 
L 402.108273 140.134943 
L 398.231311 141.623169 
L 394.40865 143.245793 
L 390.644945 145.000837 
L 386.944784 146.886163 
L 383.312674 148.899475 
L 379.75304 151.038319 
L 376.270219 153.300089 
L 372.868454 155.68203 
L 369.55189 158.18124 
L 366.324568 160.794675 
L 363.190419 163.519149 
L 360.153262 166.351343 
L 357.216798 169.287808 
L 354.384603 172.324965 
L 351.660129 175.459113 
L 349.046695 178.686436 
L 346.547485 182.003 
L 344.165544 185.404765 
L 341.903773 188.887586 
L 339.764929 192.44722 
L 337.751618 196.07933 
L 335.866291 199.779491 
L 334.111247 203.543195 
L 332.488624 207.365856 
L 331.000398 211.242818 
L 329.648382 215.169356 
L 328.434225 219.140687 
L 327.359404 223.151972 
L 326.42523 227.198324 
L 325.632841 231.274814 
L 324.983201 235.376474 
L 324.477104 239.498308 
L 324.115165 243.635293 
L 323.897824 247.78239 
L 323.825348 251.934545 
L 323.897824 256.086701 
L 324.115165 260.233798 
L 324.477104 264.370783 
L 324.983201 268.492617 
L 325.632841 272.594277 
L 326.42523 276.670766 
L 327.359404 280.717119 
L 328.434225 284.728404 
L 329.648382 288.699735 
L 331.000398 292.626273 
L 332.488624 296.503234 
L 334.111247 300.325896 
L 335.866291 304.0896 
L 337.751618 307.789761 
L 339.764929 311.421871 
L 341.903773 314.981505 
L 344.165544 318.464326 
L 346.547485 321.866091 
L 349.046695 325.182655 
L 351.660129 328.409977 
L 354.384603 331.544126 
L 357.216798 334.581283 
L 360.153262 337.517748 
L 363.190419 340.349942 
L 366.324568 343.074416 
L 369.55189 345.68785 
L 372.868454 348.187061 
L 376.270219 350.569002 
L 379.75304 352.830772 
L 383.312674 354.969616 
L 386.944784 356.982928 
L 390.644945 358.868254 
L 394.40865 360.623298 
L 398.231311 362.245922 
L 402.108273 363.734148 
L 406.034811 365.086163 
L 410.006142 366.300321 
L 414.017427 367.375142 
L 418.063779 368.309316 
L 422.140269 369.101705 
L 426.241929 369.751344 
L 430.363762 370.257442 
L 434.500748 370.619381 
L 438.647845 370.836721 
L 442.8 370.909197 
L 446.952155 370.836721 
L 451.099252 370.619381 
L 455.236238 370.257442 
L 459.358071 369.751344 
L 463.459731 369.101705 
L 467.536221 368.309316 
L 471.582573 367.375142 
L 475.593858 366.300321 
L 479.565189 365.086163 
L 483.491727 363.734148 
L 487.368689 362.245922 
L 491.19135 360.623298 
L 494.955055 358.868254 
L 498.655216 356.982928 
L 502.287326 354.969616 
L 505.84696 352.830772 
L 509.329781 350.569002 
L 512.731546 348.187061 
L 516.04811 345.68785 
L 519.275432 343.074416 
L 522.409581 340.349942 
L 525.446738 337.517748 
L 528.383202 334.581283 
L 531.215397 331.544126 
L 533.939871 328.409977 
L 536.553305 325.182655 
L 539.052515 321.866091 
L 541.434456 318.464326 
L 543.696227 314.981505 
L 545.835071 311.421871 
L 547.848382 307.789761 
L 549.733709 304.0896 
L 551.488753 300.325896 
L 553.111376 296.503234 
L 554.599602 292.626273 
L 555.951618 288.699735 
L 557.165775 284.728404 
L 558.240596 280.717119 
L 559.17477 276.670766 
L 559.967159 272.594277 
L 560.616799 268.492617 
L 561.122896 264.370783 
L 561.484835 260.233798 
L 561.702176 256.086701 
L 561.774652 251.934545 
L 561.774652 251.934545 
" style="fill:none;stroke:#ffffff;stroke-linecap:round;"/>
     </g>
     <g id="text_14">
      <!-- 2.5 -->
      <g style="fill:#262626;" transform="translate(552.718246 204.218667)scale(0.11 -0.11)">
       <use xlink:href="#ArialMT-50"/>
       <use x="55.615234" xlink:href="#ArialMT-46"/>
       <use x="83.398438" xlink:href="#ArialMT-53"/>
      </g>
     </g>
    </g>
    <g id="ytick_7">
     <g id="line2d_15">
      <path clip-path="url(#pe2e8a77a83)" d="M 584.315702 251.934545 
L 584.229495 246.995719 
L 583.970977 242.062909 
L 583.540465 237.142127 
L 582.938481 232.239366 
L 582.165761 227.360602 
L 581.223245 222.511776 
L 580.112081 217.698798 
L 578.833624 212.927531 
L 577.389431 208.203788 
L 575.781261 203.533325 
L 574.011075 198.92183 
L 572.081027 194.374924 
L 569.993471 189.898145 
L 567.750949 185.496947 
L 565.356193 181.176694 
L 562.812122 176.942649 
L 560.121834 172.799969 
L 557.288608 168.753703 
L 554.315895 164.808779 
L 551.207317 160.970005 
L 547.966662 157.242058 
L 544.597877 153.629478 
L 541.105067 150.136668 
L 537.492488 146.767883 
L 533.76454 143.527228 
L 529.925766 140.41865 
L 525.980843 137.445937 
L 521.934577 134.612711 
L 517.791897 131.922423 
L 513.557851 129.378352 
L 509.237598 126.983597 
L 504.836401 124.741075 
L 500.359622 122.653518 
L 495.812715 120.723471 
L 491.201221 118.953284 
L 486.530757 117.345114 
L 481.807014 115.900921 
L 477.035747 114.622464 
L 472.222769 113.511301 
L 467.373944 112.568784 
L 462.495179 111.796064 
L 457.592419 111.194081 
L 452.671636 110.763568 
L 447.738827 110.505051 
L 442.8 110.418843 
L 437.861173 110.505051 
L 432.928364 110.763568 
L 428.007581 111.194081 
L 423.104821 111.796064 
L 418.226056 112.568784 
L 413.377231 113.511301 
L 408.564253 114.622464 
L 403.792986 115.900921 
L 399.069243 117.345114 
L 394.398779 118.953284 
L 389.787285 120.723471 
L 385.240378 122.653518 
L 380.763599 124.741075 
L 376.362402 126.983597 
L 372.042149 129.378352 
L 367.808103 131.922423 
L 363.665423 134.612711 
L 359.619157 137.445937 
L 355.674234 140.41865 
L 351.83546 143.527228 
L 348.107512 146.767883 
L 344.494933 150.136668 
L 341.002123 153.629478 
L 337.633338 157.242058 
L 334.392683 160.970005 
L 331.284105 164.808779 
L 328.311392 168.753703 
L 325.478166 172.799969 
L 322.787878 176.942649 
L 320.243807 181.176694 
L 317.849051 185.496947 
L 315.606529 189.898145 
L 313.518973 194.374924 
L 311.588925 198.92183 
L 309.818739 203.533325 
L 308.210569 208.203788 
L 306.766376 212.927531 
L 305.487919 217.698798 
L 304.376755 222.511776 
L 303.434239 227.360602 
L 302.661519 232.239366 
L 302.059535 237.142127 
L 301.629023 242.062909 
L 301.370505 246.995719 
L 301.284298 251.934545 
L 301.370505 256.873372 
L 301.629023 261.806182 
L 302.059535 266.726964 
L 302.661519 271.629725 
L 303.434239 276.508489 
L 304.376755 281.357314 
L 305.487919 286.170292 
L 306.766376 290.941559 
L 308.210569 295.665302 
L 309.818739 300.335766 
L 311.588925 304.947261 
L 313.518973 309.494167 
L 315.606529 313.970946 
L 317.849051 318.372143 
L 320.243807 322.692397 
L 322.787878 326.926442 
L 325.478166 331.069122 
L 328.311392 335.115388 
L 331.284105 339.060312 
L 334.392683 342.899086 
L 337.633338 346.627033 
L 341.002123 350.239613 
L 344.494933 353.732423 
L 348.107512 357.101207 
L 351.83546 360.341863 
L 355.674234 363.450441 
L 359.619157 366.423154 
L 363.665423 369.25638 
L 367.808103 371.946668 
L 372.042149 374.490739 
L 376.362402 376.885494 
L 380.763599 379.128016 
L 385.240378 381.215573 
L 389.787285 383.14562 
L 394.398779 384.915807 
L 399.069243 386.523976 
L 403.792986 387.96817 
L 408.564253 389.246627 
L 413.377231 390.35779 
L 418.226056 391.300306 
L 423.104821 392.073027 
L 428.007581 392.67501 
L 432.928364 393.105523 
L 437.861173 393.36404 
L 442.8 393.450248 
L 447.738827 393.36404 
L 452.671636 393.105523 
L 457.592419 392.67501 
L 462.495179 392.073027 
L 467.373944 391.300306 
L 472.222769 390.35779 
L 477.035747 389.246627 
L 481.807014 387.96817 
L 486.530757 386.523976 
L 491.201221 384.915807 
L 495.812715 383.14562 
L 500.359622 381.215573 
L 504.836401 379.128016 
L 509.237598 376.885494 
L 513.557851 374.490739 
L 517.791897 371.946668 
L 521.934577 369.25638 
L 525.980843 366.423154 
L 529.925766 363.450441 
L 533.76454 360.341863 
L 537.492488 357.101207 
L 541.105067 353.732423 
L 544.597877 350.239613 
L 547.966662 346.627033 
L 551.207317 342.899086 
L 554.315895 339.060312 
L 557.288608 335.115388 
L 560.121834 331.069122 
L 562.812122 326.926442 
L 565.356193 322.692397 
L 567.750949 318.372143 
L 569.993471 313.970946 
L 572.081027 309.494167 
L 574.011075 304.947261 
L 575.781261 300.335766 
L 577.389431 295.665302 
L 578.833624 290.941559 
L 580.112081 286.170292 
L 581.223245 281.357314 
L 582.165761 276.508489 
L 582.938481 271.629725 
L 583.540465 266.726964 
L 583.970977 261.806182 
L 584.229495 256.873372 
L 584.315702 251.934545 
L 584.315702 251.934545 
" style="fill:none;stroke:#ffffff;stroke-linecap:round;"/>
     </g>
     <g id="text_15">
      <!-- 3.0 -->
      <g style="fill:#262626;" transform="translate(573.543461 195.592581)scale(0.11 -0.11)">
       <use xlink:href="#ArialMT-51"/>
       <use x="55.615234" xlink:href="#ArialMT-46"/>
       <use x="83.398438" xlink:href="#ArialMT-48"/>
      </g>
     </g>
    </g>
   </g>
   <g id="line2d_16">
    <defs>
     <path d="M 0 3 
C 0.795609 3 1.55874 2.683901 2.12132 2.12132 
C 2.683901 1.55874 3 0.795609 3 0 
C 3 -0.795609 2.683901 -1.55874 2.12132 -2.12132 
C 1.55874 -2.683901 0.795609 -3 0 -3 
C -0.795609 -3 -1.55874 -2.683901 -2.12132 -2.12132 
C -2.683901 -1.55874 -3 -0.795609 -3 0 
C -3 0.795609 -2.683901 1.55874 -2.12132 2.12132 
C -1.55874 2.683901 -0.795609 3 0 3 
z
" id="m88323b7bb2" style="stroke:#4c72b0;"/>
    </defs>
    <g clip-path="url(#pe2e8a77a83)">
     <use style="fill:#4c72b0;stroke:#4c72b0;" x="442.8" xlink:href="#m88323b7bb2" y="110.418843"/>
     <use style="fill:#4c72b0;stroke:#4c72b0;" x="535.392678" xlink:href="#m88323b7bb2" y="278.879588"/>
    </g>
   </g>
   <g id="line2d_17">
    <path clip-path="url(#pe2e8a77a83)" d="M 492.588947 251.934545 
L 491.65855 249.651281 
L 490.53919 247.492233 
L 489.262635 245.468932 
L 487.860208 243.588222 
L 485.846203 241.30627 
L 483.727332 239.277748 
L 481.561147 237.488946 
L 478.85929 235.558047 
L 475.717901 233.621912 
L 471.823588 231.534653 
L 465.588772 228.52303 
L 454.229711 223.212038 
L 451.685227 222.341304 
L 449.472964 221.798289 
L 447.321479 221.492475 
L 445.252576 221.427949 
L 443.290129 221.595336 
L 441.455895 221.974436 
L 439.766893 222.537526 
L 438.053884 223.351073 
L 436.544999 224.309677 
L 435.104858 225.489648 
L 433.792495 226.86309 
L 432.653981 228.381882 
L 431.656351 230.103393 
L 430.865719 231.927786 
L 430.283354 233.830305 
L 429.89923 235.85946 
L 429.736043 237.949571 
L 429.798494 240.066228 
L 430.080784 242.151088 
L 430.586834 244.234813 
L 431.308502 246.268041 
L 432.259305 248.276352 
L 433.476917 250.312688 
L 435.383383 253.002173 
L 437.19184 255.67857 
L 438.249042 257.611089 
L 439.365456 260.197308 
L 440.829133 263.429176 
L 442.091197 265.691307 
L 443.432169 267.701676 
L 444.894486 269.567766 
L 446.741719 271.57192 
L 448.540414 273.236034 
L 450.655898 274.908309 
L 453.109527 276.533395 
L 455.178296 277.681122 
L 457.442144 278.732123 
L 459.894166 279.65105 
L 462.520826 280.40054 
L 465.301222 280.942308 
L 468.206561 281.238493 
L 471.199926 281.253237 
L 474.236415 280.954436 
L 476.259136 280.56767 
L 478.260764 280.023536 
L 480.22309 279.317662 
L 482.12707 278.447604 
L 483.953107 277.413034 
L 485.681375 276.215901 
L 487.292176 274.860542 
L 488.766328 273.353744 
L 490.085569 271.704749 
L 491.23298 269.925199 
L 492.193393 268.029009 
L 492.953799 266.032173 
L 493.503719 263.952498 
L 493.835533 261.809279 
L 493.944757 259.622902 
L 493.830246 257.414404 
L 493.494322 255.204989 
L 492.942799 253.015513 
L 492.588947 251.934545 
L 492.588947 251.934545 
" style="fill:none;stroke:#dd8452;stroke-linecap:round;stroke-width:1.5;"/>
   </g>
   <g id="line2d_18">
    <defs>
     <path d="M -3 3 
L 3 -3 
M -3 -3 
L 3 3 
" id="mf4edbe306c" style="stroke:#55a868;"/>
    </defs>
    <g clip-path="url(#pe2e8a77a83)">
     <use style="fill:#55a868;stroke:#55a868;" x="399.215556" xlink:href="#mf4edbe306c" y="279.089153"/>
    </g>
   </g>
   <g id="patch_3">
    <path d="M 591.054545 251.934545 
C 591.054545 232.465937 587.219654 213.186636 579.76934 195.199987 
C 572.319026 177.213338 561.39818 160.869136 547.631794 147.102751 
C 533.865409 133.336366 517.521207 122.415519 499.534558 114.965205 
C 481.547909 107.514891 462.268609 103.68 442.8 103.68 
C 423.331391 103.68 404.052091 107.514891 386.065442 114.965205 
C 368.078793 122.415519 351.734591 133.336366 337.968206 147.102751 
C 324.20182 160.869136 313.280974 177.213338 305.83066 195.199987 
C 298.380346 213.186636 294.545455 232.465937 294.545455 251.934545 
C 294.545455 271.403154 298.380346 290.682455 305.83066 308.669104 
C 313.280974 326.655753 324.20182 342.999955 337.968206 356.76634 
C 351.734591 370.532725 368.078793 381.453572 386.065442 388.903886 
C 404.052091 396.3542 423.331391 400.189091 442.8 400.189091 
C 462.268609 400.189091 481.547909 396.3542 499.534558 388.903886 
C 517.521207 381.453572 533.865409 370.532725 547.631794 356.76634 
C 561.39818 342.999955 572.319026 326.655753 579.76934 308.669104 
C 587.219654 290.682455 591.054545 271.403154 591.054545 251.934545 
" style="fill:none;stroke:#ffffff;stroke-linecap:square;stroke-linejoin:miter;stroke-width:1.25;"/>
   </g>
  </g>
  <g id="axes_2">
   <g id="patch_4">
    <path d="M 108 756 
L 777.6 756 
L 777.6 459.490909 
L 108 459.490909 
z
" style="fill:#eaeaf2;"/>
   </g>
   <g id="matplotlib.axis_3">
    <g id="xtick_9">
     <g id="line2d_19">
      <path clip-path="url(#pd78e2f45d1)" d="M 138.436364 756 
L 138.436364 459.490909 
" style="fill:none;stroke:#ffffff;stroke-linecap:round;"/>
     </g>
     <g id="text_16">
      <!-- 0 -->
      <g style="fill:#262626;" transform="translate(135.377848 773.373594)scale(0.11 -0.11)">
       <use xlink:href="#ArialMT-48"/>
      </g>
     </g>
    </g>
    <g id="xtick_10">
     <g id="line2d_20">
      <path clip-path="url(#pd78e2f45d1)" d="M 235.318318 756 
L 235.318318 459.490909 
" style="fill:none;stroke:#ffffff;stroke-linecap:round;"/>
     </g>
     <g id="text_17">
      <!-- 1 -->
      <g style="fill:#262626;" transform="translate(232.259802 773.373594)scale(0.11 -0.11)">
       <use xlink:href="#ArialMT-49"/>
      </g>
     </g>
    </g>
    <g id="xtick_11">
     <g id="line2d_21">
      <path clip-path="url(#pd78e2f45d1)" d="M 332.200273 756 
L 332.200273 459.490909 
" style="fill:none;stroke:#ffffff;stroke-linecap:round;"/>
     </g>
     <g id="text_18">
      <!-- 2 -->
      <g style="fill:#262626;" transform="translate(329.141757 773.373594)scale(0.11 -0.11)">
       <use xlink:href="#ArialMT-50"/>
      </g>
     </g>
    </g>
    <g id="xtick_12">
     <g id="line2d_22">
      <path clip-path="url(#pd78e2f45d1)" d="M 429.082227 756 
L 429.082227 459.490909 
" style="fill:none;stroke:#ffffff;stroke-linecap:round;"/>
     </g>
     <g id="text_19">
      <!-- 3 -->
      <g style="fill:#262626;" transform="translate(426.023711 773.373594)scale(0.11 -0.11)">
       <use xlink:href="#ArialMT-51"/>
      </g>
     </g>
    </g>
    <g id="xtick_13">
     <g id="line2d_23">
      <path clip-path="url(#pd78e2f45d1)" d="M 525.964181 756 
L 525.964181 459.490909 
" style="fill:none;stroke:#ffffff;stroke-linecap:round;"/>
     </g>
     <g id="text_20">
      <!-- 4 -->
      <g style="fill:#262626;" transform="translate(522.905666 773.373594)scale(0.11 -0.11)">
       <use xlink:href="#ArialMT-52"/>
      </g>
     </g>
    </g>
    <g id="xtick_14">
     <g id="line2d_24">
      <path clip-path="url(#pd78e2f45d1)" d="M 622.846136 756 
L 622.846136 459.490909 
" style="fill:none;stroke:#ffffff;stroke-linecap:round;"/>
     </g>
     <g id="text_21">
      <!-- 5 -->
      <g style="fill:#262626;" transform="translate(619.78762 773.373594)scale(0.11 -0.11)">
       <use xlink:href="#ArialMT-53"/>
      </g>
     </g>
    </g>
    <g id="xtick_15">
     <g id="line2d_25">
      <path clip-path="url(#pd78e2f45d1)" d="M 719.72809 756 
L 719.72809 459.490909 
" style="fill:none;stroke:#ffffff;stroke-linecap:round;"/>
     </g>
     <g id="text_22">
      <!-- 6 -->
      <defs>
       <path d="M 49.75 54.046875 
L 41.015625 53.375 
Q 39.84375 58.546875 37.703125 60.890625 
Q 34.125 64.65625 28.90625 64.65625 
Q 24.703125 64.65625 21.53125 62.3125 
Q 17.390625 59.28125 14.984375 53.46875 
Q 12.59375 47.65625 12.5 36.921875 
Q 15.671875 41.75 20.265625 44.09375 
Q 24.859375 46.4375 29.890625 46.4375 
Q 38.671875 46.4375 44.84375 39.96875 
Q 51.03125 33.5 51.03125 23.25 
Q 51.03125 16.5 48.125 10.71875 
Q 45.21875 4.9375 40.140625 1.859375 
Q 35.0625 -1.21875 28.609375 -1.21875 
Q 17.625 -1.21875 10.6875 6.859375 
Q 3.765625 14.9375 3.765625 33.5 
Q 3.765625 54.25 11.421875 63.671875 
Q 18.109375 71.875 29.4375 71.875 
Q 37.890625 71.875 43.28125 67.140625 
Q 48.6875 62.40625 49.75 54.046875 
z
M 13.875 23.1875 
Q 13.875 18.65625 15.796875 14.5 
Q 17.71875 10.359375 21.1875 8.171875 
Q 24.65625 6 28.46875 6 
Q 34.03125 6 38.03125 10.484375 
Q 42.046875 14.984375 42.046875 22.703125 
Q 42.046875 30.125 38.078125 34.390625 
Q 34.125 38.671875 28.125 38.671875 
Q 22.171875 38.671875 18.015625 34.390625 
Q 13.875 30.125 13.875 23.1875 
z
" id="ArialMT-54"/>
      </defs>
      <g style="fill:#262626;" transform="translate(716.669575 773.373594)scale(0.11 -0.11)">
       <use xlink:href="#ArialMT-54"/>
      </g>
     </g>
    </g>
    <g id="text_23">
     <!-- $\theta$ -->
     <defs>
      <path d="M 45.515625 34.671875 
L 14.453125 34.671875 
Q 12.359375 20.0625 14.5 13.875 
Q 17.1875 6.25 24.46875 6.25 
Q 31.78125 6.25 37.359375 13.921875 
Q 42.234375 20.65625 45.515625 34.671875 
z
M 47.015625 42.96875 
Q 48.34375 56.84375 46.625 61.71875 
Q 43.953125 69.4375 36.765625 69.4375 
Q 29.296875 69.4375 23.828125 61.8125 
Q 19.53125 55.671875 16.15625 42.96875 
z
M 38.1875 76.765625 
Q 49.90625 76.765625 54.59375 66.40625 
Q 59.28125 56.109375 55.71875 37.84375 
Q 52.203125 19.625 43.453125 9.28125 
Q 34.765625 -1.125 23.046875 -1.125 
Q 11.28125 -1.125 6.640625 9.28125 
Q 2 19.625 5.515625 37.84375 
Q 9.078125 56.109375 17.71875 66.40625 
Q 26.421875 76.765625 38.1875 76.765625 
z
" id="DejaVuSans-Oblique-952"/>
     </defs>
     <g style="fill:#262626;" transform="translate(439.08 788.149219)scale(0.12 -0.12)">
      <use transform="translate(0 0.234375)" xlink:href="#DejaVuSans-Oblique-952"/>
     </g>
    </g>
   </g>
   <g id="matplotlib.axis_4">
    <g id="ytick_8">
     <g id="line2d_26">
      <path clip-path="url(#pd78e2f45d1)" d="M 108 743.461204 
L 777.6 743.461204 
" style="fill:none;stroke:#ffffff;stroke-linecap:round;"/>
     </g>
     <g id="text_24">
      <!-- 0.0 -->
      <g style="fill:#262626;" transform="translate(83.21 747.398001)scale(0.11 -0.11)">
       <use xlink:href="#ArialMT-48"/>
       <use x="55.615234" xlink:href="#ArialMT-46"/>
       <use x="83.398438" xlink:href="#ArialMT-48"/>
      </g>
     </g>
    </g>
    <g id="ytick_9">
     <g id="line2d_27">
      <path clip-path="url(#pd78e2f45d1)" d="M 108 698.379103 
L 777.6 698.379103 
" style="fill:none;stroke:#ffffff;stroke-linecap:round;"/>
     </g>
     <g id="text_25">
      <!-- 0.5 -->
      <g style="fill:#262626;" transform="translate(83.21 702.3159)scale(0.11 -0.11)">
       <use xlink:href="#ArialMT-48"/>
       <use x="55.615234" xlink:href="#ArialMT-46"/>
       <use x="83.398438" xlink:href="#ArialMT-53"/>
      </g>
     </g>
    </g>
    <g id="ytick_10">
     <g id="line2d_28">
      <path clip-path="url(#pd78e2f45d1)" d="M 108 653.297001 
L 777.6 653.297001 
" style="fill:none;stroke:#ffffff;stroke-linecap:round;"/>
     </g>
     <g id="text_26">
      <!-- 1.0 -->
      <g style="fill:#262626;" transform="translate(83.21 657.233798)scale(0.11 -0.11)">
       <use xlink:href="#ArialMT-49"/>
       <use x="55.615234" xlink:href="#ArialMT-46"/>
       <use x="83.398438" xlink:href="#ArialMT-48"/>
      </g>
     </g>
    </g>
    <g id="ytick_11">
     <g id="line2d_29">
      <path clip-path="url(#pd78e2f45d1)" d="M 108 608.2149 
L 777.6 608.2149 
" style="fill:none;stroke:#ffffff;stroke-linecap:round;"/>
     </g>
     <g id="text_27">
      <!-- 1.5 -->
      <g style="fill:#262626;" transform="translate(83.21 612.151696)scale(0.11 -0.11)">
       <use xlink:href="#ArialMT-49"/>
       <use x="55.615234" xlink:href="#ArialMT-46"/>
       <use x="83.398438" xlink:href="#ArialMT-53"/>
      </g>
     </g>
    </g>
    <g id="ytick_12">
     <g id="line2d_30">
      <path clip-path="url(#pd78e2f45d1)" d="M 108 563.132798 
L 777.6 563.132798 
" style="fill:none;stroke:#ffffff;stroke-linecap:round;"/>
     </g>
     <g id="text_28">
      <!-- 2.0 -->
      <g style="fill:#262626;" transform="translate(83.21 567.069595)scale(0.11 -0.11)">
       <use xlink:href="#ArialMT-50"/>
       <use x="55.615234" xlink:href="#ArialMT-46"/>
       <use x="83.398438" xlink:href="#ArialMT-48"/>
      </g>
     </g>
    </g>
    <g id="ytick_13">
     <g id="line2d_31">
      <path clip-path="url(#pd78e2f45d1)" d="M 108 518.050697 
L 777.6 518.050697 
" style="fill:none;stroke:#ffffff;stroke-linecap:round;"/>
     </g>
     <g id="text_29">
      <!-- 2.5 -->
      <g style="fill:#262626;" transform="translate(83.21 521.987493)scale(0.11 -0.11)">
       <use xlink:href="#ArialMT-50"/>
       <use x="55.615234" xlink:href="#ArialMT-46"/>
       <use x="83.398438" xlink:href="#ArialMT-53"/>
      </g>
     </g>
    </g>
    <g id="ytick_14">
     <g id="line2d_32">
      <path clip-path="url(#pd78e2f45d1)" d="M 108 472.968595 
L 777.6 472.968595 
" style="fill:none;stroke:#ffffff;stroke-linecap:round;"/>
     </g>
     <g id="text_30">
      <!-- 3.0 -->
      <g style="fill:#262626;" transform="translate(83.21 476.905392)scale(0.11 -0.11)">
       <use xlink:href="#ArialMT-51"/>
       <use x="55.615234" xlink:href="#ArialMT-46"/>
       <use x="83.398438" xlink:href="#ArialMT-48"/>
      </g>
     </g>
    </g>
   </g>
   <g id="line2d_33">
    <g clip-path="url(#pd78e2f45d1)">
     <use style="fill:#4c72b0;stroke:#4c72b0;" x="290.618182" xlink:href="#m88323b7bb2" y="472.968595"/>
     <use style="fill:#4c72b0;stroke:#4c72b0;" x="719.72809" xlink:href="#m88323b7bb2" y="563.132798"/>
    </g>
   </g>
   <g id="line2d_34">
    <path clip-path="url(#pd78e2f45d1)" d="M 138.436364 656.422107 
L 142.960573 658.176257 
L 148.90103 660.785955 
L 154.73739 663.615812 
L 163.298764 668.072718 
L 181.066815 677.467544 
L 187.621065 680.66234 
L 194.02273 683.515602 
L 199.035407 685.528893 
L 203.9525 687.295119 
L 208.774927 688.815921 
L 213.503611 690.099759 
L 218.13947 691.160563 
L 223.805161 692.200796 
L 229.329048 692.962555 
L 234.71293 693.491264 
L 240.991311 693.883538 
L 248.06869 694.105198 
L 259.595147 694.194688 
L 272.959421 694.339758 
L 280.439926 694.640997 
L 286.760914 695.095586 
L 292.780535 695.734095 
L 298.506149 696.54752 
L 304.605202 697.646709 
L 310.351951 698.904391 
L 316.336778 700.437079 
L 322.449833 702.222719 
L 329.06462 704.379234 
L 336.768154 707.13614 
L 345.944727 710.672911 
L 362.278752 717.267683 
L 375.244694 722.387781 
L 384.344215 725.746696 
L 392.349763 728.473341 
L 399.904785 730.817918 
L 407.266975 732.87242 
L 414.776308 734.72733 
L 422.140444 736.312255 
L 429.677851 737.703309 
L 437.261167 738.881339 
L 445.4707 739.927411 
L 454.331293 740.817771 
L 463.867789 741.535122 
L 474.105031 742.067402 
L 485.067865 742.403191 
L 496.781133 742.522314 
L 508.198749 742.403604 
L 518.038354 742.096249 
L 527.170001 741.609627 
L 535.463728 740.964168 
L 542.802045 740.198581 
L 550.355403 739.183908 
L 556.816375 738.103707 
L 563.430634 736.7657 
L 568.833616 735.478072 
L 574.336772 733.96899 
L 579.941022 732.210829 
L 585.647286 730.175359 
L 591.456485 727.834751 
L 597.369539 725.162892 
L 603.387367 722.137034 
L 609.51089 718.739771 
L 615.741028 714.961343 
L 622.078701 710.802178 
L 628.52483 706.275582 
L 635.080334 701.410425 
L 643.429925 694.926192 
L 669.53069 674.363206 
L 674.943177 670.433599 
L 680.420682 666.708781 
L 685.963593 663.256855 
L 689.695395 661.140933 
L 693.456553 659.196455 
L 697.247183 657.442472 
L 701.0674 655.896951 
L 704.917318 654.576425 
L 708.797053 653.495639 
L 712.70672 652.667195 
L 716.646434 652.101222 
L 720.616309 651.805055 
L 724.616462 651.782951 
L 728.647006 652.035853 
L 732.708057 652.561188 
L 736.799729 653.352742 
L 740.922139 654.400589 
L 745.0754 655.691102 
L 747.163636 656.422107 
L 747.163636 656.422107 
" style="fill:none;stroke:#dd8452;stroke-linecap:round;stroke-width:1.5;"/>
   </g>
   <g id="line2d_35">
    <g clip-path="url(#pd78e2f45d1)">
     <use style="fill:#55a868;stroke:#55a868;" x="496.781133" xlink:href="#mf4edbe306c" y="653.297001"/>
    </g>
   </g>
   <g id="patch_5">
    <path d="M 108 756 
L 108 459.490909 
" style="fill:none;stroke:#ffffff;stroke-linecap:square;stroke-linejoin:miter;stroke-width:1.25;"/>
   </g>
   <g id="patch_6">
    <path d="M 777.6 756 
L 777.6 459.490909 
" style="fill:none;stroke:#ffffff;stroke-linecap:square;stroke-linejoin:miter;stroke-width:1.25;"/>
   </g>
   <g id="patch_7">
    <path d="M 108 756 
L 777.6 756 
" style="fill:none;stroke:#ffffff;stroke-linecap:square;stroke-linejoin:miter;stroke-width:1.25;"/>
   </g>
   <g id="patch_8">
    <path d="M 108 459.490909 
L 777.6 459.490909 
" style="fill:none;stroke:#ffffff;stroke-linecap:square;stroke-linejoin:miter;stroke-width:1.25;"/>
   </g>
  </g>
  <g id="legend_1">
   <g id="patch_9">
    <path d="M 727.575938 99.608438 
L 812.3 99.608438 
Q 814.5 99.608438 814.5 97.408437 
L 814.5 51.7 
Q 814.5 49.5 812.3 49.5 
L 727.575938 49.5 
Q 725.375937 49.5 725.375937 51.7 
L 725.375937 97.408437 
Q 725.375937 99.608438 727.575938 99.608438 
z
" style="fill:#eaeaf2;opacity:0.8;stroke:#cccccc;stroke-linejoin:miter;"/>
   </g>
   <g id="line2d_36"/>
   <g id="line2d_37">
    <g>
     <use style="fill:#4c72b0;stroke:#4c72b0;" x="740.775937" xlink:href="#m88323b7bb2" y="57.923594"/>
    </g>
   </g>
   <g id="text_31">
    <!-- Seeds -->
    <defs>
     <path d="M 4.5 23 
L 13.421875 23.78125 
Q 14.0625 18.40625 16.375 14.96875 
Q 18.703125 11.53125 23.578125 9.40625 
Q 28.46875 7.28125 34.578125 7.28125 
Q 39.984375 7.28125 44.140625 8.890625 
Q 48.296875 10.5 50.3125 13.296875 
Q 52.34375 16.109375 52.34375 19.4375 
Q 52.34375 22.796875 50.390625 25.3125 
Q 48.4375 27.828125 43.953125 29.546875 
Q 41.0625 30.671875 31.203125 33.03125 
Q 21.34375 35.40625 17.390625 37.5 
Q 12.25 40.1875 9.734375 44.15625 
Q 7.234375 48.140625 7.234375 53.078125 
Q 7.234375 58.5 10.296875 63.203125 
Q 13.375 67.921875 19.28125 70.359375 
Q 25.203125 72.796875 32.421875 72.796875 
Q 40.375 72.796875 46.453125 70.234375 
Q 52.546875 67.671875 55.8125 62.6875 
Q 59.078125 57.71875 59.328125 51.421875 
L 50.25 50.734375 
Q 49.515625 57.515625 45.28125 60.984375 
Q 41.0625 64.453125 32.8125 64.453125 
Q 24.21875 64.453125 20.28125 61.296875 
Q 16.359375 58.15625 16.359375 53.71875 
Q 16.359375 49.859375 19.140625 47.359375 
Q 21.875 44.875 33.421875 42.265625 
Q 44.96875 39.65625 49.265625 37.703125 
Q 55.515625 34.8125 58.484375 30.390625 
Q 61.46875 25.984375 61.46875 20.21875 
Q 61.46875 14.5 58.203125 9.4375 
Q 54.9375 4.390625 48.796875 1.578125 
Q 42.671875 -1.21875 35.015625 -1.21875 
Q 25.296875 -1.21875 18.71875 1.609375 
Q 12.15625 4.4375 8.421875 10.125 
Q 4.6875 15.828125 4.5 23 
z
" id="ArialMT-83"/>
     <path d="M 42.09375 16.703125 
L 51.171875 15.578125 
Q 49.03125 7.625 43.21875 3.21875 
Q 37.40625 -1.171875 28.375 -1.171875 
Q 17 -1.171875 10.328125 5.828125 
Q 3.65625 12.84375 3.65625 25.484375 
Q 3.65625 38.578125 10.390625 45.796875 
Q 17.140625 53.03125 27.875 53.03125 
Q 38.28125 53.03125 44.875 45.953125 
Q 51.46875 38.875 51.46875 26.03125 
Q 51.46875 25.25 51.421875 23.6875 
L 12.75 23.6875 
Q 13.234375 15.140625 17.578125 10.59375 
Q 21.921875 6.0625 28.421875 6.0625 
Q 33.25 6.0625 36.671875 8.59375 
Q 40.09375 11.140625 42.09375 16.703125 
z
M 13.234375 30.90625 
L 42.1875 30.90625 
Q 41.609375 37.453125 38.875 40.71875 
Q 34.671875 45.796875 27.984375 45.796875 
Q 21.921875 45.796875 17.796875 41.75 
Q 13.671875 37.703125 13.234375 30.90625 
z
" id="ArialMT-101"/>
     <path d="M 40.234375 0 
L 40.234375 6.546875 
Q 35.296875 -1.171875 25.734375 -1.171875 
Q 19.53125 -1.171875 14.328125 2.25 
Q 9.125 5.671875 6.265625 11.796875 
Q 3.421875 17.921875 3.421875 25.875 
Q 3.421875 33.640625 6 39.96875 
Q 8.59375 46.296875 13.765625 49.65625 
Q 18.953125 53.03125 25.34375 53.03125 
Q 30.03125 53.03125 33.6875 51.046875 
Q 37.359375 49.078125 39.65625 45.90625 
L 39.65625 71.578125 
L 48.390625 71.578125 
L 48.390625 0 
z
M 12.453125 25.875 
Q 12.453125 15.921875 16.640625 10.984375 
Q 20.84375 6.0625 26.5625 6.0625 
Q 32.328125 6.0625 36.34375 10.765625 
Q 40.375 15.484375 40.375 25.140625 
Q 40.375 35.796875 36.265625 40.765625 
Q 32.171875 45.75 26.171875 45.75 
Q 20.3125 45.75 16.375 40.96875 
Q 12.453125 36.1875 12.453125 25.875 
z
" id="ArialMT-100"/>
     <path d="M 3.078125 15.484375 
L 11.765625 16.84375 
Q 12.5 11.625 15.84375 8.84375 
Q 19.1875 6.0625 25.203125 6.0625 
Q 31.25 6.0625 34.171875 8.515625 
Q 37.109375 10.984375 37.109375 14.3125 
Q 37.109375 17.28125 34.515625 19 
Q 32.71875 20.171875 25.53125 21.96875 
Q 15.875 24.421875 12.140625 26.203125 
Q 8.40625 27.984375 6.46875 31.125 
Q 4.546875 34.28125 4.546875 38.09375 
Q 4.546875 41.546875 6.125 44.5 
Q 7.71875 47.46875 10.453125 49.421875 
Q 12.5 50.921875 16.03125 51.96875 
Q 19.578125 53.03125 23.640625 53.03125 
Q 29.734375 53.03125 34.34375 51.265625 
Q 38.96875 49.515625 41.15625 46.5 
Q 43.359375 43.5 44.1875 38.484375 
L 35.59375 37.3125 
Q 35.015625 41.3125 32.203125 43.546875 
Q 29.390625 45.796875 24.265625 45.796875 
Q 18.21875 45.796875 15.625 43.796875 
Q 13.03125 41.796875 13.03125 39.109375 
Q 13.03125 37.40625 14.109375 36.03125 
Q 15.1875 34.625 17.484375 33.6875 
Q 18.796875 33.203125 25.25 31.453125 
Q 34.578125 28.953125 38.25 27.359375 
Q 41.9375 25.78125 44.03125 22.75 
Q 46.140625 19.734375 46.140625 15.234375 
Q 46.140625 10.84375 43.578125 6.953125 
Q 41.015625 3.078125 36.171875 0.953125 
Q 31.34375 -1.171875 25.25 -1.171875 
Q 15.140625 -1.171875 9.84375 3.03125 
Q 4.546875 7.234375 3.078125 15.484375 
z
" id="ArialMT-115"/>
    </defs>
    <g style="fill:#262626;" transform="translate(760.575937 61.773594)scale(0.11 -0.11)">
     <use xlink:href="#ArialMT-83"/>
     <use x="66.699219" xlink:href="#ArialMT-101"/>
     <use x="122.314453" xlink:href="#ArialMT-101"/>
     <use x="177.929688" xlink:href="#ArialMT-100"/>
     <use x="233.544922" xlink:href="#ArialMT-115"/>
    </g>
   </g>
   <g id="line2d_38">
    <path d="M 729.775937 73.483438 
L 751.775937 73.483438 
" style="fill:none;stroke:#dd8452;stroke-linecap:round;stroke-width:1.5;"/>
   </g>
   <g id="line2d_39"/>
   <g id="text_32">
    <!-- Energy -->
    <defs>
     <path d="M 7.90625 0 
L 7.90625 71.578125 
L 59.671875 71.578125 
L 59.671875 63.140625 
L 17.390625 63.140625 
L 17.390625 41.21875 
L 56.984375 41.21875 
L 56.984375 32.8125 
L 17.390625 32.8125 
L 17.390625 8.453125 
L 61.328125 8.453125 
L 61.328125 0 
z
" id="ArialMT-69"/>
     <path d="M 6.59375 0 
L 6.59375 51.859375 
L 14.5 51.859375 
L 14.5 44.484375 
Q 20.21875 53.03125 31 53.03125 
Q 35.6875 53.03125 39.625 51.34375 
Q 43.5625 49.65625 45.515625 46.921875 
Q 47.46875 44.1875 48.25 40.4375 
Q 48.734375 37.984375 48.734375 31.890625 
L 48.734375 0 
L 39.9375 0 
L 39.9375 31.546875 
Q 39.9375 36.921875 38.90625 39.578125 
Q 37.890625 42.234375 35.28125 43.8125 
Q 32.671875 45.40625 29.15625 45.40625 
Q 23.53125 45.40625 19.453125 41.84375 
Q 15.375 38.28125 15.375 28.328125 
L 15.375 0 
z
" id="ArialMT-110"/>
     <path d="M 6.5 0 
L 6.5 51.859375 
L 14.40625 51.859375 
L 14.40625 44 
Q 17.4375 49.515625 20 51.265625 
Q 22.5625 53.03125 25.640625 53.03125 
Q 30.078125 53.03125 34.671875 50.203125 
L 31.640625 42.046875 
Q 28.421875 43.953125 25.203125 43.953125 
Q 22.3125 43.953125 20.015625 42.21875 
Q 17.71875 40.484375 16.75 37.40625 
Q 15.28125 32.71875 15.28125 27.15625 
L 15.28125 0 
z
" id="ArialMT-114"/>
     <path d="M 4.984375 -4.296875 
L 13.53125 -5.5625 
Q 14.0625 -9.515625 16.5 -11.328125 
Q 19.78125 -13.765625 25.4375 -13.765625 
Q 31.546875 -13.765625 34.859375 -11.328125 
Q 38.1875 -8.890625 39.359375 -4.5 
Q 40.046875 -1.8125 39.984375 6.78125 
Q 34.234375 0 25.640625 0 
Q 14.9375 0 9.078125 7.71875 
Q 3.21875 15.4375 3.21875 26.21875 
Q 3.21875 33.640625 5.90625 39.90625 
Q 8.59375 46.1875 13.6875 49.609375 
Q 18.796875 53.03125 25.6875 53.03125 
Q 34.859375 53.03125 40.828125 45.609375 
L 40.828125 51.859375 
L 48.921875 51.859375 
L 48.921875 7.03125 
Q 48.921875 -5.078125 46.453125 -10.125 
Q 44 -15.1875 38.640625 -18.109375 
Q 33.296875 -21.046875 25.484375 -21.046875 
Q 16.21875 -21.046875 10.5 -16.875 
Q 4.78125 -12.703125 4.984375 -4.296875 
z
M 12.25 26.859375 
Q 12.25 16.65625 16.296875 11.96875 
Q 20.359375 7.28125 26.46875 7.28125 
Q 32.515625 7.28125 36.609375 11.9375 
Q 40.71875 16.609375 40.71875 26.5625 
Q 40.71875 36.078125 36.5 40.90625 
Q 32.28125 45.75 26.3125 45.75 
Q 20.453125 45.75 16.34375 40.984375 
Q 12.25 36.234375 12.25 26.859375 
z
" id="ArialMT-103"/>
     <path d="M 6.203125 -19.96875 
L 5.21875 -11.71875 
Q 8.109375 -12.5 10.25 -12.5 
Q 13.1875 -12.5 14.9375 -11.515625 
Q 16.703125 -10.546875 17.828125 -8.796875 
Q 18.65625 -7.46875 20.515625 -2.25 
Q 20.75 -1.515625 21.296875 -0.09375 
L 1.609375 51.859375 
L 11.078125 51.859375 
L 21.875 21.828125 
Q 23.96875 16.109375 25.640625 9.8125 
Q 27.15625 15.875 29.25 21.625 
L 40.328125 51.859375 
L 49.125 51.859375 
L 29.390625 -0.875 
Q 26.21875 -9.421875 24.46875 -12.640625 
Q 22.125 -17 19.09375 -19.015625 
Q 16.0625 -21.046875 11.859375 -21.046875 
Q 9.328125 -21.046875 6.203125 -19.96875 
z
" id="ArialMT-121"/>
    </defs>
    <g style="fill:#262626;" transform="translate(760.575937 77.333438)scale(0.11 -0.11)">
     <use xlink:href="#ArialMT-69"/>
     <use x="66.699219" xlink:href="#ArialMT-110"/>
     <use x="122.314453" xlink:href="#ArialMT-101"/>
     <use x="177.929688" xlink:href="#ArialMT-114"/>
     <use x="211.230469" xlink:href="#ArialMT-103"/>
     <use x="266.845703" xlink:href="#ArialMT-121"/>
    </g>
   </g>
   <g id="line2d_40"/>
   <g id="line2d_41">
    <g>
     <use style="fill:#55a868;stroke:#55a868;" x="740.775937" xlink:href="#mf4edbe306c" y="89.172187"/>
    </g>
   </g>
   <g id="text_33">
    <!-- Next seed -->
    <defs>
     <path d="M 7.625 0 
L 7.625 71.578125 
L 17.328125 71.578125 
L 54.9375 15.375 
L 54.9375 71.578125 
L 64.015625 71.578125 
L 64.015625 0 
L 54.296875 0 
L 16.703125 56.25 
L 16.703125 0 
z
" id="ArialMT-78"/>
     <path d="M 0.734375 0 
L 19.671875 26.953125 
L 2.15625 51.859375 
L 13.140625 51.859375 
L 21.09375 39.703125 
Q 23.34375 36.234375 24.703125 33.890625 
Q 26.859375 37.109375 28.65625 39.59375 
L 37.40625 51.859375 
L 47.90625 51.859375 
L 29.984375 27.4375 
L 49.265625 0 
L 38.484375 0 
L 27.828125 16.109375 
L 25 20.453125 
L 11.375 0 
z
" id="ArialMT-120"/>
     <path d="M 25.78125 7.859375 
L 27.046875 0.09375 
Q 23.34375 -0.6875 20.40625 -0.6875 
Q 15.625 -0.6875 12.984375 0.828125 
Q 10.359375 2.34375 9.28125 4.8125 
Q 8.203125 7.28125 8.203125 15.1875 
L 8.203125 45.015625 
L 1.765625 45.015625 
L 1.765625 51.859375 
L 8.203125 51.859375 
L 8.203125 64.703125 
L 16.9375 69.96875 
L 16.9375 51.859375 
L 25.78125 51.859375 
L 25.78125 45.015625 
L 16.9375 45.015625 
L 16.9375 14.703125 
Q 16.9375 10.9375 17.40625 9.859375 
Q 17.875 8.796875 18.921875 8.15625 
Q 19.96875 7.515625 21.921875 7.515625 
Q 23.390625 7.515625 25.78125 7.859375 
z
" id="ArialMT-116"/>
     <path id="ArialMT-32"/>
    </defs>
    <g style="fill:#262626;" transform="translate(760.575937 93.022187)scale(0.11 -0.11)">
     <use xlink:href="#ArialMT-78"/>
     <use x="72.216797" xlink:href="#ArialMT-101"/>
     <use x="127.832031" xlink:href="#ArialMT-120"/>
     <use x="177.832031" xlink:href="#ArialMT-116"/>
     <use x="205.615234" xlink:href="#ArialMT-32"/>
     <use x="233.398438" xlink:href="#ArialMT-115"/>
     <use x="283.398438" xlink:href="#ArialMT-101"/>
     <use x="339.013672" xlink:href="#ArialMT-101"/>
     <use x="394.628906" xlink:href="#ArialMT-100"/>
    </g>
   </g>
  </g>
 </g>
 <defs>
  <clipPath id="pe2e8a77a83">
   <path d="M 591.054545 251.934545 
C 591.054545 232.465937 587.219654 213.186636 579.76934 195.199987 
C 572.319026 177.213338 561.39818 160.869136 547.631794 147.102751 
C 533.865409 133.336366 517.521207 122.415519 499.534558 114.965205 
C 481.547909 107.514891 462.268609 103.68 442.8 103.68 
C 423.331391 103.68 404.052091 107.514891 386.065442 114.965205 
C 368.078793 122.415519 351.734591 133.336366 337.968206 147.102751 
C 324.20182 160.869136 313.280974 177.213338 305.83066 195.199987 
C 298.380346 213.186636 294.545455 232.465937 294.545455 251.934545 
C 294.545455 271.403154 298.380346 290.682455 305.83066 308.669104 
C 313.280974 326.655753 324.20182 342.999955 337.968206 356.76634 
C 351.734591 370.532725 368.078793 381.453572 386.065442 388.903886 
C 404.052091 396.3542 423.331391 400.189091 442.8 400.189091 
C 462.268609 400.189091 481.547909 396.3542 499.534558 388.903886 
C 517.521207 381.453572 533.865409 370.532725 547.631794 356.76634 
C 561.39818 342.999955 572.319026 326.655753 579.76934 308.669104 
C 587.219654 290.682455 591.054545 271.403154 591.054545 251.934545 
M 442.8 251.934545 
C 442.8 251.934545 442.8 251.934545 442.8 251.934545 
C 442.8 251.934545 442.8 251.934545 442.8 251.934545 
C 442.8 251.934545 442.8 251.934545 442.8 251.934545 
C 442.8 251.934545 442.8 251.934545 442.8 251.934545 
C 442.8 251.934545 442.8 251.934545 442.8 251.934545 
C 442.8 251.934545 442.8 251.934545 442.8 251.934545 
C 442.8 251.934545 442.8 251.934545 442.8 251.934545 
C 442.8 251.934545 442.8 251.934545 442.8 251.934545 
C 442.8 251.934545 442.8 251.934545 442.8 251.934545 
C 442.8 251.934545 442.8 251.934545 442.8 251.934545 
C 442.8 251.934545 442.8 251.934545 442.8 251.934545 
C 442.8 251.934545 442.8 251.934545 442.8 251.934545 
C 442.8 251.934545 442.8 251.934545 442.8 251.934545 
C 442.8 251.934545 442.8 251.934545 442.8 251.934545 
C 442.8 251.934545 442.8 251.934545 442.8 251.934545 
C 442.8 251.934545 442.8 251.934545 442.8 251.934545 
M 591.054545 251.934545 
z
"/>
  </clipPath>
  <clipPath id="pd78e2f45d1">
   <rect height="296.509091" width="669.6" x="108" y="459.490909"/>
  </clipPath>
 </defs>
</svg>
