<?xml version="1.0" encoding="utf-8" standalone="no"?>
<!DOCTYPE svg PUBLIC "-//W3C//DTD SVG 1.1//EN"
  "http://www.w3.org/Graphics/SVG/1.1/DTD/svg11.dtd">
<!-- Created with matplotlib (https://matplotlib.org/) -->
<svg height="576pt" version="1.1" viewBox="0 0 576 576" width="576pt" xmlns="http://www.w3.org/2000/svg" xmlns:xlink="http://www.w3.org/1999/xlink">
 <defs>
  <style type="text/css">
*{stroke-linecap:butt;stroke-linejoin:round;}
  </style>
 </defs>
 <g id="figure_1">
  <g id="patch_1">
   <path d="M 0 576 
L 576 576 
L 576 0 
L 0 0 
z
" style="fill:#ffffff;"/>
  </g>
  <g id="axes_1">
   <g id="patch_2">
    <path d="M 512.64 286.56 
C 512.64 258.006041 507.015493 229.729733 496.088366 203.349314 
C 485.161238 176.968896 469.143997 152.9974 448.953299 132.806701 
C 428.7626 112.616003 404.791104 96.598762 378.410686 85.671634 
C 352.030267 74.744507 323.753959 69.12 295.2 69.12 
C 266.646041 69.12 238.369733 74.744507 211.989314 85.671634 
C 185.608896 96.598762 161.6374 112.616003 141.446701 132.806701 
C 121.256003 152.9974 105.238762 176.968896 94.311634 203.349314 
C 83.384507 229.729733 77.76 258.006041 77.76 286.56 
C 77.76 315.113959 83.384507 343.390267 94.311634 369.770686 
C 105.238762 396.151104 121.256003 420.1226 141.446701 440.313299 
C 161.6374 460.503997 185.608896 476.521238 211.989314 487.448366 
C 238.369733 498.375493 266.646041 504 295.2 504 
C 323.753959 504 352.030267 498.375493 378.410686 487.448366 
C 404.791104 476.521238 428.7626 460.503997 448.953299 440.313299 
C 469.143997 420.1226 485.161238 396.151104 496.088366 369.770686 
C 507.015493 343.390267 512.64 315.113959 512.64 286.56 
M 295.2 286.56 
C 295.2 286.56 295.2 286.56 295.2 286.56 
C 295.2 286.56 295.2 286.56 295.2 286.56 
C 295.2 286.56 295.2 286.56 295.2 286.56 
C 295.2 286.56 295.2 286.56 295.2 286.56 
C 295.2 286.56 295.2 286.56 295.2 286.56 
C 295.2 286.56 295.2 286.56 295.2 286.56 
C 295.2 286.56 295.2 286.56 295.2 286.56 
C 295.2 286.56 295.2 286.56 295.2 286.56 
C 295.2 286.56 295.2 286.56 295.2 286.56 
C 295.2 286.56 295.2 286.56 295.2 286.56 
C 295.2 286.56 295.2 286.56 295.2 286.56 
C 295.2 286.56 295.2 286.56 295.2 286.56 
C 295.2 286.56 295.2 286.56 295.2 286.56 
C 295.2 286.56 295.2 286.56 295.2 286.56 
C 295.2 286.56 295.2 286.56 295.2 286.56 
C 295.2 286.56 295.2 286.56 295.2 286.56 
M 512.64 286.56 
z
" style="fill:#eaeaf2;"/>
   </g>
   <g id="matplotlib.axis_1">
    <g id="xtick_1">
     <g id="line2d_1">
      <path clip-path="url(#p05aca655e2)" d="M 295.2 286.56 
L 512.64 286.56 
" style="fill:none;stroke:#ffffff;stroke-linecap:round;"/>
     </g>
     <g id="text_1">
      <!-- 0° -->
      <defs>
       <path d="M 4.15625 35.296875 
Q 4.15625 48 6.765625 55.734375 
Q 9.375 63.484375 14.515625 67.671875 
Q 19.671875 71.875 27.484375 71.875 
Q 33.25 71.875 37.59375 69.546875 
Q 41.9375 67.234375 44.765625 62.859375 
Q 47.609375 58.5 49.21875 52.21875 
Q 50.828125 45.953125 50.828125 35.296875 
Q 50.828125 22.703125 48.234375 14.96875 
Q 45.65625 7.234375 40.5 3 
Q 35.359375 -1.21875 27.484375 -1.21875 
Q 17.140625 -1.21875 11.234375 6.203125 
Q 4.15625 15.140625 4.15625 35.296875 
z
M 13.1875 35.296875 
Q 13.1875 17.671875 17.3125 11.828125 
Q 21.4375 6 27.484375 6 
Q 33.546875 6 37.671875 11.859375 
Q 41.796875 17.71875 41.796875 35.296875 
Q 41.796875 52.984375 37.671875 58.78125 
Q 33.546875 64.59375 27.390625 64.59375 
Q 21.34375 64.59375 17.71875 59.46875 
Q 13.1875 52.9375 13.1875 35.296875 
z
" id="ArialMT-48"/>
       <path d="M 6.25 59.28125 
Q 6.25 64.890625 10.21875 68.84375 
Q 14.203125 72.796875 19.78125 72.796875 
Q 25.4375 72.796875 29.390625 68.84375 
Q 33.34375 64.890625 33.34375 59.28125 
Q 33.34375 53.65625 29.359375 49.671875 
Q 25.390625 45.703125 19.78125 45.703125 
Q 14.203125 45.703125 10.21875 49.65625 
Q 6.25 53.609375 6.25 59.28125 
z
M 11.578125 59.28125 
Q 11.578125 55.859375 13.984375 53.4375 
Q 16.40625 51.03125 19.828125 51.03125 
Q 23.1875 51.03125 25.609375 53.4375 
Q 28.03125 55.859375 28.03125 59.28125 
Q 28.03125 62.703125 25.609375 65.109375 
Q 23.1875 67.53125 19.828125 67.53125 
Q 16.40625 67.53125 13.984375 65.109375 
Q 11.578125 62.703125 11.578125 59.28125 
z
" id="ArialMT-176"/>
      </defs>
      <g style="fill:#262626;" transform="translate(523.882344 289.403672)scale(0.11 -0.11)">
       <use xlink:href="#ArialMT-48"/>
       <use x="55.615234" xlink:href="#ArialMT-176"/>
      </g>
     </g>
    </g>
    <g id="xtick_2">
     <g id="line2d_2">
      <path clip-path="url(#p05aca655e2)" d="M 295.2 286.56 
L 448.953299 132.806701 
" style="fill:none;stroke:#ffffff;stroke-linecap:round;"/>
     </g>
     <g id="text_2">
      <!-- 45° -->
      <defs>
       <path d="M 32.328125 0 
L 32.328125 17.140625 
L 1.265625 17.140625 
L 1.265625 25.203125 
L 33.9375 71.578125 
L 41.109375 71.578125 
L 41.109375 25.203125 
L 50.78125 25.203125 
L 50.78125 17.140625 
L 41.109375 17.140625 
L 41.109375 0 
z
M 32.328125 25.203125 
L 32.328125 57.46875 
L 9.90625 25.203125 
z
" id="ArialMT-52"/>
       <path d="M 4.15625 18.75 
L 13.375 19.53125 
Q 14.40625 12.796875 18.140625 9.390625 
Q 21.875 6 27.15625 6 
Q 33.5 6 37.890625 10.78125 
Q 42.28125 15.578125 42.28125 23.484375 
Q 42.28125 31 38.0625 35.34375 
Q 33.84375 39.703125 27 39.703125 
Q 22.75 39.703125 19.328125 37.765625 
Q 15.921875 35.84375 13.96875 32.765625 
L 5.71875 33.84375 
L 12.640625 70.609375 
L 48.25 70.609375 
L 48.25 62.203125 
L 19.671875 62.203125 
L 15.828125 42.96875 
Q 22.265625 47.46875 29.34375 47.46875 
Q 38.71875 47.46875 45.15625 40.96875 
Q 51.609375 34.46875 51.609375 24.265625 
Q 51.609375 14.546875 45.953125 7.46875 
Q 39.0625 -1.21875 27.15625 -1.21875 
Q 17.390625 -1.21875 11.203125 4.25 
Q 5.03125 9.71875 4.15625 18.75 
z
" id="ArialMT-53"/>
      </defs>
      <g style="fill:#262626;" transform="translate(452.304389 123.983111)scale(0.11 -0.11)">
       <use xlink:href="#ArialMT-52"/>
       <use x="55.615234" xlink:href="#ArialMT-53"/>
       <use x="111.230469" xlink:href="#ArialMT-176"/>
      </g>
     </g>
    </g>
    <g id="xtick_3">
     <g id="line2d_3">
      <path clip-path="url(#p05aca655e2)" d="M 295.2 286.56 
L 295.2 69.12 
" style="fill:none;stroke:#ffffff;stroke-linecap:round;"/>
     </g>
     <g id="text_3">
      <!-- 90° -->
      <defs>
       <path d="M 5.46875 16.546875 
L 13.921875 17.328125 
Q 14.984375 11.375 18.015625 8.6875 
Q 21.046875 6 25.78125 6 
Q 29.828125 6 32.875 7.859375 
Q 35.9375 9.71875 37.890625 12.8125 
Q 39.84375 15.921875 41.15625 21.1875 
Q 42.484375 26.46875 42.484375 31.9375 
Q 42.484375 32.515625 42.4375 33.6875 
Q 39.796875 29.5 35.234375 26.875 
Q 30.671875 24.265625 25.34375 24.265625 
Q 16.453125 24.265625 10.296875 30.703125 
Q 4.15625 37.15625 4.15625 47.703125 
Q 4.15625 58.59375 10.578125 65.234375 
Q 17 71.875 26.65625 71.875 
Q 33.640625 71.875 39.421875 68.109375 
Q 45.21875 64.359375 48.21875 57.390625 
Q 51.21875 50.4375 51.21875 37.25 
Q 51.21875 23.53125 48.234375 15.40625 
Q 45.265625 7.28125 39.375 3.03125 
Q 33.5 -1.21875 25.59375 -1.21875 
Q 17.1875 -1.21875 11.859375 3.4375 
Q 6.546875 8.109375 5.46875 16.546875 
z
M 41.453125 48.140625 
Q 41.453125 55.71875 37.421875 60.15625 
Q 33.40625 64.59375 27.734375 64.59375 
Q 21.875 64.59375 17.53125 59.8125 
Q 13.1875 55.03125 13.1875 47.40625 
Q 13.1875 40.578125 17.3125 36.296875 
Q 21.4375 32.03125 27.484375 32.03125 
Q 33.59375 32.03125 37.515625 36.296875 
Q 41.453125 40.578125 41.453125 48.140625 
z
" id="ArialMT-57"/>
      </defs>
      <g style="fill:#262626;" transform="translate(286.883828 55.463672)scale(0.11 -0.11)">
       <use xlink:href="#ArialMT-57"/>
       <use x="55.615234" xlink:href="#ArialMT-48"/>
       <use x="111.230469" xlink:href="#ArialMT-176"/>
      </g>
     </g>
    </g>
    <g id="xtick_4">
     <g id="line2d_4">
      <path clip-path="url(#p05aca655e2)" d="M 295.2 286.56 
L 141.446701 132.806701 
" style="fill:none;stroke:#ffffff;stroke-linecap:round;"/>
     </g>
     <g id="text_4">
      <!-- 135° -->
      <defs>
       <path d="M 37.25 0 
L 28.46875 0 
L 28.46875 56 
Q 25.296875 52.984375 20.140625 49.953125 
Q 14.984375 46.921875 10.890625 45.40625 
L 10.890625 53.90625 
Q 18.265625 57.375 23.78125 62.296875 
Q 29.296875 67.234375 31.59375 71.875 
L 37.25 71.875 
z
" id="ArialMT-49"/>
       <path d="M 4.203125 18.890625 
L 12.984375 20.0625 
Q 14.5 12.59375 18.140625 9.296875 
Q 21.78125 6 27 6 
Q 33.203125 6 37.46875 10.296875 
Q 41.75 14.59375 41.75 20.953125 
Q 41.75 27 37.796875 30.921875 
Q 33.84375 34.859375 27.734375 34.859375 
Q 25.25 34.859375 21.53125 33.890625 
L 22.515625 41.609375 
Q 23.390625 41.5 23.921875 41.5 
Q 29.546875 41.5 34.03125 44.421875 
Q 38.53125 47.359375 38.53125 53.46875 
Q 38.53125 58.296875 35.25 61.46875 
Q 31.984375 64.65625 26.8125 64.65625 
Q 21.6875 64.65625 18.265625 61.421875 
Q 14.84375 58.203125 13.875 51.765625 
L 5.078125 53.328125 
Q 6.6875 62.15625 12.390625 67.015625 
Q 18.109375 71.875 26.609375 71.875 
Q 32.46875 71.875 37.390625 69.359375 
Q 42.328125 66.84375 44.9375 62.5 
Q 47.5625 58.15625 47.5625 53.265625 
Q 47.5625 48.640625 45.0625 44.828125 
Q 42.578125 41.015625 37.703125 38.765625 
Q 44.046875 37.3125 47.5625 32.6875 
Q 51.078125 28.078125 51.078125 21.140625 
Q 51.078125 11.765625 44.234375 5.25 
Q 37.40625 -1.265625 26.953125 -1.265625 
Q 17.53125 -1.265625 11.296875 4.34375 
Q 5.078125 9.96875 4.203125 18.890625 
z
" id="ArialMT-51"/>
      </defs>
      <g style="fill:#262626;" transform="translate(118.404752 123.983111)scale(0.11 -0.11)">
       <use xlink:href="#ArialMT-49"/>
       <use x="55.615234" xlink:href="#ArialMT-51"/>
       <use x="111.230469" xlink:href="#ArialMT-53"/>
       <use x="166.845703" xlink:href="#ArialMT-176"/>
      </g>
     </g>
    </g>
    <g id="xtick_5">
     <g id="line2d_5">
      <path clip-path="url(#p05aca655e2)" d="M 295.2 286.56 
L 77.76 286.56 
" style="fill:none;stroke:#ffffff;stroke-linecap:round;"/>
     </g>
     <g id="text_5">
      <!-- 180° -->
      <defs>
       <path d="M 17.671875 38.8125 
Q 12.203125 40.828125 9.5625 44.53125 
Q 6.9375 48.25 6.9375 53.421875 
Q 6.9375 61.234375 12.546875 66.546875 
Q 18.171875 71.875 27.484375 71.875 
Q 36.859375 71.875 42.578125 66.421875 
Q 48.296875 60.984375 48.296875 53.171875 
Q 48.296875 48.1875 45.671875 44.5 
Q 43.0625 40.828125 37.75 38.8125 
Q 44.34375 36.671875 47.78125 31.875 
Q 51.21875 27.09375 51.21875 20.453125 
Q 51.21875 11.28125 44.71875 5.03125 
Q 38.234375 -1.21875 27.640625 -1.21875 
Q 17.046875 -1.21875 10.546875 5.046875 
Q 4.046875 11.328125 4.046875 20.703125 
Q 4.046875 27.6875 7.59375 32.390625 
Q 11.140625 37.109375 17.671875 38.8125 
z
M 15.921875 53.71875 
Q 15.921875 48.640625 19.1875 45.40625 
Q 22.46875 42.1875 27.6875 42.1875 
Q 32.765625 42.1875 36.015625 45.375 
Q 39.265625 48.578125 39.265625 53.21875 
Q 39.265625 58.0625 35.90625 61.359375 
Q 32.5625 64.65625 27.59375 64.65625 
Q 22.5625 64.65625 19.234375 61.421875 
Q 15.921875 58.203125 15.921875 53.71875 
z
M 13.09375 20.65625 
Q 13.09375 16.890625 14.875 13.375 
Q 16.65625 9.859375 20.171875 7.921875 
Q 23.6875 6 27.734375 6 
Q 34.03125 6 38.125 10.046875 
Q 42.234375 14.109375 42.234375 20.359375 
Q 42.234375 26.703125 38.015625 30.859375 
Q 33.796875 35.015625 27.4375 35.015625 
Q 21.234375 35.015625 17.15625 30.90625 
Q 13.09375 26.8125 13.09375 20.65625 
z
" id="ArialMT-56"/>
      </defs>
      <g style="fill:#262626;" transform="translate(49.885313 289.403672)scale(0.11 -0.11)">
       <use xlink:href="#ArialMT-49"/>
       <use x="55.615234" xlink:href="#ArialMT-56"/>
       <use x="111.230469" xlink:href="#ArialMT-48"/>
       <use x="166.845703" xlink:href="#ArialMT-176"/>
      </g>
     </g>
    </g>
    <g id="xtick_6">
     <g id="line2d_6">
      <path clip-path="url(#p05aca655e2)" d="M 295.2 286.56 
L 141.446701 440.313299 
" style="fill:none;stroke:#ffffff;stroke-linecap:round;"/>
     </g>
     <g id="text_6">
      <!-- 225° -->
      <defs>
       <path d="M 50.34375 8.453125 
L 50.34375 0 
L 3.03125 0 
Q 2.9375 3.171875 4.046875 6.109375 
Q 5.859375 10.9375 9.828125 15.625 
Q 13.8125 20.3125 21.34375 26.46875 
Q 33.015625 36.03125 37.109375 41.625 
Q 41.21875 47.21875 41.21875 52.203125 
Q 41.21875 57.421875 37.46875 61 
Q 33.734375 64.59375 27.734375 64.59375 
Q 21.390625 64.59375 17.578125 60.78125 
Q 13.765625 56.984375 13.71875 50.25 
L 4.6875 51.171875 
Q 5.609375 61.28125 11.65625 66.578125 
Q 17.71875 71.875 27.9375 71.875 
Q 38.234375 71.875 44.234375 66.15625 
Q 50.25 60.453125 50.25 52 
Q 50.25 47.703125 48.484375 43.546875 
Q 46.734375 39.40625 42.65625 34.8125 
Q 38.578125 30.21875 29.109375 22.21875 
Q 21.1875 15.578125 18.9375 13.203125 
Q 16.703125 10.84375 15.234375 8.453125 
z
" id="ArialMT-50"/>
      </defs>
      <g style="fill:#262626;" transform="translate(118.404752 454.824232)scale(0.11 -0.11)">
       <use xlink:href="#ArialMT-50"/>
       <use x="55.615234" xlink:href="#ArialMT-50"/>
       <use x="111.230469" xlink:href="#ArialMT-53"/>
       <use x="166.845703" xlink:href="#ArialMT-176"/>
      </g>
     </g>
    </g>
    <g id="xtick_7">
     <g id="line2d_7">
      <path clip-path="url(#p05aca655e2)" d="M 295.2 286.56 
L 295.2 504 
" style="fill:none;stroke:#ffffff;stroke-linecap:round;"/>
     </g>
     <g id="text_7">
      <!-- 270° -->
      <defs>
       <path d="M 4.734375 62.203125 
L 4.734375 70.65625 
L 51.078125 70.65625 
L 51.078125 63.8125 
Q 44.234375 56.546875 37.515625 44.484375 
Q 30.8125 32.421875 27.15625 19.671875 
Q 24.515625 10.6875 23.78125 0 
L 14.75 0 
Q 14.890625 8.453125 18.0625 20.40625 
Q 21.234375 32.375 27.171875 43.484375 
Q 33.109375 54.59375 39.796875 62.203125 
z
" id="ArialMT-55"/>
      </defs>
      <g style="fill:#262626;" transform="translate(283.825312 523.343672)scale(0.11 -0.11)">
       <use xlink:href="#ArialMT-50"/>
       <use x="55.615234" xlink:href="#ArialMT-55"/>
       <use x="111.230469" xlink:href="#ArialMT-48"/>
       <use x="166.845703" xlink:href="#ArialMT-176"/>
      </g>
     </g>
    </g>
    <g id="xtick_8">
     <g id="line2d_8">
      <path clip-path="url(#p05aca655e2)" d="M 295.2 286.56 
L 448.953299 440.313299 
" style="fill:none;stroke:#ffffff;stroke-linecap:round;"/>
     </g>
     <g id="text_8">
      <!-- 315° -->
      <g style="fill:#262626;" transform="translate(449.245873 454.824232)scale(0.11 -0.11)">
       <use xlink:href="#ArialMT-51"/>
       <use x="55.615234" xlink:href="#ArialMT-49"/>
       <use x="111.230469" xlink:href="#ArialMT-53"/>
       <use x="166.845703" xlink:href="#ArialMT-176"/>
      </g>
     </g>
    </g>
   </g>
   <g id="matplotlib.axis_2">
    <g id="ytick_1">
     <g id="line2d_9">
      <path clip-path="url(#p05aca655e2)" d="M 304.687499 286.56 
L 304.595167 285.239595 
L 304.319969 283.944891 
L 303.867261 282.701087 
L 303.245855 281.532392 
L 302.467846 280.461553 
L 301.548376 279.509414 
L 300.505342 278.694507 
L 299.359046 278.032693 
L 298.131798 277.536853 
L 296.847487 277.216638 
L 295.531109 277.078281 
L 294.208286 277.124475 
L 292.904766 277.354321 
L 291.64592 277.763344 
L 290.456251 278.343585 
L 289.358913 279.083749 
L 288.375265 279.96943 
L 287.524452 280.983388 
L 286.823036 282.105889 
L 286.284668 283.315084 
L 285.919826 284.587438 
L 285.735612 285.898186 
L 285.735612 287.221814 
L 285.919826 288.532562 
L 286.284668 289.804916 
L 286.823036 291.014111 
L 287.524452 292.136612 
L 288.375265 293.15057 
L 289.358913 294.036251 
L 290.456251 294.776415 
L 291.64592 295.356656 
L 292.904766 295.765679 
L 294.208286 295.995525 
L 295.531109 296.041719 
L 296.847487 295.903362 
L 298.131798 295.583147 
L 299.359046 295.087307 
L 300.505342 294.425493 
L 301.548376 293.610586 
L 302.467846 292.658447 
L 303.245855 291.587608 
L 303.867261 290.418913 
L 304.319969 289.175109 
L 304.595167 287.880405 
L 304.687499 286.56 
L 304.687499 286.56 
" style="fill:none;stroke:#ffffff;stroke-linecap:round;"/>
     </g>
     <g id="text_9">
      <!-- 0 -->
      <g style="fill:#262626;" transform="translate(303.965306 280.743041)scale(0.11 -0.11)">
       <use xlink:href="#ArialMT-48"/>
      </g>
     </g>
    </g>
    <g id="ytick_2">
     <g id="line2d_10">
      <path clip-path="url(#p05aca655e2)" d="M 344.301272 286.56 
L 344.181663 283.134868 
L 343.823421 279.726424 
L 343.228291 276.351272 
L 342.399172 273.025855 
L 341.340103 269.766376 
L 340.056244 266.588714 
L 338.55385 263.508349 
L 336.84024 260.54029 
L 334.923763 257.698997 
L 332.813756 254.998311 
L 330.520499 252.451391 
L 328.055164 250.070644 
L 325.429761 247.86767 
L 322.657083 245.853201 
L 319.750636 244.037051 
L 316.724581 242.428069 
L 313.59366 241.034094 
L 310.373127 239.861916 
L 307.078673 238.917246 
L 303.726346 238.204687 
L 300.33248 237.72771 
L 296.91361 237.48864 
L 293.48639 237.48864 
L 290.06752 237.72771 
L 286.673654 238.204687 
L 283.321327 238.917246 
L 280.026873 239.861916 
L 276.80634 241.034094 
L 273.675419 242.428069 
L 270.649364 244.037051 
L 267.742917 245.853201 
L 264.970239 247.86767 
L 262.344836 250.070644 
L 259.879501 252.451391 
L 257.586244 254.998311 
L 255.476237 257.698997 
L 253.55976 260.54029 
L 251.84615 263.508349 
L 250.343756 266.588714 
L 249.059897 269.766376 
L 248.000828 273.025855 
L 247.171709 276.351272 
L 246.576579 279.726424 
L 246.218337 283.134868 
L 246.098728 286.56 
L 246.218337 289.985132 
L 246.576579 293.393576 
L 247.171709 296.768728 
L 248.000828 300.094145 
L 249.059897 303.353624 
L 250.343756 306.531286 
L 251.84615 309.611651 
L 253.55976 312.57971 
L 255.476237 315.421003 
L 257.586244 318.121689 
L 259.879501 320.668609 
L 262.344836 323.049356 
L 264.970239 325.25233 
L 267.742917 327.266799 
L 270.649364 329.082949 
L 273.675419 330.691931 
L 276.80634 332.085906 
L 280.026873 333.258084 
L 283.321327 334.202754 
L 286.673654 334.915313 
L 290.06752 335.39229 
L 293.48639 335.63136 
L 296.91361 335.63136 
L 300.33248 335.39229 
L 303.726346 334.915313 
L 307.078673 334.202754 
L 310.373127 333.258084 
L 313.59366 332.085906 
L 316.724581 330.691931 
L 319.750636 329.082949 
L 322.657083 327.266799 
L 325.429761 325.25233 
L 328.055164 323.049356 
L 330.520499 320.668609 
L 332.813756 318.121689 
L 334.923763 315.421003 
L 336.84024 312.57971 
L 338.55385 309.611651 
L 340.056244 306.531286 
L 341.340103 303.353624 
L 342.399172 300.094145 
L 343.228291 296.768728 
L 343.823421 293.393576 
L 344.181663 289.985132 
L 344.301272 286.56 
L 344.301272 286.56 
" style="fill:none;stroke:#ffffff;stroke-linecap:round;"/>
     </g>
     <g id="text_10">
      <!-- 100 -->
      <g style="fill:#262626;" transform="translate(340.56366 265.583507)scale(0.11 -0.11)">
       <use xlink:href="#ArialMT-49"/>
       <use x="55.615234" xlink:href="#ArialMT-48"/>
       <use x="111.230469" xlink:href="#ArialMT-48"/>
      </g>
     </g>
    </g>
    <g id="ytick_3">
     <g id="line2d_11">
      <path clip-path="url(#p05aca655e2)" d="M 383.915045 286.56 
L 383.698939 280.371551 
L 383.051676 274.213252 
L 381.976408 268.115105 
L 380.478374 262.10682 
L 378.564873 256.217668 
L 376.245226 250.476341 
L 373.530735 244.910809 
L 370.434625 239.548189 
L 366.971979 234.414605 
L 363.159667 229.535069 
L 359.016262 224.933352 
L 354.561952 220.631874 
L 349.818435 216.651591 
L 344.808823 213.011895 
L 339.557522 209.730518 
L 334.090116 206.823446 
L 328.433241 204.304843 
L 322.614456 202.186979 
L 316.662112 200.480171 
L 310.605206 199.192736 
L 304.473247 198.330946 
L 298.29611 197.898998 
L 292.10389 197.898998 
L 285.926753 198.330946 
L 279.794794 199.192736 
L 273.737888 200.480171 
L 267.785544 202.186979 
L 261.966759 204.304843 
L 256.309884 206.823446 
L 250.842478 209.730518 
L 245.591177 213.011895 
L 240.581565 216.651591 
L 235.838048 220.631874 
L 231.383738 224.933352 
L 227.240333 229.535069 
L 223.428021 234.414605 
L 219.965375 239.548189 
L 216.869265 244.910809 
L 214.154774 250.476341 
L 211.835127 256.217668 
L 209.921626 262.10682 
L 208.423592 268.115105 
L 207.348324 274.213252 
L 206.701061 280.371551 
L 206.484955 286.56 
L 206.701061 292.748449 
L 207.348324 298.906748 
L 208.423592 305.004895 
L 209.921626 311.01318 
L 211.835127 316.902332 
L 214.154774 322.643659 
L 216.869265 328.209191 
L 219.965375 333.571811 
L 223.428021 338.705395 
L 227.240333 343.584931 
L 231.383738 348.186648 
L 235.838048 352.488126 
L 240.581565 356.468409 
L 245.591177 360.108105 
L 250.842478 363.389482 
L 256.309884 366.296554 
L 261.966759 368.815157 
L 267.785544 370.933021 
L 273.737888 372.639829 
L 279.794794 373.927264 
L 285.926753 374.789054 
L 292.10389 375.221002 
L 298.29611 375.221002 
L 304.473247 374.789054 
L 310.605206 373.927264 
L 316.662112 372.639829 
L 322.614456 370.933021 
L 328.433241 368.815157 
L 334.090116 366.296554 
L 339.557522 363.389482 
L 344.808823 360.108105 
L 349.818435 356.468409 
L 354.561952 352.488126 
L 359.016262 348.186648 
L 363.159667 343.584931 
L 366.971979 338.705395 
L 370.434625 333.571811 
L 373.530735 328.209191 
L 376.245226 322.643659 
L 378.564873 316.902332 
L 380.478374 311.01318 
L 381.976408 305.004895 
L 383.051676 298.906748 
L 383.698939 292.748449 
L 383.915045 286.56 
L 383.915045 286.56 
" style="fill:none;stroke:#ffffff;stroke-linecap:round;"/>
     </g>
     <g id="text_11">
      <!-- 200 -->
      <g style="fill:#262626;" transform="translate(377.162014 250.423972)scale(0.11 -0.11)">
       <use xlink:href="#ArialMT-50"/>
       <use x="55.615234" xlink:href="#ArialMT-48"/>
       <use x="111.230469" xlink:href="#ArialMT-48"/>
      </g>
     </g>
    </g>
    <g id="ytick_4">
     <g id="line2d_12">
      <path clip-path="url(#p05aca655e2)" d="M 423.528818 286.56 
L 423.450643 282.081389 
L 423.216215 277.608234 
L 422.825819 273.145986 
L 422.27993 268.700081 
L 421.579215 264.275935 
L 420.724525 259.878939 
L 419.716903 255.514449 
L 418.557577 251.187784 
L 417.247958 246.904214 
L 415.789643 242.668959 
L 414.184408 238.487179 
L 412.434208 234.363968 
L 410.541177 230.304349 
L 408.507621 226.313269 
L 406.336016 222.395591 
L 404.029009 218.556087 
L 401.589411 214.799436 
L 399.020194 211.130214 
L 396.324488 207.552891 
L 393.505578 204.071826 
L 390.566897 200.69126 
L 387.512026 197.415313 
L 384.344687 194.247974 
L 381.06874 191.193103 
L 377.688174 188.254422 
L 374.207109 185.435512 
L 370.629786 182.739806 
L 366.960564 180.170589 
L 363.203913 177.730991 
L 359.364409 175.423984 
L 355.446731 173.252379 
L 351.455651 171.218823 
L 347.396032 169.325792 
L 343.272821 167.575592 
L 339.091041 165.970357 
L 334.855786 164.512042 
L 330.572216 163.202423 
L 326.245551 162.043097 
L 321.881061 161.035475 
L 317.484065 160.180785 
L 313.059919 159.48007 
L 308.614014 158.934181 
L 304.151766 158.543785 
L 299.678611 158.309357 
L 295.2 158.231182 
L 290.721389 158.309357 
L 286.248234 158.543785 
L 281.785986 158.934181 
L 277.340081 159.48007 
L 272.915935 160.180785 
L 268.518939 161.035475 
L 264.154449 162.043097 
L 259.827784 163.202423 
L 255.544214 164.512042 
L 251.308959 165.970357 
L 247.127179 167.575592 
L 243.003968 169.325792 
L 238.944349 171.218823 
L 234.953269 173.252379 
L 231.035591 175.423984 
L 227.196087 177.730991 
L 223.439436 180.170589 
L 219.770214 182.739806 
L 216.192891 185.435512 
L 212.711826 188.254422 
L 209.33126 191.193103 
L 206.055313 194.247974 
L 202.887974 197.415313 
L 199.833103 200.69126 
L 196.894422 204.071826 
L 194.075512 207.552891 
L 191.379806 211.130214 
L 188.810589 214.799436 
L 186.370991 218.556087 
L 184.063984 222.395591 
L 181.892379 226.313269 
L 179.858823 230.304349 
L 177.965792 234.363968 
L 176.215592 238.487179 
L 174.610357 242.668959 
L 173.152042 246.904214 
L 171.842423 251.187784 
L 170.683097 255.514449 
L 169.675475 259.878939 
L 168.820785 264.275935 
L 168.12007 268.700081 
L 167.574181 273.145986 
L 167.183785 277.608234 
L 166.949357 282.081389 
L 166.871182 286.56 
L 166.949357 291.038611 
L 167.183785 295.511766 
L 167.574181 299.974014 
L 168.12007 304.419919 
L 168.820785 308.844065 
L 169.675475 313.241061 
L 170.683097 317.605551 
L 171.842423 321.932216 
L 173.152042 326.215786 
L 174.610357 330.451041 
L 176.215592 334.632821 
L 177.965792 338.756032 
L 179.858823 342.815651 
L 181.892379 346.806731 
L 184.063984 350.724409 
L 186.370991 354.563913 
L 188.810589 358.320564 
L 191.379806 361.989786 
L 194.075512 365.567109 
L 196.894422 369.048174 
L 199.833103 372.42874 
L 202.887974 375.704687 
L 206.055313 378.872026 
L 209.33126 381.926897 
L 212.711826 384.865578 
L 216.192891 387.684488 
L 219.770214 390.380194 
L 223.439436 392.949411 
L 227.196087 395.389009 
L 231.035591 397.696016 
L 234.953269 399.867621 
L 238.944349 401.901177 
L 243.003968 403.794208 
L 247.127179 405.544408 
L 251.308959 407.149643 
L 255.544214 408.607958 
L 259.827784 409.917577 
L 264.154449 411.076903 
L 268.518939 412.084525 
L 272.915935 412.939215 
L 277.340081 413.63993 
L 281.785986 414.185819 
L 286.248234 414.576215 
L 290.721389 414.810643 
L 295.2 414.888818 
L 299.678611 414.810643 
L 304.151766 414.576215 
L 308.614014 414.185819 
L 313.059919 413.63993 
L 317.484065 412.939215 
L 321.881061 412.084525 
L 326.245551 411.076903 
L 330.572216 409.917577 
L 334.855786 408.607958 
L 339.091041 407.149643 
L 343.272821 405.544408 
L 347.396032 403.794208 
L 351.455651 401.901177 
L 355.446731 399.867621 
L 359.364409 397.696016 
L 363.203913 395.389009 
L 366.960564 392.949411 
L 370.629786 390.380194 
L 374.207109 387.684488 
L 377.688174 384.865578 
L 381.06874 381.926897 
L 384.344687 378.872026 
L 387.512026 375.704687 
L 390.566897 372.42874 
L 393.505578 369.048174 
L 396.324488 365.567109 
L 399.020194 361.989786 
L 401.589411 358.320564 
L 404.029009 354.563913 
L 406.336016 350.724409 
L 408.507621 346.806731 
L 410.541177 342.815651 
L 412.434208 338.756032 
L 414.184408 334.632821 
L 415.789643 330.451041 
L 417.247958 326.215786 
L 418.557577 321.932216 
L 419.716903 317.605551 
L 420.724525 313.241061 
L 421.579215 308.844065 
L 422.27993 304.419919 
L 422.825819 299.974014 
L 423.216215 295.511766 
L 423.450643 291.038611 
L 423.528818 286.56 
L 423.528818 286.56 
" style="fill:none;stroke:#ffffff;stroke-linecap:round;"/>
     </g>
     <g id="text_12">
      <!-- 300 -->
      <g style="fill:#262626;" transform="translate(413.760368 235.264438)scale(0.11 -0.11)">
       <use xlink:href="#ArialMT-51"/>
       <use x="55.615234" xlink:href="#ArialMT-48"/>
       <use x="111.230469" xlink:href="#ArialMT-48"/>
      </g>
     </g>
    </g>
    <g id="ytick_5">
     <g id="line2d_13">
      <path clip-path="url(#p05aca655e2)" d="M 463.142591 286.56 
L 463.040285 280.698888 
L 462.733491 274.844917 
L 462.222584 269.005219 
L 461.508185 263.186909 
L 460.591165 257.397075 
L 459.472642 251.642772 
L 458.153978 245.93101 
L 456.636779 240.268748 
L 454.922895 234.662885 
L 453.014413 229.120251 
L 450.913659 223.647598 
L 448.623191 218.251594 
L 446.145801 212.938814 
L 443.484506 207.71573 
L 440.64255 202.588705 
L 437.623394 197.563986 
L 434.430718 192.647695 
L 431.06841 187.845822 
L 427.540567 183.164217 
L 423.851488 178.608584 
L 420.005667 174.184472 
L 416.00779 169.897274 
L 411.862726 165.75221 
L 407.575528 161.754333 
L 403.151416 157.908512 
L 398.595783 154.219433 
L 393.914178 150.69159 
L 389.112305 147.329282 
L 384.196014 144.136606 
L 379.171295 141.11745 
L 374.04427 138.275494 
L 368.821186 135.614199 
L 363.508406 133.136809 
L 358.112402 130.846341 
L 352.639749 128.745587 
L 347.097115 126.837105 
L 341.491252 125.123221 
L 335.82899 123.606022 
L 330.117228 122.287358 
L 324.362925 121.168835 
L 318.573091 120.251815 
L 312.754781 119.537416 
L 306.915083 119.026509 
L 301.061112 118.719715 
L 295.2 118.617409 
L 289.338888 118.719715 
L 283.484917 119.026509 
L 277.645219 119.537416 
L 271.826909 120.251815 
L 266.037075 121.168835 
L 260.282772 122.287358 
L 254.57101 123.606022 
L 248.908748 125.123221 
L 243.302885 126.837105 
L 237.760251 128.745587 
L 232.287598 130.846341 
L 226.891594 133.136809 
L 221.578814 135.614199 
L 216.35573 138.275494 
L 211.228705 141.11745 
L 206.203986 144.136606 
L 201.287695 147.329282 
L 196.485822 150.69159 
L 191.804217 154.219433 
L 187.248584 157.908512 
L 182.824472 161.754333 
L 178.537274 165.75221 
L 174.39221 169.897274 
L 170.394333 174.184472 
L 166.548512 178.608584 
L 162.859433 183.164217 
L 159.33159 187.845822 
L 155.969282 192.647695 
L 152.776606 197.563986 
L 149.75745 202.588705 
L 146.915494 207.71573 
L 144.254199 212.938814 
L 141.776809 218.251594 
L 139.486341 223.647598 
L 137.385587 229.120251 
L 135.477105 234.662885 
L 133.763221 240.268748 
L 132.246022 245.93101 
L 130.927358 251.642772 
L 129.808835 257.397075 
L 128.891815 263.186909 
L 128.177416 269.005219 
L 127.666509 274.844917 
L 127.359715 280.698888 
L 127.257409 286.56 
L 127.359715 292.421112 
L 127.666509 298.275083 
L 128.177416 304.114781 
L 128.891815 309.933091 
L 129.808835 315.722925 
L 130.927358 321.477228 
L 132.246022 327.18899 
L 133.763221 332.851252 
L 135.477105 338.457115 
L 137.385587 343.999749 
L 139.486341 349.472402 
L 141.776809 354.868406 
L 144.254199 360.181186 
L 146.915494 365.40427 
L 149.75745 370.531295 
L 152.776606 375.556014 
L 155.969282 380.472305 
L 159.33159 385.274178 
L 162.859433 389.955783 
L 166.548512 394.511416 
L 170.394333 398.935528 
L 174.39221 403.222726 
L 178.537274 407.36779 
L 182.824472 411.365667 
L 187.248584 415.211488 
L 191.804217 418.900567 
L 196.485822 422.42841 
L 201.287695 425.790718 
L 206.203986 428.983394 
L 211.228705 432.00255 
L 216.35573 434.844506 
L 221.578814 437.505801 
L 226.891594 439.983191 
L 232.287598 442.273659 
L 237.760251 444.374413 
L 243.302885 446.282895 
L 248.908748 447.996779 
L 254.57101 449.513978 
L 260.282772 450.832642 
L 266.037075 451.951165 
L 271.826909 452.868185 
L 277.645219 453.582584 
L 283.484917 454.093491 
L 289.338888 454.400285 
L 295.2 454.502591 
L 301.061112 454.400285 
L 306.915083 454.093491 
L 312.754781 453.582584 
L 318.573091 452.868185 
L 324.362925 451.951165 
L 330.117228 450.832642 
L 335.82899 449.513978 
L 341.491252 447.996779 
L 347.097115 446.282895 
L 352.639749 444.374413 
L 358.112402 442.273659 
L 363.508406 439.983191 
L 368.821186 437.505801 
L 374.04427 434.844506 
L 379.171295 432.00255 
L 384.196014 428.983394 
L 389.112305 425.790718 
L 393.914178 422.42841 
L 398.595783 418.900567 
L 403.151416 415.211488 
L 407.575528 411.365667 
L 411.862726 407.36779 
L 416.00779 403.222726 
L 420.005667 398.935528 
L 423.851488 394.511416 
L 427.540567 389.955783 
L 431.06841 385.274178 
L 434.430718 380.472305 
L 437.623394 375.556014 
L 440.64255 370.531295 
L 443.484506 365.40427 
L 446.145801 360.181186 
L 448.623191 354.868406 
L 450.913659 349.472402 
L 453.014413 343.999749 
L 454.922895 338.457115 
L 456.636779 332.851252 
L 458.153978 327.18899 
L 459.472642 321.477228 
L 460.591165 315.722925 
L 461.508185 309.933091 
L 462.222584 304.114781 
L 462.733491 298.275083 
L 463.040285 292.421112 
L 463.142591 286.56 
L 463.142591 286.56 
" style="fill:none;stroke:#ffffff;stroke-linecap:round;"/>
     </g>
     <g id="text_13">
      <!-- 400 -->
      <g style="fill:#262626;" transform="translate(450.358722 220.104903)scale(0.11 -0.11)">
       <use xlink:href="#ArialMT-52"/>
       <use x="55.615234" xlink:href="#ArialMT-48"/>
       <use x="111.230469" xlink:href="#ArialMT-48"/>
      </g>
     </g>
    </g>
    <g id="ytick_6">
     <g id="line2d_14">
      <path clip-path="url(#p05aca655e2)" d="M 502.756364 286.56 
L 502.629926 279.316387 
L 502.250767 272.0816 
L 501.619348 264.864452 
L 500.736439 257.673737 
L 499.603116 250.518216 
L 498.220759 243.406605 
L 496.591053 236.347571 
L 494.715982 229.349713 
L 492.597832 222.421556 
L 490.239183 215.571543 
L 487.642909 208.808018 
L 484.812173 202.139221 
L 481.750424 195.573279 
L 478.461392 189.11819 
L 474.949084 182.781818 
L 471.217779 176.571884 
L 467.272024 170.495954 
L 463.116625 164.56143 
L 458.756647 158.775543 
L 454.197399 153.145341 
L 449.444438 147.677685 
L 444.503553 142.379235 
L 439.380765 137.256447 
L 434.082315 132.315562 
L 428.614659 127.562601 
L 422.984457 123.003353 
L 417.19857 118.643375 
L 411.264046 114.487976 
L 405.188116 110.542221 
L 398.978182 106.810916 
L 392.64181 103.298608 
L 386.186721 100.009576 
L 379.620779 96.947827 
L 372.951982 94.117091 
L 366.188457 91.520817 
L 359.338444 89.162168 
L 352.410287 87.044018 
L 345.412429 85.168947 
L 338.353395 83.539241 
L 331.241784 82.156884 
L 324.086263 81.023561 
L 316.895548 80.140652 
L 309.6784 79.509233 
L 302.443613 79.130074 
L 295.2 79.003636 
L 287.956387 79.130074 
L 280.7216 79.509233 
L 273.504452 80.140652 
L 266.313737 81.023561 
L 259.158216 82.156884 
L 252.046605 83.539241 
L 244.987571 85.168947 
L 237.989713 87.044018 
L 231.061556 89.162168 
L 224.211543 91.520817 
L 217.448018 94.117091 
L 210.779221 96.947827 
L 204.213279 100.009576 
L 197.75819 103.298608 
L 191.421818 106.810916 
L 185.211884 110.542221 
L 179.135954 114.487976 
L 173.20143 118.643375 
L 167.415543 123.003353 
L 161.785341 127.562601 
L 156.317685 132.315562 
L 151.019235 137.256447 
L 145.896447 142.379235 
L 140.955562 147.677685 
L 136.202601 153.145341 
L 131.643353 158.775543 
L 127.283375 164.56143 
L 123.127976 170.495954 
L 119.182221 176.571884 
L 115.450916 182.781818 
L 111.938608 189.11819 
L 108.649576 195.573279 
L 105.587827 202.139221 
L 102.757091 208.808018 
L 100.160817 215.571543 
L 97.802168 222.421556 
L 95.684018 229.349713 
L 93.808947 236.347571 
L 92.179241 243.406605 
L 90.796884 250.518216 
L 89.663561 257.673737 
L 88.780652 264.864452 
L 88.149233 272.0816 
L 87.770074 279.316387 
L 87.643636 286.56 
L 87.770074 293.803613 
L 88.149233 301.0384 
L 88.780652 308.255548 
L 89.663561 315.446263 
L 90.796884 322.601784 
L 92.179241 329.713395 
L 93.808947 336.772429 
L 95.684018 343.770287 
L 97.802168 350.698444 
L 100.160817 357.548457 
L 102.757091 364.311982 
L 105.587827 370.980779 
L 108.649576 377.546721 
L 111.938608 384.00181 
L 115.450916 390.338182 
L 119.182221 396.548116 
L 123.127976 402.624046 
L 127.283375 408.55857 
L 131.643353 414.344457 
L 136.202601 419.974659 
L 140.955562 425.442315 
L 145.896447 430.740765 
L 151.019235 435.863553 
L 156.317685 440.804438 
L 161.785341 445.557399 
L 167.415543 450.116647 
L 173.20143 454.476625 
L 179.135954 458.632024 
L 185.211884 462.577779 
L 191.421818 466.309084 
L 197.75819 469.821392 
L 204.213279 473.110424 
L 210.779221 476.172173 
L 217.448018 479.002909 
L 224.211543 481.599183 
L 231.061556 483.957832 
L 237.989713 486.075982 
L 244.987571 487.951053 
L 252.046605 489.580759 
L 259.158216 490.963116 
L 266.313737 492.096439 
L 273.504452 492.979348 
L 280.7216 493.610767 
L 287.956387 493.989926 
L 295.2 494.116364 
L 302.443613 493.989926 
L 309.6784 493.610767 
L 316.895548 492.979348 
L 324.086263 492.096439 
L 331.241784 490.963116 
L 338.353395 489.580759 
L 345.412429 487.951053 
L 352.410287 486.075982 
L 359.338444 483.957832 
L 366.188457 481.599183 
L 372.951982 479.002909 
L 379.620779 476.172173 
L 386.186721 473.110424 
L 392.64181 469.821392 
L 398.978182 466.309084 
L 405.188116 462.577779 
L 411.264046 458.632024 
L 417.19857 454.476625 
L 422.984457 450.116647 
L 428.614659 445.557399 
L 434.082315 440.804438 
L 439.380765 435.863553 
L 444.503553 430.740765 
L 449.444438 425.442315 
L 454.197399 419.974659 
L 458.756647 414.344457 
L 463.116625 408.55857 
L 467.272024 402.624046 
L 471.217779 396.548116 
L 474.949084 390.338182 
L 478.461392 384.00181 
L 481.750424 377.546721 
L 484.812173 370.980779 
L 487.642909 364.311982 
L 490.239183 357.548457 
L 492.597832 350.698444 
L 494.715982 343.770287 
L 496.591053 336.772429 
L 498.220759 329.713395 
L 499.603116 322.601784 
L 500.736439 315.446263 
L 501.619348 308.255548 
L 502.250767 301.0384 
L 502.629926 293.803613 
L 502.756364 286.56 
L 502.756364 286.56 
" style="fill:none;stroke:#ffffff;stroke-linecap:round;"/>
     </g>
     <g id="text_14">
      <!-- 500 -->
      <g style="fill:#262626;" transform="translate(486.957076 204.945368)scale(0.11 -0.11)">
       <use xlink:href="#ArialMT-53"/>
       <use x="55.615234" xlink:href="#ArialMT-48"/>
       <use x="111.230469" xlink:href="#ArialMT-48"/>
      </g>
     </g>
    </g>
   </g>
   <g id="line2d_15">
    <defs>
     <path d="M 0 3 
C 0.795609 3 1.55874 2.683901 2.12132 2.12132 
C 2.683901 1.55874 3 0.795609 3 0 
C 3 -0.795609 2.683901 -1.55874 2.12132 -2.12132 
C 1.55874 -2.683901 0.795609 -3 0 -3 
C -0.795609 -3 -1.55874 -2.683901 -2.12132 -2.12132 
C -2.683901 -1.55874 -3 -0.795609 -3 0 
C -3 0.795609 -2.683901 1.55874 -2.12132 2.12132 
C -1.55874 2.683901 -0.795609 3 0 3 
z
" id="ma8f21dccc8" style="stroke:#4c72b0;"/>
    </defs>
    <g clip-path="url(#p05aca655e2)">
     <use style="fill:#4c72b0;stroke:#4c72b0;" x="502.756364" xlink:href="#ma8f21dccc8" y="286.56"/>
     <use style="fill:#4c72b0;stroke:#4c72b0;" x="88.039774" xlink:href="#ma8f21dccc8" y="286.56"/>
     <use style="fill:#4c72b0;stroke:#4c72b0;" x="88.435912" xlink:href="#ma8f21dccc8" y="286.56"/>
     <use style="fill:#4c72b0;stroke:#4c72b0;" x="88.83205" xlink:href="#ma8f21dccc8" y="286.56"/>
     <use style="fill:#4c72b0;stroke:#4c72b0;" x="295.2" xlink:href="#ma8f21dccc8" y="492.531813"/>
     <use style="fill:#4c72b0;stroke:#4c72b0;" x="494.637699" xlink:href="#ma8f21dccc8" y="236.700575"/>
     <use style="fill:#4c72b0;stroke:#4c72b0;" x="491.433844" xlink:href="#ma8f21dccc8" y="226.635706"/>
     <use style="fill:#4c72b0;stroke:#4c72b0;" x="488.342381" xlink:href="#ma8f21dccc8" y="218.499283"/>
     <use style="fill:#4c72b0;stroke:#4c72b0;" x="485.006051" xlink:href="#ma8f21dccc8" y="210.745648"/>
     <use style="fill:#4c72b0;stroke:#4c72b0;" x="480.910645" xlink:href="#ma8f21dccc8" y="202.156594"/>
     <use style="fill:#4c72b0;stroke:#4c72b0;" x="474.943875" xlink:href="#ma8f21dccc8" y="190.940661"/>
     <use style="fill:#4c72b0;stroke:#4c72b0;" x="463.537025" xlink:href="#ma8f21dccc8" y="172.751309"/>
     <use style="fill:#4c72b0;stroke:#4c72b0;" x="425.984908" xlink:href="#ma8f21dccc8" y="131.562428"/>
     <use style="fill:#4c72b0;stroke:#4c72b0;" x="167.923036" xlink:href="#ma8f21dccc8" y="129.178313"/>
     <use style="fill:#4c72b0;stroke:#4c72b0;" x="93.332845" xlink:href="#ma8f21dccc8" y="294.167083"/>
     <use style="fill:#4c72b0;stroke:#4c72b0;" x="99.661121" xlink:href="#ma8f21dccc8" y="335.680992"/>
     <use style="fill:#4c72b0;stroke:#4c72b0;" x="105.715866" xlink:href="#ma8f21dccc8" y="354.269015"/>
     <use style="fill:#4c72b0;stroke:#4c72b0;" x="110.695263" xlink:href="#ma8f21dccc8" y="365.853674"/>
     <use style="fill:#4c72b0;stroke:#4c72b0;" x="115.040608" xlink:href="#ma8f21dccc8" y="374.384419"/>
     <use style="fill:#4c72b0;stroke:#4c72b0;" x="119.040262" xlink:href="#ma8f21dccc8" y="381.320996"/>
     <use style="fill:#4c72b0;stroke:#4c72b0;" x="122.877623" xlink:href="#ma8f21dccc8" y="387.349763"/>
     <use style="fill:#4c72b0;stroke:#4c72b0;" x="126.685322" xlink:href="#ma8f21dccc8" y="392.853807"/>
     <use style="fill:#4c72b0;stroke:#4c72b0;" x="130.575515" xlink:href="#ma8f21dccc8" y="398.07975"/>
     <use style="fill:#4c72b0;stroke:#4c72b0;" x="134.658834" xlink:href="#ma8f21dccc8" y="403.209174"/>
     <use style="fill:#4c72b0;stroke:#4c72b0;" x="139.059907" xlink:href="#ma8f21dccc8" y="408.394727"/>
     <use style="fill:#4c72b0;stroke:#4c72b0;" x="143.934528" xlink:href="#ma8f21dccc8" y="413.781986"/>
     <use style="fill:#4c72b0;stroke:#4c72b0;" x="149.49359" xlink:href="#ma8f21dccc8" y="419.525711"/>
     <use style="fill:#4c72b0;stroke:#4c72b0;" x="156.041315" xlink:href="#ma8f21dccc8" y="425.804296"/>
     <use style="fill:#4c72b0;stroke:#4c72b0;" x="164.041663" xlink:href="#ma8f21dccc8" y="432.833009"/>
     <use style="fill:#4c72b0;stroke:#4c72b0;" x="174.240726" xlink:href="#ma8f21dccc8" y="440.87027"/>
     <use style="fill:#4c72b0;stroke:#4c72b0;" x="187.902488" xlink:href="#ma8f21dccc8" y="450.190273"/>
     <use style="fill:#4c72b0;stroke:#4c72b0;" x="207.270117" xlink:href="#ma8f21dccc8" y="460.91908"/>
     <use style="fill:#4c72b0;stroke:#4c72b0;" x="236.396077" xlink:href="#ma8f21dccc8" y="472.356383"/>
     <use style="fill:#4c72b0;stroke:#4c72b0;" x="281.904738" xlink:href="#ma8f21dccc8" y="480.588842"/>
     <use style="fill:#4c72b0;stroke:#4c72b0;" x="349.025741" xlink:href="#ma8f21dccc8" y="473.03471"/>
     <use style="fill:#4c72b0;stroke:#4c72b0;" x="422.827036" xlink:href="#ma8f21dccc8" y="432.257473"/>
     <use style="fill:#4c72b0;stroke:#4c72b0;" x="469.648057" xlink:href="#ma8f21dccc8" y="369.812561"/>
     <use style="fill:#4c72b0;stroke:#4c72b0;" x="485.900048" xlink:href="#ma8f21dccc8" y="315.605124"/>
     <use style="fill:#4c72b0;stroke:#4c72b0;" x="487.492029" xlink:href="#ma8f21dccc8" y="277.547204"/>
     <use style="fill:#4c72b0;stroke:#4c72b0;" x="484.073607" xlink:href="#ma8f21dccc8" y="251.462178"/>
     <use style="fill:#4c72b0;stroke:#4c72b0;" x="479.25863" xlink:href="#ma8f21dccc8" y="232.936569"/>
     <use style="fill:#4c72b0;stroke:#4c72b0;" x="474.251619" xlink:href="#ma8f21dccc8" y="219.166837"/>
     <use style="fill:#4c72b0;stroke:#4c72b0;" x="469.429676" xlink:href="#ma8f21dccc8" y="208.496412"/>
     <use style="fill:#4c72b0;stroke:#4c72b0;" x="464.888864" xlink:href="#ma8f21dccc8" y="199.931541"/>
     <use style="fill:#4c72b0;stroke:#4c72b0;" x="460.630262" xlink:href="#ma8f21dccc8" y="192.853865"/>
     <use style="fill:#4c72b0;stroke:#4c72b0;" x="456.62505" xlink:href="#ma8f21dccc8" y="186.863015"/>
     <use style="fill:#4c72b0;stroke:#4c72b0;" x="452.837656" xlink:href="#ma8f21dccc8" y="181.689872"/>
     <use style="fill:#4c72b0;stroke:#4c72b0;" x="449.233755" xlink:href="#ma8f21dccc8" y="177.147346"/>
     <use style="fill:#4c72b0;stroke:#4c72b0;" x="445.782684" xlink:href="#ma8f21dccc8" y="173.101427"/>
     <use style="fill:#4c72b0;stroke:#4c72b0;" x="442.457784" xlink:href="#ma8f21dccc8" y="169.453563"/>
     <use style="fill:#4c72b0;stroke:#4c72b0;" x="439.236028" xlink:href="#ma8f21dccc8" y="166.129569"/>
     <use style="fill:#4c72b0;stroke:#4c72b0;" x="436.097461" xlink:href="#ma8f21dccc8" y="163.072433"/>
     <use style="fill:#4c72b0;stroke:#4c72b0;" x="433.024628" xlink:href="#ma8f21dccc8" y="160.237527"/>
     <use style="fill:#4c72b0;stroke:#4c72b0;" x="430.00207" xlink:href="#ma8f21dccc8" y="157.589335"/>
     <use style="fill:#4c72b0;stroke:#4c72b0;" x="427.015893" xlink:href="#ma8f21dccc8" y="155.099169"/>
     <use style="fill:#4c72b0;stroke:#4c72b0;" x="424.053402" xlink:href="#ma8f21dccc8" y="152.743546"/>
     <use style="fill:#4c72b0;stroke:#4c72b0;" x="421.1028" xlink:href="#ma8f21dccc8" y="150.50301"/>
     <use style="fill:#4c72b0;stroke:#4c72b0;" x="418.152924" xlink:href="#ma8f21dccc8" y="148.36127"/>
     <use style="fill:#4c72b0;stroke:#4c72b0;" x="415.193026" xlink:href="#ma8f21dccc8" y="146.30456"/>
     <use style="fill:#4c72b0;stroke:#4c72b0;" x="412.212573" xlink:href="#ma8f21dccc8" y="144.321147"/>
     <use style="fill:#4c72b0;stroke:#4c72b0;" x="409.201063" xlink:href="#ma8f21dccc8" y="142.400979"/>
     <use style="fill:#4c72b0;stroke:#4c72b0;" x="406.147862" xlink:href="#ma8f21dccc8" y="140.5354"/>
     <use style="fill:#4c72b0;stroke:#4c72b0;" x="403.042035" xlink:href="#ma8f21dccc8" y="138.716951"/>
     <use style="fill:#4c72b0;stroke:#4c72b0;" x="399.872186" xlink:href="#ma8f21dccc8" y="136.939216"/>
     <use style="fill:#4c72b0;stroke:#4c72b0;" x="396.626289" xlink:href="#ma8f21dccc8" y="135.196725"/>
     <use style="fill:#4c72b0;stroke:#4c72b0;" x="393.291512" xlink:href="#ma8f21dccc8" y="133.484888"/>
     <use style="fill:#4c72b0;stroke:#4c72b0;" x="389.85403" xlink:href="#ma8f21dccc8" y="131.799977"/>
     <use style="fill:#4c72b0;stroke:#4c72b0;" x="386.298815" xlink:href="#ma8f21dccc8" y="130.139141"/>
     <use style="fill:#4c72b0;stroke:#4c72b0;" x="382.609414" xlink:href="#ma8f21dccc8" y="128.500464"/>
     <use style="fill:#4c72b0;stroke:#4c72b0;" x="378.767693" xlink:href="#ma8f21dccc8" y="126.883076"/>
     <use style="fill:#4c72b0;stroke:#4c72b0;" x="374.753561" xlink:href="#ma8f21dccc8" y="125.287308"/>
     <use style="fill:#4c72b0;stroke:#4c72b0;" x="370.544652" xlink:href="#ma8f21dccc8" y="123.714926"/>
     <use style="fill:#4c72b0;stroke:#4c72b0;" x="366.115987" xlink:href="#ma8f21dccc8" y="122.16944"/>
     <use style="fill:#4c72b0;stroke:#4c72b0;" x="361.439591" xlink:href="#ma8f21dccc8" y="120.656528"/>
     <use style="fill:#4c72b0;stroke:#4c72b0;" x="356.484097" xlink:href="#ma8f21dccc8" y="119.18458"/>
     <use style="fill:#4c72b0;stroke:#4c72b0;" x="351.214328" xlink:href="#ma8f21dccc8" y="117.76543"/>
     <use style="fill:#4c72b0;stroke:#4c72b0;" x="345.590899" xlink:href="#ma8f21dccc8" y="116.415288"/>
     <use style="fill:#4c72b0;stroke:#4c72b0;" x="339.569873" xlink:href="#ma8f21dccc8" y="115.155952"/>
     <use style="fill:#4c72b0;stroke:#4c72b0;" x="333.102554" xlink:href="#ma8f21dccc8" y="114.016349"/>
     <use style="fill:#4c72b0;stroke:#4c72b0;" x="326.135534" xlink:href="#ma8f21dccc8" y="113.034489"/>
     <use style="fill:#4c72b0;stroke:#4c72b0;" x="318.611169" xlink:href="#ma8f21dccc8" y="112.259866"/>
     <use style="fill:#4c72b0;stroke:#4c72b0;" x="310.468776" xlink:href="#ma8f21dccc8" y="111.756375"/>
     <use style="fill:#4c72b0;stroke:#4c72b0;" x="301.646918" xlink:href="#ma8f21dccc8" y="111.605672"/>
     <use style="fill:#4c72b0;stroke:#4c72b0;" x="292.087335" xlink:href="#ma8f21dccc8" y="111.910803"/>
     <use style="fill:#4c72b0;stroke:#4c72b0;" x="281.741151" xlink:href="#ma8f21dccc8" y="112.799663"/>
     <use style="fill:#4c72b0;stroke:#4c72b0;" x="270.57809" xlink:href="#ma8f21dccc8" y="114.42739"/>
     <use style="fill:#4c72b0;stroke:#4c72b0;" x="258.599227" xlink:href="#ma8f21dccc8" y="116.976246"/>
     <use style="fill:#4c72b0;stroke:#4c72b0;" x="245.853211" xlink:href="#ma8f21dccc8" y="120.650787"/>
     <use style="fill:#4c72b0;stroke:#4c72b0;" x="232.454566" xlink:href="#ma8f21dccc8" y="125.665616"/>
     <use style="fill:#4c72b0;stroke:#4c72b0;" x="218.600521" xlink:href="#ma8f21dccc8" y="132.223205"/>
     <use style="fill:#4c72b0;stroke:#4c72b0;" x="204.58022" xlink:href="#ma8f21dccc8" y="140.481153"/>
     <use style="fill:#4c72b0;stroke:#4c72b0;" x="190.768408" xlink:href="#ma8f21dccc8" y="150.512294"/>
     <use style="fill:#4c72b0;stroke:#4c72b0;" x="177.597129" xlink:href="#ma8f21dccc8" y="162.266895"/>
     <use style="fill:#4c72b0;stroke:#4c72b0;" x="165.505258" xlink:href="#ma8f21dccc8" y="175.550655"/>
     <use style="fill:#4c72b0;stroke:#4c72b0;" x="154.875773" xlink:href="#ma8f21dccc8" y="190.03117"/>
     <use style="fill:#4c72b0;stroke:#4c72b0;" x="145.978965" xlink:href="#ma8f21dccc8" y="205.276524"/>
     <use style="fill:#4c72b0;stroke:#4c72b0;" x="138.939878" xlink:href="#ma8f21dccc8" y="220.816362"/>
     <use style="fill:#4c72b0;stroke:#4c72b0;" x="133.738524" xlink:href="#ma8f21dccc8" y="236.20637"/>
     <use style="fill:#4c72b0;stroke:#4c72b0;" x="130.238005" xlink:href="#ma8f21dccc8" y="251.077677"/>
     <use style="fill:#4c72b0;stroke:#4c72b0;" x="128.226822" xlink:href="#ma8f21dccc8" y="265.161748"/>
     <use style="fill:#4c72b0;stroke:#4c72b0;" x="127.461056" xlink:href="#ma8f21dccc8" y="278.291955"/>
     <use style="fill:#4c72b0;stroke:#4c72b0;" x="127.697317" xlink:href="#ma8f21dccc8" y="290.38952"/>
     <use style="fill:#4c72b0;stroke:#4c72b0;" x="128.713556" xlink:href="#ma8f21dccc8" y="301.442604"/>
     <use style="fill:#4c72b0;stroke:#4c72b0;" x="130.319151" xlink:href="#ma8f21dccc8" y="311.485116"/>
     <use style="fill:#4c72b0;stroke:#4c72b0;" x="132.35738" xlink:href="#ma8f21dccc8" y="320.578796"/>
     <use style="fill:#4c72b0;stroke:#4c72b0;" x="134.703395" xlink:href="#ma8f21dccc8" y="328.799707"/>
     <use style="fill:#4c72b0;stroke:#4c72b0;" x="137.260073" xlink:href="#ma8f21dccc8" y="336.228921"/>
     <use style="fill:#4c72b0;stroke:#4c72b0;" x="139.953236" xlink:href="#ma8f21dccc8" y="342.946593"/>
     <use style="fill:#4c72b0;stroke:#4c72b0;" x="142.72709" xlink:href="#ma8f21dccc8" y="349.028507"/>
     <use style="fill:#4c72b0;stroke:#4c72b0;" x="145.540228" xlink:href="#ma8f21dccc8" y="354.544308"/>
     <use style="fill:#4c72b0;stroke:#4c72b0;" x="148.36233" xlink:href="#ma8f21dccc8" y="359.55683"/>
     <use style="fill:#4c72b0;stroke:#4c72b0;" x="151.171521" xlink:href="#ma8f21dccc8" y="364.122067"/>
     <use style="fill:#4c72b0;stroke:#4c72b0;" x="153.952299" xlink:href="#ma8f21dccc8" y="368.289532"/>
     <use style="fill:#4c72b0;stroke:#4c72b0;" x="156.693942" xlink:href="#ma8f21dccc8" y="372.102782"/>
     <use style="fill:#4c72b0;stroke:#4c72b0;" x="159.38929" xlink:href="#ma8f21dccc8" y="375.600031"/>
     <use style="fill:#4c72b0;stroke:#4c72b0;" x="162.033828" xlink:href="#ma8f21dccc8" y="378.814759"/>
     <use style="fill:#4c72b0;stroke:#4c72b0;" x="164.624982" xlink:href="#ma8f21dccc8" y="381.776294"/>
     <use style="fill:#4c72b0;stroke:#4c72b0;" x="167.161604" xlink:href="#ma8f21dccc8" y="384.510339"/>
     <use style="fill:#4c72b0;stroke:#4c72b0;" x="169.643576" xlink:href="#ma8f21dccc8" y="387.039448"/>
     <use style="fill:#4c72b0;stroke:#4c72b0;" x="172.071516" xlink:href="#ma8f21dccc8" y="389.383446"/>
     <use style="fill:#4c72b0;stroke:#4c72b0;" x="174.446563" xlink:href="#ma8f21dccc8" y="391.559788"/>
     <use style="fill:#4c72b0;stroke:#4c72b0;" x="176.770212" xlink:href="#ma8f21dccc8" y="393.583877"/>
     <use style="fill:#4c72b0;stroke:#4c72b0;" x="179.04419" xlink:href="#ma8f21dccc8" y="395.469338"/>
     <use style="fill:#4c72b0;stroke:#4c72b0;" x="181.270373" xlink:href="#ma8f21dccc8" y="397.228247"/>
     <use style="fill:#4c72b0;stroke:#4c72b0;" x="183.450712" xlink:href="#ma8f21dccc8" y="398.871336"/>
     <use style="fill:#4c72b0;stroke:#4c72b0;" x="185.587193" xlink:href="#ma8f21dccc8" y="400.408164"/>
     <use style="fill:#4c72b0;stroke:#4c72b0;" x="187.681795" xlink:href="#ma8f21dccc8" y="401.847268"/>
     <use style="fill:#4c72b0;stroke:#4c72b0;" x="189.736473" xlink:href="#ma8f21dccc8" y="403.196286"/>
     <use style="fill:#4c72b0;stroke:#4c72b0;" x="191.753133" xlink:href="#ma8f21dccc8" y="404.462072"/>
     <use style="fill:#4c72b0;stroke:#4c72b0;" x="193.733626" xlink:href="#ma8f21dccc8" y="405.650787"/>
     <use style="fill:#4c72b0;stroke:#4c72b0;" x="195.679737" xlink:href="#ma8f21dccc8" y="406.767986"/>
     <use style="fill:#4c72b0;stroke:#4c72b0;" x="197.593186" xlink:href="#ma8f21dccc8" y="407.818682"/>
     <use style="fill:#4c72b0;stroke:#4c72b0;" x="199.475619" xlink:href="#ma8f21dccc8" y="408.807415"/>
     <use style="fill:#4c72b0;stroke:#4c72b0;" x="201.328612" xlink:href="#ma8f21dccc8" y="409.738299"/>
     <use style="fill:#4c72b0;stroke:#4c72b0;" x="203.153671" xlink:href="#ma8f21dccc8" y="410.615074"/>
     <use style="fill:#4c72b0;stroke:#4c72b0;" x="204.952234" xlink:href="#ma8f21dccc8" y="411.441144"/>
     <use style="fill:#4c72b0;stroke:#4c72b0;" x="206.725674" xlink:href="#ma8f21dccc8" y="412.219611"/>
     <use style="fill:#4c72b0;stroke:#4c72b0;" x="208.475298" xlink:href="#ma8f21dccc8" y="412.953311"/>
     <use style="fill:#4c72b0;stroke:#4c72b0;" x="210.202355" xlink:href="#ma8f21dccc8" y="413.644837"/>
     <use style="fill:#4c72b0;stroke:#4c72b0;" x="211.908034" xlink:href="#ma8f21dccc8" y="414.296566"/>
     <use style="fill:#4c72b0;stroke:#4c72b0;" x="213.593471" xlink:href="#ma8f21dccc8" y="414.910679"/>
     <use style="fill:#4c72b0;stroke:#4c72b0;" x="215.259752" xlink:href="#ma8f21dccc8" y="415.489179"/>
     <use style="fill:#4c72b0;stroke:#4c72b0;" x="216.907912" xlink:href="#ma8f21dccc8" y="416.03391"/>
     <use style="fill:#4c72b0;stroke:#4c72b0;" x="218.538942" xlink:href="#ma8f21dccc8" y="416.54657"/>
     <use style="fill:#4c72b0;stroke:#4c72b0;" x="220.153789" xlink:href="#ma8f21dccc8" y="417.028725"/>
     <use style="fill:#4c72b0;stroke:#4c72b0;" x="221.753362" xlink:href="#ma8f21dccc8" y="417.481819"/>
     <use style="fill:#4c72b0;stroke:#4c72b0;" x="223.338531" xlink:href="#ma8f21dccc8" y="417.907189"/>
     <use style="fill:#4c72b0;stroke:#4c72b0;" x="224.910131" xlink:href="#ma8f21dccc8" y="418.306068"/>
     <use style="fill:#4c72b0;stroke:#4c72b0;" x="226.468966" xlink:href="#ma8f21dccc8" y="418.679597"/>
     <use style="fill:#4c72b0;stroke:#4c72b0;" x="228.015806" xlink:href="#ma8f21dccc8" y="419.028834"/>
     <use style="fill:#4c72b0;stroke:#4c72b0;" x="229.551396" xlink:href="#ma8f21dccc8" y="419.354757"/>
     <use style="fill:#4c72b0;stroke:#4c72b0;" x="231.076453" xlink:href="#ma8f21dccc8" y="419.658273"/>
     <use style="fill:#4c72b0;stroke:#4c72b0;" x="232.591668" xlink:href="#ma8f21dccc8" y="419.940219"/>
     <use style="fill:#4c72b0;stroke:#4c72b0;" x="234.097712" xlink:href="#ma8f21dccc8" y="420.201374"/>
     <use style="fill:#4c72b0;stroke:#4c72b0;" x="235.595232" xlink:href="#ma8f21dccc8" y="420.442456"/>
     <use style="fill:#4c72b0;stroke:#4c72b0;" x="237.084855" xlink:href="#ma8f21dccc8" y="420.664133"/>
     <use style="fill:#4c72b0;stroke:#4c72b0;" x="238.567192" xlink:href="#ma8f21dccc8" y="420.86702"/>
     <use style="fill:#4c72b0;stroke:#4c72b0;" x="240.042835" xlink:href="#ma8f21dccc8" y="421.051685"/>
     <use style="fill:#4c72b0;stroke:#4c72b0;" x="241.512359" xlink:href="#ma8f21dccc8" y="421.218654"/>
     <use style="fill:#4c72b0;stroke:#4c72b0;" x="242.976328" xlink:href="#ma8f21dccc8" y="421.36841"/>
     <use style="fill:#4c72b0;stroke:#4c72b0;" x="244.435288" xlink:href="#ma8f21dccc8" y="421.501397"/>
     <use style="fill:#4c72b0;stroke:#4c72b0;" x="245.889775" xlink:href="#ma8f21dccc8" y="421.618022"/>
     <use style="fill:#4c72b0;stroke:#4c72b0;" x="247.340314" xlink:href="#ma8f21dccc8" y="421.718659"/>
     <use style="fill:#4c72b0;stroke:#4c72b0;" x="248.787418" xlink:href="#ma8f21dccc8" y="421.803646"/>
     <use style="fill:#4c72b0;stroke:#4c72b0;" x="250.23159" xlink:href="#ma8f21dccc8" y="421.873289"/>
     <use style="fill:#4c72b0;stroke:#4c72b0;" x="251.673325" xlink:href="#ma8f21dccc8" y="421.927867"/>
     <use style="fill:#4c72b0;stroke:#4c72b0;" x="253.113109" xlink:href="#ma8f21dccc8" y="421.967624"/>
     <use style="fill:#4c72b0;stroke:#4c72b0;" x="254.551422" xlink:href="#ma8f21dccc8" y="421.992782"/>
     <use style="fill:#4c72b0;stroke:#4c72b0;" x="255.988736" xlink:href="#ma8f21dccc8" y="422.003532"/>
     <use style="fill:#4c72b0;stroke:#4c72b0;" x="257.425516" xlink:href="#ma8f21dccc8" y="422.000037"/>
     <use style="fill:#4c72b0;stroke:#4c72b0;" x="258.862222" xlink:href="#ma8f21dccc8" y="421.98244"/>
     <use style="fill:#4c72b0;stroke:#4c72b0;" x="260.299311" xlink:href="#ma8f21dccc8" y="421.950852"/>
     <use style="fill:#4c72b0;stroke:#4c72b0;" x="261.737232" xlink:href="#ma8f21dccc8" y="421.905364"/>
     <use style="fill:#4c72b0;stroke:#4c72b0;" x="263.176433" xlink:href="#ma8f21dccc8" y="421.846041"/>
     <use style="fill:#4c72b0;stroke:#4c72b0;" x="264.617355" xlink:href="#ma8f21dccc8" y="421.772924"/>
     <use style="fill:#4c72b0;stroke:#4c72b0;" x="266.060439" xlink:href="#ma8f21dccc8" y="421.68603"/>
     <use style="fill:#4c72b0;stroke:#4c72b0;" x="267.50612" xlink:href="#ma8f21dccc8" y="421.585353"/>
     <use style="fill:#4c72b0;stroke:#4c72b0;" x="268.954833" xlink:href="#ma8f21dccc8" y="421.470862"/>
     <use style="fill:#4c72b0;stroke:#4c72b0;" x="270.407008" xlink:href="#ma8f21dccc8" y="421.342505"/>
     <use style="fill:#4c72b0;stroke:#4c72b0;" x="271.863075" xlink:href="#ma8f21dccc8" y="421.200204"/>
     <use style="fill:#4c72b0;stroke:#4c72b0;" x="273.32346" xlink:href="#ma8f21dccc8" y="421.043858"/>
     <use style="fill:#4c72b0;stroke:#4c72b0;" x="274.788588" xlink:href="#ma8f21dccc8" y="420.87334"/>
     <use style="fill:#4c72b0;stroke:#4c72b0;" x="276.258882" xlink:href="#ma8f21dccc8" y="420.688502"/>
     <use style="fill:#4c72b0;stroke:#4c72b0;" x="277.734763" xlink:href="#ma8f21dccc8" y="420.489169"/>
     <use style="fill:#4c72b0;stroke:#4c72b0;" x="279.216648" xlink:href="#ma8f21dccc8" y="420.275142"/>
     <use style="fill:#4c72b0;stroke:#4c72b0;" x="280.704956" xlink:href="#ma8f21dccc8" y="420.046194"/>
     <use style="fill:#4c72b0;stroke:#4c72b0;" x="282.2001" xlink:href="#ma8f21dccc8" y="419.802074"/>
     <use style="fill:#4c72b0;stroke:#4c72b0;" x="283.702492" xlink:href="#ma8f21dccc8" y="419.542503"/>
     <use style="fill:#4c72b0;stroke:#4c72b0;" x="285.212541" xlink:href="#ma8f21dccc8" y="419.267176"/>
     <use style="fill:#4c72b0;stroke:#4c72b0;" x="286.730652" xlink:href="#ma8f21dccc8" y="418.975758"/>
     <use style="fill:#4c72b0;stroke:#4c72b0;" x="288.257226" xlink:href="#ma8f21dccc8" y="418.667886"/>
     <use style="fill:#4c72b0;stroke:#4c72b0;" x="289.792662" xlink:href="#ma8f21dccc8" y="418.343167"/>
     <use style="fill:#4c72b0;stroke:#4c72b0;" x="291.337351" xlink:href="#ma8f21dccc8" y="418.001176"/>
     <use style="fill:#4c72b0;stroke:#4c72b0;" x="292.891679" xlink:href="#ma8f21dccc8" y="417.641459"/>
     <use style="fill:#4c72b0;stroke:#4c72b0;" x="294.456026" xlink:href="#ma8f21dccc8" y="417.263527"/>
     <use style="fill:#4c72b0;stroke:#4c72b0;" x="296.030763" xlink:href="#ma8f21dccc8" y="416.866858"/>
     <use style="fill:#4c72b0;stroke:#4c72b0;" x="297.616251" xlink:href="#ma8f21dccc8" y="416.450897"/>
     <use style="fill:#4c72b0;stroke:#4c72b0;" x="299.212843" xlink:href="#ma8f21dccc8" y="416.015051"/>
     <use style="fill:#4c72b0;stroke:#4c72b0;" x="300.820878" xlink:href="#ma8f21dccc8" y="415.558692"/>
     <use style="fill:#4c72b0;stroke:#4c72b0;" x="302.440681" xlink:href="#ma8f21dccc8" y="415.081153"/>
     <use style="fill:#4c72b0;stroke:#4c72b0;" x="304.072564" xlink:href="#ma8f21dccc8" y="414.581729"/>
     <use style="fill:#4c72b0;stroke:#4c72b0;" x="305.716818" xlink:href="#ma8f21dccc8" y="414.059675"/>
     <use style="fill:#4c72b0;stroke:#4c72b0;" x="307.373715" xlink:href="#ma8f21dccc8" y="413.514205"/>
     <use style="fill:#4c72b0;stroke:#4c72b0;" x="309.043505" xlink:href="#ma8f21dccc8" y="412.944492"/>
     <use style="fill:#4c72b0;stroke:#4c72b0;" x="310.726412" xlink:href="#ma8f21dccc8" y="412.349664"/>
     <use style="fill:#4c72b0;stroke:#4c72b0;" x="312.422632" xlink:href="#ma8f21dccc8" y="411.728809"/>
     <use style="fill:#4c72b0;stroke:#4c72b0;" x="314.132328" xlink:href="#ma8f21dccc8" y="411.080966"/>
     <use style="fill:#4c72b0;stroke:#4c72b0;" x="315.855629" xlink:href="#ma8f21dccc8" y="410.405135"/>
     <use style="fill:#4c72b0;stroke:#4c72b0;" x="317.592622" xlink:href="#ma8f21dccc8" y="409.700265"/>
     <use style="fill:#4c72b0;stroke:#4c72b0;" x="319.343353" xlink:href="#ma8f21dccc8" y="408.965265"/>
     <use style="fill:#4c72b0;stroke:#4c72b0;" x="321.107817" xlink:href="#ma8f21dccc8" y="408.198996"/>
     <use style="fill:#4c72b0;stroke:#4c72b0;" x="322.885958" xlink:href="#ma8f21dccc8" y="407.400273"/>
     <use style="fill:#4c72b0;stroke:#4c72b0;" x="324.677659" xlink:href="#ma8f21dccc8" y="406.567871"/>
     <use style="fill:#4c72b0;stroke:#4c72b0;" x="326.48274" xlink:href="#ma8f21dccc8" y="405.700518"/>
     <use style="fill:#4c72b0;stroke:#4c72b0;" x="328.30095" xlink:href="#ma8f21dccc8" y="404.796902"/>
     <use style="fill:#4c72b0;stroke:#4c72b0;" x="330.131963" xlink:href="#ma8f21dccc8" y="403.855673"/>
     <use style="fill:#4c72b0;stroke:#4c72b0;" x="331.975366" xlink:href="#ma8f21dccc8" y="402.875443"/>
     <use style="fill:#4c72b0;stroke:#4c72b0;" x="333.83066" xlink:href="#ma8f21dccc8" y="401.854791"/>
     <use style="fill:#4c72b0;stroke:#4c72b0;" x="335.697244" xlink:href="#ma8f21dccc8" y="400.792265"/>
     <use style="fill:#4c72b0;stroke:#4c72b0;" x="337.574416" xlink:href="#ma8f21dccc8" y="399.686392"/>
     <use style="fill:#4c72b0;stroke:#4c72b0;" x="339.461359" xlink:href="#ma8f21dccc8" y="398.535677"/>
     <use style="fill:#4c72b0;stroke:#4c72b0;" x="341.357135" xlink:href="#ma8f21dccc8" y="397.338613"/>
     <use style="fill:#4c72b0;stroke:#4c72b0;" x="343.260681" xlink:href="#ma8f21dccc8" y="396.09369"/>
     <use style="fill:#4c72b0;stroke:#4c72b0;" x="345.170794" xlink:href="#ma8f21dccc8" y="394.7994"/>
     <use style="fill:#4c72b0;stroke:#4c72b0;" x="347.086133" xlink:href="#ma8f21dccc8" y="393.454251"/>
     <use style="fill:#4c72b0;stroke:#4c72b0;" x="349.005202" xlink:href="#ma8f21dccc8" y="392.056775"/>
     <use style="fill:#4c72b0;stroke:#4c72b0;" x="350.92635" xlink:href="#ma8f21dccc8" y="390.605541"/>
     <use style="fill:#4c72b0;stroke:#4c72b0;" x="352.847765" xlink:href="#ma8f21dccc8" y="389.099169"/>
     <use style="fill:#4c72b0;stroke:#4c72b0;" x="354.767463" xlink:href="#ma8f21dccc8" y="387.536346"/>
     <use style="fill:#4c72b0;stroke:#4c72b0;" x="356.683293" xlink:href="#ma8f21dccc8" y="385.915839"/>
     <use style="fill:#4c72b0;stroke:#4c72b0;" x="358.592927" xlink:href="#ma8f21dccc8" y="384.236515"/>
     <use style="fill:#4c72b0;stroke:#4c72b0;" x="360.49386" xlink:href="#ma8f21dccc8" y="382.497361"/>
     <use style="fill:#4c72b0;stroke:#4c72b0;" x="362.383415" xlink:href="#ma8f21dccc8" y="380.697499"/>
     <use style="fill:#4c72b0;stroke:#4c72b0;" x="364.258742" xlink:href="#ma8f21dccc8" y="378.836208"/>
     <use style="fill:#4c72b0;stroke:#4c72b0;" x="366.116821" xlink:href="#ma8f21dccc8" y="376.912947"/>
     <use style="fill:#4c72b0;stroke:#4c72b0;" x="367.954476" xlink:href="#ma8f21dccc8" y="374.927374"/>
     <use style="fill:#4c72b0;stroke:#4c72b0;" x="369.76838" xlink:href="#ma8f21dccc8" y="372.879368"/>
     <use style="fill:#4c72b0;stroke:#4c72b0;" x="371.555067" xlink:href="#ma8f21dccc8" y="370.76905"/>
     <use style="fill:#4c72b0;stroke:#4c72b0;" x="373.310953" xlink:href="#ma8f21dccc8" y="368.596802"/>
     <use style="fill:#4c72b0;stroke:#4c72b0;" x="375.032352" xlink:href="#ma8f21dccc8" y="366.363289"/>
     <use style="fill:#4c72b0;stroke:#4c72b0;" x="376.715499" xlink:href="#ma8f21dccc8" y="364.069471"/>
     <use style="fill:#4c72b0;stroke:#4c72b0;" x="378.356572" xlink:href="#ma8f21dccc8" y="361.716625"/>
     <use style="fill:#4c72b0;stroke:#4c72b0;" x="379.951728" xlink:href="#ma8f21dccc8" y="359.306351"/>
     <use style="fill:#4c72b0;stroke:#4c72b0;" x="381.497122" xlink:href="#ma8f21dccc8" y="356.840583"/>
     <use style="fill:#4c72b0;stroke:#4c72b0;" x="382.988953" xlink:href="#ma8f21dccc8" y="354.321598"/>
     <use style="fill:#4c72b0;stroke:#4c72b0;" x="384.423487" xlink:href="#ma8f21dccc8" y="351.752012"/>
     <use style="fill:#4c72b0;stroke:#4c72b0;" x="385.797099" xlink:href="#ma8f21dccc8" y="349.13478"/>
     <use style="fill:#4c72b0;stroke:#4c72b0;" x="387.106309" xlink:href="#ma8f21dccc8" y="346.473188"/>
     <use style="fill:#4c72b0;stroke:#4c72b0;" x="388.347817" xlink:href="#ma8f21dccc8" y="343.770837"/>
     <use style="fill:#4c72b0;stroke:#4c72b0;" x="389.518541" xlink:href="#ma8f21dccc8" y="341.03163"/>
     <use style="fill:#4c72b0;stroke:#4c72b0;" x="390.615648" xlink:href="#ma8f21dccc8" y="338.259746"/>
     <use style="fill:#4c72b0;stroke:#4c72b0;" x="391.636586" xlink:href="#ma8f21dccc8" y="335.459612"/>
     <use style="fill:#4c72b0;stroke:#4c72b0;" x="392.579117" xlink:href="#ma8f21dccc8" y="332.635874"/>
     <use style="fill:#4c72b0;stroke:#4c72b0;" x="393.441339" xlink:href="#ma8f21dccc8" y="329.79336"/>
     <use style="fill:#4c72b0;stroke:#4c72b0;" x="394.221705" xlink:href="#ma8f21dccc8" y="326.937038"/>
     <use style="fill:#4c72b0;stroke:#4c72b0;" x="394.919042" xlink:href="#ma8f21dccc8" y="324.071984"/>
     <use style="fill:#4c72b0;stroke:#4c72b0;" x="395.532563" xlink:href="#ma8f21dccc8" y="321.203327"/>
     <use style="fill:#4c72b0;stroke:#4c72b0;" x="396.061867" xlink:href="#ma8f21dccc8" y="318.336215"/>
     <use style="fill:#4c72b0;stroke:#4c72b0;" x="396.506945" xlink:href="#ma8f21dccc8" y="315.475767"/>
     <use style="fill:#4c72b0;stroke:#4c72b0;" x="396.868171" xlink:href="#ma8f21dccc8" y="312.62703"/>
     <use style="fill:#4c72b0;stroke:#4c72b0;" x="397.146294" xlink:href="#ma8f21dccc8" y="309.794942"/>
     <use style="fill:#4c72b0;stroke:#4c72b0;" x="397.342421" xlink:href="#ma8f21dccc8" y="306.984287"/>
     <use style="fill:#4c72b0;stroke:#4c72b0;" x="397.457996" xlink:href="#ma8f21dccc8" y="304.199666"/>
     <use style="fill:#4c72b0;stroke:#4c72b0;" x="397.494783" xlink:href="#ma8f21dccc8" y="301.44546"/>
     <use style="fill:#4c72b0;stroke:#4c72b0;" x="397.45483" xlink:href="#ma8f21dccc8" y="298.725809"/>
     <use style="fill:#4c72b0;stroke:#4c72b0;" x="397.34045" xlink:href="#ma8f21dccc8" y="296.04458"/>
     <use style="fill:#4c72b0;stroke:#4c72b0;" x="397.154182" xlink:href="#ma8f21dccc8" y="293.405358"/>
     <use style="fill:#4c72b0;stroke:#4c72b0;" x="396.898765" xlink:href="#ma8f21dccc8" y="290.811426"/>
     <use style="fill:#4c72b0;stroke:#4c72b0;" x="396.577103" xlink:href="#ma8f21dccc8" y="288.265756"/>
     <use style="fill:#4c72b0;stroke:#4c72b0;" x="396.192232" xlink:href="#ma8f21dccc8" y="285.771006"/>
     <use style="fill:#4c72b0;stroke:#4c72b0;" x="395.747294" xlink:href="#ma8f21dccc8" y="283.32952"/>
     <use style="fill:#4c72b0;stroke:#4c72b0;" x="395.245499" xlink:href="#ma8f21dccc8" y="280.943326"/>
     <use style="fill:#4c72b0;stroke:#4c72b0;" x="394.690105" xlink:href="#ma8f21dccc8" y="278.614149"/>
     <use style="fill:#4c72b0;stroke:#4c72b0;" x="394.084383" xlink:href="#ma8f21dccc8" y="276.343413"/>
     <use style="fill:#4c72b0;stroke:#4c72b0;" x="393.431601" xlink:href="#ma8f21dccc8" y="274.132259"/>
     <use style="fill:#4c72b0;stroke:#4c72b0;" x="392.734994" xlink:href="#ma8f21dccc8" y="271.981554"/>
     <use style="fill:#4c72b0;stroke:#4c72b0;" x="391.997752" xlink:href="#ma8f21dccc8" y="269.891909"/>
     <use style="fill:#4c72b0;stroke:#4c72b0;" x="391.222997" xlink:href="#ma8f21dccc8" y="267.863695"/>
     <use style="fill:#4c72b0;stroke:#4c72b0;" x="390.413771" xlink:href="#ma8f21dccc8" y="265.897057"/>
     <use style="fill:#4c72b0;stroke:#4c72b0;" x="389.573024" xlink:href="#ma8f21dccc8" y="263.991939"/>
     <use style="fill:#4c72b0;stroke:#4c72b0;" x="388.7036" xlink:href="#ma8f21dccc8" y="262.148095"/>
     <use style="fill:#4c72b0;stroke:#4c72b0;" x="387.808235" xlink:href="#ma8f21dccc8" y="260.36511"/>
     <use style="fill:#4c72b0;stroke:#4c72b0;" x="386.889547" xlink:href="#ma8f21dccc8" y="258.642416"/>
     <use style="fill:#4c72b0;stroke:#4c72b0;" x="385.950031" xlink:href="#ma8f21dccc8" y="256.979312"/>
     <use style="fill:#4c72b0;stroke:#4c72b0;" x="384.992061" xlink:href="#ma8f21dccc8" y="255.374976"/>
     <use style="fill:#4c72b0;stroke:#4c72b0;" x="384.017883" xlink:href="#ma8f21dccc8" y="253.828483"/>
     <use style="fill:#4c72b0;stroke:#4c72b0;" x="383.029618" xlink:href="#ma8f21dccc8" y="252.33882"/>
     <use style="fill:#4c72b0;stroke:#4c72b0;" x="382.029264" xlink:href="#ma8f21dccc8" y="250.904899"/>
     <use style="fill:#4c72b0;stroke:#4c72b0;" x="381.018694" xlink:href="#ma8f21dccc8" y="249.525567"/>
     <use style="fill:#4c72b0;stroke:#4c72b0;" x="379.999663" xlink:href="#ma8f21dccc8" y="248.199623"/>
     <use style="fill:#4c72b0;stroke:#4c72b0;" x="378.97381" xlink:href="#ma8f21dccc8" y="246.925824"/>
     <use style="fill:#4c72b0;stroke:#4c72b0;" x="377.942661" xlink:href="#ma8f21dccc8" y="245.702897"/>
     <use style="fill:#4c72b0;stroke:#4c72b0;" x="376.907634" xlink:href="#ma8f21dccc8" y="244.529547"/>
     <use style="fill:#4c72b0;stroke:#4c72b0;" x="375.870041" xlink:href="#ma8f21dccc8" y="243.404465"/>
     <use style="fill:#4c72b0;stroke:#4c72b0;" x="374.831099" xlink:href="#ma8f21dccc8" y="242.326336"/>
     <use style="fill:#4c72b0;stroke:#4c72b0;" x="373.791927" xlink:href="#ma8f21dccc8" y="241.293842"/>
     <use style="fill:#4c72b0;stroke:#4c72b0;" x="372.753557" xlink:href="#ma8f21dccc8" y="240.305673"/>
     <use style="fill:#4c72b0;stroke:#4c72b0;" x="371.716936" xlink:href="#ma8f21dccc8" y="239.360526"/>
     <use style="fill:#4c72b0;stroke:#4c72b0;" x="370.68293" xlink:href="#ma8f21dccc8" y="238.457114"/>
     <use style="fill:#4c72b0;stroke:#4c72b0;" x="369.652332" xlink:href="#ma8f21dccc8" y="237.594163"/>
     <use style="fill:#4c72b0;stroke:#4c72b0;" x="368.625863" xlink:href="#ma8f21dccc8" y="236.770425"/>
     <use style="fill:#4c72b0;stroke:#4c72b0;" x="367.604181" xlink:href="#ma8f21dccc8" y="235.984671"/>
     <use style="fill:#4c72b0;stroke:#4c72b0;" x="366.587879" xlink:href="#ma8f21dccc8" y="235.235696"/>
     <use style="fill:#4c72b0;stroke:#4c72b0;" x="365.577494" xlink:href="#ma8f21dccc8" y="234.522326"/>
     <use style="fill:#4c72b0;stroke:#4c72b0;" x="364.573512" xlink:href="#ma8f21dccc8" y="233.843411"/>
     <use style="fill:#4c72b0;stroke:#4c72b0;" x="363.576365" xlink:href="#ma8f21dccc8" y="233.19783"/>
     <use style="fill:#4c72b0;stroke:#4c72b0;" x="362.586444" xlink:href="#ma8f21dccc8" y="232.584495"/>
     <use style="fill:#4c72b0;stroke:#4c72b0;" x="361.604093" xlink:href="#ma8f21dccc8" y="232.002345"/>
     <use style="fill:#4c72b0;stroke:#4c72b0;" x="360.629618" xlink:href="#ma8f21dccc8" y="231.450351"/>
     <use style="fill:#4c72b0;stroke:#4c72b0;" x="359.663291" xlink:href="#ma8f21dccc8" y="230.927515"/>
     <use style="fill:#4c72b0;stroke:#4c72b0;" x="358.705347" xlink:href="#ma8f21dccc8" y="230.432867"/>
     <use style="fill:#4c72b0;stroke:#4c72b0;" x="357.755992" xlink:href="#ma8f21dccc8" y="229.965471"/>
     <use style="fill:#4c72b0;stroke:#4c72b0;" x="356.815403" xlink:href="#ma8f21dccc8" y="229.52442"/>
     <use style="fill:#4c72b0;stroke:#4c72b0;" x="355.883731" xlink:href="#ma8f21dccc8" y="229.108834"/>
     <use style="fill:#4c72b0;stroke:#4c72b0;" x="354.961104" xlink:href="#ma8f21dccc8" y="228.717866"/>
     <use style="fill:#4c72b0;stroke:#4c72b0;" x="354.047625" xlink:href="#ma8f21dccc8" y="228.350697"/>
     <use style="fill:#4c72b0;stroke:#4c72b0;" x="353.143382" xlink:href="#ma8f21dccc8" y="228.006533"/>
     <use style="fill:#4c72b0;stroke:#4c72b0;" x="352.248439" xlink:href="#ma8f21dccc8" y="227.684612"/>
     <use style="fill:#4c72b0;stroke:#4c72b0;" x="351.362847" xlink:href="#ma8f21dccc8" y="227.384195"/>
     <use style="fill:#4c72b0;stroke:#4c72b0;" x="350.486642" xlink:href="#ma8f21dccc8" y="227.104571"/>
     <use style="fill:#4c72b0;stroke:#4c72b0;" x="349.619843" xlink:href="#ma8f21dccc8" y="226.845054"/>
     <use style="fill:#4c72b0;stroke:#4c72b0;" x="348.76246" xlink:href="#ma8f21dccc8" y="226.604982"/>
     <use style="fill:#4c72b0;stroke:#4c72b0;" x="347.914489" xlink:href="#ma8f21dccc8" y="226.383718"/>
     <use style="fill:#4c72b0;stroke:#4c72b0;" x="347.075918" xlink:href="#ma8f21dccc8" y="226.180646"/>
     <use style="fill:#4c72b0;stroke:#4c72b0;" x="346.246722" xlink:href="#ma8f21dccc8" y="225.995175"/>
     <use style="fill:#4c72b0;stroke:#4c72b0;" x="345.426873" xlink:href="#ma8f21dccc8" y="225.826733"/>
     <use style="fill:#4c72b0;stroke:#4c72b0;" x="344.616331" xlink:href="#ma8f21dccc8" y="225.67477"/>
     <use style="fill:#4c72b0;stroke:#4c72b0;" x="343.81505" xlink:href="#ma8f21dccc8" y="225.538757"/>
     <use style="fill:#4c72b0;stroke:#4c72b0;" x="343.022981" xlink:href="#ma8f21dccc8" y="225.418183"/>
     <use style="fill:#4c72b0;stroke:#4c72b0;" x="342.240066" xlink:href="#ma8f21dccc8" y="225.312555"/>
     <use style="fill:#4c72b0;stroke:#4c72b0;" x="341.466244" xlink:href="#ma8f21dccc8" y="225.221401"/>
     <use style="fill:#4c72b0;stroke:#4c72b0;" x="340.701451" xlink:href="#ma8f21dccc8" y="225.144262"/>
     <use style="fill:#4c72b0;stroke:#4c72b0;" x="339.945615" xlink:href="#ma8f21dccc8" y="225.080701"/>
     <use style="fill:#4c72b0;stroke:#4c72b0;" x="339.198667" xlink:href="#ma8f21dccc8" y="225.030291"/>
     <use style="fill:#4c72b0;stroke:#4c72b0;" x="338.46053" xlink:href="#ma8f21dccc8" y="224.992626"/>
     <use style="fill:#4c72b0;stroke:#4c72b0;" x="337.731127" xlink:href="#ma8f21dccc8" y="224.967311"/>
     <use style="fill:#4c72b0;stroke:#4c72b0;" x="337.010378" xlink:href="#ma8f21dccc8" y="224.953967"/>
     <use style="fill:#4c72b0;stroke:#4c72b0;" x="336.298203" xlink:href="#ma8f21dccc8" y="224.952229"/>
     <use style="fill:#4c72b0;stroke:#4c72b0;" x="335.59452" xlink:href="#ma8f21dccc8" y="224.961744"/>
     <use style="fill:#4c72b0;stroke:#4c72b0;" x="334.899244" xlink:href="#ma8f21dccc8" y="224.982172"/>
     <use style="fill:#4c72b0;stroke:#4c72b0;" x="334.212291" xlink:href="#ma8f21dccc8" y="225.013185"/>
     <use style="fill:#4c72b0;stroke:#4c72b0;" x="333.533575" xlink:href="#ma8f21dccc8" y="225.054469"/>
     <use style="fill:#4c72b0;stroke:#4c72b0;" x="332.863013" xlink:href="#ma8f21dccc8" y="225.105717"/>
     <use style="fill:#4c72b0;stroke:#4c72b0;" x="332.200517" xlink:href="#ma8f21dccc8" y="225.166637"/>
     <use style="fill:#4c72b0;stroke:#4c72b0;" x="331.546001" xlink:href="#ma8f21dccc8" y="225.236944"/>
     <use style="fill:#4c72b0;stroke:#4c72b0;" x="330.89938" xlink:href="#ma8f21dccc8" y="225.316365"/>
     <use style="fill:#4c72b0;stroke:#4c72b0;" x="330.260568" xlink:href="#ma8f21dccc8" y="225.404636"/>
     <use style="fill:#4c72b0;stroke:#4c72b0;" x="329.62948" xlink:href="#ma8f21dccc8" y="225.501502"/>
     <use style="fill:#4c72b0;stroke:#4c72b0;" x="329.006031" xlink:href="#ma8f21dccc8" y="225.606717"/>
     <use style="fill:#4c72b0;stroke:#4c72b0;" x="328.390135" xlink:href="#ma8f21dccc8" y="225.720043"/>
     <use style="fill:#4c72b0;stroke:#4c72b0;" x="327.781711" xlink:href="#ma8f21dccc8" y="225.841252"/>
     <use style="fill:#4c72b0;stroke:#4c72b0;" x="327.180674" xlink:href="#ma8f21dccc8" y="225.970121"/>
     <use style="fill:#4c72b0;stroke:#4c72b0;" x="326.586942" xlink:href="#ma8f21dccc8" y="226.106436"/>
     <use style="fill:#4c72b0;stroke:#4c72b0;" x="326.000433" xlink:href="#ma8f21dccc8" y="226.249991"/>
     <use style="fill:#4c72b0;stroke:#4c72b0;" x="325.421067" xlink:href="#ma8f21dccc8" y="226.400585"/>
     <use style="fill:#4c72b0;stroke:#4c72b0;" x="324.848765" xlink:href="#ma8f21dccc8" y="226.558026"/>
     <use style="fill:#4c72b0;stroke:#4c72b0;" x="324.283446" xlink:href="#ma8f21dccc8" y="226.722125"/>
     <use style="fill:#4c72b0;stroke:#4c72b0;" x="323.725035" xlink:href="#ma8f21dccc8" y="226.892703"/>
     <use style="fill:#4c72b0;stroke:#4c72b0;" x="323.173453" xlink:href="#ma8f21dccc8" y="227.069585"/>
     <use style="fill:#4c72b0;stroke:#4c72b0;" x="322.628625" xlink:href="#ma8f21dccc8" y="227.252601"/>
     <use style="fill:#4c72b0;stroke:#4c72b0;" x="322.090476" xlink:href="#ma8f21dccc8" y="227.441588"/>
     <use style="fill:#4c72b0;stroke:#4c72b0;" x="321.558934" xlink:href="#ma8f21dccc8" y="227.636387"/>
     <use style="fill:#4c72b0;stroke:#4c72b0;" x="321.033925" xlink:href="#ma8f21dccc8" y="227.836846"/>
     <use style="fill:#4c72b0;stroke:#4c72b0;" x="320.515379" xlink:href="#ma8f21dccc8" y="228.042814"/>
     <use style="fill:#4c72b0;stroke:#4c72b0;" x="320.003225" xlink:href="#ma8f21dccc8" y="228.254149"/>
     <use style="fill:#4c72b0;stroke:#4c72b0;" x="319.497394" xlink:href="#ma8f21dccc8" y="228.470712"/>
     <use style="fill:#4c72b0;stroke:#4c72b0;" x="318.997818" xlink:href="#ma8f21dccc8" y="228.692366"/>
     <use style="fill:#4c72b0;stroke:#4c72b0;" x="318.504431" xlink:href="#ma8f21dccc8" y="228.918982"/>
     <use style="fill:#4c72b0;stroke:#4c72b0;" x="318.017166" xlink:href="#ma8f21dccc8" y="229.150432"/>
     <use style="fill:#4c72b0;stroke:#4c72b0;" x="317.53596" xlink:href="#ma8f21dccc8" y="229.386593"/>
     <use style="fill:#4c72b0;stroke:#4c72b0;" x="317.06075" xlink:href="#ma8f21dccc8" y="229.627346"/>
     <use style="fill:#4c72b0;stroke:#4c72b0;" x="316.591472" xlink:href="#ma8f21dccc8" y="229.872576"/>
     <use style="fill:#4c72b0;stroke:#4c72b0;" x="316.128066" xlink:href="#ma8f21dccc8" y="230.122169"/>
     <use style="fill:#4c72b0;stroke:#4c72b0;" x="315.670472" xlink:href="#ma8f21dccc8" y="230.376018"/>
     <use style="fill:#4c72b0;stroke:#4c72b0;" x="315.218631" xlink:href="#ma8f21dccc8" y="230.634016"/>
     <use style="fill:#4c72b0;stroke:#4c72b0;" x="314.772486" xlink:href="#ma8f21dccc8" y="230.89606"/>
     <use style="fill:#4c72b0;stroke:#4c72b0;" x="314.331979" xlink:href="#ma8f21dccc8" y="231.162052"/>
     <use style="fill:#4c72b0;stroke:#4c72b0;" x="313.897055" xlink:href="#ma8f21dccc8" y="231.431893"/>
     <use style="fill:#4c72b0;stroke:#4c72b0;" x="313.46766" xlink:href="#ma8f21dccc8" y="231.705489"/>
     <use style="fill:#4c72b0;stroke:#4c72b0;" x="313.043739" xlink:href="#ma8f21dccc8" y="231.98275"/>
     <use style="fill:#4c72b0;stroke:#4c72b0;" x="312.625241" xlink:href="#ma8f21dccc8" y="232.263586"/>
     <use style="fill:#4c72b0;stroke:#4c72b0;" x="312.212115" xlink:href="#ma8f21dccc8" y="232.547911"/>
     <use style="fill:#4c72b0;stroke:#4c72b0;" x="311.804309" xlink:href="#ma8f21dccc8" y="232.835641"/>
     <use style="fill:#4c72b0;stroke:#4c72b0;" x="311.401774" xlink:href="#ma8f21dccc8" y="233.126694"/>
     <use style="fill:#4c72b0;stroke:#4c72b0;" x="311.004462" xlink:href="#ma8f21dccc8" y="233.42099"/>
     <use style="fill:#4c72b0;stroke:#4c72b0;" x="310.612325" xlink:href="#ma8f21dccc8" y="233.718451"/>
     <use style="fill:#4c72b0;stroke:#4c72b0;" x="310.225317" xlink:href="#ma8f21dccc8" y="234.019004"/>
     <use style="fill:#4c72b0;stroke:#4c72b0;" x="309.843392" xlink:href="#ma8f21dccc8" y="234.322573"/>
     <use style="fill:#4c72b0;stroke:#4c72b0;" x="309.466506" xlink:href="#ma8f21dccc8" y="234.629087"/>
     <use style="fill:#4c72b0;stroke:#4c72b0;" x="309.094614" xlink:href="#ma8f21dccc8" y="234.938478"/>
     <use style="fill:#4c72b0;stroke:#4c72b0;" x="308.727675" xlink:href="#ma8f21dccc8" y="235.250676"/>
     <use style="fill:#4c72b0;stroke:#4c72b0;" x="308.365646" xlink:href="#ma8f21dccc8" y="235.565616"/>
     <use style="fill:#4c72b0;stroke:#4c72b0;" x="308.008485" xlink:href="#ma8f21dccc8" y="235.883234"/>
     <use style="fill:#4c72b0;stroke:#4c72b0;" x="307.656153" xlink:href="#ma8f21dccc8" y="236.203465"/>
     <use style="fill:#4c72b0;stroke:#4c72b0;" x="307.308611" xlink:href="#ma8f21dccc8" y="236.52625"/>
     <use style="fill:#4c72b0;stroke:#4c72b0;" x="306.965819" xlink:href="#ma8f21dccc8" y="236.851528"/>
     <use style="fill:#4c72b0;stroke:#4c72b0;" x="306.62774" xlink:href="#ma8f21dccc8" y="237.179241"/>
     <use style="fill:#4c72b0;stroke:#4c72b0;" x="306.294337" xlink:href="#ma8f21dccc8" y="237.509331"/>
     <use style="fill:#4c72b0;stroke:#4c72b0;" x="305.965574" xlink:href="#ma8f21dccc8" y="237.841744"/>
     <use style="fill:#4c72b0;stroke:#4c72b0;" x="305.641415" xlink:href="#ma8f21dccc8" y="238.176424"/>
     <use style="fill:#4c72b0;stroke:#4c72b0;" x="305.321826" xlink:href="#ma8f21dccc8" y="238.513319"/>
     <use style="fill:#4c72b0;stroke:#4c72b0;" x="305.006773" xlink:href="#ma8f21dccc8" y="238.852377"/>
     <use style="fill:#4c72b0;stroke:#4c72b0;" x="304.696223" xlink:href="#ma8f21dccc8" y="239.193547"/>
     <use style="fill:#4c72b0;stroke:#4c72b0;" x="304.390143" xlink:href="#ma8f21dccc8" y="239.536779"/>
     <use style="fill:#4c72b0;stroke:#4c72b0;" x="304.088501" xlink:href="#ma8f21dccc8" y="239.882026"/>
     <use style="fill:#4c72b0;stroke:#4c72b0;" x="303.791267" xlink:href="#ma8f21dccc8" y="240.229238"/>
     <use style="fill:#4c72b0;stroke:#4c72b0;" x="303.498411" xlink:href="#ma8f21dccc8" y="240.578371"/>
     <use style="fill:#4c72b0;stroke:#4c72b0;" x="303.209902" xlink:href="#ma8f21dccc8" y="240.929379"/>
     <use style="fill:#4c72b0;stroke:#4c72b0;" x="302.925711" xlink:href="#ma8f21dccc8" y="241.282217"/>
     <use style="fill:#4c72b0;stroke:#4c72b0;" x="302.645811" xlink:href="#ma8f21dccc8" y="241.636842"/>
     <use style="fill:#4c72b0;stroke:#4c72b0;" x="302.370173" xlink:href="#ma8f21dccc8" y="241.993211"/>
     <use style="fill:#4c72b0;stroke:#4c72b0;" x="302.098771" xlink:href="#ma8f21dccc8" y="242.351282"/>
     <use style="fill:#4c72b0;stroke:#4c72b0;" x="301.831577" xlink:href="#ma8f21dccc8" y="242.711015"/>
     <use style="fill:#4c72b0;stroke:#4c72b0;" x="301.568567" xlink:href="#ma8f21dccc8" y="243.072369"/>
     <use style="fill:#4c72b0;stroke:#4c72b0;" x="301.309714" xlink:href="#ma8f21dccc8" y="243.435305"/>
     <use style="fill:#4c72b0;stroke:#4c72b0;" x="301.054995" xlink:href="#ma8f21dccc8" y="243.799784"/>
     <use style="fill:#4c72b0;stroke:#4c72b0;" x="300.804384" xlink:href="#ma8f21dccc8" y="244.165769"/>
     <use style="fill:#4c72b0;stroke:#4c72b0;" x="300.557859" xlink:href="#ma8f21dccc8" y="244.533221"/>
     <use style="fill:#4c72b0;stroke:#4c72b0;" x="300.315397" xlink:href="#ma8f21dccc8" y="244.902106"/>
     <use style="fill:#4c72b0;stroke:#4c72b0;" x="300.076975" xlink:href="#ma8f21dccc8" y="245.272386"/>
     <use style="fill:#4c72b0;stroke:#4c72b0;" x="299.842571" xlink:href="#ma8f21dccc8" y="245.644028"/>
     <use style="fill:#4c72b0;stroke:#4c72b0;" x="299.612163" xlink:href="#ma8f21dccc8" y="246.016995"/>
     <use style="fill:#4c72b0;stroke:#4c72b0;" x="299.385732" xlink:href="#ma8f21dccc8" y="246.391254"/>
     <use style="fill:#4c72b0;stroke:#4c72b0;" x="299.163256" xlink:href="#ma8f21dccc8" y="246.766772"/>
     <use style="fill:#4c72b0;stroke:#4c72b0;" x="298.944716" xlink:href="#ma8f21dccc8" y="247.143515"/>
     <use style="fill:#4c72b0;stroke:#4c72b0;" x="298.730093" xlink:href="#ma8f21dccc8" y="247.521452"/>
     <use style="fill:#4c72b0;stroke:#4c72b0;" x="298.519367" xlink:href="#ma8f21dccc8" y="247.900551"/>
     <use style="fill:#4c72b0;stroke:#4c72b0;" x="298.312521" xlink:href="#ma8f21dccc8" y="248.28078"/>
     <use style="fill:#4c72b0;stroke:#4c72b0;" x="298.109536" xlink:href="#ma8f21dccc8" y="248.662108"/>
     <use style="fill:#4c72b0;stroke:#4c72b0;" x="297.910395" xlink:href="#ma8f21dccc8" y="249.044505"/>
     <use style="fill:#4c72b0;stroke:#4c72b0;" x="297.71508" xlink:href="#ma8f21dccc8" y="249.42794"/>
     <use style="fill:#4c72b0;stroke:#4c72b0;" x="297.523577" xlink:href="#ma8f21dccc8" y="249.812385"/>
     <use style="fill:#4c72b0;stroke:#4c72b0;" x="297.335867" xlink:href="#ma8f21dccc8" y="250.197811"/>
     <use style="fill:#4c72b0;stroke:#4c72b0;" x="297.151936" xlink:href="#ma8f21dccc8" y="250.584188"/>
     <use style="fill:#4c72b0;stroke:#4c72b0;" x="296.971769" xlink:href="#ma8f21dccc8" y="250.971488"/>
     <use style="fill:#4c72b0;stroke:#4c72b0;" x="296.79535" xlink:href="#ma8f21dccc8" y="251.359683"/>
     <use style="fill:#4c72b0;stroke:#4c72b0;" x="296.622666" xlink:href="#ma8f21dccc8" y="251.748745"/>
     <use style="fill:#4c72b0;stroke:#4c72b0;" x="296.453701" xlink:href="#ma8f21dccc8" y="252.138648"/>
     <use style="fill:#4c72b0;stroke:#4c72b0;" x="296.288444" xlink:href="#ma8f21dccc8" y="252.529364"/>
     <use style="fill:#4c72b0;stroke:#4c72b0;" x="296.126879" xlink:href="#ma8f21dccc8" y="252.920867"/>
     <use style="fill:#4c72b0;stroke:#4c72b0;" x="295.968996" xlink:href="#ma8f21dccc8" y="253.31313"/>
     <use style="fill:#4c72b0;stroke:#4c72b0;" x="295.81478" xlink:href="#ma8f21dccc8" y="253.706127"/>
     <use style="fill:#4c72b0;stroke:#4c72b0;" x="295.664221" xlink:href="#ma8f21dccc8" y="254.099832"/>
     <use style="fill:#4c72b0;stroke:#4c72b0;" x="295.517306" xlink:href="#ma8f21dccc8" y="254.494221"/>
     <use style="fill:#4c72b0;stroke:#4c72b0;" x="295.374024" xlink:href="#ma8f21dccc8" y="254.889267"/>
     <use style="fill:#4c72b0;stroke:#4c72b0;" x="295.234364" xlink:href="#ma8f21dccc8" y="255.284945"/>
     <use style="fill:#4c72b0;stroke:#4c72b0;" x="295.098316" xlink:href="#ma8f21dccc8" y="255.681231"/>
     <use style="fill:#4c72b0;stroke:#4c72b0;" x="294.965869" xlink:href="#ma8f21dccc8" y="256.078101"/>
     <use style="fill:#4c72b0;stroke:#4c72b0;" x="294.837013" xlink:href="#ma8f21dccc8" y="256.475529"/>
     <use style="fill:#4c72b0;stroke:#4c72b0;" x="294.711739" xlink:href="#ma8f21dccc8" y="256.873492"/>
     <use style="fill:#4c72b0;stroke:#4c72b0;" x="294.590038" xlink:href="#ma8f21dccc8" y="257.271966"/>
     <use style="fill:#4c72b0;stroke:#4c72b0;" x="294.4719" xlink:href="#ma8f21dccc8" y="257.670926"/>
     <use style="fill:#4c72b0;stroke:#4c72b0;" x="294.357317" xlink:href="#ma8f21dccc8" y="258.07035"/>
     <use style="fill:#4c72b0;stroke:#4c72b0;" x="294.246281" xlink:href="#ma8f21dccc8" y="258.470214"/>
     <use style="fill:#4c72b0;stroke:#4c72b0;" x="294.138784" xlink:href="#ma8f21dccc8" y="258.870494"/>
     <use style="fill:#4c72b0;stroke:#4c72b0;" x="294.034818" xlink:href="#ma8f21dccc8" y="259.271168"/>
     <use style="fill:#4c72b0;stroke:#4c72b0;" x="293.934375" xlink:href="#ma8f21dccc8" y="259.672212"/>
     <use style="fill:#4c72b0;stroke:#4c72b0;" x="293.837449" xlink:href="#ma8f21dccc8" y="260.073603"/>
     <use style="fill:#4c72b0;stroke:#4c72b0;" x="293.744033" xlink:href="#ma8f21dccc8" y="260.475319"/>
     <use style="fill:#4c72b0;stroke:#4c72b0;" x="293.654121" xlink:href="#ma8f21dccc8" y="260.877337"/>
     <use style="fill:#4c72b0;stroke:#4c72b0;" x="293.567705" xlink:href="#ma8f21dccc8" y="261.279634"/>
     <use style="fill:#4c72b0;stroke:#4c72b0;" x="293.484781" xlink:href="#ma8f21dccc8" y="261.682188"/>
     <use style="fill:#4c72b0;stroke:#4c72b0;" x="293.405343" xlink:href="#ma8f21dccc8" y="262.084977"/>
     <use style="fill:#4c72b0;stroke:#4c72b0;" x="293.329385" xlink:href="#ma8f21dccc8" y="262.487978"/>
     <use style="fill:#4c72b0;stroke:#4c72b0;" x="293.256902" xlink:href="#ma8f21dccc8" y="262.891169"/>
     <use style="fill:#4c72b0;stroke:#4c72b0;" x="293.187889" xlink:href="#ma8f21dccc8" y="263.294527"/>
     <use style="fill:#4c72b0;stroke:#4c72b0;" x="293.122342" xlink:href="#ma8f21dccc8" y="263.698031"/>
     <use style="fill:#4c72b0;stroke:#4c72b0;" x="293.060257" xlink:href="#ma8f21dccc8" y="264.101659"/>
     <use style="fill:#4c72b0;stroke:#4c72b0;" x="293.00163" xlink:href="#ma8f21dccc8" y="264.505388"/>
     <use style="fill:#4c72b0;stroke:#4c72b0;" x="292.946456" xlink:href="#ma8f21dccc8" y="264.909197"/>
     <use style="fill:#4c72b0;stroke:#4c72b0;" x="292.894732" xlink:href="#ma8f21dccc8" y="265.313063"/>
     <use style="fill:#4c72b0;stroke:#4c72b0;" x="292.846455" xlink:href="#ma8f21dccc8" y="265.716965"/>
     <use style="fill:#4c72b0;stroke:#4c72b0;" x="292.801621" xlink:href="#ma8f21dccc8" y="266.12088"/>
     <use style="fill:#4c72b0;stroke:#4c72b0;" x="292.760229" xlink:href="#ma8f21dccc8" y="266.524787"/>
     <use style="fill:#4c72b0;stroke:#4c72b0;" x="292.722275" xlink:href="#ma8f21dccc8" y="266.928663"/>
     <use style="fill:#4c72b0;stroke:#4c72b0;" x="292.687756" xlink:href="#ma8f21dccc8" y="267.332487"/>
     <use style="fill:#4c72b0;stroke:#4c72b0;" x="292.656672" xlink:href="#ma8f21dccc8" y="267.736237"/>
     <use style="fill:#4c72b0;stroke:#4c72b0;" x="292.629019" xlink:href="#ma8f21dccc8" y="268.13989"/>
     <use style="fill:#4c72b0;stroke:#4c72b0;" x="292.604796" xlink:href="#ma8f21dccc8" y="268.543425"/>
     <use style="fill:#4c72b0;stroke:#4c72b0;" x="292.584002" xlink:href="#ma8f21dccc8" y="268.94682"/>
     <use style="fill:#4c72b0;stroke:#4c72b0;" x="292.566635" xlink:href="#ma8f21dccc8" y="269.350052"/>
     <use style="fill:#4c72b0;stroke:#4c72b0;" x="292.552694" xlink:href="#ma8f21dccc8" y="269.7531"/>
     <use style="fill:#4c72b0;stroke:#4c72b0;" x="292.542178" xlink:href="#ma8f21dccc8" y="270.15594"/>
     <use style="fill:#4c72b0;stroke:#4c72b0;" x="292.535087" xlink:href="#ma8f21dccc8" y="270.558552"/>
     <use style="fill:#4c72b0;stroke:#4c72b0;" x="292.53142" xlink:href="#ma8f21dccc8" y="270.960912"/>
     <use style="fill:#4c72b0;stroke:#4c72b0;" x="292.531177" xlink:href="#ma8f21dccc8" y="271.362999"/>
     <use style="fill:#4c72b0;stroke:#4c72b0;" x="292.534357" xlink:href="#ma8f21dccc8" y="271.764789"/>
     <use style="fill:#4c72b0;stroke:#4c72b0;" x="292.540961" xlink:href="#ma8f21dccc8" y="272.16626"/>
     <use style="fill:#4c72b0;stroke:#4c72b0;" x="292.550989" xlink:href="#ma8f21dccc8" y="272.56739"/>
     <use style="fill:#4c72b0;stroke:#4c72b0;" x="292.564441" xlink:href="#ma8f21dccc8" y="272.968156"/>
     <use style="fill:#4c72b0;stroke:#4c72b0;" x="292.581319" xlink:href="#ma8f21dccc8" y="273.368534"/>
     <use style="fill:#4c72b0;stroke:#4c72b0;" x="292.601622" xlink:href="#ma8f21dccc8" y="273.768503"/>
     <use style="fill:#4c72b0;stroke:#4c72b0;" x="292.625351" xlink:href="#ma8f21dccc8" y="274.168038"/>
     <use style="fill:#4c72b0;stroke:#4c72b0;" x="292.652508" xlink:href="#ma8f21dccc8" y="274.567117"/>
     <use style="fill:#4c72b0;stroke:#4c72b0;" x="292.683095" xlink:href="#ma8f21dccc8" y="274.965717"/>
     <use style="fill:#4c72b0;stroke:#4c72b0;" x="292.717111" xlink:href="#ma8f21dccc8" y="275.363814"/>
     <use style="fill:#4c72b0;stroke:#4c72b0;" x="292.75456" xlink:href="#ma8f21dccc8" y="275.761384"/>
     <use style="fill:#4c72b0;stroke:#4c72b0;" x="292.795442" xlink:href="#ma8f21dccc8" y="276.158404"/>
     <use style="fill:#4c72b0;stroke:#4c72b0;" x="292.83976" xlink:href="#ma8f21dccc8" y="276.55485"/>
     <use style="fill:#4c72b0;stroke:#4c72b0;" x="292.887515" xlink:href="#ma8f21dccc8" y="276.950698"/>
    </g>
   </g>
   <g id="patch_3">
    <path d="M 512.64 286.56 
C 512.64 258.006041 507.015493 229.729733 496.088366 203.349314 
C 485.161238 176.968896 469.143997 152.9974 448.953299 132.806701 
C 428.7626 112.616003 404.791104 96.598762 378.410686 85.671634 
C 352.030267 74.744507 323.753959 69.12 295.2 69.12 
C 266.646041 69.12 238.369733 74.744507 211.989314 85.671634 
C 185.608896 96.598762 161.6374 112.616003 141.446701 132.806701 
C 121.256003 152.9974 105.238762 176.968896 94.311634 203.349314 
C 83.384507 229.729733 77.76 258.006041 77.76 286.56 
C 77.76 315.113959 83.384507 343.390267 94.311634 369.770686 
C 105.238762 396.151104 121.256003 420.1226 141.446701 440.313299 
C 161.6374 460.503997 185.608896 476.521238 211.989314 487.448366 
C 238.369733 498.375493 266.646041 504 295.2 504 
C 323.753959 504 352.030267 498.375493 378.410686 487.448366 
C 404.791104 476.521238 428.7626 460.503997 448.953299 440.313299 
C 469.143997 420.1226 485.161238 396.151104 496.088366 369.770686 
C 507.015493 343.390267 512.64 315.113959 512.64 286.56 
" style="fill:none;stroke:#ffffff;stroke-linecap:square;stroke-linejoin:miter;stroke-width:1.25;"/>
   </g>
  </g>
 </g>
 <defs>
  <clipPath id="p05aca655e2">
   <path d="M 512.64 286.56 
C 512.64 258.006041 507.015493 229.729733 496.088366 203.349314 
C 485.161238 176.968896 469.143997 152.9974 448.953299 132.806701 
C 428.7626 112.616003 404.791104 96.598762 378.410686 85.671634 
C 352.030267 74.744507 323.753959 69.12 295.2 69.12 
C 266.646041 69.12 238.369733 74.744507 211.989314 85.671634 
C 185.608896 96.598762 161.6374 112.616003 141.446701 132.806701 
C 121.256003 152.9974 105.238762 176.968896 94.311634 203.349314 
C 83.384507 229.729733 77.76 258.006041 77.76 286.56 
C 77.76 315.113959 83.384507 343.390267 94.311634 369.770686 
C 105.238762 396.151104 121.256003 420.1226 141.446701 440.313299 
C 161.6374 460.503997 185.608896 476.521238 211.989314 487.448366 
C 238.369733 498.375493 266.646041 504 295.2 504 
C 323.753959 504 352.030267 498.375493 378.410686 487.448366 
C 404.791104 476.521238 428.7626 460.503997 448.953299 440.313299 
C 469.143997 420.1226 485.161238 396.151104 496.088366 369.770686 
C 507.015493 343.390267 512.64 315.113959 512.64 286.56 
M 295.2 286.56 
C 295.2 286.56 295.2 286.56 295.2 286.56 
C 295.2 286.56 295.2 286.56 295.2 286.56 
C 295.2 286.56 295.2 286.56 295.2 286.56 
C 295.2 286.56 295.2 286.56 295.2 286.56 
C 295.2 286.56 295.2 286.56 295.2 286.56 
C 295.2 286.56 295.2 286.56 295.2 286.56 
C 295.2 286.56 295.2 286.56 295.2 286.56 
C 295.2 286.56 295.2 286.56 295.2 286.56 
C 295.2 286.56 295.2 286.56 295.2 286.56 
C 295.2 286.56 295.2 286.56 295.2 286.56 
C 295.2 286.56 295.2 286.56 295.2 286.56 
C 295.2 286.56 295.2 286.56 295.2 286.56 
C 295.2 286.56 295.2 286.56 295.2 286.56 
C 295.2 286.56 295.2 286.56 295.2 286.56 
C 295.2 286.56 295.2 286.56 295.2 286.56 
C 295.2 286.56 295.2 286.56 295.2 286.56 
M 512.64 286.56 
z
"/>
  </clipPath>
 </defs>
</svg>
