<?xml version="1.0" encoding="utf-8" standalone="no"?>
<!DOCTYPE svg PUBLIC "-//W3C//DTD SVG 1.1//EN"
  "http://www.w3.org/Graphics/SVG/1.1/DTD/svg11.dtd">
<!-- Created with matplotlib (https://matplotlib.org/) -->
<svg height="576pt" version="1.1" viewBox="0 0 576 576" width="576pt" xmlns="http://www.w3.org/2000/svg" xmlns:xlink="http://www.w3.org/1999/xlink">
 <defs>
  <style type="text/css">
*{stroke-linecap:butt;stroke-linejoin:round;}
  </style>
 </defs>
 <g id="figure_1">
  <g id="patch_1">
   <path d="M 0 576 
L 576 576 
L 576 0 
L 0 0 
z
" style="fill:#ffffff;"/>
  </g>
  <g id="axes_1">
   <g id="patch_2">
    <path d="M 512.64 286.56 
C 512.64 258.006041 507.015493 229.729733 496.088366 203.349314 
C 485.161238 176.968896 469.143997 152.9974 448.953299 132.806701 
C 428.7626 112.616003 404.791104 96.598762 378.410686 85.671634 
C 352.030267 74.744507 323.753959 69.12 295.2 69.12 
C 266.646041 69.12 238.369733 74.744507 211.989314 85.671634 
C 185.608896 96.598762 161.6374 112.616003 141.446701 132.806701 
C 121.256003 152.9974 105.238762 176.968896 94.311634 203.349314 
C 83.384507 229.729733 77.76 258.006041 77.76 286.56 
C 77.76 315.113959 83.384507 343.390267 94.311634 369.770686 
C 105.238762 396.151104 121.256003 420.1226 141.446701 440.313299 
C 161.6374 460.503997 185.608896 476.521238 211.989314 487.448366 
C 238.369733 498.375493 266.646041 504 295.2 504 
C 323.753959 504 352.030267 498.375493 378.410686 487.448366 
C 404.791104 476.521238 428.7626 460.503997 448.953299 440.313299 
C 469.143997 420.1226 485.161238 396.151104 496.088366 369.770686 
C 507.015493 343.390267 512.64 315.113959 512.64 286.56 
M 295.2 286.56 
C 295.2 286.56 295.2 286.56 295.2 286.56 
C 295.2 286.56 295.2 286.56 295.2 286.56 
C 295.2 286.56 295.2 286.56 295.2 286.56 
C 295.2 286.56 295.2 286.56 295.2 286.56 
C 295.2 286.56 295.2 286.56 295.2 286.56 
C 295.2 286.56 295.2 286.56 295.2 286.56 
C 295.2 286.56 295.2 286.56 295.2 286.56 
C 295.2 286.56 295.2 286.56 295.2 286.56 
C 295.2 286.56 295.2 286.56 295.2 286.56 
C 295.2 286.56 295.2 286.56 295.2 286.56 
C 295.2 286.56 295.2 286.56 295.2 286.56 
C 295.2 286.56 295.2 286.56 295.2 286.56 
C 295.2 286.56 295.2 286.56 295.2 286.56 
C 295.2 286.56 295.2 286.56 295.2 286.56 
C 295.2 286.56 295.2 286.56 295.2 286.56 
C 295.2 286.56 295.2 286.56 295.2 286.56 
M 512.64 286.56 
z
" style="fill:#eaeaf2;"/>
   </g>
   <g id="matplotlib.axis_1">
    <g id="xtick_1">
     <g id="line2d_1">
      <path clip-path="url(#p956d9364a7)" d="M 295.2 286.56 
L 512.64 286.56 
" style="fill:none;stroke:#ffffff;stroke-linecap:round;"/>
     </g>
     <g id="text_1">
      <!-- 0° -->
      <defs>
       <path d="M 4.15625 35.296875 
Q 4.15625 48 6.765625 55.734375 
Q 9.375 63.484375 14.515625 67.671875 
Q 19.671875 71.875 27.484375 71.875 
Q 33.25 71.875 37.59375 69.546875 
Q 41.9375 67.234375 44.765625 62.859375 
Q 47.609375 58.5 49.21875 52.21875 
Q 50.828125 45.953125 50.828125 35.296875 
Q 50.828125 22.703125 48.234375 14.96875 
Q 45.65625 7.234375 40.5 3 
Q 35.359375 -1.21875 27.484375 -1.21875 
Q 17.140625 -1.21875 11.234375 6.203125 
Q 4.15625 15.140625 4.15625 35.296875 
z
M 13.1875 35.296875 
Q 13.1875 17.671875 17.3125 11.828125 
Q 21.4375 6 27.484375 6 
Q 33.546875 6 37.671875 11.859375 
Q 41.796875 17.71875 41.796875 35.296875 
Q 41.796875 52.984375 37.671875 58.78125 
Q 33.546875 64.59375 27.390625 64.59375 
Q 21.34375 64.59375 17.71875 59.46875 
Q 13.1875 52.9375 13.1875 35.296875 
z
" id="ArialMT-48"/>
       <path d="M 6.25 59.28125 
Q 6.25 64.890625 10.21875 68.84375 
Q 14.203125 72.796875 19.78125 72.796875 
Q 25.4375 72.796875 29.390625 68.84375 
Q 33.34375 64.890625 33.34375 59.28125 
Q 33.34375 53.65625 29.359375 49.671875 
Q 25.390625 45.703125 19.78125 45.703125 
Q 14.203125 45.703125 10.21875 49.65625 
Q 6.25 53.609375 6.25 59.28125 
z
M 11.578125 59.28125 
Q 11.578125 55.859375 13.984375 53.4375 
Q 16.40625 51.03125 19.828125 51.03125 
Q 23.1875 51.03125 25.609375 53.4375 
Q 28.03125 55.859375 28.03125 59.28125 
Q 28.03125 62.703125 25.609375 65.109375 
Q 23.1875 67.53125 19.828125 67.53125 
Q 16.40625 67.53125 13.984375 65.109375 
Q 11.578125 62.703125 11.578125 59.28125 
z
" id="ArialMT-176"/>
      </defs>
      <g style="fill:#262626;" transform="translate(523.882344 289.403672)scale(0.11 -0.11)">
       <use xlink:href="#ArialMT-48"/>
       <use x="55.615234" xlink:href="#ArialMT-176"/>
      </g>
     </g>
    </g>
    <g id="xtick_2">
     <g id="line2d_2">
      <path clip-path="url(#p956d9364a7)" d="M 295.2 286.56 
L 448.953299 132.806701 
" style="fill:none;stroke:#ffffff;stroke-linecap:round;"/>
     </g>
     <g id="text_2">
      <!-- 45° -->
      <defs>
       <path d="M 32.328125 0 
L 32.328125 17.140625 
L 1.265625 17.140625 
L 1.265625 25.203125 
L 33.9375 71.578125 
L 41.109375 71.578125 
L 41.109375 25.203125 
L 50.78125 25.203125 
L 50.78125 17.140625 
L 41.109375 17.140625 
L 41.109375 0 
z
M 32.328125 25.203125 
L 32.328125 57.46875 
L 9.90625 25.203125 
z
" id="ArialMT-52"/>
       <path d="M 4.15625 18.75 
L 13.375 19.53125 
Q 14.40625 12.796875 18.140625 9.390625 
Q 21.875 6 27.15625 6 
Q 33.5 6 37.890625 10.78125 
Q 42.28125 15.578125 42.28125 23.484375 
Q 42.28125 31 38.0625 35.34375 
Q 33.84375 39.703125 27 39.703125 
Q 22.75 39.703125 19.328125 37.765625 
Q 15.921875 35.84375 13.96875 32.765625 
L 5.71875 33.84375 
L 12.640625 70.609375 
L 48.25 70.609375 
L 48.25 62.203125 
L 19.671875 62.203125 
L 15.828125 42.96875 
Q 22.265625 47.46875 29.34375 47.46875 
Q 38.71875 47.46875 45.15625 40.96875 
Q 51.609375 34.46875 51.609375 24.265625 
Q 51.609375 14.546875 45.953125 7.46875 
Q 39.0625 -1.21875 27.15625 -1.21875 
Q 17.390625 -1.21875 11.203125 4.25 
Q 5.03125 9.71875 4.15625 18.75 
z
" id="ArialMT-53"/>
      </defs>
      <g style="fill:#262626;" transform="translate(452.304389 123.983111)scale(0.11 -0.11)">
       <use xlink:href="#ArialMT-52"/>
       <use x="55.615234" xlink:href="#ArialMT-53"/>
       <use x="111.230469" xlink:href="#ArialMT-176"/>
      </g>
     </g>
    </g>
    <g id="xtick_3">
     <g id="line2d_3">
      <path clip-path="url(#p956d9364a7)" d="M 295.2 286.56 
L 295.2 69.12 
" style="fill:none;stroke:#ffffff;stroke-linecap:round;"/>
     </g>
     <g id="text_3">
      <!-- 90° -->
      <defs>
       <path d="M 5.46875 16.546875 
L 13.921875 17.328125 
Q 14.984375 11.375 18.015625 8.6875 
Q 21.046875 6 25.78125 6 
Q 29.828125 6 32.875 7.859375 
Q 35.9375 9.71875 37.890625 12.8125 
Q 39.84375 15.921875 41.15625 21.1875 
Q 42.484375 26.46875 42.484375 31.9375 
Q 42.484375 32.515625 42.4375 33.6875 
Q 39.796875 29.5 35.234375 26.875 
Q 30.671875 24.265625 25.34375 24.265625 
Q 16.453125 24.265625 10.296875 30.703125 
Q 4.15625 37.15625 4.15625 47.703125 
Q 4.15625 58.59375 10.578125 65.234375 
Q 17 71.875 26.65625 71.875 
Q 33.640625 71.875 39.421875 68.109375 
Q 45.21875 64.359375 48.21875 57.390625 
Q 51.21875 50.4375 51.21875 37.25 
Q 51.21875 23.53125 48.234375 15.40625 
Q 45.265625 7.28125 39.375 3.03125 
Q 33.5 -1.21875 25.59375 -1.21875 
Q 17.1875 -1.21875 11.859375 3.4375 
Q 6.546875 8.109375 5.46875 16.546875 
z
M 41.453125 48.140625 
Q 41.453125 55.71875 37.421875 60.15625 
Q 33.40625 64.59375 27.734375 64.59375 
Q 21.875 64.59375 17.53125 59.8125 
Q 13.1875 55.03125 13.1875 47.40625 
Q 13.1875 40.578125 17.3125 36.296875 
Q 21.4375 32.03125 27.484375 32.03125 
Q 33.59375 32.03125 37.515625 36.296875 
Q 41.453125 40.578125 41.453125 48.140625 
z
" id="ArialMT-57"/>
      </defs>
      <g style="fill:#262626;" transform="translate(286.883828 55.463672)scale(0.11 -0.11)">
       <use xlink:href="#ArialMT-57"/>
       <use x="55.615234" xlink:href="#ArialMT-48"/>
       <use x="111.230469" xlink:href="#ArialMT-176"/>
      </g>
     </g>
    </g>
    <g id="xtick_4">
     <g id="line2d_4">
      <path clip-path="url(#p956d9364a7)" d="M 295.2 286.56 
L 141.446701 132.806701 
" style="fill:none;stroke:#ffffff;stroke-linecap:round;"/>
     </g>
     <g id="text_4">
      <!-- 135° -->
      <defs>
       <path d="M 37.25 0 
L 28.46875 0 
L 28.46875 56 
Q 25.296875 52.984375 20.140625 49.953125 
Q 14.984375 46.921875 10.890625 45.40625 
L 10.890625 53.90625 
Q 18.265625 57.375 23.78125 62.296875 
Q 29.296875 67.234375 31.59375 71.875 
L 37.25 71.875 
z
" id="ArialMT-49"/>
       <path d="M 4.203125 18.890625 
L 12.984375 20.0625 
Q 14.5 12.59375 18.140625 9.296875 
Q 21.78125 6 27 6 
Q 33.203125 6 37.46875 10.296875 
Q 41.75 14.59375 41.75 20.953125 
Q 41.75 27 37.796875 30.921875 
Q 33.84375 34.859375 27.734375 34.859375 
Q 25.25 34.859375 21.53125 33.890625 
L 22.515625 41.609375 
Q 23.390625 41.5 23.921875 41.5 
Q 29.546875 41.5 34.03125 44.421875 
Q 38.53125 47.359375 38.53125 53.46875 
Q 38.53125 58.296875 35.25 61.46875 
Q 31.984375 64.65625 26.8125 64.65625 
Q 21.6875 64.65625 18.265625 61.421875 
Q 14.84375 58.203125 13.875 51.765625 
L 5.078125 53.328125 
Q 6.6875 62.15625 12.390625 67.015625 
Q 18.109375 71.875 26.609375 71.875 
Q 32.46875 71.875 37.390625 69.359375 
Q 42.328125 66.84375 44.9375 62.5 
Q 47.5625 58.15625 47.5625 53.265625 
Q 47.5625 48.640625 45.0625 44.828125 
Q 42.578125 41.015625 37.703125 38.765625 
Q 44.046875 37.3125 47.5625 32.6875 
Q 51.078125 28.078125 51.078125 21.140625 
Q 51.078125 11.765625 44.234375 5.25 
Q 37.40625 -1.265625 26.953125 -1.265625 
Q 17.53125 -1.265625 11.296875 4.34375 
Q 5.078125 9.96875 4.203125 18.890625 
z
" id="ArialMT-51"/>
      </defs>
      <g style="fill:#262626;" transform="translate(118.404752 123.983111)scale(0.11 -0.11)">
       <use xlink:href="#ArialMT-49"/>
       <use x="55.615234" xlink:href="#ArialMT-51"/>
       <use x="111.230469" xlink:href="#ArialMT-53"/>
       <use x="166.845703" xlink:href="#ArialMT-176"/>
      </g>
     </g>
    </g>
    <g id="xtick_5">
     <g id="line2d_5">
      <path clip-path="url(#p956d9364a7)" d="M 295.2 286.56 
L 77.76 286.56 
" style="fill:none;stroke:#ffffff;stroke-linecap:round;"/>
     </g>
     <g id="text_5">
      <!-- 180° -->
      <defs>
       <path d="M 17.671875 38.8125 
Q 12.203125 40.828125 9.5625 44.53125 
Q 6.9375 48.25 6.9375 53.421875 
Q 6.9375 61.234375 12.546875 66.546875 
Q 18.171875 71.875 27.484375 71.875 
Q 36.859375 71.875 42.578125 66.421875 
Q 48.296875 60.984375 48.296875 53.171875 
Q 48.296875 48.1875 45.671875 44.5 
Q 43.0625 40.828125 37.75 38.8125 
Q 44.34375 36.671875 47.78125 31.875 
Q 51.21875 27.09375 51.21875 20.453125 
Q 51.21875 11.28125 44.71875 5.03125 
Q 38.234375 -1.21875 27.640625 -1.21875 
Q 17.046875 -1.21875 10.546875 5.046875 
Q 4.046875 11.328125 4.046875 20.703125 
Q 4.046875 27.6875 7.59375 32.390625 
Q 11.140625 37.109375 17.671875 38.8125 
z
M 15.921875 53.71875 
Q 15.921875 48.640625 19.1875 45.40625 
Q 22.46875 42.1875 27.6875 42.1875 
Q 32.765625 42.1875 36.015625 45.375 
Q 39.265625 48.578125 39.265625 53.21875 
Q 39.265625 58.0625 35.90625 61.359375 
Q 32.5625 64.65625 27.59375 64.65625 
Q 22.5625 64.65625 19.234375 61.421875 
Q 15.921875 58.203125 15.921875 53.71875 
z
M 13.09375 20.65625 
Q 13.09375 16.890625 14.875 13.375 
Q 16.65625 9.859375 20.171875 7.921875 
Q 23.6875 6 27.734375 6 
Q 34.03125 6 38.125 10.046875 
Q 42.234375 14.109375 42.234375 20.359375 
Q 42.234375 26.703125 38.015625 30.859375 
Q 33.796875 35.015625 27.4375 35.015625 
Q 21.234375 35.015625 17.15625 30.90625 
Q 13.09375 26.8125 13.09375 20.65625 
z
" id="ArialMT-56"/>
      </defs>
      <g style="fill:#262626;" transform="translate(49.885313 289.403672)scale(0.11 -0.11)">
       <use xlink:href="#ArialMT-49"/>
       <use x="55.615234" xlink:href="#ArialMT-56"/>
       <use x="111.230469" xlink:href="#ArialMT-48"/>
       <use x="166.845703" xlink:href="#ArialMT-176"/>
      </g>
     </g>
    </g>
    <g id="xtick_6">
     <g id="line2d_6">
      <path clip-path="url(#p956d9364a7)" d="M 295.2 286.56 
L 141.446701 440.313299 
" style="fill:none;stroke:#ffffff;stroke-linecap:round;"/>
     </g>
     <g id="text_6">
      <!-- 225° -->
      <defs>
       <path d="M 50.34375 8.453125 
L 50.34375 0 
L 3.03125 0 
Q 2.9375 3.171875 4.046875 6.109375 
Q 5.859375 10.9375 9.828125 15.625 
Q 13.8125 20.3125 21.34375 26.46875 
Q 33.015625 36.03125 37.109375 41.625 
Q 41.21875 47.21875 41.21875 52.203125 
Q 41.21875 57.421875 37.46875 61 
Q 33.734375 64.59375 27.734375 64.59375 
Q 21.390625 64.59375 17.578125 60.78125 
Q 13.765625 56.984375 13.71875 50.25 
L 4.6875 51.171875 
Q 5.609375 61.28125 11.65625 66.578125 
Q 17.71875 71.875 27.9375 71.875 
Q 38.234375 71.875 44.234375 66.15625 
Q 50.25 60.453125 50.25 52 
Q 50.25 47.703125 48.484375 43.546875 
Q 46.734375 39.40625 42.65625 34.8125 
Q 38.578125 30.21875 29.109375 22.21875 
Q 21.1875 15.578125 18.9375 13.203125 
Q 16.703125 10.84375 15.234375 8.453125 
z
" id="ArialMT-50"/>
      </defs>
      <g style="fill:#262626;" transform="translate(118.404752 454.824232)scale(0.11 -0.11)">
       <use xlink:href="#ArialMT-50"/>
       <use x="55.615234" xlink:href="#ArialMT-50"/>
       <use x="111.230469" xlink:href="#ArialMT-53"/>
       <use x="166.845703" xlink:href="#ArialMT-176"/>
      </g>
     </g>
    </g>
    <g id="xtick_7">
     <g id="line2d_7">
      <path clip-path="url(#p956d9364a7)" d="M 295.2 286.56 
L 295.2 504 
" style="fill:none;stroke:#ffffff;stroke-linecap:round;"/>
     </g>
     <g id="text_7">
      <!-- 270° -->
      <defs>
       <path d="M 4.734375 62.203125 
L 4.734375 70.65625 
L 51.078125 70.65625 
L 51.078125 63.8125 
Q 44.234375 56.546875 37.515625 44.484375 
Q 30.8125 32.421875 27.15625 19.671875 
Q 24.515625 10.6875 23.78125 0 
L 14.75 0 
Q 14.890625 8.453125 18.0625 20.40625 
Q 21.234375 32.375 27.171875 43.484375 
Q 33.109375 54.59375 39.796875 62.203125 
z
" id="ArialMT-55"/>
      </defs>
      <g style="fill:#262626;" transform="translate(283.825312 523.343672)scale(0.11 -0.11)">
       <use xlink:href="#ArialMT-50"/>
       <use x="55.615234" xlink:href="#ArialMT-55"/>
       <use x="111.230469" xlink:href="#ArialMT-48"/>
       <use x="166.845703" xlink:href="#ArialMT-176"/>
      </g>
     </g>
    </g>
    <g id="xtick_8">
     <g id="line2d_8">
      <path clip-path="url(#p956d9364a7)" d="M 295.2 286.56 
L 448.953299 440.313299 
" style="fill:none;stroke:#ffffff;stroke-linecap:round;"/>
     </g>
     <g id="text_8">
      <!-- 315° -->
      <g style="fill:#262626;" transform="translate(449.245873 454.824232)scale(0.11 -0.11)">
       <use xlink:href="#ArialMT-51"/>
       <use x="55.615234" xlink:href="#ArialMT-49"/>
       <use x="111.230469" xlink:href="#ArialMT-53"/>
       <use x="166.845703" xlink:href="#ArialMT-176"/>
      </g>
     </g>
    </g>
   </g>
   <g id="matplotlib.axis_2">
    <g id="ytick_1">
     <g id="line2d_9">
      <path clip-path="url(#p956d9364a7)" d="M 337.015385 286.56 
L 336.913524 283.643106 
L 336.60844 280.740423 
L 336.101618 277.866093 
L 335.395528 275.034118 
L 334.493608 272.258296 
L 333.400255 269.552151 
L 332.120793 266.928866 
L 330.661457 264.401222 
L 329.029357 261.981534 
L 327.232443 259.681589 
L 325.27947 257.512593 
L 323.179954 255.485113 
L 320.944121 253.609027 
L 318.582866 251.893475 
L 316.107692 250.346815 
L 313.530658 248.976581 
L 310.864319 247.789451 
L 308.121664 246.791206 
L 305.316057 245.986711 
L 302.461165 245.379885 
L 299.570898 244.973684 
L 296.659336 244.770088 
L 293.740664 244.770088 
L 290.829102 244.973684 
L 287.938835 245.379885 
L 285.083943 245.986711 
L 282.278336 246.791206 
L 279.535681 247.789451 
L 276.869342 248.976581 
L 274.292308 250.346815 
L 271.817134 251.893475 
L 269.455879 253.609027 
L 267.220046 255.485113 
L 265.12053 257.512593 
L 263.167557 259.681589 
L 261.370643 261.981534 
L 259.738543 264.401222 
L 258.279207 266.928866 
L 256.999745 269.552151 
L 255.906392 272.258296 
L 255.004472 275.034118 
L 254.298382 277.866093 
L 253.79156 280.740423 
L 253.486476 283.643106 
L 253.384615 286.56 
L 253.486476 289.476894 
L 253.79156 292.379577 
L 254.298382 295.253907 
L 255.004472 298.085882 
L 255.906392 300.861704 
L 256.999745 303.567849 
L 258.279207 306.191134 
L 259.738543 308.718778 
L 261.370643 311.138466 
L 263.167557 313.438411 
L 265.12053 315.607407 
L 267.220046 317.634887 
L 269.455879 319.510973 
L 271.817134 321.226525 
L 274.292308 322.773185 
L 276.869342 324.143419 
L 279.535681 325.330549 
L 282.278336 326.328794 
L 285.083943 327.133289 
L 287.938835 327.740115 
L 290.829102 328.146316 
L 293.740664 328.349912 
L 296.659336 328.349912 
L 299.570898 328.146316 
L 302.461165 327.740115 
L 305.316057 327.133289 
L 308.121664 326.328794 
L 310.864319 325.330549 
L 313.530658 324.143419 
L 316.107692 322.773185 
L 318.582866 321.226525 
L 320.944121 319.510973 
L 323.179954 317.634887 
L 325.27947 315.607407 
L 327.232443 313.438411 
L 329.029357 311.138466 
L 330.661457 308.718778 
L 332.120793 306.191134 
L 333.400255 303.567849 
L 334.493608 300.861704 
L 335.395528 298.085882 
L 336.101618 295.253907 
L 336.60844 292.379577 
L 336.913524 289.476894 
L 337.015385 286.56 
L 337.015385 286.56 
" style="fill:none;stroke:#ffffff;stroke-linecap:round;"/>
     </g>
     <g id="text_9">
      <!-- 1 -->
      <g style="fill:#262626;" transform="translate(333.832378 268.371695)scale(0.11 -0.11)">
       <use xlink:href="#ArialMT-49"/>
      </g>
     </g>
    </g>
    <g id="ytick_2">
     <g id="line2d_10">
      <path clip-path="url(#p956d9364a7)" d="M 378.830769 286.56 
L 378.627049 280.726212 
L 378.01688 274.920847 
L 377.003236 269.172185 
L 375.591055 263.508236 
L 373.787217 257.956592 
L 371.600509 252.544302 
L 369.041586 247.297732 
L 366.122915 242.242444 
L 362.858714 237.403067 
L 359.264886 232.803178 
L 355.358941 228.465186 
L 351.159907 224.410227 
L 346.688243 220.658055 
L 341.965733 217.22695 
L 337.015385 214.133629 
L 331.861316 211.393163 
L 326.528638 209.018901 
L 321.043329 207.022412 
L 315.432114 205.413422 
L 309.722331 204.19977 
L 303.941796 203.387369 
L 298.118672 202.980176 
L 292.281328 202.980176 
L 286.458204 203.387369 
L 280.677669 204.19977 
L 274.967886 205.413422 
L 269.356671 207.022412 
L 263.871362 209.018901 
L 258.538684 211.393163 
L 253.384615 214.133629 
L 248.434267 217.22695 
L 243.711757 220.658055 
L 239.240093 224.410227 
L 235.041059 228.465186 
L 231.135114 232.803178 
L 227.541286 237.403067 
L 224.277085 242.242444 
L 221.358414 247.297732 
L 218.799491 252.544302 
L 216.612783 257.956592 
L 214.808945 263.508236 
L 213.396764 269.172185 
L 212.38312 274.920847 
L 211.772951 280.726212 
L 211.569231 286.56 
L 211.772951 292.393788 
L 212.38312 298.199153 
L 213.396764 303.947815 
L 214.808945 309.611764 
L 216.612783 315.163408 
L 218.799491 320.575698 
L 221.358414 325.822268 
L 224.277085 330.877556 
L 227.541286 335.716933 
L 231.135114 340.316822 
L 235.041059 344.654814 
L 239.240093 348.709773 
L 243.711757 352.461945 
L 248.434267 355.89305 
L 253.384615 358.986371 
L 258.538684 361.726837 
L 263.871362 364.101099 
L 269.356671 366.097588 
L 274.967886 367.706578 
L 280.677669 368.92023 
L 286.458204 369.732631 
L 292.281328 370.139824 
L 298.118672 370.139824 
L 303.941796 369.732631 
L 309.722331 368.92023 
L 315.432114 367.706578 
L 321.043329 366.097588 
L 326.528638 364.101099 
L 331.861316 361.726837 
L 337.015385 358.986371 
L 341.965733 355.89305 
L 346.688243 352.461945 
L 351.159907 348.709773 
L 355.358941 344.654814 
L 359.264886 340.316822 
L 362.858714 335.716933 
L 366.122915 330.877556 
L 369.041586 325.822268 
L 371.600509 320.575698 
L 373.787217 315.163408 
L 375.591055 309.611764 
L 377.003236 303.947815 
L 378.01688 298.199153 
L 378.627049 292.393788 
L 378.830769 286.56 
L 378.830769 286.56 
" style="fill:none;stroke:#ffffff;stroke-linecap:round;"/>
     </g>
     <g id="text_10">
      <!-- 2 -->
      <g style="fill:#262626;" transform="translate(372.464756 252.36964)scale(0.11 -0.11)">
       <use xlink:href="#ArialMT-50"/>
      </g>
     </g>
    </g>
    <g id="ytick_3">
     <g id="line2d_11">
      <path clip-path="url(#p956d9364a7)" d="M 420.646154 286.56 
L 420.569735 282.181992 
L 420.340573 277.809319 
L 419.958947 273.447306 
L 419.425321 269.10127 
L 418.740345 264.776504 
L 417.904854 260.478278 
L 416.919867 256.211829 
L 415.786583 251.982354 
L 414.506382 247.795007 
L 413.080825 243.654888 
L 411.511648 239.567044 
L 409.800764 235.536452 
L 407.950256 231.568026 
L 405.96238 227.666598 
L 403.839556 223.836923 
L 401.584372 220.083666 
L 399.199575 216.411401 
L 396.68807 212.824601 
L 394.052918 209.327636 
L 391.297329 205.924767 
L 388.42466 202.620139 
L 385.438411 199.417779 
L 382.342221 196.321589 
L 379.139861 193.33534 
L 375.835233 190.462671 
L 372.432364 187.707082 
L 368.935399 185.07193 
L 365.348599 182.560425 
L 361.676334 180.175628 
L 357.923077 177.920444 
L 354.093402 175.79762 
L 350.191974 173.809744 
L 346.223548 171.959236 
L 342.192956 170.248352 
L 338.105112 168.679175 
L 333.964993 167.253618 
L 329.777646 165.973417 
L 325.548171 164.840133 
L 321.281722 163.855146 
L 316.983496 163.019655 
L 312.65873 162.334679 
L 308.312694 161.801053 
L 303.950681 161.419427 
L 299.578008 161.190265 
L 295.2 161.113846 
L 290.821992 161.190265 
L 286.449319 161.419427 
L 282.087306 161.801053 
L 277.74127 162.334679 
L 273.416504 163.019655 
L 269.118278 163.855146 
L 264.851829 164.840133 
L 260.622354 165.973417 
L 256.435007 167.253618 
L 252.294888 168.679175 
L 248.207044 170.248352 
L 244.176452 171.959236 
L 240.208026 173.809744 
L 236.306598 175.79762 
L 232.476923 177.920444 
L 228.723666 180.175628 
L 225.051401 182.560425 
L 221.464601 185.07193 
L 217.967636 187.707082 
L 214.564767 190.462671 
L 211.260139 193.33534 
L 208.057779 196.321589 
L 204.961589 199.417779 
L 201.97534 202.620139 
L 199.102671 205.924767 
L 196.347082 209.327636 
L 193.71193 212.824601 
L 191.200425 216.411401 
L 188.815628 220.083666 
L 186.560444 223.836923 
L 184.43762 227.666598 
L 182.449744 231.568026 
L 180.599236 235.536452 
L 178.888352 239.567044 
L 177.319175 243.654888 
L 175.893618 247.795007 
L 174.613417 251.982354 
L 173.480133 256.211829 
L 172.495146 260.478278 
L 171.659655 264.776504 
L 170.974679 269.10127 
L 170.441053 273.447306 
L 170.059427 277.809319 
L 169.830265 282.181992 
L 169.753846 286.56 
L 169.830265 290.938008 
L 170.059427 295.310681 
L 170.441053 299.672694 
L 170.974679 304.01873 
L 171.659655 308.343496 
L 172.495146 312.641722 
L 173.480133 316.908171 
L 174.613417 321.137646 
L 175.893618 325.324993 
L 177.319175 329.465112 
L 178.888352 333.552956 
L 180.599236 337.583548 
L 182.449744 341.551974 
L 184.43762 345.453402 
L 186.560444 349.283077 
L 188.815628 353.036334 
L 191.200425 356.708599 
L 193.71193 360.295399 
L 196.347082 363.792364 
L 199.102671 367.195233 
L 201.97534 370.499861 
L 204.961589 373.702221 
L 208.057779 376.798411 
L 211.260139 379.78466 
L 214.564767 382.657329 
L 217.967636 385.412918 
L 221.464601 388.04807 
L 225.051401 390.559575 
L 228.723666 392.944372 
L 232.476923 395.199556 
L 236.306598 397.32238 
L 240.208026 399.310256 
L 244.176452 401.160764 
L 248.207044 402.871648 
L 252.294888 404.440825 
L 256.435007 405.866382 
L 260.622354 407.146583 
L 264.851829 408.279867 
L 269.118278 409.264854 
L 273.416504 410.100345 
L 277.74127 410.785321 
L 282.087306 411.318947 
L 286.449319 411.700573 
L 290.821992 411.929735 
L 295.2 412.006154 
L 299.578008 411.929735 
L 303.950681 411.700573 
L 308.312694 411.318947 
L 312.65873 410.785321 
L 316.983496 410.100345 
L 321.281722 409.264854 
L 325.548171 408.279867 
L 329.777646 407.146583 
L 333.964993 405.866382 
L 338.105112 404.440825 
L 342.192956 402.871648 
L 346.223548 401.160764 
L 350.191974 399.310256 
L 354.093402 397.32238 
L 357.923077 395.199556 
L 361.676334 392.944372 
L 365.348599 390.559575 
L 368.935399 388.04807 
L 372.432364 385.412918 
L 375.835233 382.657329 
L 379.139861 379.78466 
L 382.342221 376.798411 
L 385.438411 373.702221 
L 388.42466 370.499861 
L 391.297329 367.195233 
L 394.052918 363.792364 
L 396.68807 360.295399 
L 399.199575 356.708599 
L 401.584372 353.036334 
L 403.839556 349.283077 
L 405.96238 345.453402 
L 407.950256 341.551974 
L 409.800764 337.583548 
L 411.511648 333.552956 
L 413.080825 329.465112 
L 414.506382 325.324993 
L 415.786583 321.137646 
L 416.919867 316.908171 
L 417.904854 312.641722 
L 418.740345 308.343496 
L 419.425321 304.01873 
L 419.958947 299.672694 
L 420.340573 295.310681 
L 420.569735 290.938008 
L 420.646154 286.56 
L 420.646154 286.56 
" style="fill:none;stroke:#ffffff;stroke-linecap:round;"/>
     </g>
     <g id="text_11">
      <!-- 3 -->
      <g style="fill:#262626;" transform="translate(411.097134 236.367585)scale(0.11 -0.11)">
       <use xlink:href="#ArialMT-51"/>
      </g>
     </g>
    </g>
    <g id="ytick_4">
     <g id="line2d_12">
      <path clip-path="url(#p956d9364a7)" d="M 462.461538 286.56 
L 462.359647 280.722656 
L 462.054098 274.892425 
L 461.545262 269.076408 
L 460.833761 263.281693 
L 459.92046 257.515339 
L 458.806473 251.784371 
L 457.493156 246.095772 
L 455.98211 240.456472 
L 454.275176 234.873342 
L 452.374433 229.353185 
L 450.282198 223.902725 
L 448.001019 218.528603 
L 445.533675 213.237368 
L 442.883173 208.035464 
L 440.052741 202.929231 
L 437.045829 197.924889 
L 433.8661 193.028535 
L 430.517427 188.246134 
L 427.003891 183.583514 
L 423.329772 179.046355 
L 419.499547 174.640185 
L 415.517882 170.370372 
L 411.389628 166.242118 
L 407.119815 162.260453 
L 402.713645 158.430228 
L 398.176486 154.756109 
L 393.513866 151.242573 
L 388.731465 147.8939 
L 383.835111 144.714171 
L 378.830769 141.707259 
L 373.724536 138.876827 
L 368.522632 136.226325 
L 363.231397 133.758981 
L 357.857275 131.477802 
L 352.406815 129.385567 
L 346.886658 127.484824 
L 341.303528 125.77789 
L 335.664228 124.266844 
L 329.975629 122.953527 
L 324.244661 121.83954 
L 318.478307 120.926239 
L 312.683592 120.214738 
L 306.867575 119.705902 
L 301.037344 119.400353 
L 295.2 119.298462 
L 289.362656 119.400353 
L 283.532425 119.705902 
L 277.716408 120.214738 
L 271.921693 120.926239 
L 266.155339 121.83954 
L 260.424371 122.953527 
L 254.735772 124.266844 
L 249.096472 125.77789 
L 243.513342 127.484824 
L 237.993185 129.385567 
L 232.542725 131.477802 
L 227.168603 133.758981 
L 221.877368 136.226325 
L 216.675464 138.876827 
L 211.569231 141.707259 
L 206.564889 144.714171 
L 201.668535 147.8939 
L 196.886134 151.242573 
L 192.223514 154.756109 
L 187.686355 158.430228 
L 183.280185 162.260453 
L 179.010372 166.242118 
L 174.882118 170.370372 
L 170.900453 174.640185 
L 167.070228 179.046355 
L 163.396109 183.583514 
L 159.882573 188.246134 
L 156.5339 193.028535 
L 153.354171 197.924889 
L 150.347259 202.929231 
L 147.516827 208.035464 
L 144.866325 213.237368 
L 142.398981 218.528603 
L 140.117802 223.902725 
L 138.025567 229.353185 
L 136.124824 234.873342 
L 134.41789 240.456472 
L 132.906844 246.095772 
L 131.593527 251.784371 
L 130.47954 257.515339 
L 129.566239 263.281693 
L 128.854738 269.076408 
L 128.345902 274.892425 
L 128.040353 280.722656 
L 127.938462 286.56 
L 128.040353 292.397344 
L 128.345902 298.227575 
L 128.854738 304.043592 
L 129.566239 309.838307 
L 130.47954 315.604661 
L 131.593527 321.335629 
L 132.906844 327.024228 
L 134.41789 332.663528 
L 136.124824 338.246658 
L 138.025567 343.766815 
L 140.117802 349.217275 
L 142.398981 354.591397 
L 144.866325 359.882632 
L 147.516827 365.084536 
L 150.347259 370.190769 
L 153.354171 375.195111 
L 156.5339 380.091465 
L 159.882573 384.873866 
L 163.396109 389.536486 
L 167.070228 394.073645 
L 170.900453 398.479815 
L 174.882118 402.749628 
L 179.010372 406.877882 
L 183.280185 410.859547 
L 187.686355 414.689772 
L 192.223514 418.363891 
L 196.886134 421.877427 
L 201.668535 425.2261 
L 206.564889 428.405829 
L 211.569231 431.412741 
L 216.675464 434.243173 
L 221.877368 436.893675 
L 227.168603 439.361019 
L 232.542725 441.642198 
L 237.993185 443.734433 
L 243.513342 445.635176 
L 249.096472 447.34211 
L 254.735772 448.853156 
L 260.424371 450.166473 
L 266.155339 451.28046 
L 271.921693 452.193761 
L 277.716408 452.905262 
L 283.532425 453.414098 
L 289.362656 453.719647 
L 295.2 453.821538 
L 301.037344 453.719647 
L 306.867575 453.414098 
L 312.683592 452.905262 
L 318.478307 452.193761 
L 324.244661 451.28046 
L 329.975629 450.166473 
L 335.664228 448.853156 
L 341.303528 447.34211 
L 346.886658 445.635176 
L 352.406815 443.734433 
L 357.857275 441.642198 
L 363.231397 439.361019 
L 368.522632 436.893675 
L 373.724536 434.243173 
L 378.830769 431.412741 
L 383.835111 428.405829 
L 388.731465 425.2261 
L 393.513866 421.877427 
L 398.176486 418.363891 
L 402.713645 414.689772 
L 407.119815 410.859547 
L 411.389628 406.877882 
L 415.517882 402.749628 
L 419.499547 398.479815 
L 423.329772 394.073645 
L 427.003891 389.536486 
L 430.517427 384.873866 
L 433.8661 380.091465 
L 437.045829 375.195111 
L 440.052741 370.190769 
L 442.883173 365.084536 
L 445.533675 359.882632 
L 448.001019 354.591397 
L 450.282198 349.217275 
L 452.374433 343.766815 
L 454.275176 338.246658 
L 455.98211 332.663528 
L 457.493156 327.024228 
L 458.806473 321.335629 
L 459.92046 315.604661 
L 460.833761 309.838307 
L 461.545262 304.043592 
L 462.054098 298.227575 
L 462.359647 292.397344 
L 462.461538 286.56 
L 462.461538 286.56 
" style="fill:none;stroke:#ffffff;stroke-linecap:round;"/>
     </g>
     <g id="text_12">
      <!-- 4 -->
      <g style="fill:#262626;" transform="translate(449.729512 220.36553)scale(0.11 -0.11)">
       <use xlink:href="#ArialMT-52"/>
      </g>
     </g>
    </g>
    <g id="ytick_5">
     <g id="line2d_13">
      <path clip-path="url(#p956d9364a7)" d="M 504.276923 286.56 
L 504.149559 279.263321 
L 503.767622 271.975531 
L 503.131578 264.705511 
L 502.242201 257.462116 
L 501.100575 250.254173 
L 499.708091 243.090463 
L 498.066445 235.979714 
L 496.177638 228.93059 
L 494.04397 221.951678 
L 491.668042 215.051481 
L 489.052747 208.238406 
L 486.201273 201.520754 
L 483.117094 194.906709 
L 479.803966 188.40433 
L 476.265927 182.021538 
L 472.507287 175.766111 
L 468.532625 169.645668 
L 464.346784 163.667668 
L 459.954864 157.839393 
L 455.362215 152.167944 
L 450.574434 146.660232 
L 445.597352 141.322965 
L 440.437035 136.162648 
L 435.099768 131.185566 
L 429.592056 126.397785 
L 423.920607 121.805136 
L 418.092332 117.413216 
L 412.114332 113.227375 
L 405.993889 109.252713 
L 399.738462 105.494073 
L 393.35567 101.956034 
L 386.853291 98.642906 
L 380.239246 95.558727 
L 373.521594 92.707253 
L 366.708519 90.091958 
L 359.808322 87.71603 
L 352.82941 85.582362 
L 345.780286 83.693555 
L 338.669537 82.051909 
L 331.505827 80.659425 
L 324.297884 79.517799 
L 317.054489 78.628422 
L 309.784469 77.992378 
L 302.496679 77.610441 
L 295.2 77.483077 
L 287.903321 77.610441 
L 280.615531 77.992378 
L 273.345511 78.628422 
L 266.102116 79.517799 
L 258.894173 80.659425 
L 251.730463 82.051909 
L 244.619714 83.693555 
L 237.57059 85.582362 
L 230.591678 87.71603 
L 223.691481 90.091958 
L 216.878406 92.707253 
L 210.160754 95.558727 
L 203.546709 98.642906 
L 197.04433 101.956034 
L 190.661538 105.494073 
L 184.406111 109.252713 
L 178.285668 113.227375 
L 172.307668 117.413216 
L 166.479393 121.805136 
L 160.807944 126.397785 
L 155.300232 131.185566 
L 149.962965 136.162648 
L 144.802648 141.322965 
L 139.825566 146.660232 
L 135.037785 152.167944 
L 130.445136 157.839393 
L 126.053216 163.667668 
L 121.867375 169.645668 
L 117.892713 175.766111 
L 114.134073 182.021538 
L 110.596034 188.40433 
L 107.282906 194.906709 
L 104.198727 201.520754 
L 101.347253 208.238406 
L 98.731958 215.051481 
L 96.35603 221.951678 
L 94.222362 228.93059 
L 92.333555 235.979714 
L 90.691909 243.090463 
L 89.299425 250.254173 
L 88.157799 257.462116 
L 87.268422 264.705511 
L 86.632378 271.975531 
L 86.250441 279.263321 
L 86.123077 286.56 
L 86.250441 293.856679 
L 86.632378 301.144469 
L 87.268422 308.414489 
L 88.157799 315.657884 
L 89.299425 322.865827 
L 90.691909 330.029537 
L 92.333555 337.140286 
L 94.222362 344.18941 
L 96.35603 351.168322 
L 98.731958 358.068519 
L 101.347253 364.881594 
L 104.198727 371.599246 
L 107.282906 378.213291 
L 110.596034 384.71567 
L 114.134073 391.098462 
L 117.892713 397.353889 
L 121.867375 403.474332 
L 126.053216 409.452332 
L 130.445136 415.280607 
L 135.037785 420.952056 
L 139.825566 426.459768 
L 144.802648 431.797035 
L 149.962965 436.957352 
L 155.300232 441.934434 
L 160.807944 446.722215 
L 166.479393 451.314864 
L 172.307668 455.706784 
L 178.285668 459.892625 
L 184.406111 463.867287 
L 190.661538 467.625927 
L 197.04433 471.163966 
L 203.546709 474.477094 
L 210.160754 477.561273 
L 216.878406 480.412747 
L 223.691481 483.028042 
L 230.591678 485.40397 
L 237.57059 487.537638 
L 244.619714 489.426445 
L 251.730463 491.068091 
L 258.894173 492.460575 
L 266.102116 493.602201 
L 273.345511 494.491578 
L 280.615531 495.127622 
L 287.903321 495.509559 
L 295.2 495.636923 
L 302.496679 495.509559 
L 309.784469 495.127622 
L 317.054489 494.491578 
L 324.297884 493.602201 
L 331.505827 492.460575 
L 338.669537 491.068091 
L 345.780286 489.426445 
L 352.82941 487.537638 
L 359.808322 485.40397 
L 366.708519 483.028042 
L 373.521594 480.412747 
L 380.239246 477.561273 
L 386.853291 474.477094 
L 393.35567 471.163966 
L 399.738462 467.625927 
L 405.993889 463.867287 
L 412.114332 459.892625 
L 418.092332 455.706784 
L 423.920607 451.314864 
L 429.592056 446.722215 
L 435.099768 441.934434 
L 440.437035 436.957352 
L 445.597352 431.797035 
L 450.574434 426.459768 
L 455.362215 420.952056 
L 459.954864 415.280607 
L 464.346784 409.452332 
L 468.532625 403.474332 
L 472.507287 397.353889 
L 476.265927 391.098462 
L 479.803966 384.71567 
L 483.117094 378.213291 
L 486.201273 371.599246 
L 489.052747 364.881594 
L 491.668042 358.068519 
L 494.04397 351.168322 
L 496.177638 344.18941 
L 498.066445 337.140286 
L 499.708091 330.029537 
L 501.100575 322.865827 
L 502.242201 315.657884 
L 503.131578 308.414489 
L 503.767622 301.144469 
L 504.149559 293.856679 
L 504.276923 286.56 
L 504.276923 286.56 
" style="fill:none;stroke:#ffffff;stroke-linecap:round;"/>
     </g>
     <g id="text_13">
      <!-- 5 -->
      <g style="fill:#262626;" transform="translate(488.36189 204.363475)scale(0.11 -0.11)">
       <use xlink:href="#ArialMT-53"/>
      </g>
     </g>
    </g>
   </g>
   <g id="line2d_14">
    <defs>
     <path d="M 0 3 
C 0.795609 3 1.55874 2.683901 2.12132 2.12132 
C 2.683901 1.55874 3 0.795609 3 0 
C 3 -0.795609 2.683901 -1.55874 2.12132 -2.12132 
C 1.55874 -2.683901 0.795609 -3 0 -3 
C -0.795609 -3 -1.55874 -2.683901 -2.12132 -2.12132 
C -2.683901 -1.55874 -3 -0.795609 -3 0 
C -3 0.795609 -2.683901 1.55874 -2.12132 2.12132 
C -1.55874 2.683901 -0.795609 3 0 3 
z
" id="mebcdb9b2be" style="stroke:#4c72b0;"/>
    </defs>
    <g clip-path="url(#p956d9364a7)">
     <use style="fill:#4c72b0;stroke:#4c72b0;" x="504.276923" xlink:href="#mebcdb9b2be" y="286.56"/>
     <use style="fill:#4c72b0;stroke:#4c72b0;" x="127.938462" xlink:href="#mebcdb9b2be" y="286.56"/>
     <use style="fill:#4c72b0;stroke:#4c72b0;" x="357.923077" xlink:href="#mebcdb9b2be" y="395.199556"/>
     <use style="fill:#4c72b0;stroke:#4c72b0;" x="367.626371" xlink:href="#mebcdb9b2be" y="244.744615"/>
    </g>
   </g>
   <g id="line2d_15">
    <defs>
     <path d="M -3 3 
L 3 -3 
M -3 -3 
L 3 3 
" id="mfe7edb60ba" style="stroke:#c44e52;"/>
    </defs>
    <g clip-path="url(#p956d9364a7)">
     <use style="fill:#c44e52;stroke:#c44e52;" x="326.274887" xlink:href="#mfe7edb60ba" y="314.539954"/>
    </g>
   </g>
   <g id="patch_3">
    <path d="M 512.64 286.56 
C 512.64 258.006041 507.015493 229.729733 496.088366 203.349314 
C 485.161238 176.968896 469.143997 152.9974 448.953299 132.806701 
C 428.7626 112.616003 404.791104 96.598762 378.410686 85.671634 
C 352.030267 74.744507 323.753959 69.12 295.2 69.12 
C 266.646041 69.12 238.369733 74.744507 211.989314 85.671634 
C 185.608896 96.598762 161.6374 112.616003 141.446701 132.806701 
C 121.256003 152.9974 105.238762 176.968896 94.311634 203.349314 
C 83.384507 229.729733 77.76 258.006041 77.76 286.56 
C 77.76 315.113959 83.384507 343.390267 94.311634 369.770686 
C 105.238762 396.151104 121.256003 420.1226 141.446701 440.313299 
C 161.6374 460.503997 185.608896 476.521238 211.989314 487.448366 
C 238.369733 498.375493 266.646041 504 295.2 504 
C 323.753959 504 352.030267 498.375493 378.410686 487.448366 
C 404.791104 476.521238 428.7626 460.503997 448.953299 440.313299 
C 469.143997 420.1226 485.161238 396.151104 496.088366 369.770686 
C 507.015493 343.390267 512.64 315.113959 512.64 286.56 
" style="fill:none;stroke:#ffffff;stroke-linecap:square;stroke-linejoin:miter;stroke-width:1.25;"/>
   </g>
   <g id="legend_1">
    <g id="patch_4">
     <path d="M 418.378594 109.039688 
L 504.94 109.039688 
Q 507.14 109.039688 507.14 106.839688 
L 507.14 76.82 
Q 507.14 74.62 504.94 74.62 
L 418.378594 74.62 
Q 416.178594 74.62 416.178594 76.82 
L 416.178594 106.839688 
Q 416.178594 109.039688 418.378594 109.039688 
z
" style="fill:#eaeaf2;opacity:0.8;stroke:#cccccc;stroke-linejoin:miter;"/>
    </g>
    <g id="line2d_16"/>
    <g id="line2d_17">
     <g>
      <use style="fill:#4c72b0;stroke:#4c72b0;" x="431.578594" xlink:href="#mebcdb9b2be" y="83.043594"/>
     </g>
    </g>
    <g id="text_14">
     <!-- Seeds -->
     <defs>
      <path d="M 4.5 23 
L 13.421875 23.78125 
Q 14.0625 18.40625 16.375 14.96875 
Q 18.703125 11.53125 23.578125 9.40625 
Q 28.46875 7.28125 34.578125 7.28125 
Q 39.984375 7.28125 44.140625 8.890625 
Q 48.296875 10.5 50.3125 13.296875 
Q 52.34375 16.109375 52.34375 19.4375 
Q 52.34375 22.796875 50.390625 25.3125 
Q 48.4375 27.828125 43.953125 29.546875 
Q 41.0625 30.671875 31.203125 33.03125 
Q 21.34375 35.40625 17.390625 37.5 
Q 12.25 40.1875 9.734375 44.15625 
Q 7.234375 48.140625 7.234375 53.078125 
Q 7.234375 58.5 10.296875 63.203125 
Q 13.375 67.921875 19.28125 70.359375 
Q 25.203125 72.796875 32.421875 72.796875 
Q 40.375 72.796875 46.453125 70.234375 
Q 52.546875 67.671875 55.8125 62.6875 
Q 59.078125 57.71875 59.328125 51.421875 
L 50.25 50.734375 
Q 49.515625 57.515625 45.28125 60.984375 
Q 41.0625 64.453125 32.8125 64.453125 
Q 24.21875 64.453125 20.28125 61.296875 
Q 16.359375 58.15625 16.359375 53.71875 
Q 16.359375 49.859375 19.140625 47.359375 
Q 21.875 44.875 33.421875 42.265625 
Q 44.96875 39.65625 49.265625 37.703125 
Q 55.515625 34.8125 58.484375 30.390625 
Q 61.46875 25.984375 61.46875 20.21875 
Q 61.46875 14.5 58.203125 9.4375 
Q 54.9375 4.390625 48.796875 1.578125 
Q 42.671875 -1.21875 35.015625 -1.21875 
Q 25.296875 -1.21875 18.71875 1.609375 
Q 12.15625 4.4375 8.421875 10.125 
Q 4.6875 15.828125 4.5 23 
z
" id="ArialMT-83"/>
      <path d="M 42.09375 16.703125 
L 51.171875 15.578125 
Q 49.03125 7.625 43.21875 3.21875 
Q 37.40625 -1.171875 28.375 -1.171875 
Q 17 -1.171875 10.328125 5.828125 
Q 3.65625 12.84375 3.65625 25.484375 
Q 3.65625 38.578125 10.390625 45.796875 
Q 17.140625 53.03125 27.875 53.03125 
Q 38.28125 53.03125 44.875 45.953125 
Q 51.46875 38.875 51.46875 26.03125 
Q 51.46875 25.25 51.421875 23.6875 
L 12.75 23.6875 
Q 13.234375 15.140625 17.578125 10.59375 
Q 21.921875 6.0625 28.421875 6.0625 
Q 33.25 6.0625 36.671875 8.59375 
Q 40.09375 11.140625 42.09375 16.703125 
z
M 13.234375 30.90625 
L 42.1875 30.90625 
Q 41.609375 37.453125 38.875 40.71875 
Q 34.671875 45.796875 27.984375 45.796875 
Q 21.921875 45.796875 17.796875 41.75 
Q 13.671875 37.703125 13.234375 30.90625 
z
" id="ArialMT-101"/>
      <path d="M 40.234375 0 
L 40.234375 6.546875 
Q 35.296875 -1.171875 25.734375 -1.171875 
Q 19.53125 -1.171875 14.328125 2.25 
Q 9.125 5.671875 6.265625 11.796875 
Q 3.421875 17.921875 3.421875 25.875 
Q 3.421875 33.640625 6 39.96875 
Q 8.59375 46.296875 13.765625 49.65625 
Q 18.953125 53.03125 25.34375 53.03125 
Q 30.03125 53.03125 33.6875 51.046875 
Q 37.359375 49.078125 39.65625 45.90625 
L 39.65625 71.578125 
L 48.390625 71.578125 
L 48.390625 0 
z
M 12.453125 25.875 
Q 12.453125 15.921875 16.640625 10.984375 
Q 20.84375 6.0625 26.5625 6.0625 
Q 32.328125 6.0625 36.34375 10.765625 
Q 40.375 15.484375 40.375 25.140625 
Q 40.375 35.796875 36.265625 40.765625 
Q 32.171875 45.75 26.171875 45.75 
Q 20.3125 45.75 16.375 40.96875 
Q 12.453125 36.1875 12.453125 25.875 
z
" id="ArialMT-100"/>
      <path d="M 3.078125 15.484375 
L 11.765625 16.84375 
Q 12.5 11.625 15.84375 8.84375 
Q 19.1875 6.0625 25.203125 6.0625 
Q 31.25 6.0625 34.171875 8.515625 
Q 37.109375 10.984375 37.109375 14.3125 
Q 37.109375 17.28125 34.515625 19 
Q 32.71875 20.171875 25.53125 21.96875 
Q 15.875 24.421875 12.140625 26.203125 
Q 8.40625 27.984375 6.46875 31.125 
Q 4.546875 34.28125 4.546875 38.09375 
Q 4.546875 41.546875 6.125 44.5 
Q 7.71875 47.46875 10.453125 49.421875 
Q 12.5 50.921875 16.03125 51.96875 
Q 19.578125 53.03125 23.640625 53.03125 
Q 29.734375 53.03125 34.34375 51.265625 
Q 38.96875 49.515625 41.15625 46.5 
Q 43.359375 43.5 44.1875 38.484375 
L 35.59375 37.3125 
Q 35.015625 41.3125 32.203125 43.546875 
Q 29.390625 45.796875 24.265625 45.796875 
Q 18.21875 45.796875 15.625 43.796875 
Q 13.03125 41.796875 13.03125 39.109375 
Q 13.03125 37.40625 14.109375 36.03125 
Q 15.1875 34.625 17.484375 33.6875 
Q 18.796875 33.203125 25.25 31.453125 
Q 34.578125 28.953125 38.25 27.359375 
Q 41.9375 25.78125 44.03125 22.75 
Q 46.140625 19.734375 46.140625 15.234375 
Q 46.140625 10.84375 43.578125 6.953125 
Q 41.015625 3.078125 36.171875 0.953125 
Q 31.34375 -1.171875 25.25 -1.171875 
Q 15.140625 -1.171875 9.84375 3.03125 
Q 4.546875 7.234375 3.078125 15.484375 
z
" id="ArialMT-115"/>
     </defs>
     <g style="fill:#262626;" transform="translate(451.378594 86.893594)scale(0.11 -0.11)">
      <use xlink:href="#ArialMT-83"/>
      <use x="66.699219" xlink:href="#ArialMT-101"/>
      <use x="122.314453" xlink:href="#ArialMT-101"/>
      <use x="177.929688" xlink:href="#ArialMT-100"/>
      <use x="233.544922" xlink:href="#ArialMT-115"/>
     </g>
    </g>
    <g id="line2d_18"/>
    <g id="line2d_19">
     <g>
      <use style="fill:#c44e52;stroke:#c44e52;" x="431.578594" xlink:href="#mfe7edb60ba" y="98.603438"/>
     </g>
    </g>
    <g id="text_15">
     <!-- Next Seed -->
     <defs>
      <path d="M 7.625 0 
L 7.625 71.578125 
L 17.328125 71.578125 
L 54.9375 15.375 
L 54.9375 71.578125 
L 64.015625 71.578125 
L 64.015625 0 
L 54.296875 0 
L 16.703125 56.25 
L 16.703125 0 
z
" id="ArialMT-78"/>
      <path d="M 0.734375 0 
L 19.671875 26.953125 
L 2.15625 51.859375 
L 13.140625 51.859375 
L 21.09375 39.703125 
Q 23.34375 36.234375 24.703125 33.890625 
Q 26.859375 37.109375 28.65625 39.59375 
L 37.40625 51.859375 
L 47.90625 51.859375 
L 29.984375 27.4375 
L 49.265625 0 
L 38.484375 0 
L 27.828125 16.109375 
L 25 20.453125 
L 11.375 0 
z
" id="ArialMT-120"/>
      <path d="M 25.78125 7.859375 
L 27.046875 0.09375 
Q 23.34375 -0.6875 20.40625 -0.6875 
Q 15.625 -0.6875 12.984375 0.828125 
Q 10.359375 2.34375 9.28125 4.8125 
Q 8.203125 7.28125 8.203125 15.1875 
L 8.203125 45.015625 
L 1.765625 45.015625 
L 1.765625 51.859375 
L 8.203125 51.859375 
L 8.203125 64.703125 
L 16.9375 69.96875 
L 16.9375 51.859375 
L 25.78125 51.859375 
L 25.78125 45.015625 
L 16.9375 45.015625 
L 16.9375 14.703125 
Q 16.9375 10.9375 17.40625 9.859375 
Q 17.875 8.796875 18.921875 8.15625 
Q 19.96875 7.515625 21.921875 7.515625 
Q 23.390625 7.515625 25.78125 7.859375 
z
" id="ArialMT-116"/>
      <path id="ArialMT-32"/>
     </defs>
     <g style="fill:#262626;" transform="translate(451.378594 102.453438)scale(0.11 -0.11)">
      <use xlink:href="#ArialMT-78"/>
      <use x="72.216797" xlink:href="#ArialMT-101"/>
      <use x="127.832031" xlink:href="#ArialMT-120"/>
      <use x="177.832031" xlink:href="#ArialMT-116"/>
      <use x="205.615234" xlink:href="#ArialMT-32"/>
      <use x="233.398438" xlink:href="#ArialMT-83"/>
      <use x="300.097656" xlink:href="#ArialMT-101"/>
      <use x="355.712891" xlink:href="#ArialMT-101"/>
      <use x="411.328125" xlink:href="#ArialMT-100"/>
     </g>
    </g>
   </g>
  </g>
 </g>
 <defs>
  <clipPath id="p956d9364a7">
   <path d="M 512.64 286.56 
C 512.64 258.006041 507.015493 229.729733 496.088366 203.349314 
C 485.161238 176.968896 469.143997 152.9974 448.953299 132.806701 
C 428.7626 112.616003 404.791104 96.598762 378.410686 85.671634 
C 352.030267 74.744507 323.753959 69.12 295.2 69.12 
C 266.646041 69.12 238.369733 74.744507 211.989314 85.671634 
C 185.608896 96.598762 161.6374 112.616003 141.446701 132.806701 
C 121.256003 152.9974 105.238762 176.968896 94.311634 203.349314 
C 83.384507 229.729733 77.76 258.006041 77.76 286.56 
C 77.76 315.113959 83.384507 343.390267 94.311634 369.770686 
C 105.238762 396.151104 121.256003 420.1226 141.446701 440.313299 
C 161.6374 460.503997 185.608896 476.521238 211.989314 487.448366 
C 238.369733 498.375493 266.646041 504 295.2 504 
C 323.753959 504 352.030267 498.375493 378.410686 487.448366 
C 404.791104 476.521238 428.7626 460.503997 448.953299 440.313299 
C 469.143997 420.1226 485.161238 396.151104 496.088366 369.770686 
C 507.015493 343.390267 512.64 315.113959 512.64 286.56 
M 295.2 286.56 
C 295.2 286.56 295.2 286.56 295.2 286.56 
C 295.2 286.56 295.2 286.56 295.2 286.56 
C 295.2 286.56 295.2 286.56 295.2 286.56 
C 295.2 286.56 295.2 286.56 295.2 286.56 
C 295.2 286.56 295.2 286.56 295.2 286.56 
C 295.2 286.56 295.2 286.56 295.2 286.56 
C 295.2 286.56 295.2 286.56 295.2 286.56 
C 295.2 286.56 295.2 286.56 295.2 286.56 
C 295.2 286.56 295.2 286.56 295.2 286.56 
C 295.2 286.56 295.2 286.56 295.2 286.56 
C 295.2 286.56 295.2 286.56 295.2 286.56 
C 295.2 286.56 295.2 286.56 295.2 286.56 
C 295.2 286.56 295.2 286.56 295.2 286.56 
C 295.2 286.56 295.2 286.56 295.2 286.56 
C 295.2 286.56 295.2 286.56 295.2 286.56 
C 295.2 286.56 295.2 286.56 295.2 286.56 
M 512.64 286.56 
z
"/>
  </clipPath>
 </defs>
</svg>
